<svg xmlns="http://www.w3.org/2000/svg" xmlns:xlink="http://www.w3.org/1999/xlink" viewBox="0 0 476.38 432.72"><defs><clipPath id="clip-path"><path d="M172.22,366.18l-10.83,6.26a3.24,3.24,0,0,1-2.94,0l-13.23-7.54a.89.89,0,0,1,0-1.69L156.06,357a3.24,3.24,0,0,1,2.94,0c3.58,2.07,9.64,5.46,13.22,7.54A.89.89,0,0,1,172.22,366.18Z" style="fill:#27debf"/></clipPath></defs><g id="Layer_2" data-name="Layer 2"><g id="Character"><ellipse id="Floor" cx="238.19" cy="295.2" rx="238.19" ry="137.52" style="fill:#f5f5f5"/><path id="Shadow" d="M409.9,319.61a1.35,1.35,0,0,0-.15-.26,2,2,0,0,0-.14-.16.9.9,0,0,0-.15-.19l-.18-.17a4.21,4.21,0,0,0-.64-.45L186,189.82a8,8,0,0,0-7.19,0L62.89,256.54a3.37,3.37,0,0,0-.42.27s-.11.07-.15.11a2.88,2.88,0,0,0-.6.68,1,1,0,0,0-.1.17,1.31,1.31,0,0,0-.12.28,2.25,2.25,0,0,0,0,.22,1.47,1.47,0,0,0,0,.36,2,2,0,0,0,0,.25,2.29,2.29,0,0,0,.07.28,1.69,1.69,0,0,0,.12.27,3.17,3.17,0,0,0,1.27,1.25l222.7,128.55a6.7,6.7,0,0,0,2.13.73,10,10,0,0,0,1.46.12,9.87,9.87,0,0,0,1.44-.11,3.12,3.12,0,0,0,.46-.09,6.62,6.62,0,0,0,1.3-.44c.14-.06.26-.14.39-.21l115.87-66.71C410,321.73,410.42,320.61,409.9,319.61Z" style="fill:#e0e0e0"/><ellipse id="Shadow-2" data-name="Shadow" cx="395.69" cy="256.6" rx="49.53" ry="28.6" style="fill:#e0e0e0"/><path id="Shadow-3" data-name="Shadow" d="M135.18,404.73a11.65,11.65,0,0,1-5.76-1.43L30.22,346l-.09-.07A5.76,5.76,0,0,1,27.08,341a5.91,5.91,0,0,1,3.24-5l65.44-37.78a12.47,12.47,0,0,1,11.52,0l99.12,57.22a5.9,5.9,0,0,1,3.24,5,5.71,5.71,0,0,1-2.89,4.81,2.7,2.7,0,0,1-.4.25l-49.52,28.58L141,403.31a11.68,11.68,0,0,1-5.76,1.42Z" style="fill:#e0e0e0"/><g id="Mobile"><path d="M400.24,304.87a1.22,1.22,0,0,0-.16-.26,1.83,1.83,0,0,0-.13-.16,1.35,1.35,0,0,0-.16-.19l-.17-.16a3.73,3.73,0,0,0-.65-.46L182.35,178.57a8,8,0,0,0-7.18,0L69,239.88l-.43.27-.14.12a2.64,2.64,0,0,0-.6.67.67.67,0,0,0-.11.18,1.08,1.08,0,0,0-.11.28,1.42,1.42,0,0,0,0,.22,1.47,1.47,0,0,0,0,.36,2.11,2.11,0,0,0,0,.25,2.86,2.86,0,0,0,.07.28,2.18,2.18,0,0,0,.11.27A3.13,3.13,0,0,0,69,244L285.59,369.1a6.45,6.45,0,0,0,2.13.72,8.81,8.81,0,0,0,1.46.13,8.66,8.66,0,0,0,1.44-.12,3.12,3.12,0,0,0,.46-.09,6,6,0,0,0,1.3-.44c.14-.06.26-.13.39-.2L399,307.78C400.33,307,400.76,305.87,400.24,304.87Zm-23.33-4.44-6.8,3.93-90.48,52.2a5.49,5.49,0,0,1-.73.36,6.07,6.07,0,0,1-4.66,0,5.49,5.49,0,0,1-.73-.36L101.7,257.37l-8.31-4.8a2.94,2.94,0,0,1-.78-.61c-.86-.94-.59-2.15.78-2.94l97.24-56.14a6.12,6.12,0,0,1,3.77-1,3.47,3.47,0,0,1,.93.25,3,3,0,0,1,.48.23l181.1,104.56A2.06,2.06,0,0,1,376.91,300.43Z" style="fill:#455a64"/><path d="M68.54,240.16a8,8,0,0,0-3.18,6v4.74A7.93,7.93,0,0,0,69,257.08L285.56,382.14a6.81,6.81,0,0,0,2.64.81c.32,0,.63.05,1,.06h0V370h0a11.65,11.65,0,0,1-1.46-.12,6.61,6.61,0,0,1-2.14-.74L69,244C67.13,243,67,241.3,68.54,240.16Z" style="fill:#37474f"/><path d="M342.87,330.34a14.45,14.45,0,0,0-12.82,0,5.17,5.17,0,0,0-1.92,1.75c-1.15,2,.95,3.5,1.92,4.06a14.45,14.45,0,0,0,12.82,0,5.3,5.3,0,0,0,1.91-1.75C345.94,332.4,343.82,330.9,342.87,330.34Z" style="fill:#763cac"/><path d="M130.75,214.85a1.07,1.07,0,0,0,0-2,3.88,3.88,0,0,0-3.51,0,1.07,1.07,0,0,0,0,2A3.88,3.88,0,0,0,130.75,214.85Z" style="fill:#263238"/><path d="M125.23,224.45a1,1,0,0,0,0-1.8,3.41,3.41,0,0,0-3.11,0,1,1,0,0,0,0,1.8A3.41,3.41,0,0,0,125.23,224.45Z" style="fill:#263238"/><path d="M130.51,221.48,148,211.41c1-.55,1-1.42.1-1.94a3.7,3.7,0,0,0-3.35.07L127.26,219.6c-1,.56-1,1.42-.1,1.94A3.7,3.7,0,0,0,130.51,221.48Z" style="fill:#263238"/><path d="M399.45,304c1.48,1.16,1.32,2.79-.48,3.83L292.76,369.1a7.22,7.22,0,0,1-3.59.85V383a7.29,7.29,0,0,0,3.58-.86L399,320.83a7.91,7.91,0,0,0,3.59-6.22l0-4.76A8.07,8.07,0,0,0,399.45,304Z" style="fill:#263238"/><path d="M119.62,276.94a4,4,0,0,1,1.86,3.08,1.15,1.15,0,0,1-.52,1.08c-.22.13-1.06.63-1.3.76a1.37,1.37,0,0,1-1.34-.15L94.17,267.76a4,4,0,0,1-1.85-3.08,1.2,1.2,0,0,1,.47-1.06l1.34-.78a1.37,1.37,0,0,1,1.34.15Z" style="fill:#455a64"/><path d="M118.32,277.68,94.17,263.74c-1-.59-1.85-.17-1.85.94a4,4,0,0,0,1.85,3.08l24.15,13.95c1,.59,1.86.17,1.86-.94A4,4,0,0,0,118.32,277.68Z" style="fill:#263238"/><path d="M87.29,258.27a4,4,0,0,1,1.86,3.08,1.18,1.18,0,0,1-.51,1.09c-.23.12-1.07.63-1.3.75A1.34,1.34,0,0,1,86,263l-11.39-6.57a4,4,0,0,1-1.85-3.08,1.15,1.15,0,0,1,.47-1.06c.22-.15,1.1-.65,1.33-.78a1.36,1.36,0,0,1,1.35.15Z" style="fill:#455a64"/><path d="M86,259l-11.39-6.57c-1-.59-1.85-.17-1.85.94a4,4,0,0,0,1.85,3.08L86,263c1,.59,1.85.17,1.85-.94A4,4,0,0,0,86,259Z" style="fill:#263238"/></g><g id="Window"><path d="M376.91,300.38l-6.8,3.92-90.48,52.21a7.05,7.05,0,0,1-.73.36,6.16,6.16,0,0,1-4.66,0,7.05,7.05,0,0,1-.73-.36L101.7,257.32l-8.31-4.8a2.94,2.94,0,0,1-.78-.61c-.86-.94-.59-2.15.78-2.95l97.24-56.13a6.12,6.12,0,0,1,3.77-1.05,3.47,3.47,0,0,1,.93.25,4,4,0,0,1,.48.22l181.1,104.57A2.06,2.06,0,0,1,376.91,300.38Z" style="fill:#27debf"/><path d="M376.91,300.38l-6.8,3.92-90.48,52.21a7.05,7.05,0,0,1-.73.36,6.16,6.16,0,0,1-4.66,0,7.05,7.05,0,0,1-.73-.36L101.7,257.32l-8.31-4.8a2.94,2.94,0,0,1-.78-.61c-.86-.94-.59-2.15.78-2.95l97.24-56.13a6.12,6.12,0,0,1,3.77-1.05,3.47,3.47,0,0,1,.93.25,4,4,0,0,1,.48.22l181.1,104.57A2.06,2.06,0,0,1,376.91,300.38Z" style="fill:#fff;opacity:0.8"/><path d="M113.92,245.18a.48.48,0,0,1-.14-.05l-.48-.28-1.14.67a.2.2,0,0,1-.2,0l-.17-.09-.08-.06a.43.43,0,0,1,0-.07l-.49-1.69s0-.06,0-.07a.17.17,0,0,1,.06-.06l.16-.09a.28.28,0,0,1,.15,0,.37.37,0,0,1,.15,0l1.66,1,.26-.14a.18.18,0,0,1,.13,0,.3.3,0,0,1,.15.05l.11.06s.08.06.08.08,0,0-.07.08l-.25.15.48.27s.07.06.07.08,0,.05-.07.08l-.19.11A.27.27,0,0,1,113.92,245.18Zm-1-.6-1.18-.69.35,1.17Z" style="fill:#455a64"/><path d="M115,244.22a3.2,3.2,0,0,1-1.44-.44c-.48-.28-.73-.55-.76-.83s.16-.54.56-.78a3.43,3.43,0,0,1,.52-.23,2.78,2.78,0,0,1,.53-.11.11.11,0,0,1,.08,0s0,0,0,0l.1.18s0,0,0,.05l-.07,0a1.94,1.94,0,0,0-.75.24c-.27.16-.4.34-.38.54s.22.39.59.6a2.33,2.33,0,0,0,1,.35,1.65,1.65,0,0,0,.89-.21l.26-.18a.73.73,0,0,0,.15-.17l-.78-.45-.48.27a.25.25,0,0,1-.14,0,.3.3,0,0,1-.14,0l-.11-.06s-.08-.06-.08-.08,0-.05.07-.08l.76-.44a.34.34,0,0,1,.16,0,.29.29,0,0,1,.17.06l1.11.64a.18.18,0,0,1,.08.06s0,0,0,.06a1.29,1.29,0,0,1-.66.66A2.41,2.41,0,0,1,115,244.22Z" style="fill:#455a64"/><path d="M124.51,238.52c.37.22.37.56,0,.77a1.42,1.42,0,0,1-1.33,0c-.37-.21-.37-.55,0-.77A1.48,1.48,0,0,1,124.51,238.52Z" style="fill:#455a64"/><path d="M122.09,237.89c-.68.39-.88,1-.62,1.44a.43.43,0,0,0,.4.15h0c.22,0,.37-.15.31-.27-.19-.35,0-.74.43-1a2.65,2.65,0,0,1,1.75-.25c.22,0,.44,0,.47-.18h0c0-.11-.09-.21-.26-.24A4,4,0,0,0,122.09,237.89Z" style="fill:#455a64"/><path d="M121,237.28c-1,.57-1.36,1.38-1.08,2.13a.42.42,0,0,0,.41.17h0c.22,0,.36-.14.31-.26-.24-.61.06-1.27.87-1.74a5.08,5.08,0,0,1,3-.51c.22,0,.43,0,.45-.18h0c0-.11-.11-.21-.3-.23A6.08,6.08,0,0,0,121,237.28Z" style="fill:#455a64"/><path d="M140.69,227.76a.21.21,0,0,1-.11,0s0,0,0-.07l.2-1s0,0,0-.07a.17.17,0,0,1,.06-.06l.34-.2.12,0a.21.21,0,0,1,.12,0l2.85,1.65a.06.06,0,0,1,.05.06s0,.05-.05.07l-.35.21a.24.24,0,0,1-.12,0,.21.21,0,0,1-.12,0l-2.18-1.26-.14.65s0,0-.06.06l-.13,0Z" style="fill:#455a64"/><path d="M142.93,226.47a.21.21,0,0,1-.12,0,.09.09,0,0,1,0-.07l.2-1,0-.07.05-.06.35-.2a.21.21,0,0,1,.12,0l.12,0,2.85,1.65s.05,0,.05.06a.08.08,0,0,1-.05.07l-.36.21a.26.26,0,0,1-.24,0l-2.18-1.26-.13.65a.14.14,0,0,1-.07.06.24.24,0,0,1-.13,0Z" style="fill:#455a64"/><path d="M145.73,224.71l.12,0a.21.21,0,0,1,.12,0l.44.25a.06.06,0,0,1,0,.06.08.08,0,0,1,0,.07l-.41.24-.12,0a.21.21,0,0,1-.12,0l-.44-.25a.07.07,0,0,1,0-.14Zm1.55.89a.25.25,0,0,1,.24,0l.43.25s.05,0,.05.07a.1.1,0,0,1-.05.07l-.41.23a.26.26,0,0,1-.24,0l-.43-.25s-.05,0-.05-.07a.07.07,0,0,1,.05-.06Z" style="fill:#455a64"/><path d="M150.31,224.62a.26.26,0,0,1-.24,0l-.53-.3-1.37.79-.12,0-.12,0-.31-.18c-.05,0-.07-.05-.08-.08a.42.42,0,0,1,0-.1l-.33-1.75a.14.14,0,0,1,.07-.17l.34-.2.12,0,.11,0,1.77,1,.38-.22.12,0,.12,0,.31.19a.07.07,0,0,1,.05.06s0,0-.05.07l-.38.22.54.31a.08.08,0,0,1,0,.14ZM149,224l-.94-.55.19,1Z" style="fill:#455a64"/><path d="M149.11,221.88a.07.07,0,0,1-.05-.06s0,0,.05-.07l1.66-1a.25.25,0,0,1,.24,0l.31.18s.05,0,.05.07,0,.05-.05.07l-1.24.71.52.36a.73.73,0,0,1,.18-.17l.18-.12a2.47,2.47,0,0,1,.53-.22,2.13,2.13,0,0,1,.56-.1,2.09,2.09,0,0,1,.56,0,2,2,0,0,1,.53.2,1.12,1.12,0,0,1,.39.33.49.49,0,0,1,.08.34.5.5,0,0,1-.18.32,1.81,1.81,0,0,1-.39.3,3.33,3.33,0,0,1-.59.26,2.25,2.25,0,0,1-.55.09,2,2,0,0,1-.5,0,1.65,1.65,0,0,1-.41-.14.08.08,0,0,1-.05-.07s0-.05.05-.07l.36-.21.11,0,.12,0a1.23,1.23,0,0,0,.25.05l.24,0,.22-.07.2-.1c.17-.1.26-.2.27-.32s-.06-.21-.22-.3a.81.81,0,0,0-.48-.1,1.16,1.16,0,0,0-.55.15,1.46,1.46,0,0,0-.19.13l-.08.1a.2.2,0,0,1,0,.08.19.19,0,0,1-.08.07l-.41.24-.12,0-.11,0Z" style="fill:#455a64"/><polygon points="101.58 252.71 100.66 252.18 101.88 251.47 102.8 252 101.58 252.71" style="fill:#455a64"/><polygon points="103.42 251.65 101.58 250.59 102.8 249.88 104.64 250.94 103.42 251.65" style="fill:#455a64"/><polygon points="105.26 250.59 102.5 248.99 103.72 248.29 106.48 249.88 105.26 250.59" style="fill:#455a64"/><polygon points="107.1 249.53 103.42 247.4 104.64 246.69 108.33 248.82 107.1 249.53" style="fill:#455a64"/><path d="M190.28,198.05a1.37,1.37,0,0,0-.72.11L185,200.8c-.3.17-.22.49.17.71l1.68,1a2,2,0,0,0,.81.24,1.43,1.43,0,0,0,.36,0,1,1,0,0,0,.36-.1l4.59-2.64c.29-.18.22-.49-.18-.72l-1.67-1A2,2,0,0,0,190.28,198.05Zm-2.7,4.5a.78.78,0,0,1-.34-.12l-1.68-1c-.29-.17-.35-.42-.13-.55l4.59-2.64a.53.53,0,0,1,.19-.06h.11a.81.81,0,0,1,.35.12l1.67,1c.29.17.35.42.14.54l-4.59,2.65A.64.64,0,0,1,187.58,202.55Z" style="fill:#455a64"/><path d="M186.59,200.59l2,1.14-.72.42a.44.44,0,0,1-.25,0l-1.47-.85c-.21-.12-.26-.31-.1-.41Z" style="fill:#455a64"/><polygon points="186.93 200.4 187.79 199.9 189.77 201.04 188.9 201.54 186.93 200.4" style="fill:#455a64"/><polygon points="188.13 199.71 188.99 199.21 190.97 200.36 190.11 200.85 188.13 199.71" style="fill:#455a64"/><path d="M190.31,198.6l1.43.82c.26.16.2.38-.15.58l-.29.17-2-1.15.69-.39A.41.41,0,0,1,190.31,198.6Z" style="fill:#455a64"/><path d="M191.27,198.19a1.23,1.23,0,0,1,.85.23l.31.18c.34.2.52.42.4.5l-.21.14-1.58-.91Z" style="fill:#455a64"/><polygon points="178.59 205.77 182.15 202.68 184.03 205.35 181.57 204.68 178.59 205.77" style="fill:#455a64"/></g><path d="M254.34,335.72v.88a4.82,4.82,0,0,0,2.19,3.79l17.16,9.9a4.83,4.83,0,0,0,4.38,0l84.57-48.85a4.85,4.85,0,0,0,2.19-3.8v-.87a4.85,4.85,0,0,0-2.19-3.8l-17.16-9.9a4.83,4.83,0,0,0-4.38,0l-84.57,48.86A4.85,4.85,0,0,0,254.34,335.72Z" style="fill:#763cac"/><path d="M362.93,293.17c.91.69.81,1.69-.29,2.33l-84.57,48.86a4.61,4.61,0,0,1-2.19.53v5.92a4.44,4.44,0,0,0,2.2-.52l84.56-48.85a4.88,4.88,0,0,0,2.19-3.8v-.87A4.9,4.9,0,0,0,362.93,293.17Z" style="fill:#140927"/><path d="M256.2,332.16a4.9,4.9,0,0,0-1.86,3.56v.88a4.81,4.81,0,0,0,2.2,3.79l17.15,9.9a4.38,4.38,0,0,0,2.19.52v-5.92a4.58,4.58,0,0,1-2.19-.53l-17.16-9.9C255.44,333.84,255.33,332.86,256.2,332.16Z" style="fill:#140927"/><path d="M281.89,326.18a.72.72,0,0,1,.44-.12,1.51,1.51,0,0,1,.39,0l9,2.53a.68.68,0,0,1,.2.06.19.19,0,0,1,.1.14.16.16,0,0,1-.1.13l-1.34.78a.79.79,0,0,1-.39.12.78.78,0,0,1-.29,0l-1.17-.34-2.83,1.63.59.69a.21.21,0,0,1,.06.16c0,.07-.07.15-.21.23L285,333a.41.41,0,0,1-.23.05.47.47,0,0,1-.24-.05.44.44,0,0,1-.11-.12l-4.37-5.19a.31.31,0,0,1-.08-.23c0-.08.06-.17.2-.25Zm2.92,3.67,1.72-1-3.41-1Z" style="fill:#140927"/><path d="M288.68,322.25a6.65,6.65,0,0,1,1.56-.64,7.25,7.25,0,0,1,1.65-.25,6.78,6.78,0,0,1,1.63.14A6.06,6.06,0,0,1,295,322l.42.23.35.2.35.21c.12.07.25.14.38.23a3,3,0,0,1,.93.85,1.47,1.47,0,0,1,.26.93,1.71,1.71,0,0,1-.42.94,4,4,0,0,1-1.1.89l-2.87,1.66a.62.62,0,0,1-.29.06.58.58,0,0,1-.28-.06l-6.86-4a.22.22,0,0,1-.12-.17.19.19,0,0,1,.12-.16Zm4.31.89a2.58,2.58,0,0,0-2.66.13l-1.08.62,4,2.33,1.13-.66c.9-.51.95-1,.17-1.5a4.5,4.5,0,0,0-.41-.25l-.38-.22-.37-.22Z" style="fill:#140927"/><path d="M296.36,317.82a6.41,6.41,0,0,1,1.55-.64,7.25,7.25,0,0,1,1.66-.25,6.87,6.87,0,0,1,1.63.14,5.84,5.84,0,0,1,1.47.53l.42.23.35.2.36.21.38.23a3.06,3.06,0,0,1,.92.85,1.41,1.41,0,0,1,.26.93,1.7,1.7,0,0,1-.41.94,3.89,3.89,0,0,1-1.11.89L301,323.74a.61.61,0,0,1-.28.06.62.62,0,0,1-.29-.06l-6.86-4a.21.21,0,0,1-.11-.17.19.19,0,0,1,.11-.16Zm4.31.89a2.6,2.6,0,0,0-2.67.13l-1.08.62,4,2.33,1.14-.66c.89-.51.94-1,.17-1.5l-.41-.25-.38-.22-.38-.22Z" style="fill:#140927"/><path d="M308.38,310.88a.77.77,0,0,1,.29-.07.72.72,0,0,1,.28.07l1.13.65c.08.05.12.1.12.17a.19.19,0,0,1-.12.16l-1.87,1.08,5.45,3.14a.22.22,0,0,1,.11.17.21.21,0,0,1-.11.17l-1.4.8a.58.58,0,0,1-.28.07.62.62,0,0,1-.29-.07l-5.44-3.15-1.87,1.08a.52.52,0,0,1-.29.07.49.49,0,0,1-.28-.07l-1.13-.65a.21.21,0,0,1-.12-.16c0-.07,0-.12.12-.17Z" style="fill:#140927"/><path d="M312,312a3,3,0,0,1-.86-.8,1.33,1.33,0,0,1-.26-.9,1.71,1.71,0,0,1,.4-.94,3.86,3.86,0,0,1,1.16-.93,6.55,6.55,0,0,1,1.6-.67,7.36,7.36,0,0,1,1.64-.23,6.17,6.17,0,0,1,1.56.15,5.24,5.24,0,0,1,1.38.5c.32.16.65.34,1,.53s.64.38.91.56a2.88,2.88,0,0,1,.86.79,1.41,1.41,0,0,1,.27.91,1.63,1.63,0,0,1-.41.94,4.07,4.07,0,0,1-1.15.93,7,7,0,0,1-1.61.67,7.12,7.12,0,0,1-1.64.23,6.66,6.66,0,0,1-1.56-.15,5.94,5.94,0,0,1-1.38-.5c-.31-.16-.62-.33-1-.53Zm6.49-1.63-.4-.26-.46-.28-.49-.27-.43-.22a3.07,3.07,0,0,0-.6-.22,2.73,2.73,0,0,0-.64-.07,2.61,2.61,0,0,0-.67.08,2.58,2.58,0,0,0-.67.28,1.36,1.36,0,0,0-.47.38.64.64,0,0,0-.15.39.6.6,0,0,0,.13.37,1.45,1.45,0,0,0,.38.35l.38.25.47.27.48.28.45.23a3.06,3.06,0,0,0,1.25.29,2.54,2.54,0,0,0,1.33-.36c.44-.26.65-.51.62-.77A1,1,0,0,0,318.51,310.35Z" style="fill:#140927"/><path d="M323.9,305.18a3.35,3.35,0,0,0,.36.23l.5.3.52.29.4.21a3.43,3.43,0,0,0,.56.22,2.18,2.18,0,0,0,.63.09,2.61,2.61,0,0,0,.67-.08,2.48,2.48,0,0,0,.71-.29,2,2,0,0,0,.51-.39.77.77,0,0,0,.17-.34.42.42,0,0,0,0-.29,1.34,1.34,0,0,0-.16-.23.49.49,0,0,1-.12-.2q0-.07.18-.18l1.39-.81a.52.52,0,0,1,.23,0,.6.6,0,0,1,.24,0,2,2,0,0,1,.75.75,1.28,1.28,0,0,1,.13.88,2.24,2.24,0,0,1-.49.92,4.16,4.16,0,0,1-1.09.87,6,6,0,0,1-1.6.66,7.2,7.2,0,0,1-1.64.23,6.7,6.7,0,0,1-1.57-.15,6.15,6.15,0,0,1-1.37-.49c-.31-.16-.62-.34-1-.53l-.93-.56a2.84,2.84,0,0,1-.85-.79,1.41,1.41,0,0,1-.27-.91,1.73,1.73,0,0,1,.4-.95,4.14,4.14,0,0,1,1.14-.92,6.51,6.51,0,0,1,1.51-.63,8.27,8.27,0,0,1,1.6-.28,6.45,6.45,0,0,1,1.53.07,4.09,4.09,0,0,1,1.29.44.15.15,0,0,1,.09.13.17.17,0,0,1-.09.14l-1.39.8a.65.65,0,0,1-.32.1,1.52,1.52,0,0,1-.35-.07l-.4-.09a2,2,0,0,0-.5,0,2.7,2.7,0,0,0-.59.1,2.57,2.57,0,0,0-.68.29,1.58,1.58,0,0,0-.5.41.56.56,0,0,0-.13.39.58.58,0,0,0,.15.36A2.07,2.07,0,0,0,323.9,305.18Z" style="fill:#140927"/><path d="M330.61,298.05a.81.81,0,0,1,.44-.12,1.46,1.46,0,0,1,.39,0l9,2.53a.68.68,0,0,1,.2.06.17.17,0,0,1,.1.14.14.14,0,0,1-.1.13l-1.33.78a.86.86,0,0,1-.4.12.72.72,0,0,1-.28,0l-1.18-.34L334.63,303l.58.68a.25.25,0,0,1,.06.17c0,.07-.07.15-.21.23l-1.34.77a.55.55,0,0,1-.46,0,.34.34,0,0,1-.12-.12l-4.37-5.19a.36.36,0,0,1-.08-.23c0-.08.06-.17.2-.25Zm2.92,3.67,1.72-1-3.41-1Z" style="fill:#140927"/><path d="M337.47,294.09a7.91,7.91,0,0,1,1.4-.64,5.81,5.81,0,0,1,1.39-.28,4.39,4.39,0,0,1,1.35.09,4.79,4.79,0,0,1,1.28.5,2.17,2.17,0,0,1,1,1,1,1,0,0,1-.13,1l3.84.7a.37.37,0,0,1,.15.05.14.14,0,0,1,.1.13.17.17,0,0,1-.1.14l-1.44.83a.83.83,0,0,1-.4.12,1.69,1.69,0,0,1-.33,0l-3.45-.63-1,.56,2.27,1.31c.08.05.12.1.12.17a.18.18,0,0,1-.12.16L342,300a.61.61,0,0,1-.28.07.62.62,0,0,1-.29-.07l-6.86-4a.21.21,0,0,1-.11-.17.19.19,0,0,1,.11-.16Zm2,2.55,1.19-.7a1.28,1.28,0,0,0,.57-.52c.08-.18,0-.35-.32-.52a1.36,1.36,0,0,0-.91-.19,2.71,2.71,0,0,0-.91.33l-1.19.69Z" style="fill:#140927"/><path d="M347.07,288.54a.73.73,0,0,1,.58,0l1.12.65c.08.05.12.1.12.17a.19.19,0,0,1-.12.16l-1.87,1.08,5.45,3.14a.24.24,0,0,1,.12.17.22.22,0,0,1-.12.17l-1.39.8a.64.64,0,0,1-.58,0l-5.44-3.14-1.87,1.07a.51.51,0,0,1-.28.07.52.52,0,0,1-.29-.07l-1.12-.65a.19.19,0,0,1-.12-.16c0-.07,0-.12.12-.17Z" style="fill:#140927"/><path d="M268.63,332c-2.68,1.55-2.68,4.06,0,5.61a10.72,10.72,0,0,0,9.71,0c2.68-1.55,2.68-4.06,0-5.61A10.72,10.72,0,0,0,268.63,332Zm8,1.83-1.8,1.05,1.8,1a.36.36,0,0,1,0,.69,1.31,1.31,0,0,1-1.19,0l-1.8-1-1.81,1a1.31,1.31,0,0,1-1.19,0,.36.36,0,0,1,0-.69l1.8-1-1.8-1.05c-.33-.19-.33-.49,0-.69a1.31,1.31,0,0,1,1.19,0l1.81,1.05,1.8-1.05a1.31,1.31,0,0,1,1.19,0C276.93,333.29,276.93,333.59,276.6,333.78Z" style="fill:#140927"/><path d="M302.58,266.3a14.86,14.86,0,0,0-6.66-11.7c-1.94-1.14-3.69-1.19-4.93-.38h0l-4.55,2.56L296,273.25l4.51-2.56h0C301.76,270,302.56,268.49,302.58,266.3Z" style="fill:#232323"/><path d="M291.19,257.28a14.91,14.91,0,0,1,6.66,11.7c0,4.3-3.06,6-6.76,3.85a14.91,14.91,0,0,1-6.66-11.7C284.46,256.83,287.49,255.11,291.19,257.28Z" style="fill:#232323"/><path d="M288.87,263.73c0-1.68,1-2.45,2.29-1.71a5.43,5.43,0,0,1,2.25,4.37c0,1.67-1,2.44-2.29,1.7A5.46,5.46,0,0,1,288.87,263.73Z" style="fill:#232323"/><path d="M297.85,269a12.56,12.56,0,0,0-.92-4.5l-11.56-6.71a5.78,5.78,0,0,0-.94,3.36c0,.05,0,.1,0,.16l13.4,7.78S297.85,269,297.85,269Z" style="fill:#232323;opacity:0.15"/><path d="M254.7,302.89a14.41,14.41,0,0,1-7.12-1.28l-63-36.31c-3.82-1.92-8.09-6.9-8.36-11.62l-1.94-44.91,3.52-.2,1.94,44.92c.18,3.2,3.53,7.22,6.41,8.66l63,36.32a12.11,12.11,0,0,0,10.58-.61l42-24.22c1-.66,1.58-1.45,1.55-2.12s-.67-1.33-1.74-1.87L234.1,230.47c-3.8-1.91-8.06-6.9-8.33-11.62l-.94-24.91,3.51-.19.94,24.9c.18,3.22,3.53,7.23,6.39,8.67l67.5,39.19c2.25,1.13,3.55,2.84,3.67,4.81s-1,3.88-3.13,5.26l-42,24.22A14.57,14.57,0,0,1,254.7,302.89Z" style="fill:#232323"/><path d="M243.36,301.88a14.86,14.86,0,0,0-6.66-11.7c-1.94-1.14-3.69-1.2-4.92-.38h0l-4.56,2.56,9.55,16.47,4.51-2.56v0C242.54,305.58,243.35,304.07,243.36,301.88Z" style="fill:#232323"/><path d="M232,292.86a14.86,14.86,0,0,1,6.66,11.7c0,4.3-3,6-6.76,3.85a14.88,14.88,0,0,1-6.65-11.7C225.25,292.41,228.27,290.69,232,292.86Z" style="fill:#232323"/><path d="M229.65,299.31c0-1.68,1-2.45,2.29-1.71a5.43,5.43,0,0,1,2.25,4.37c0,1.67-1,2.44-2.29,1.7A5.46,5.46,0,0,1,229.65,299.31Z" style="fill:#232323"/><path d="M196.8,275a14.89,14.89,0,0,0-6.63-11.71c-1.95-1.14-3.7-1.2-4.93-.39h0l-4.56,2.55L190.2,282l4.52-2.56h0C196,278.73,196.78,277.22,196.8,275Z" style="fill:#232323"/><path d="M185.43,266a14.88,14.88,0,0,1,6.64,11.71c0,4.29-3.07,6-6.77,3.83a14.86,14.86,0,0,1-6.63-11.71C178.7,265.53,181.73,263.82,185.43,266Z" style="fill:#232323"/><path d="M183.1,272.43c0-1.67,1-2.44,2.29-1.7a5.48,5.48,0,0,1,2.25,4.37c0,1.68-1,2.44-2.3,1.71A5.49,5.49,0,0,1,183.1,272.43Z" style="fill:#232323"/><path d="M166.76,154.35a11.71,11.71,0,0,1,4.49-12.46l41.91-23.69c3.81-2.5,8-.76,9.32,3.59l2.91,9.43-2.88,1.68-3.11-9.53a3.17,3.17,0,0,0-5-1.75l-40.81,23.07a7.67,7.67,0,0,0-2.93,8l2.46,9.05-3.43,2Z" style="fill:#232323"/><polygon points="231.56 199.79 175.26 232.3 257.54 279.8 313.84 247.29 231.56 199.79" style="fill:#140927"/><polygon points="231.56 199.79 175.26 232.3 257.54 279.8 313.84 247.29 231.56 199.79" style="fill:#140927;opacity:0.5"/><polygon points="169.67 163.78 225.39 131.22 231.56 199.79 175.26 232.3 169.67 163.78" style="fill:#140927"/><polygon points="169.67 163.78 225.39 131.22 231.56 199.79 175.26 232.3 169.67 163.78" style="fill:#140927"/><path d="M225.39,131.22l6.17,68.57,82.28,47.5,13-57.51Zm28.77,65.93a4.73,4.73,0,0,1-5.9-3.06l-13.6-35.29a4.44,4.44,0,1,1,8.22-3.17l13.6,35.29A4.74,4.74,0,0,1,254.16,197.15Zm25.69,12.08a4.71,4.71,0,0,1-5.9-3l-13.6-35.29a4.44,4.44,0,1,1,8.22-3.17L282.17,203A4.71,4.71,0,0,1,279.85,209.23Zm25.69,12.09a4.71,4.71,0,0,1-5.9-3L286,183a4.44,4.44,0,1,1,8.22-3.17l13.6,35.29A4.71,4.71,0,0,1,305.54,221.32Z" style="fill:#763cac"/><path d="M225.39,131.22l6.17,68.57,82.28,47.5,13-57.51Zm28.77,65.93a4.73,4.73,0,0,1-5.9-3.06l-13.6-35.29a4.44,4.44,0,1,1,8.22-3.17l13.6,35.29A4.74,4.74,0,0,1,254.16,197.15Zm25.69,12.08a4.71,4.71,0,0,1-5.9-3l-13.6-35.29a4.44,4.44,0,1,1,8.22-3.17L282.17,203A4.71,4.71,0,0,1,279.85,209.23Zm25.69,12.09a4.71,4.71,0,0,1-5.9-3L286,183a4.44,4.44,0,1,1,8.22-3.17l13.6,35.29A4.71,4.71,0,0,1,305.54,221.32Z" style="fill:#763cac;opacity:0.23"/><path d="M169.67,163.78l5.59,68.52,82.28,47.5,13-57.5Zm32.48,67.45a4.73,4.73,0,0,1-5.9-3.06l-13.6-35.29a4.44,4.44,0,1,1,8.22-3.17L204.47,225A4.72,4.72,0,0,1,202.15,231.23Zm25.69,12.08a4.71,4.71,0,0,1-5.9-3.05L208.35,205a4.44,4.44,0,1,1,8.22-3.17l13.59,35.29A4.71,4.71,0,0,1,227.84,243.31Zm25.69,12.09a4.7,4.7,0,0,1-5.89-3.05L234,217.06a4.44,4.44,0,1,1,8.22-3.17l13.59,35.29A4.71,4.71,0,0,1,253.53,255.4Z" style="fill:#140927"/><path d="M169.67,163.78l5.59,68.52,82.28,47.5,13-57.5Zm32.48,67.45a4.73,4.73,0,0,1-5.9-3.06l-13.6-35.29a4.44,4.44,0,1,1,8.22-3.17L204.47,225A4.72,4.72,0,0,1,202.15,231.23Zm25.69,12.08a4.71,4.71,0,0,1-5.9-3.05L208.35,205a4.44,4.44,0,1,1,8.22-3.17l13.59,35.29A4.71,4.71,0,0,1,227.84,243.31Zm25.69,12.09a4.7,4.7,0,0,1-5.89-3.05L234,217.06a4.44,4.44,0,1,1,8.22-3.17l13.59,35.29A4.71,4.71,0,0,1,253.53,255.4Z" style="fill:#763cac"/><polygon points="270.53 222.3 326.83 189.79 313.84 247.3 257.54 279.8 270.53 222.3" style="fill:#140927"/><polygon points="270.53 222.3 326.83 189.79 313.84 247.3 257.54 279.8 270.53 222.3" style="fill:#140927"/><g id="Arrow"><polygon points="274.81 98.15 268.31 101.96 268.33 82.27 264.39 80 246.55 90.3 246.52 114.59 236.12 120.48 259.4 135.58 278.75 100.42 274.81 98.15" style="fill:#37474f"/><polygon points="250.49 92.57 250.46 116.86 240.06 122.76 259.4 135.58 278.75 100.42 268.3 106.56 268.33 82.27 250.49 92.57" style="fill:#455a64"/><polygon points="246.55 90.3 250.49 92.57 250.46 116.86 246.52 114.59 246.55 90.3" style="fill:#263238"/></g><polygon points="146.95 109.44 138.33 98.13 128.15 98.59 146.95 109.44" style="fill:#fcd635"/><polygon points="146.95 109.44 203.33 76.89 198.63 9.07 146.95 38.91 146.95 109.44" style="fill:#27debf"/><polygon points="146.95 109.44 203.33 76.89 198.63 9.07 146.95 38.91 146.95 109.44" style="fill:#763cac"/><polygon points="146.95 38.91 146.95 33.48 132.85 30.77 184.53 0.93 189.23 9.07 198.63 9.07 146.95 38.91" style="fill:#27debf"/><polygon points="146.95 38.91 146.95 33.48 132.85 30.77 184.53 0.93 189.23 9.07 198.63 9.07 146.95 38.91" style="fill:#763cac"/><polygon points="184.53 0.93 184.53 17.21 189.23 14.5 189.23 9.07 184.53 0.93" style="fill:#27debf"/><polygon points="184.4 0.97 184.67 17.25 189.32 14.46 189.23 9.03 184.4 0.97" style="fill:#140927"/><polygon points="198.63 9.07 189.23 9.07 189.23 14.5 198.63 9.07" style="fill:#27debf"/><polygon points="198.63 9.07 189.23 9.07 189.23 14.5 198.63 9.07" style="fill:#763cac"/><polygon points="132.85 30.77 128.15 98.59 146.95 109.44 146.95 38.91 146.95 33.48 132.85 30.77" style="fill:#27debf"/><polygon points="132.85 30.77 128.15 98.59 146.95 109.44 146.95 38.91 146.95 33.48 132.85 30.77" style="fill:#763cac"/><polygon points="146.95 33.48 137.55 104.01 146.95 109.44 146.95 33.48" style="fill:#27debf"/><polygon points="146.95 33.48 137.55 104.01 146.95 109.44 146.95 33.48" style="fill:#140927"/><path d="M148.09,30.05c0,.92.64,1.3,1.44.84A3.22,3.22,0,0,0,151,28.38c0-.92-.65-1.3-1.45-.84A3.21,3.21,0,0,0,148.09,30.05Z" style="fill:#37474f"/><path d="M167.32,19.2c0,.92.65,1.3,1.45.83a3.19,3.19,0,0,0,1.45-2.5c0-.92-.65-1.3-1.45-.84A3.21,3.21,0,0,0,167.32,19.2Z" style="fill:#37474f"/><path d="M149.53,29a.48.48,0,0,1-.48-.48V16.67c0-5.17,4.42-11.92,9.86-15.06,3-1.75,5.9-2.09,7.89-.94,1.58.91,2.46,2.69,2.46,5v12a.49.49,0,0,1-.49.49.48.48,0,0,1-.48-.49v-12c0-2-.69-3.44-2-4.18-1.68-1-4.21-.63-6.92.94-5.18,3-9.38,9.36-9.38,14.22V28.52A.49.49,0,0,1,149.53,29Z" style="fill:#37474f"/><path d="M162.4,38.19c0,.92.65,1.29,1.45.83a3.19,3.19,0,0,0,1.45-2.5c0-.93-.65-1.3-1.45-.84A3.21,3.21,0,0,0,162.4,38.19Z" style="fill:#455a64"/><path d="M181.64,27.34c0,.92.65,1.29,1.45.83a3.18,3.18,0,0,0,1.44-2.5c0-.93-.64-1.3-1.44-.84A3.19,3.19,0,0,0,181.64,27.34Z" style="fill:#455a64"/><path d="M163.85,37.14a.48.48,0,0,1-.48-.49V24.8c0-5.16,4.42-11.91,9.86-15,3-1.75,5.9-2.09,7.89-.94,1.58.91,2.45,2.69,2.45,5v12a.48.48,0,0,1-.48.49.49.49,0,0,1-.49-.49v-12c0-2-.68-3.43-2-4.17-1.68-1-4.2-.63-6.92.94-5.17,3-9.37,9.36-9.37,14.21V36.65A.49.49,0,0,1,163.85,37.14Z" style="fill:#455a64"/><path d="M139.5,399.86l65.44-37.78a3.08,3.08,0,0,0,1.77-2.7c0-1,0-4.64,0-4.64s-1.75,2.5-1.78,2.52l-49.57,28.6L139.49,395a9.47,9.47,0,0,1-8.61,0l-99.1-57.22s-1.68-1.95-1.72-2-.09,3.42,0,4.56a3,3,0,0,0,1.76,2.26l99.11,57.2A9.44,9.44,0,0,0,139.5,399.86Z" style="fill:#27debf"/><path d="M139.5,399.86l65.44-37.78a3.08,3.08,0,0,0,1.77-2.7c0-1,0-4.64,0-4.64s-1.75,2.5-1.78,2.52l-49.57,28.6L139.49,395a9.47,9.47,0,0,1-8.61,0l-99.1-57.22s-1.68-1.95-1.72-2-.09,3.42,0,4.56a3,3,0,0,0,1.76,2.26l99.11,57.2A9.44,9.44,0,0,0,139.5,399.86Z" style="fill:#140927"/><path d="M186.08,368.14h0V373l18.86-10.89a3.08,3.08,0,0,0,1.77-2.7c0-1,0-4.64,0-4.64s-1.75,2.5-1.78,2.52Z" style="fill:#37474f"/><path d="M205,357.26a.34.34,0,0,0,.09-.08c2.28-1.35,2.24-3.55-.09-4.9l-99.12-57.22a9.53,9.53,0,0,0-8.61,0L31.78,332.84c-2.36,1.36-2.37,3.55-.09,4.91l.09.06L130.88,395a9.47,9.47,0,0,0,8.61,0l15.89-9.17Z" style="fill:#763cac"/><path d="M186.08,368.14,205,357.26a.34.34,0,0,0,.09-.08c2.28-1.35,2.24-3.55-.09-4.9l-99.12-57.22a9.53,9.53,0,0,0-8.61,0L78.36,306Z" style="fill:#455a64"/><path d="M30.06,335.84s-.09,3.42,0,4.56a3,3,0,0,0,1.76,2.26l99.11,57.2a9.12,9.12,0,0,0,5.46,1V396a9.32,9.32,0,0,1-5.47-1l-99.1-57.22S30.1,335.86,30.06,335.84Z" style="fill:#140927"/><path d="M62.14,329.36l-1.92-1.11a.25.25,0,0,1-.14-.17c0-.07,0-.12.1-.17a.6.6,0,0,1,.29-.06.7.7,0,0,1,.3.08l.64.37,2.77-1.59a.33.33,0,0,0,.2-.33c0-.14-.11-.25-.28-.36h0a.26.26,0,0,1-.15-.18.18.18,0,0,1,.11-.16.43.43,0,0,1,.29-.06.58.58,0,0,1,.3.08h0a1,1,0,0,1,.58.71.66.66,0,0,1-.4.67l-2.77,1.59.64.37c.09,0,.14.11.14.18s0,.12-.1.16a.45.45,0,0,1-.29.06A.56.56,0,0,1,62.14,329.36Z" style="fill:#fff"/><path d="M68,330.8l-1.28-.74a1.31,1.31,0,0,0-.61-.16,1.16,1.16,0,0,0-.58.11l-.41.24s-.06.05,0,.09,0,.06.07.09L67.81,332a.27.27,0,0,1,.14.18.17.17,0,0,1-.1.17.52.52,0,0,1-.29.06.75.75,0,0,1-.31-.09l-3.19-1.84a.26.26,0,0,1-.15-.18.16.16,0,0,1,.1-.16l.83-.48a2.08,2.08,0,0,1,1.16-.24,2.71,2.71,0,0,1,1.23.33l1.27.74a1.4,1.4,0,0,0,.62.17,1,1,0,0,0,.58-.12l.55-.31a.34.34,0,0,0,.21-.34.56.56,0,0,0-.3-.36l-1.28-.73a1.32,1.32,0,0,0-.61-.17,1.06,1.06,0,0,0-.58.12.6.6,0,0,1-.29.06.75.75,0,0,1-.3-.09.26.26,0,0,1-.15-.17.17.17,0,0,1,.11-.17,2,2,0,0,1,1.15-.24,2.56,2.56,0,0,1,1.23.34l1.28.74a1,1,0,0,1,.58.71.66.66,0,0,1-.41.66l-.55.32a2.08,2.08,0,0,1-1.16.24A2.63,2.63,0,0,1,68,330.8Z" style="fill:#fff"/><path d="M74.06,334.65l-.28.16a2.14,2.14,0,0,1-1.15.23,2.67,2.67,0,0,1-1.23-.33L70.12,334a1,1,0,0,1-.58-.71.68.68,0,0,1,.41-.67.52.52,0,0,1,.29,0,.58.58,0,0,1,.3.08.26.26,0,0,1,.15.18.15.15,0,0,1-.1.16.33.33,0,0,0-.2.34.48.48,0,0,0,.29.35l1.27.74a1.36,1.36,0,0,0,.62.17,1,1,0,0,0,.57-.12l.28-.16a.33.33,0,0,0,.2-.34.48.48,0,0,0-.29-.35l-.31-.18c-.09-.06-.14-.11-.15-.18s0-.12.1-.17a.64.64,0,0,1,.6,0l.32.18a1.32,1.32,0,0,0,.61.17,1,1,0,0,0,.58-.12l.28-.16a.33.33,0,0,0,.2-.33.5.5,0,0,0-.29-.36L74,331.74a1.21,1.21,0,0,0-.61-.17,1.06,1.06,0,0,0-.58.12.52.52,0,0,1-.29.05.62.62,0,0,1-.31-.08.27.27,0,0,1-.14-.18.16.16,0,0,1,.1-.16,2.08,2.08,0,0,1,1.16-.24,2.63,2.63,0,0,1,1.23.34l1.27.73a1,1,0,0,1,.58.71.66.66,0,0,1-.41.67l-.27.16a1.8,1.8,0,0,1-.58.2,3.9,3.9,0,0,1-.69,0,.56.56,0,0,1,0,.4A1,1,0,0,1,74.06,334.65Z" style="fill:#fff"/><path d="M77.77,338.29a.62.62,0,0,1-.31-.08.27.27,0,0,1-.14-.18.16.16,0,0,1,.1-.16L79,337a2.54,2.54,0,0,1-.79-.28L76.89,336a1,1,0,0,1-.58-.71.66.66,0,0,1,.41-.66l1.38-.8a.62.62,0,0,1,.29-.06.58.58,0,0,1,.3.08.26.26,0,0,1,.15.18c0,.07,0,.12-.1.17l-1.38.8a.34.34,0,0,0-.21.33.53.53,0,0,0,.29.35l1.28.74a1.35,1.35,0,0,0,.61.17,1,1,0,0,0,.58-.12l1.38-.8a.62.62,0,0,1,.29-.06.75.75,0,0,1,.31.08.26.26,0,0,1,.14.18.16.16,0,0,1-.1.17l-3.87,2.24A.51.51,0,0,1,77.77,338.29Z" style="fill:#fff"/><path d="M87.71,340.77s0,.05,0,.09a.18.18,0,0,0,.07.09l1.76,1a1,1,0,0,1,.58.71.67.67,0,0,1-.41.67l-.55.32a2.17,2.17,0,0,1-1.16.23,2.66,2.66,0,0,1-1.22-.33l-1.28-.74a1,1,0,0,1-.58-.71.67.67,0,0,1,.41-.67.6.6,0,0,1,.29-.06.7.7,0,0,1,.3.09.26.26,0,0,1,.15.17.17.17,0,0,1-.1.17.33.33,0,0,0-.21.34.5.5,0,0,0,.29.35l1.28.74a1.31,1.31,0,0,0,.61.16,1.14,1.14,0,0,0,.58-.11L89,343a.34.34,0,0,0,.21-.34.53.53,0,0,0-.29-.35L87,341.17a.53.53,0,0,1-.29-.35.31.31,0,0,1,.21-.33l1.38-.8a.45.45,0,0,1,.29-.06.61.61,0,0,1,.3.08l3.2,1.84a.27.27,0,0,1,.14.18c0,.07,0,.12-.1.17a.6.6,0,0,1-.29.06.7.7,0,0,1-.3-.09l-2.72-1.57-.15,0a.24.24,0,0,0-.15,0Z" style="fill:#fff"/><path d="M93.32,344.17l1.28.74a1,1,0,0,1,.58.71.67.67,0,0,1-.41.67l-.55.32a2.15,2.15,0,0,1-1.16.23,2.63,2.63,0,0,1-1.23-.34l-1.27-.73a1,1,0,0,1-.58-.71.66.66,0,0,1,.4-.67l2.22-1.28a2.14,2.14,0,0,1,1.15-.23,2.67,2.67,0,0,1,1.23.33l1.28.74a1,1,0,0,1,.58.71.67.67,0,0,1-.41.67.5.5,0,0,1-.29.06.75.75,0,0,1-.31-.09.28.28,0,0,1-.14-.17c0-.07,0-.12.1-.17a.34.34,0,0,0,.21-.33.51.51,0,0,0-.3-.36l-1.27-.74a1.35,1.35,0,0,0-.62-.16,1.1,1.1,0,0,0-.57.11l-.71.41A2.63,2.63,0,0,1,93.32,344.17Zm-2.3.59a.33.33,0,0,0-.2.33.5.5,0,0,0,.29.36l1.28.74a1.32,1.32,0,0,0,.61.17,1,1,0,0,0,.58-.12l.56-.32a.33.33,0,0,0,.2-.33.51.51,0,0,0-.3-.36l-1.27-.74a1.36,1.36,0,0,0-.62-.17,1,1,0,0,0-.57.12Z" style="fill:#fff"/><path d="M100.69,348.58l-3.79.53h-.52l-.08,0a.36.36,0,0,1-.16-.17q0-.09.12-.18a1.59,1.59,0,0,1,.44-.07c1.21-.17,2.38-.34,3.51-.52a1,1,0,0,0,.33-.09l.27-.1.09,0a.33.33,0,0,0,.2-.34.48.48,0,0,0-.29-.35l-.64-.37-.32-.18-1.27-.74a.26.26,0,0,1-.15-.18.16.16,0,0,1,.1-.16.45.45,0,0,1,.29-.06.62.62,0,0,1,.31.08l1.28.74.32.18.64.37a1,1,0,0,1,.57.71.66.66,0,0,1-.4.67,3.39,3.39,0,0,1-.45.19A2.28,2.28,0,0,1,100.69,348.58Z" style="fill:#fff"/><path d="M104.71,352.34l-.28.16a2,2,0,0,1-1.15.24,2.56,2.56,0,0,1-1.23-.34l-1.28-.73a1,1,0,0,1-.58-.71.68.68,0,0,1,.41-.67l.28-.16a1.82,1.82,0,0,1,.57-.2,2.63,2.63,0,0,1,.69,0,.62.62,0,0,1,0-.4,1,1,0,0,1,.35-.33l.27-.16a2.17,2.17,0,0,1,1.16-.23,2.74,2.74,0,0,1,1.23.33l1.27.74a1,1,0,0,1,.58.71.66.66,0,0,1-.4.67l-.28.16a1.88,1.88,0,0,1-.58.19,2.63,2.63,0,0,1-.69,0,.56.56,0,0,1,0,.4A.83.83,0,0,1,104.71,352.34Zm1.3-1.48a.33.33,0,0,0,.2-.34.5.5,0,0,0-.29-.35l-1.28-.74a1.32,1.32,0,0,0-.61-.17,1,1,0,0,0-.58.12l-.27.16a.33.33,0,0,0-.21.34.53.53,0,0,0,.29.35l1.28.74a1.31,1.31,0,0,0,.61.16,1.14,1.14,0,0,0,.58-.11ZM104.07,352a.32.32,0,0,0,.2-.33.48.48,0,0,0-.29-.35l-1.27-.74a1.36,1.36,0,0,0-.62-.17,1,1,0,0,0-.57.12l-.28.16a.33.33,0,0,0-.2.33.48.48,0,0,0,.28.36l1.28.73a1.25,1.25,0,0,0,.62.17,1,1,0,0,0,.57-.12Z" style="fill:#fff"/><path d="M112.27,358.3l-1.28-.74a1,1,0,0,1-.58-.7.66.66,0,0,1,.41-.67.6.6,0,0,1,.29-.06.66.66,0,0,1,.31.09.28.28,0,0,1,.14.17.17.17,0,0,1-.1.17.34.34,0,0,0-.21.33.54.54,0,0,0,.29.36l1.28.73a1.32,1.32,0,0,0,.62.17A1.16,1.16,0,0,0,114,358l.7-.41a2.54,2.54,0,0,1-.8-.29l-1.27-.73a1,1,0,0,1-.58-.71.67.67,0,0,1,.41-.67l.55-.32a2.15,2.15,0,0,1,1.16-.23,2.66,2.66,0,0,1,1.22.33l1.28.74a1,1,0,0,1,.58.71.66.66,0,0,1-.4.67l-2.22,1.27a2,2,0,0,1-1.15.24A2.56,2.56,0,0,1,112.27,358.3Zm4-1.54a.33.33,0,0,0,.2-.34.5.5,0,0,0-.29-.35l-1.28-.74a1.35,1.35,0,0,0-.61-.17,1,1,0,0,0-.58.12l-.55.32q-.24.13-.21.33a.52.52,0,0,0,.29.36l1.28.73a1.21,1.21,0,0,0,.61.17,1.08,1.08,0,0,0,.59-.11Z" style="fill:#fff"/><path d="M117.05,361.06l-1.92-1.1a.27.27,0,0,1-.14-.18.15.15,0,0,1,.1-.16.45.45,0,0,1,.29-.06.62.62,0,0,1,.31.08l.64.37,2.76-1.6a.35.35,0,0,0,.21-.33.51.51,0,0,0-.28-.35h0a.26.26,0,0,1-.15-.17c0-.07,0-.12.1-.17a.68.68,0,0,1,.6,0h0a1,1,0,0,1,.58.71.67.67,0,0,1-.41.67l-2.76,1.6.63.37a.26.26,0,0,1,.15.17.18.18,0,0,1-.11.17.49.49,0,0,1-.28.06A.75.75,0,0,1,117.05,361.06Z" style="fill:#fff"/><path d="M121.21,363.46l-1.28-.73a1,1,0,0,1-.58-.71.67.67,0,0,1,.41-.67l2.21-1.28a2.17,2.17,0,0,1,1.16-.23,2.66,2.66,0,0,1,1.22.33l1.28.74a1,1,0,0,1,.58.71.67.67,0,0,1-.41.67l-2.21,1.27a2.08,2.08,0,0,1-1.16.24A2.55,2.55,0,0,1,121.21,363.46Zm-.73-1,1.28.73a1.24,1.24,0,0,0,.37.14l.43-2.81-2.16,1.25a.34.34,0,0,0-.21.33A.52.52,0,0,0,120.48,362.41Zm4.6-1.18-1.28-.74a1.35,1.35,0,0,0-.37-.13l-.43,2.81,2.16-1.25a.34.34,0,0,0,.21-.34A.53.53,0,0,0,125.08,361.23Z" style="fill:#fff"/><path d="M126,366.23l-1.92-1.11a.27.27,0,0,1-.14-.18.15.15,0,0,1,.1-.16.45.45,0,0,1,.29-.06.62.62,0,0,1,.31.08l.64.37,2.76-1.6a.35.35,0,0,0,.21-.33.53.53,0,0,0-.29-.35h0a.28.28,0,0,1-.14-.17c0-.07,0-.12.1-.17a.62.62,0,0,1,.29-.06.79.79,0,0,1,.31.08h0a1.07,1.07,0,0,1,.58.71.68.68,0,0,1-.41.67l-2.77,1.6.64.37a.26.26,0,0,1,.15.17.18.18,0,0,1-.11.17.6.6,0,0,1-.29.06A.74.74,0,0,1,126,366.23Z" style="fill:#fff"/><path d="M134.93,371.39,133,370.28a.28.28,0,0,1-.14-.17.16.16,0,0,1,.1-.17.45.45,0,0,1,.29-.06.62.62,0,0,1,.31.08l.64.37,2.76-1.6a.34.34,0,0,0,.21-.33.51.51,0,0,0-.28-.35h0c-.09-.06-.14-.11-.15-.18s0-.12.1-.17a.62.62,0,0,1,.29-.06.8.8,0,0,1,.31.09h0a1,1,0,0,1,.58.71.67.67,0,0,1-.41.66l-2.77,1.6.64.37a.26.26,0,0,1,.15.18.18.18,0,0,1-.11.16.43.43,0,0,1-.29.06A.61.61,0,0,1,134.93,371.39Z" style="fill:#fff"/><path d="M140.74,372.83l-1.27-.74a1.36,1.36,0,0,0-.62-.17,1,1,0,0,0-.57.12l-.42.24a.08.08,0,0,0-.05.08.11.11,0,0,0,.07.09L140.6,374c.09.05.14.11.14.18s0,.12-.1.17a.6.6,0,0,1-.29.06.7.7,0,0,1-.3-.09l-3.2-1.84a.24.24,0,0,1-.14-.18c0-.07,0-.12.1-.17l.83-.48a2.14,2.14,0,0,1,1.15-.23,2.67,2.67,0,0,1,1.23.33l1.28.74a1.32,1.32,0,0,0,.61.17,1,1,0,0,0,.58-.12l.56-.32a.33.33,0,0,0,.2-.33.52.52,0,0,0-.29-.36l-1.28-.74a1.35,1.35,0,0,0-.61-.16,1.12,1.12,0,0,0-.58.11.46.46,0,0,1-.29.06.62.62,0,0,1-.31-.08.27.27,0,0,1-.14-.18.15.15,0,0,1,.1-.16,2.06,2.06,0,0,1,1.16-.24,2.55,2.55,0,0,1,1.22.34l1.28.73a1,1,0,0,1,.58.71.66.66,0,0,1-.4.67l-.56.32a2,2,0,0,1-1.15.24A2.75,2.75,0,0,1,140.74,372.83Z" style="fill:#fff"/><path d="M143.87,376.55,142,375.44a.28.28,0,0,1-.14-.17.16.16,0,0,1,.1-.17.62.62,0,0,1,.29-.06.75.75,0,0,1,.31.08l.64.37,2.76-1.59a.33.33,0,0,0,.2-.34.49.49,0,0,0-.28-.35h0a.24.24,0,0,1-.14-.18c0-.07,0-.12.1-.16a.52.52,0,0,1,.29-.07.8.8,0,0,1,.31.09h0a1,1,0,0,1,.58.71.66.66,0,0,1-.41.66l-2.77,1.6.64.37a.26.26,0,0,1,.15.18.18.18,0,0,1-.11.16.43.43,0,0,1-.29.06A.61.61,0,0,1,143.87,376.55Z" style="fill:#fff"/><path d="M150.68,378.89l-.27.16a2.17,2.17,0,0,1-1.16.23A2.74,2.74,0,0,1,148,379l-1.27-.74a1,1,0,0,1-.58-.71.67.67,0,0,1,.41-.67.58.58,0,0,1,.28-.06.75.75,0,0,1,.31.09c.09.05.14.11.14.18a.16.16,0,0,1-.09.16.33.33,0,0,0-.21.34.5.5,0,0,0,.29.35l1.28.74a1.2,1.2,0,0,0,.61.16,1,1,0,0,0,.58-.11l.28-.16a.33.33,0,0,0,.2-.34.5.5,0,0,0-.29-.35l-.32-.18a.3.3,0,0,1-.15-.18.19.19,0,0,1,.11-.17.58.58,0,0,1,.28-.06.63.63,0,0,1,.31.09l.32.18a1.36,1.36,0,0,0,.62.17,1,1,0,0,0,.57-.12l.28-.16a.33.33,0,0,0,.2-.33.48.48,0,0,0-.28-.36l-1.28-.73a1.25,1.25,0,0,0-.62-.17,1,1,0,0,0-.57.12.54.54,0,0,1-.29.05.62.62,0,0,1-.31-.08.26.26,0,0,1-.15-.18.18.18,0,0,1,.11-.16,2,2,0,0,1,1.15-.24,2.56,2.56,0,0,1,1.23.34l1.28.73a1,1,0,0,1,.58.71.67.67,0,0,1-.41.67l-.28.16a1.82,1.82,0,0,1-.57.2,3.9,3.9,0,0,1-.69,0,.54.54,0,0,1-.06.39A.79.79,0,0,1,150.68,378.89Z" style="fill:#fff"/><path d="M129.79,378.68l-1.12-.65s-.08-.06-.08-.1,0-.07,0-.1a.43.43,0,0,1,.17,0,.35.35,0,0,1,.18.05l.38.21,1.61-.93a.19.19,0,0,0,.12-.19.32.32,0,0,0-.16-.21h0a.19.19,0,0,1-.09-.11.11.11,0,0,1,.06-.09.31.31,0,0,1,.17,0,.35.35,0,0,1,.18.05h0a.59.59,0,0,1,.34.41.38.38,0,0,1-.24.39l-1.61.94.37.21a.19.19,0,0,1,.09.11.09.09,0,0,1-.07.09.27.27,0,0,1-.16,0A.48.48,0,0,1,129.79,378.68Z" style="fill:#fff"/><path d="M133.18,379.52l-.74-.43a.84.84,0,0,0-.36-.1.69.69,0,0,0-.34.07l-.24.14a.05.05,0,0,0,0,.05.07.07,0,0,0,0,.05l1.59.92c.05,0,.08.06.08.1s0,.07-.06.1a.29.29,0,0,1-.17,0,.34.34,0,0,1-.17-.05l-1.87-1.07a.19.19,0,0,1-.09-.11.1.1,0,0,1,.06-.09l.49-.28a1.17,1.17,0,0,1,.67-.14,1.51,1.51,0,0,1,.72.19l.75.43a.69.69,0,0,0,.36.1.49.49,0,0,0,.33-.07l.33-.18a.2.2,0,0,0,.12-.2.3.3,0,0,0-.18-.21l-.74-.43a.69.69,0,0,0-.36-.09.52.52,0,0,0-.34.07.4.4,0,0,1-.17,0,.34.34,0,0,1-.17-.05.14.14,0,0,1-.09-.1.1.1,0,0,1,.06-.1,1.27,1.27,0,0,1,.68-.14,1.47,1.47,0,0,1,.71.2l.75.43a.62.62,0,0,1,.34.41.38.38,0,0,1-.24.39l-.32.19a1.29,1.29,0,0,1-.68.14A1.55,1.55,0,0,1,133.18,379.52Z" style="fill:#fff"/><path d="M137.66,382.1l-.75-.43a.8.8,0,0,0-.36-.1.65.65,0,0,0-.33.07l-.25.14s0,0,0,.05a.08.08,0,0,0,.05.05l1.58.92a.17.17,0,0,1,.09.1.11.11,0,0,1-.06.1.31.31,0,0,1-.17,0,.48.48,0,0,1-.18-.05l-1.87-1.08s-.08-.06-.08-.1a.08.08,0,0,1,.06-.1l.48-.28a1.29,1.29,0,0,1,.68-.14,1.47,1.47,0,0,1,.71.2l.75.43a.8.8,0,0,0,.36.1.69.69,0,0,0,.34-.07l.32-.19a.19.19,0,0,0,.12-.19.31.31,0,0,0-.17-.21l-.75-.43a.8.8,0,0,0-.36-.1.58.58,0,0,0-.33.07.31.31,0,0,1-.17,0,.35.35,0,0,1-.18-.05.17.17,0,0,1-.09-.1.12.12,0,0,1,.06-.1,1.21,1.21,0,0,1,.68-.13,1.54,1.54,0,0,1,.72.19l.74.43a.59.59,0,0,1,.34.42.4.4,0,0,1-.24.39l-.32.18a1.17,1.17,0,0,1-.67.14A1.48,1.48,0,0,1,137.66,382.1Z" style="fill:#fff"/><path d="M141.22,384.35l-.16.09a1.17,1.17,0,0,1-.67.14,1.55,1.55,0,0,1-.72-.2l-.75-.43a.58.58,0,0,1-.33-.41.38.38,0,0,1,.24-.39.26.26,0,0,1,.16,0,.34.34,0,0,1,.18,0,.19.19,0,0,1,.09.11.12.12,0,0,1-.06.1c-.09.05-.13.11-.12.19a.31.31,0,0,0,.17.21l.74.43a.88.88,0,0,0,.36.1.69.69,0,0,0,.34-.07l.16-.1c.09-.05.13-.11.12-.19a.31.31,0,0,0-.17-.21l-.19-.11c-.05,0-.08-.06-.08-.1s0-.07.06-.1a.4.4,0,0,1,.17,0,.41.41,0,0,1,.18.05l.18.11a.87.87,0,0,0,.36.09.52.52,0,0,0,.34-.07l.16-.09a.19.19,0,0,0,.12-.19.31.31,0,0,0-.17-.21l-.75-.43a.79.79,0,0,0-.35-.1.69.69,0,0,0-.34.07.24.24,0,0,1-.17,0,.35.35,0,0,1-.18,0,.11.11,0,0,1-.08-.1s0-.07.06-.1a1.24,1.24,0,0,1,.67-.13,1.54,1.54,0,0,1,.72.19l.74.43a.59.59,0,0,1,.34.42.4.4,0,0,1-.24.39l-.16.09a1,1,0,0,1-.33.11,1.4,1.4,0,0,1-.41,0,.31.31,0,0,1,0,.23A.48.48,0,0,1,141.22,384.35Z" style="fill:#fff"/><path d="M133.43,381.23h0a.13.13,0,0,1,.07-.16l3.24-1.35a.12.12,0,0,1,.16.07.12.12,0,0,1-.06.16l-3.24,1.35A.13.13,0,0,1,133.43,381.23Z" style="fill:#fff"/><path d="M172.22,366.18l-10.83,6.26a3.24,3.24,0,0,1-2.94,0l-13.23-7.54a.89.89,0,0,1,0-1.69L156.06,357a3.24,3.24,0,0,1,2.94,0c3.58,2.07,9.64,5.46,13.22,7.54A.89.89,0,0,1,172.22,366.18Z" style="fill:#27debf"/><g style="clip-path:url(#clip-path)"><path d="M172.22,366.18l-10.83,6.26a3.24,3.24,0,0,1-2.94,0l-13.23-7.54a.89.89,0,0,1,0-1.69L156.06,357a3.24,3.24,0,0,1,2.94,0c3.58,2.07,9.64,5.46,13.22,7.54A.89.89,0,0,1,172.22,366.18Z" style="fill:#fff;opacity:0.8"/><polygon points="171.82 369.4 172.81 369.21 151.14 356.8 150.14 356.99 171.82 369.4" style="fill:#27debf"/><polygon points="158.03 367.63 159.03 367.82 164.55 364.63 163.55 364.44 158.03 367.63" style="fill:#27debf"/><polygon points="152.87 364.77 153.87 364.96 159.38 361.78 158.38 361.59 152.87 364.77" style="fill:#27debf"/><polygon points="166.28 372.6 167.28 372.41 145.61 360 144.61 360.19 166.28 372.6" style="fill:#27debf"/></g><path d="M103.07,364.82,51.29,334.93a3.6,3.6,0,0,0-3.26,0l-.23.13a1,1,0,0,0,0,1.88l51.79,29.9a3.6,3.6,0,0,0,3.26,0l.22-.13A1,1,0,0,0,103.07,364.82Z" style="fill:#455a64"/><path d="M98.26,307.44a.79.79,0,0,1,.3-.05.62.62,0,0,1,.26.07l.81.47c.08.05.12.1.12.16s0,.12-.12.16a4.43,4.43,0,0,1-1,.36,5.29,5.29,0,0,1-1.29.12,7.18,7.18,0,0,1-1.46-.22,6.18,6.18,0,0,1-1.55-.65,3.53,3.53,0,0,1-1-.83,1.41,1.41,0,0,1-.33-.86,1.35,1.35,0,0,1,.3-.84,3.38,3.38,0,0,1,.87-.79c.24-.16.52-.32.83-.5l.87-.48a5.91,5.91,0,0,1,1.37-.5,6,6,0,0,1,1.46-.18,6.26,6.26,0,0,1,1.48.19,6,6,0,0,1,1.44.59,4.18,4.18,0,0,1,1.13.9,1.61,1.61,0,0,1,.37.85,1.12,1.12,0,0,1-.21.74,2.49,2.49,0,0,1-.61.6.51.51,0,0,1-.28.07.77.77,0,0,1-.27-.07l-.82-.48a.21.21,0,0,1-.12-.14c0-.06,0-.12.08-.18a.85.85,0,0,0,.26-.31.67.67,0,0,0,0-.37,1,1,0,0,0-.24-.43,2.32,2.32,0,0,0-.59-.45,2.79,2.79,0,0,0-.81-.32,3.21,3.21,0,0,0-.81-.1,3.49,3.49,0,0,0-.79.1,3.27,3.27,0,0,0-.72.28l-.87.47-.82.5a2.28,2.28,0,0,0-.48.42.77.77,0,0,0-.17.45.72.72,0,0,0,.16.47,1.76,1.76,0,0,0,.57.47,3.77,3.77,0,0,0,.78.34,3.46,3.46,0,0,0,.73.14,2.86,2.86,0,0,0,.66,0A2,2,0,0,0,98.26,307.44Z" style="fill:#763cac"/><path d="M108.52,307.8c.84.49,1.29,1,1.33,1.44s-.27.92-1,1.32a4,4,0,0,1-1.59.53,4.61,4.61,0,0,1-1.76-.13l-1.1,2.25a.24.24,0,0,1-.09.08.45.45,0,0,1-.22,0,.51.51,0,0,1-.22,0l-.86-.5c-.13-.07-.2-.15-.2-.22a.36.36,0,0,1,0-.19l1-2.12-1.34-.77-2.35,1.36a.6.6,0,0,1-.27.06.61.61,0,0,1-.28-.06l-.81-.47c-.08-.05-.12-.1-.12-.16a.19.19,0,0,1,.12-.16l6.51-3.76a.51.51,0,0,1,.28-.07.47.47,0,0,1,.27.07Zm-4.69,1,1.46.85a3.19,3.19,0,0,0,1.12.41,1.69,1.69,0,0,0,1.11-.25q.57-.31.42-.63a1.76,1.76,0,0,0-.73-.64l-1.46-.85Z" style="fill:#763cac"/><path d="M111.31,316.11a.16.16,0,0,1,0,.31l-.72.42a.64.64,0,0,1-.54,0l-4.43-2.56a.18.18,0,0,1-.11-.16.19.19,0,0,1,.11-.16l6.52-3.76a.54.54,0,0,1,.27-.06.57.57,0,0,1,.27.06l4.35,2.51a.19.19,0,0,1,.11.16.21.21,0,0,1-.11.16l-.72.41a.64.64,0,0,1-.54,0l-3.26-1.88-1.61.92,3,1.76a.18.18,0,0,1,.11.16.16.16,0,0,1-.11.15l-.71.42a.61.61,0,0,1-.28.06.54.54,0,0,1-.27-.06l-3-1.76-1.67,1Z" style="fill:#763cac"/><path d="M121.4,315.23a4,4,0,0,1,1.1.87,1.43,1.43,0,0,1,.36.85,1.36,1.36,0,0,1-.32.83,3.49,3.49,0,0,1-.91.8c-.47.31-1,.59-1.49.87a7.57,7.57,0,0,1-1.39.52,5.87,5.87,0,0,1-1.44.19,5.7,5.7,0,0,1-1.46-.2,6.16,6.16,0,0,1-1.47-.62l-2.54-1.47a.16.16,0,0,1,0-.31l6.52-3.77a.57.57,0,0,1,.27-.06.61.61,0,0,1,.28.06Zm-1.13,2.57a2,2,0,0,0,.47-.42.77.77,0,0,0,.17-.46.8.8,0,0,0-.19-.49,2.41,2.41,0,0,0-.64-.5l-1.35-.78-4.54,2.62,1.4.81a3.33,3.33,0,0,0,1.66.46,3.49,3.49,0,0,0,.79-.1,3.56,3.56,0,0,0,.73-.28C119.3,318.39,119.8,318.1,120.27,317.8Z" style="fill:#763cac"/><path d="M118.94,322a.16.16,0,0,1,0-.31l6.52-3.76a.51.51,0,0,1,.28-.07.5.5,0,0,1,.27.07l.82.47a.16.16,0,0,1,0,.31l-6.52,3.77a.6.6,0,0,1-.27.06.61.61,0,0,1-.28-.06Z" style="fill:#763cac"/><path d="M133.38,322.15a.18.18,0,0,1,.11.16q0,.09-.12.15l-.71.42a.6.6,0,0,1-.27.06.61.61,0,0,1-.28-.06l-1.81-1.05L124.77,325a.58.58,0,0,1-.55,0l-.81-.47a.21.21,0,0,1-.12-.16.22.22,0,0,1,.12-.16l5.52-3.19L127.12,320a.16.16,0,0,1-.11-.15.17.17,0,0,1,.11-.16l.72-.42a.54.54,0,0,1,.27-.06.57.57,0,0,1,.27.06Z" style="fill:#763cac"/><path d="M136.22,329.36a.63.63,0,0,1,.3-.05.57.57,0,0,1,.25.07l.82.47a.18.18,0,0,1,.12.16q0,.09-.12.15a4.43,4.43,0,0,1-1,.36,5.29,5.29,0,0,1-1.29.12,6.51,6.51,0,0,1-1.46-.21,5.87,5.87,0,0,1-1.55-.66,3.24,3.24,0,0,1-1-.83,1.38,1.38,0,0,1-.33-.85,1.32,1.32,0,0,1,.3-.85,3.57,3.57,0,0,1,.87-.79l.83-.5.87-.48a6.76,6.76,0,0,1,1.37-.5,5.55,5.55,0,0,1,1.46-.17,5.78,5.78,0,0,1,1.48.19,5.27,5.27,0,0,1,1.44.59,3.83,3.83,0,0,1,1.13.9,1.55,1.55,0,0,1,.37.84,1.13,1.13,0,0,1-.21.75,2.45,2.45,0,0,1-.61.59.51.51,0,0,1-.28.07.6.6,0,0,1-.27-.07l-.82-.47a.25.25,0,0,1-.12-.15c0-.06,0-.12.08-.18a.91.91,0,0,0,.26-.3.7.7,0,0,0,0-.38,1,1,0,0,0-.24-.42,2.32,2.32,0,0,0-.59-.45,3.14,3.14,0,0,0-.81-.33,3.25,3.25,0,0,0-.81-.09,3,3,0,0,0-.79.1,3.83,3.83,0,0,0-.72.27l-.87.48-.83.5a2,2,0,0,0-.47.42.86.86,0,0,0-.18.45.85.85,0,0,0,.17.47,1.9,1.9,0,0,0,.57.47,3.77,3.77,0,0,0,.78.34,4.24,4.24,0,0,0,.73.14,3.56,3.56,0,0,0,.66,0A2,2,0,0,0,136.22,329.36Z" style="fill:#763cac"/><path d="M146.86,329.93c.1.06.15.13.15.19a.4.4,0,0,1-.11.23L143,335.46s0,0-.06.05a.64.64,0,0,1-.54,0l-.73-.42c-.14-.08-.2-.15-.2-.21a.43.43,0,0,1,.06-.17l.68-.89L139,332l-1.55.39a1.09,1.09,0,0,1-.28,0,.65.65,0,0,1-.37-.11l-.72-.42a.17.17,0,0,1-.11-.16.18.18,0,0,1,.11-.15l.08,0,8.85-2.25a1.3,1.3,0,0,1,.4-.07.68.68,0,0,1,.33.09ZM143,332.81l1.76-2.3-4,1Z" style="fill:#763cac"/><path d="M153.52,333.78q1.26.72,1.32,1.44t-1,1.32a4.26,4.26,0,0,1-1.6.53,4.82,4.82,0,0,1-1.76-.13l-1.1,2.24a.2.2,0,0,1-.08.08.41.41,0,0,1-.23.06.4.4,0,0,1-.22-.06l-.85-.49c-.14-.08-.21-.16-.21-.23a.48.48,0,0,1,0-.18l1-2.12-1.34-.78-2.35,1.36a.47.47,0,0,1-.27.07.45.45,0,0,1-.27-.07l-.82-.47a.17.17,0,0,1-.11-.16.16.16,0,0,1,.11-.15l6.52-3.77a.54.54,0,0,1,.27-.06.57.57,0,0,1,.27.06Zm-4.7,1,1.46.84a3.44,3.44,0,0,0,1.12.42,1.69,1.69,0,0,0,1.11-.25q.57-.33.42-.63a1.77,1.77,0,0,0-.73-.65l-1.46-.84Z" style="fill:#763cac"/><path d="M160.27,337.71a3.72,3.72,0,0,1,1.1.86,1.34,1.34,0,0,1,.36.85,1.39,1.39,0,0,1-.31.84,3.94,3.94,0,0,1-.92.8c-.47.3-1,.59-1.49.86a7.1,7.1,0,0,1-1.39.53,5.78,5.78,0,0,1-1.43.18,5.72,5.72,0,0,1-1.47-.2,6.3,6.3,0,0,1-1.46-.61l-2.54-1.47c-.08-.05-.12-.1-.12-.16a.19.19,0,0,1,.12-.16l6.51-3.76a.61.61,0,0,1,.28-.07.57.57,0,0,1,.27.07Zm-1.13,2.56a2,2,0,0,0,.48-.42.77.77,0,0,0,.17-.46.82.82,0,0,0-.2-.49,2.15,2.15,0,0,0-.63-.49l-1.35-.78-4.54,2.62,1.4.81a3.09,3.09,0,0,0,.83.34,3,3,0,0,0,.83.11,3.06,3.06,0,0,0,.79-.1,3.56,3.56,0,0,0,.73-.28C158.17,340.86,158.67,340.57,159.14,340.27Z" style="fill:#763cac"/><path d="M404.86,79.43c1-4.24,3.07-7,4-9.19l8.78,1.24c3.23,1.49,7.43,5,7.12,8.6l-2.3,26.06.64,24.67c-5,7.8-20,6.36-20,6.36s-.42-11.1.06-32.54C403.45,92.61,403.59,84.83,404.86,79.43Z" style="fill:#fcd635"/><path d="M375.62,79.77C372.71,86,367.73,96.39,365,102.13L354.32,89.55h-9s10.8,23,17.24,28.38a5.08,5.08,0,0,0,7.37-.44,94.27,94.27,0,0,0,7.23-10c5.1-7.87,7.38-11.27,7.38-11.27l6.42-27C385.36,68.79,379.66,71.08,375.62,79.77Z" style="fill:#ffa8a7"/><path d="M392,69.18c-3.43-.13-7.16-.56-10.43,2.3a26.6,26.6,0,0,0-7.14,10c-2.21,5.2-5.63,11.79-5.63,11.79a28.75,28.75,0,0,0,6.4,6.68,16.21,16.21,0,0,0,7.69,3.23Z" style="fill:#27debf"/><path d="M392,69.18c-3.43-.13-7.16-.56-10.43,2.3a26.6,26.6,0,0,0-7.14,10c-2.21,5.2-5.63,11.79-5.63,11.79a28.75,28.75,0,0,0,6.4,6.68,16.21,16.21,0,0,0,7.69,3.23Z" style="fill:#140927"/><path d="M365,102.13a38.18,38.18,0,0,1,3.29,4.48s-1.15-4.24-2.71-5.69Z" style="fill:#f28f8f"/><path d="M342.65,72.84h0l.85-.89h0a1.06,1.06,0,0,1,.95-.2l10.34,1.75a3.75,3.75,0,0,1,2.47,1.9l9.3,20.21a1,1,0,0,1,0,1.08h0l-.88.92v0a1,1,0,0,1-1,.21l-10.34-1.75a3.72,3.72,0,0,1-2.47-1.9L342.57,74C342.34,73.46,342.39,73.06,342.65,72.84Z" style="fill:#455a64"/><path d="M365.68,96.52,356.39,76.3a3.73,3.73,0,0,0-2.47-1.89l-10.35-1.76c-1-.16-1.4.42-1,1.31l9.3,20.21a3.72,3.72,0,0,0,2.47,1.9l10.34,1.75C365.64,98,366.09,97.4,365.68,96.52Z" style="fill:#263238"/><path d="M355.07,74.88a3.66,3.66,0,0,1,1.32,1.43l9.3,20.2a1,1,0,0,1,0,1.06l.83-.86h0a1,1,0,0,0,0-1.08l-9.3-20.21A3.46,3.46,0,0,0,356,74.06Z" style="fill:#37474f"/><path d="M347.54,92.83c-4.28-4.92-4.16-11.06-2.19-12.84l1.3,2.84s6.55,1.46,9.7,1.22,5.72-1,6.58-.38c1.83,1.28,2.36,6.77-2.88,8.76C355.6,94.13,347.54,92.83,347.54,92.83Z" style="fill:#ffa8a7"/><g id="Botom"><path d="M422.79,254.18c-2.77,1.48-6.14,1.36-9.42,0L412,236.26l10.79,1.42Z" style="fill:#ffa8a7"/><path d="M389.72,243.47c-2.33,5.05-6.55,3.65-11.3.42l.84-18h11.45Z" style="fill:#ffa8a7"/><path d="M402.61,271.14a4.11,4.11,0,0,0,.12,2.77c.36.56,2.42,2.33,6.16,2.59,3.57.26,6.76-.22,8.85-1.55s3.11-2.8,3.31-4.84,0-4,.94-5.56,2.32-3.07,2.63-3.85a7.92,7.92,0,0,0,0-4.15Z" style="fill:#263238"/><path d="M412.4,253.39a9.91,9.91,0,0,1-.43,2.26,20.82,20.82,0,0,1-2.19,4.47,18.49,18.49,0,0,1-1.49,2.1c-1.08,1.29-2.42,2.34-3.56,3.58a7.25,7.25,0,0,0-2.21,4.38c-.15,2.8,2.89,3.75,5.23,4.17a17.27,17.27,0,0,0,7.6-.38,7,7,0,0,0,5.12-5.58c.13-.78.08-1.58.18-2.36a11.09,11.09,0,0,1,2.17-4.9,14.28,14.28,0,0,0,1.67-2.66c.73-1.74.15-3.69-.32-5.41-.4-1.49-.86-3.18-1.38-3a1.85,1.85,0,0,1-.13.9,4,4,0,0,0-.41.88,6.89,6.89,0,0,1-.42,1.15,3,3,0,0,1-1.25,1.37c0-1.06-.07-2.11-.1-3.17a1.42,1.42,0,0,0-.25-.93,1.46,1.46,0,0,0-.89-.39,19.55,19.55,0,0,0-6-.49,1,1,0,0,0-.8.35,1.16,1.16,0,0,0-.14.71A27.08,27.08,0,0,1,412.4,253.39Z" style="fill:#37474f"/><path d="M409.4,260.71c1-.78,3.38-.79,4.66-.65a7.77,7.77,0,0,1,3.63,1.27.83.83,0,0,0,1.07-.08h0a.79.79,0,0,0-.08-1.19,7.88,7.88,0,0,0-4.09-1.52c-3.14-.22-4.06.32-4.06.32S409.09,259.78,409.4,260.71Z" style="fill:#f5f5f5"/><path d="M407,263.58c1.31-.77,3.88-.66,5.16-.53a7.35,7.35,0,0,1,3.53,1.35.82.82,0,0,0,1.07-.09h0a.77.77,0,0,0-.08-1.19,8.19,8.19,0,0,0-4.17-1.63c-3.14-.22-4,.42-4,.42A2.6,2.6,0,0,0,407,263.58Z" style="fill:#f5f5f5"/><path d="M415.84,255.54a7.65,7.65,0,0,0-3.95.33c-.55.31-.92,1.18-.56,1.4a7.34,7.34,0,0,1,3.5-.48,10.45,10.45,0,0,1,3.4.94c.27.12.59.28.87.44a.74.74,0,0,0,1-.32h0a.69.69,0,0,0-.27-.9A10.05,10.05,0,0,0,415.84,255.54Z" style="fill:#f5f5f5"/><path d="M359.66,255a3.39,3.39,0,0,0,.14,2.49c.35.73,4.16,2.88,9.3,2.53a21.31,21.31,0,0,0,10.62-3.71c2-1.3,4-1.54,6.54-1.69s5.89-1.41,6.44-2.6a5.63,5.63,0,0,0-.08-3.24Z" style="fill:#263238"/><path d="M380.31,239.19,379,238.7a1.1,1.1,0,0,0-.75-.09c-.33.13-.46.52-.55.86a12.77,12.77,0,0,1-.56,2.23,5.45,5.45,0,0,1-1.44,1.51,23.42,23.42,0,0,1-4.11,2.65c-1.68.9-3.32,1.6-5.06,2.38s-4.11,1.28-5.49,2.22c-2,1.35-2.28,4.77,0,6.12,2,1.16,7.19,2.42,12.66.87,3-.84,6.28-4,10.19-4.33,2.49-.2,7.19-.89,8.79-2.78.59-.84-.2-3.49-.85-5.78-.7-2.51-1-6.42-1.8-6.2-.06.83-.78,1.32-1.22,2a15.46,15.46,0,0,0-.89,2,3.59,3.59,0,0,1-1.3,1.71,1.65,1.65,0,0,1-2-.11c-.73-.76-.3-2.09-.83-3a3.09,3.09,0,0,0-1.75-1.15Z" style="fill:#37474f"/><path d="M373.88,244.51a2.33,2.33,0,0,1,1.84-1.23c1.13-.21,3.13.62,4.37,1.65a.92.92,0,0,1-.14,1.53h0a.92.92,0,0,1-1.06-.12A7.09,7.09,0,0,0,373.88,244.51Z" style="fill:#f5f5f5"/><path d="M370.37,246.47a2.66,2.66,0,0,1,2.18-1.12,8.31,8.31,0,0,1,4.78,1.79.9.9,0,0,1-.12,1.48h0a.87.87,0,0,1-1-.11A7.11,7.11,0,0,0,370.37,246.47Z" style="fill:#f5f5f5"/><path d="M366.5,248.24a3,3,0,0,1,2.26-1,7.92,7.92,0,0,1,4.58,1.81.9.9,0,0,1-.12,1.48h0a.89.89,0,0,1-1-.12A6.82,6.82,0,0,0,366.5,248.24Z" style="fill:#f5f5f5"/><path d="M421.42,119.29c.64,19.61.59,67.05.59,67.05.21,2.44,1.2,7.45,2,17.21,1.06,12.71-1.23,40.64-1.23,40.64a13,13,0,0,1-10.24.06s-6.13-39.82-8.08-52.38c-1.7-11-5.05-35.84-5.05-35.84l-3.87,32.24a65.85,65.85,0,0,1-.39,16.12c-.9,5.77-4.9,29.54-4.9,29.54a20.26,20.26,0,0,1-11.36-.43s-.37-41.17-.48-46.52c-.11-6.11,2.71-72.53,2.71-72.53Z" style="fill:#37474f"/><path d="M399.42,156,396.52,140s-8-.7-12.48-5.18c0,0,.79,4.39,10.89,7l2.9,16.26-2.28,30.2Z" style="fill:#263238"/></g><path d="M382.11,84.28c.87-6.28,1.7-14.72,11.43-15.11l12.56.6c3.09.81,15.11,2.23,15.11,2.23l.23,27.24s.76,19.64.53,30.15c-9,5.7-28.55,7.55-40.84-1.78C380.76,118.94,381.26,90.5,382.11,84.28Z" style="fill:#140927"/><path d="M383.73,36.86a12.43,12.43,0,0,0,5.5,17.37L387,55.79l22.58,2-.29,5.44a4.06,4.06,0,0,0,2.41-1.82c.81-1.45,3-10.35,3-10.35,2.12-4.86,3.16-9.86,1.64-11.52a4.24,4.24,0,0,0-2.25-1.3l3-1.51a2.4,2.4,0,0,0-3.27-1.19,2.48,2.48,0,0,0-.68.51,6.31,6.31,0,0,0,.15-1,4.44,4.44,0,0,0-.67-2.83,5.3,5.3,0,0,0-1.59-1.39c-2.54-1.59-5.55-2.18-8.38-3.18-1.6-.57-3.15-1.27-4.73-1.91a6,6,0,0,0-3.32-.6,2.2,2.2,0,0,0-1.86,2.43,4.27,4.27,0,0,0-4.66-.71,3.71,3.71,0,0,0-2.28,3.68,4.65,4.65,0,0,0-3.06.29,2.66,2.66,0,0,0-1.49,2.55C381.42,34.68,382.53,35.9,383.73,36.86Z" style="fill:#37474f"/><path d="M399.63,40c2.08-.25,4.14-.59,6.2-.91a.69.69,0,0,1,.55.07.56.56,0,0,1,.17.31c1.36,4,1.32,8.25,2.4,12.28.1.37.33,1,.77,1.05.8.09,1.35-.62,1.69-1.24l.77-1.39a3.29,3.29,0,0,1,.57-.71c1-.89,3.83-2,5.16,1.06s-1.52,7.18-3.82,7.82c-4,1.11-4.49-1.44-4.49-1.44l-.76,14.2c-3.52,3.68-15.09,2.4-12.8-.8l.15-4.32a24.55,24.55,0,0,1-5.32.1c-2.88-.54-4.62-2.88-5.4-6.05-1.25-5.08-1.11-11.29-.13-19a10.58,10.58,0,0,1,.71-2.66C390.1,40.62,395,40.58,399.63,40Z" style="fill:#ffa8a7"/><path d="M396.19,66s6.51-1.09,8.81-2.22a7.5,7.5,0,0,0,3.22-3,10.26,10.26,0,0,1-1.89,3.59c-1.72,2.06-10.2,3.34-10.2,3.34Z" style="fill:#f28f8f"/><path d="M397.12,50a1.39,1.39,0,1,0,1.43-1.4A1.42,1.42,0,0,0,397.12,50Z" style="fill:#263238"/><path d="M399.05,44.22,402,45.47a1.65,1.65,0,0,0-.86-2.13A1.54,1.54,0,0,0,399.05,44.22Z" style="fill:#263238"/><path d="M398.8,57.55l-4.56,1.55a2.36,2.36,0,0,0,3,1.59A2.53,2.53,0,0,0,398.8,57.55Z" style="fill:#b16668"/><path d="M397.25,60.69A2.45,2.45,0,0,0,398.83,59,2,2,0,0,0,396,60.74,2.24,2.24,0,0,0,397.25,60.69Z" style="fill:#f28f8f"/><path d="M385.56,45.39l2.9-1.11a1.5,1.5,0,0,0-2-.88A1.59,1.59,0,0,0,385.56,45.39Z" style="fill:#263238"/><path d="M386.58,50A1.4,1.4,0,1,0,388,48.59,1.43,1.43,0,0,0,386.58,50Z" style="fill:#263238"/><path d="M393.36,49.57l-.21,7.68L388.87,56l4-6.5A1.15,1.15,0,0,1,393.36,49.57Z" style="fill:#f28f8f"/><path d="M380.59,92.09c.33-8,1-15,3.92-18.71s4.55-4.44,11.57-4.33l0,.48a2.6,2.6,0,0,0-2,1.15,41.62,41.62,0,0,0-5.41,12c-2,7.73-2.38,25-2.49,34.29s0,16.79,0,16.79-4.7-1.1-6.15-3.45C380,130.31,380.25,100.05,380.59,92.09Z" style="fill:#27debf"/><path d="M380.59,92.09c.33-8,1-15,3.92-18.71s4.55-4.44,11.57-4.33l0,.48a2.6,2.6,0,0,0-2,1.15,41.62,41.62,0,0,0-5.41,12c-2,7.73-2.38,25-2.49,34.29s0,16.79,0,16.79-4.7-1.1-6.15-3.45C380,130.31,380.25,100.05,380.59,92.09Z" style="fill:#763cac"/><path d="M404.86,79.43c1-4.24,3.07-7,4-9.19l8.78,1.24c3.23,1.49,7.43,5,7.12,8.6l-2.3,26.06.64,24.67c-5,7.8-20,6.36-20,6.36s-.42-11.1.06-32.54C403.45,92.61,403.59,84.83,404.86,79.43Z" style="fill:#763cac"/><path d="M404.45,81.52c.58-2.72.89-7.78,1.37-8.8s3.09-3,3.19-4.41l0-.89a4.42,4.42,0,0,1,2.2,1.13c.82.73,3.24,2.42,3.24,2.42a11.06,11.06,0,0,1-1.82,4.68c-1.44,2.07-3.44,3.42-3.75,2.91s-.26-1.29-.79-2.5c-.66-1.5-.82-2.14-1.52-.65C406.05,76.6,404.45,81.52,404.45,81.52Z" style="fill:#140927"/><path d="M389.48,80c-.72,2.3,1.16-7.94,2.38-9.74s4.32-2.51,4.32-2.51L396.05,70a3.32,3.32,0,0,0-2,1.38A37.49,37.49,0,0,0,389.48,80Z" style="fill:#140927"/><path d="M404.13,83.69a187.33,187.33,0,0,1,20,3.13l-.07.74a188.49,188.49,0,0,0-20.05-3.14C404.08,84.18,404.1,83.93,404.13,83.69Z" style="fill:#232323"/><path d="M381.21,83.53c2.19-.26,4.68-.49,7.41-.62l-.18.75c-2.7.13-5.16.36-7.31.62C381.15,84,381.18,83.77,381.21,83.53Z" style="fill:#232323"/><path d="M441.14,106.61c-9.38-23.82-11.43-31.23-18.05-34a17.8,17.8,0,0,0-5.45-1.16c-1.63,3-4,14.52,3.82,22.53,0,0,5.68,14,8.54,20.63-.09,6.66.39,12.21-1.64,21.21a6,6,0,0,1-2.26,3c-2.38,1.31-2.78,2.79-4.54,4.48-1.37,1.32-2.57,1.63-2.37,2.07a2.57,2.57,0,0,0,3,1.06,22.32,22.32,0,0,0,3.69-1.93c.23.27-2,3.82-4.31,6.41-3.43,3.81-4.26,6.56,2.59,6.83,4.29.17,8.92-3.35,11.83-11.9.57-1.69,1.17-4.13,1.78-6.51.44-1,3.58-17.06,4.24-22C442.89,111.23,442.67,110.48,441.14,106.61Z" style="fill:#ffa8a7"/><path d="M416.47,71.48a13.6,13.6,0,0,1,8.31,1.46c3.71,2.24,5,4.2,9.47,14.62S439.6,100,439.6,100s-2,5.94-13.94,6.62l-5.35-12.2s-4.45-5.53-4.85-12.36S416.47,71.48,416.47,71.48Z" style="fill:#140927"/><path d="M416.47,71.48a13.6,13.6,0,0,1,8.31,1.46c3.71,2.24,5,4.2,9.47,14.62S439.6,100,439.6,100s-2,5.94-13.94,6.62l-5.35-12.2s-4.45-5.53-4.85-12.36S416.47,71.48,416.47,71.48Z" style="fill:#140927;opacity:0.45"/></g></g></svg>