<svg xmlns="http://www.w3.org/2000/svg" xmlns:xlink="http://www.w3.org/1999/xlink" viewBox="0 0 282.57 303.24"><defs><clipPath id="clip-path" transform="translate(-97.94 -114.7)"><rect width="498.29" height="500" style="fill:none"/></clipPath></defs><g id="Layer_2" data-name="Layer 2"><g id="Character"><g style="clip-path:url(#clip-path)"><rect x="98.61" y="204.08" width="1" height="18.49" transform="translate(-113.01 -107.03) rotate(-4.12)" style="fill:#407bff"/><rect x="100.21" y="232.06" width="1" height="6.96" transform="translate(-114.61 -106.86) rotate(-4.12)" style="fill:#407bff"/><path d="M332.54,316.87H118.38a9.64,9.64,0,0,1-9.44-8.81L98.41,161.93a8.11,8.11,0,0,1,8.18-8.8H320.75a9.65,9.65,0,0,1,9.44,8.8l10.52,146.13A8.11,8.11,0,0,1,332.54,316.87Z" transform="translate(-97.94 -114.7)" style="fill:#407bff"/><path d="M333.36,316.87H119.2a9.65,9.65,0,0,1-9.44-8.81L99.24,161.93a8.1,8.1,0,0,1,8.17-8.8H321.57a9.65,9.65,0,0,1,9.44,8.8l10.52,146.13A8.11,8.11,0,0,1,333.36,316.87Z" transform="translate(-97.94 -114.7)" style="fill:#407bff"/><path d="M333.36,316.87H119.2a9.65,9.65,0,0,1-9.44-8.81L99.24,161.93a8.1,8.1,0,0,1,8.17-8.8H321.57a9.65,9.65,0,0,1,9.44,8.8l10.52,146.13A8.11,8.11,0,0,1,333.36,316.87Z" transform="translate(-97.94 -114.7)" style="fill:#fff;opacity:0.5"/><path d="M321.88,157.53H107.73q-.37,0-.72,0c-5.48.45-4.36,8.78,1.17,8.78H322.7c5.53,0,5.44-8.33-.1-8.78Q322.26,157.53,321.88,157.53Z" transform="translate(-97.94 -114.7)" style="fill:#407bff"/><path d="M113.3,161.93a1.85,1.85,0,0,1-1.87,2,2.19,2.19,0,0,1-2.16-2,1.85,1.85,0,0,1,1.87-2A2.21,2.21,0,0,1,113.3,161.93Z" transform="translate(-97.94 -114.7)" style="fill:#fafafa"/><path d="M120.17,161.93a1.85,1.85,0,0,1-1.87,2,2.2,2.2,0,0,1-2.17-2,1.86,1.86,0,0,1,1.88-2A2.21,2.21,0,0,1,120.17,161.93Z" transform="translate(-97.94 -114.7)" style="fill:#fafafa"/><path d="M127,161.93a1.85,1.85,0,0,1-1.87,2,2.2,2.2,0,0,1-2.17-2,1.86,1.86,0,0,1,1.87-2A2.21,2.21,0,0,1,127,161.93Z" transform="translate(-97.94 -114.7)" style="fill:#fafafa"/><path d="M327.68,302.29H122.78a3.49,3.49,0,0,1-3.43-3.2L110.7,178.92a2.93,2.93,0,0,1,3-3.19H318.57a3.49,3.49,0,0,1,3.42,3.19l8.65,120.17A2.93,2.93,0,0,1,327.68,302.29Z" transform="translate(-97.94 -114.7)" style="fill:#fff"/><polygon points="143.41 141.8 140.07 95.48 129.97 89.4 102.16 89.4 105.94 141.8 143.41 141.8" style="fill:#fff"/><path d="M241.36,257H203.88a.48.48,0,0,1-.48-.45l-3.77-52.4a.5.5,0,0,1,.12-.37.53.53,0,0,1,.36-.15h27.8a.43.43,0,0,1,.25.07l10.11,6.08a.5.5,0,0,1,.23.38l3.34,46.32a.5.5,0,0,1-.13.37A.47.47,0,0,1,241.36,257Zm-37-1h36.5l-3.28-45.55-9.77-5.88H200.63Z" transform="translate(-97.94 -114.7)" style="fill:#407bff"/><polygon points="140.07 95.48 129.97 89.4 133.68 97.46 140.07 95.48" style="fill:#ebebeb"/><path d="M231.62,212.65a.5.5,0,0,1-.44-.28l-3.71-8.06a.49.49,0,0,1,.12-.57.48.48,0,0,1,.57-.05l10.11,6.08a.51.51,0,0,1,.23.48.47.47,0,0,1-.34.4l-6.39,2ZM229,205.33l2.88,6.25,5-1.53Z" transform="translate(-97.94 -114.7)" style="fill:#407bff"/><path d="M215.79,227.71a1.94,1.94,0,0,1-2,2.12,2.31,2.31,0,0,1-2.27-2.12,2,2,0,0,1,2-2.11A2.31,2.31,0,0,1,215.79,227.71Z" transform="translate(-97.94 -114.7)" style="fill:#407bff"/><path d="M229.53,227.71a2,2,0,0,1-2,2.12,2.31,2.31,0,0,1-2.27-2.12,1.94,1.94,0,0,1,2-2.11A2.31,2.31,0,0,1,229.53,227.71Z" transform="translate(-97.94 -114.7)" style="fill:#407bff"/><path d="M233.4,241.44a.48.48,0,0,1-.48-.45c-.24-3.4-5.58-6.17-11.9-6.17-4.18,0-7.94,1.25-9.8,3.25a3.71,3.71,0,0,0-1.14,2.86.49.49,0,0,1-1,.06,4.71,4.71,0,0,1,1.4-3.58c2-2.19,6.07-3.56,10.51-3.56,6.93,0,12.58,3.11,12.87,7.08a.48.48,0,0,1-.45.51Z" transform="translate(-97.94 -114.7)" style="fill:#407bff"/><path d="M208,223.43a.53.53,0,0,1-.33-.13.5.5,0,0,1,0-.69l2.12-2.29a.5.5,0,0,1,.69,0,.49.49,0,0,1,0,.68l-2.12,2.29A.52.52,0,0,1,208,223.43Z" transform="translate(-97.94 -114.7)" style="fill:#407bff"/><path d="M232.41,223.43a.51.51,0,0,1-.33-.13L229.63,221a.49.49,0,0,1,0-.69.5.5,0,0,1,.69,0l2.45,2.29a.47.47,0,0,1,0,.68A.48.48,0,0,1,232.41,223.43Z" transform="translate(-97.94 -114.7)" style="fill:#407bff"/><path d="M197.08,266.86h2.26l3.26,4.34-.31-4.34h2.28l.57,7.83h-2.28l-3.25-4.3.31,4.3h-2.27Z" transform="translate(-97.94 -114.7)" style="fill:#407bff"/><path d="M206.16,270.78a3.8,3.8,0,0,1,.85-3,3.74,3.74,0,0,1,2.9-1.07,4.35,4.35,0,0,1,3.09,1,4.23,4.23,0,0,1,1.27,2.94A4.53,4.53,0,0,1,214,273a3,3,0,0,1-1.24,1.37,4.16,4.16,0,0,1-2.14.49,5.23,5.23,0,0,1-2.22-.42,3.78,3.78,0,0,1-1.51-1.34A4.76,4.76,0,0,1,206.16,270.78Zm2.42,0a2.87,2.87,0,0,0,.56,1.71,1.63,1.63,0,0,0,1.24.52,1.38,1.38,0,0,0,1.17-.51,2.8,2.8,0,0,0,.3-1.82,2.63,2.63,0,0,0-.56-1.62,1.66,1.66,0,0,0-1.25-.51,1.35,1.35,0,0,0-1.14.52A2.49,2.49,0,0,0,208.58,270.79Z" transform="translate(-97.94 -114.7)" style="fill:#407bff"/><path d="M219,266.86h3.59a4.51,4.51,0,0,1,1.74.29,3.06,3.06,0,0,1,1.14.83,3.76,3.76,0,0,1,.71,1.25,5.86,5.86,0,0,1,.31,1.52,5.08,5.08,0,0,1-.15,1.95,2.91,2.91,0,0,1-.71,1.16,2.33,2.33,0,0,1-1.05.62,5.49,5.49,0,0,1-1.42.21h-3.6Zm2.55,1.78.3,4.28h.6a2.4,2.4,0,0,0,1.06-.17,1,1,0,0,0,.46-.59,3.7,3.7,0,0,0,.09-1.36,2.78,2.78,0,0,0-.53-1.7,1.81,1.81,0,0,0-1.38-.46Z" transform="translate(-97.94 -114.7)" style="fill:#407bff"/><path d="M232.27,273.4h-2.74l-.29,1.29h-2.47l2.38-7.83h2.64l3.5,7.83h-2.53Zm-.62-1.69-1.07-2.82-.65,2.82Z" transform="translate(-97.94 -114.7)" style="fill:#407bff"/><path d="M234.19,266.86h7.36l.14,1.94h-2.47l.43,5.89h-2.42l-.43-5.89h-2.47Z" transform="translate(-97.94 -114.7)" style="fill:#407bff"/><path d="M247.19,273.4h-2.75l-.29,1.29h-2.47l2.38-7.83h2.64l3.51,7.83h-2.53Zm-.62-1.69-1.07-2.82-.65,2.82Z" transform="translate(-97.94 -114.7)" style="fill:#407bff"/><path d="M348.51,174.79c.9-.45,2-1,2.95-1.57s2-1.12,3-1.72c2-1.21,3.93-2.4,5.81-3.72a77.45,77.45,0,0,0,10.51-8.66c.42-.38.77-.8,1.16-1.21l.57-.61.29-.3.14-.16h0l0,0c-.14.27,0,.19,0-.07a5.39,5.39,0,0,0,.14-1.09,29.22,29.22,0,0,0-.73-6.32c-.89-4.48-2.24-9.1-3.57-13.62l3.89-1.7a82.12,82.12,0,0,1,6.11,13.6,31.57,31.57,0,0,1,1.72,7.89,12.78,12.78,0,0,1-.08,2.51,7.71,7.71,0,0,1-1.23,3.28l-.16.24-.13.16-.16.19-.31.38-.61.75c-.42.49-.81,1-1.26,1.47a70.87,70.87,0,0,1-11.38,10.15c-2,1.49-4.12,2.91-6.28,4.19-1.08.66-2.17,1.28-3.28,1.89s-2.19,1.17-3.46,1.77Z" transform="translate(-97.94 -114.7)" style="fill:#ffb573"/><path d="M339.62,409.89a10.18,10.18,0,0,0,2.21-.3.19.19,0,0,0,.15-.16.2.2,0,0,0-.09-.2c-.28-.19-2.83-1.83-3.8-1.39a.67.67,0,0,0-.4.56,1.13,1.13,0,0,0,.33,1.05A2.38,2.38,0,0,0,339.62,409.89Zm1.65-.59c-1.46.3-2.56.25-3-.14a.74.74,0,0,1-.2-.71.29.29,0,0,1,.16-.25C338.77,408,340.23,408.68,341.27,409.3Z" transform="translate(-97.94 -114.7)" style="fill:#407bff"/><path d="M341.79,409.59l.09,0a.19.19,0,0,0,.1-.18c0-.1,0-2.51-.92-3.32a1,1,0,0,0-.84-.26.7.7,0,0,0-.67.55c-.18.95,1.34,2.75,2.14,3.21Zm-1.43-3.39a.67.67,0,0,1,.44.17,4.52,4.52,0,0,1,.77,2.64c-.79-.64-1.74-2-1.63-2.57,0-.09.08-.21.33-.24Z" transform="translate(-97.94 -114.7)" style="fill:#407bff"/><path d="M341.05,149.78c-1,5-3,15,.45,18.35,0,0-1.36,5-10.6,5-10.15,0-4.85-5-4.85-5,5.54-1.32,5.4-5.44,4.43-9.3Z" transform="translate(-97.94 -114.7)" style="fill:#ffb573"/><path d="M324.11,170.13c-1.59.22-.24-3.91.41-4.34,1.5-1,20.85-2.39,20.72,0-.08,1-.55,3-1.4,3.66S338,168.05,324.11,170.13Z" transform="translate(-97.94 -114.7)" style="fill:#263238"/><path d="M327.26,168.74c-1.26.43-1.14-3.73-.71-4.23,1-1.16,16.66-5.18,17.13-2.91.18,1,.26,3-.28,3.71S338.26,164.81,327.26,168.74Z" transform="translate(-97.94 -114.7)" style="fill:#263238"/><path d="M321.44,140.82a.45.45,0,0,1-.34-.15,3.17,3.17,0,0,0-2.59-1.23.39.39,0,1,1-.08-.78,3.91,3.91,0,0,1,3.29,1.51.4.4,0,0,1-.06.56A.43.43,0,0,1,321.44,140.82Z" transform="translate(-97.94 -114.7)" style="fill:#263238"/><path d="M319.5,145.71a18.08,18.08,0,0,1-2,4.53,2.9,2.9,0,0,0,2.44.21Z" transform="translate(-97.94 -114.7)" style="fill:#ff5652"/><path d="M320,144.5c.06.67-.24,1.25-.68,1.29s-.85-.47-.92-1.14.24-1.25.68-1.29S319.92,143.82,320,144.5Z" transform="translate(-97.94 -114.7)" style="fill:#263238"/><path d="M319.27,143.37l-1.66-.3S318.56,144.25,319.27,143.37Z" transform="translate(-97.94 -114.7)" style="fill:#263238"/><polygon points="253.58 294.69 245.2 294.69 245.86 275.29 254.24 275.29 253.58 294.69" style="fill:#ffb573"/><path d="M342.49,408.42h9.41a.65.65,0,0,1,.66.58l1.08,7.44a1.35,1.35,0,0,1-1.35,1.49c-3.28-.05-4.86-.25-9-.25-2.54,0-6.26.27-9.78.27s-3.7-3.48-2.24-3.79c6.57-1.42,7.6-3.36,9.82-5.22A2.18,2.18,0,0,1,342.49,408.42Z" transform="translate(-97.94 -114.7)" style="fill:#263238"/><g style="opacity:0.2"><polygon points="254.24 275.3 245.86 275.3 245.53 285.3 253.91 285.3 254.24 275.3"/></g><path d="M318.2,179.75A164,164,0,0,1,303.15,173a91.32,91.32,0,0,1-14.41-8.77,35.46,35.46,0,0,1-3.42-3.07c-.28-.3-.55-.58-.83-.93a13,13,0,0,1-.88-1.13,7.69,7.69,0,0,1-.84-7.23,11,11,0,0,1,1.4-2.6,18.42,18.42,0,0,1,3.39-3.52,42,42,0,0,1,7.3-4.67c1.24-.66,2.51-1.25,3.79-1.8s2.54-1.07,3.9-1.54l1.78,3.85c-4.36,2.75-8.88,5.77-12.2,9.16a14,14,0,0,0-2,2.49c-.48.79-.47,1.38-.39,1.33s0,0,.14.1l.4.43a7.07,7.07,0,0,0,.55.54,25.57,25.57,0,0,0,2.7,2.17,61.7,61.7,0,0,0,6.43,4c2.26,1.26,4.58,2.45,6.94,3.59,4.71,2.26,9.6,4.43,14.39,6.41Z" transform="translate(-97.94 -114.7)" style="fill:#ffb573"/><path d="M306.79,138.86l1.39-3-6.3-2.19s-2,5.91.38,8.63h0A6,6,0,0,0,306.79,138.86Z" transform="translate(-97.94 -114.7)" style="fill:#ffb573"/><polygon points="210.24 14.66 205.2 13.21 203.94 18.97 210.24 21.15 210.24 14.66" style="fill:#ffb573"/><path d="M373.17,136.15l.74-7-6.49,1.53s-.09,6.58,3.34,7.62Z" transform="translate(-97.94 -114.7)" style="fill:#ffb573"/><polygon points="272.84 9.51 268.61 11.48 269.48 15.95 275.96 14.43 272.84 9.51" style="fill:#ffb573"/><path d="M342.37,140c.3,8.31.61,11.82-3.15,16.47-5.64,7-15.91,5.55-18.69-2.5-2.51-7.24-2.59-19.61,5.17-23.69A11.34,11.34,0,0,1,342.37,140Z" transform="translate(-97.94 -114.7)" style="fill:#ffb573"/><path d="M338.75,156.41c8.15-3.52,13.52-10.95,11.25-22.57-2.17-11.12-9.67-12.21-12.77-9.91s-10.83-1.13-15.46,2.77c-8,6.76-.44,14,3.51,18.37C327.65,149.93,330.74,159.87,338.75,156.41Z" transform="translate(-97.94 -114.7)" style="fill:#263238"/><path d="M335.36,131.85a8.29,8.29,0,1,0,1.82-11.92A8.53,8.53,0,0,0,335.36,131.85Z" transform="translate(-97.94 -114.7)" style="fill:#407bff"/><path d="M337.48,124.71c-1.18-6.7,5.16-11.86,13.63-9.37s4,10,2.26,16,2.82,11.72,4.73,7.15-1.3-6-1.3-6,9,2.33.64,12.48-15.93-1.06-13.88-7.67C345.21,132,338.59,131,337.48,124.71Z" transform="translate(-97.94 -114.7)" style="fill:#263238"/><path d="M329,127.24c-3.87-2-10.42-3.65-14.15,2.63-1.77,3-1.08,7-1.08,7l11.39.76Z" transform="translate(-97.94 -114.7)" style="fill:#263238"/><path d="M312.44,134.89h0a.25.25,0,0,1-.23-.27c0-.17.28-4.19,2.71-6.72,5.87-6.09,12.75-1,14.72.66a.25.25,0,1,1-.33.38c-1.88-1.62-8.46-6.47-14-.69-2.3,2.39-2.57,6.36-2.57,6.4A.26.26,0,0,1,312.44,134.89Z" transform="translate(-97.94 -114.7)" style="fill:#263238"/><path d="M326.68,144.74A6.9,6.9,0,0,1,325,149c-1.38,1.62-3,.82-3.33-1-.32-1.61,0-4.4,1.75-5.38S326.69,142.89,326.68,144.74Z" transform="translate(-97.94 -114.7)" style="fill:#ffb573"/><path d="M324.88,220.83s.53,58.15,5.58,90.55c4.07,26.17,11.61,86.68,11.61,86.68h11.42s1.12-58.42-.95-84.3c-5.23-65.5,8.27-77.75-2.63-92.93Z" transform="translate(-97.94 -114.7)" style="fill:#263238"/><path d="M324.88,220.83s.53,58.15,5.58,90.55c4.07,26.17,11.61,86.68,11.61,86.68h11.42s1.12-58.42-.95-84.3c-5.23-65.5,8.27-77.75-2.63-92.93Z" transform="translate(-97.94 -114.7)" style="fill:#fff;opacity:0.1"/><path d="M330.88,247.21c4,17.55.81,45.19-1.38,57.36-2.32-18.48-3.49-42.43-4.07-60C327.5,241.23,329.46,241,330.88,247.21Z" transform="translate(-97.94 -114.7)" style="opacity:0.30000000000000004"/><polygon points="242.56 283.59 257.11 283.59 257.87 278.48 242.48 277.96 242.56 283.59" style="fill:#407bff"/><path d="M344.66,171.75c1.37-2.72,8.72-4.43,12.74-4.43l3,13.37s-8,11.89-11.34,10.63C345.14,189.83,341.73,177.58,344.66,171.75Z" transform="translate(-97.94 -114.7)" style="fill:#407bff"/><path d="M344.66,171.75c1.37-2.72,8.72-4.43,12.74-4.43l3,13.37s-8,11.89-11.34,10.63C345.14,189.83,341.73,177.58,344.66,171.75Z" transform="translate(-97.94 -114.7)" style="opacity:0.4"/><path d="M336.18,395a.19.19,0,0,0,0-.19.2.2,0,0,0-.2-.11c-.42.07-4.12.65-4.62,1.71a.62.62,0,0,0,0,.63,1.09,1.09,0,0,0,.85.57c1.22.12,3-1.56,3.9-2.58Zm-4.44,1.54c.34-.56,2.25-1.08,3.71-1.35-1.31,1.34-2.48,2.09-3.16,2a.69.69,0,0,1-.55-.38.23.23,0,0,1,0-.25A.08.08,0,0,1,331.74,396.56Z" transform="translate(-97.94 -114.7)" style="fill:#407bff"/><path d="M336.18,395l0,0a.22.22,0,0,0,0-.19c-.06-.07-1.55-1.78-2.91-1.87a1.43,1.43,0,0,0-1.09.37c-.42.37-.38.69-.28.89.44.86,3.1,1.16,4.17.93A.2.2,0,0,0,336.18,395Zm-3.92-1.26a.79.79,0,0,1,.16-.18,1.06,1.06,0,0,1,.8-.27,4.54,4.54,0,0,1,2.38,1.47c-1.18.1-3.1-.26-3.36-.78A.21.21,0,0,1,332.26,393.76Z" transform="translate(-97.94 -114.7)" style="fill:#407bff"/><polygon points="246.96 276.77 239.3 280.17 235.89 273.07 231.43 263.76 230.9 262.68 238.56 259.27 239.15 260.49 243.47 269.5 246.96 276.77" style="fill:#ffb573"/><polygon points="243.47 269.5 235.89 273.07 231.43 263.76 239.15 260.49 243.47 269.5" style="opacity:0.2"/><path d="M315.89,220.83s-24.47,60.84-17.84,89.48c6,25.89,32.51,74.92,32.51,74.92l10.25-5.14s-16.39-59.19-18.17-72c-3.46-25,18.78-60.33,18.78-87.21Z" transform="translate(-97.94 -114.7)" style="fill:#263238"/><path d="M315.89,220.83s-24.47,60.84-17.84,89.48c6,25.89,32.51,74.92,32.51,74.92l10.25-5.14s-16.39-59.19-18.17-72c-3.46-25,18.78-60.33,18.78-87.21Z" transform="translate(-97.94 -114.7)" style="fill:#fff;opacity:0.1"/><path d="M335.88,393.81l7.61-5.54a.67.67,0,0,1,.88.07l5.24,5.39a1.35,1.35,0,0,1-.2,2c-2.69,1.88-4.08,2.66-7.43,5.09-2.06,1.5-6.16,4.81-9,6.88s-5-.63-4-1.75c4.47-5,5.42-8.09,6.11-10.9A2.27,2.27,0,0,1,335.88,393.81Z" transform="translate(-97.94 -114.7)" style="fill:#263238"/><polygon points="231.95 272.7 245.18 266.65 243.49 261.25 229.32 267.72 231.95 272.7" style="fill:#407bff"/><path d="M322.39,171.07c-1.1-2.84-10.66-6-15.45-7l-2.11,15.77s7.83,11.26,11.27,10.33C320.16,189,324.74,177.16,322.39,171.07Z" transform="translate(-97.94 -114.7)" style="fill:#407bff"/><path d="M322.39,171.07c-1.1-2.84-10.66-6-15.45-7l-2.11,15.77s7.83,11.26,11.27,10.33C320.16,189,324.74,177.16,322.39,171.07Z" transform="translate(-97.94 -114.7)" style="opacity:0.4"/><path d="M311.89,170.28s-4,1.4,4,50.55h34c-.57-13.84-.58-22.38,6-50.8a100,100,0,0,0-14.44-1.9,107.54,107.54,0,0,0-15.45,0C319.42,168.74,311.89,170.28,311.89,170.28Z" transform="translate(-97.94 -114.7)" style="fill:#407bff"/><path d="M311.89,170.28s-4,1.4,4,50.55h34c-.57-13.84-.58-22.38,6-50.8a100,100,0,0,0-14.44-1.9,107.54,107.54,0,0,0-15.45,0C319.42,168.74,311.89,170.28,311.89,170.28Z" transform="translate(-97.94 -114.7)" style="opacity:0.4"/><path d="M350.42,218.83l1.54,3c.12.24-.16.48-.56.48H315.73c-.31,0-.56-.15-.58-.35l-.31-3c0-.21.24-.39.58-.39h34.45A.61.61,0,0,1,350.42,218.83Z" transform="translate(-97.94 -114.7)" style="fill:#407bff"/><path d="M350.42,218.83l1.54,3c.12.24-.16.48-.56.48H315.73c-.31,0-.56-.15-.58-.35l-.31-3c0-.21.24-.39.58-.39h34.45A.61.61,0,0,1,350.42,218.83Z" transform="translate(-97.94 -114.7)" style="fill:#fff;opacity:0.30000000000000004"/><path d="M345.8,222.69h.92c.18,0,.32-.1.31-.21l-.43-4c0-.12-.18-.21-.36-.21h-.92c-.19,0-.33.09-.31.21l.43,4C345.45,222.59,345.61,222.69,345.8,222.69Z" transform="translate(-97.94 -114.7)" style="fill:#263238"/><path d="M323.43,222.69h.93c.18,0,.32-.1.31-.21l-.44-4c0-.12-.17-.21-.35-.21H323c-.18,0-.32.09-.31.21l.44,4C323.09,222.59,323.25,222.69,323.43,222.69Z" transform="translate(-97.94 -114.7)" style="fill:#263238"/></g></g></g></svg>