<svg xmlns="http://www.w3.org/2000/svg" viewBox="0 0 475.05 301.14"><g id="Layer_2" data-name="Layer 2"><g id="Layer_3" data-name="Layer 3"><path d="M193,76.1l7.05-.8a1.57,1.57,0,0,1,1.47.71q.61.94,1.32,1.86A26.89,26.89,0,0,0,205.62,81a1.55,1.55,0,0,1,.39,1.7l-2.7,6.9a1.52,1.52,0,0,0,.75,1.93l6.07,3a1.5,1.5,0,0,0,1.92-.54l3.67-5.75a1.51,1.51,0,0,1,1.7-.65,27.54,27.54,0,0,0,8.59.85,1.56,1.56,0,0,1,1.56,1.09l1.25,4a1.58,1.58,0,0,0,1.79,1.07l6.59-1.34a1.29,1.29,0,0,0,.38-.12,1.52,1.52,0,0,0,.84-1.55l-.58-5.26L237.69,85a28.49,28.49,0,0,0,3.2-2.11,27.65,27.65,0,0,0,3.75-3.48,1.5,1.5,0,0,1,1.68-.4l5.56,2.18a1.55,1.55,0,0,0,2-.77l2.3-4.64.66-1.33a1.58,1.58,0,0,0-.56-2l-4.81-3.07a1.5,1.5,0,0,1-.67-1.65,28,28,0,0,0,.73-5.76c0-.17,0-.33,0-.49s0-.11,0-.17A1.53,1.53,0,0,1,252.61,60l6.43-2a.9.9,0,0,0,.21-.08,1.56,1.56,0,0,0,.84-1.7l-1.31-6.57a1.56,1.56,0,0,0-1.71-1.25l-7.35.83a1.52,1.52,0,0,1-1.52-.79,25.9,25.9,0,0,0-2.3-3.52c-.46-.61-.94-1.18-1.44-1.73a1.61,1.61,0,0,1-.3-1.65l2.59-6.64A1.51,1.51,0,0,0,246,32.9l-6-3a1.6,1.6,0,0,0-2.05.57l-2.9,4.55a1.56,1.56,0,0,1-1.82.64,27.56,27.56,0,0,0-8.29-1.49,1.54,1.54,0,0,1-1.46-1.09l-1.83-5.79a1.59,1.59,0,0,0-1.84-1.08l-6.55,1.31A1.52,1.52,0,0,0,212,29.23l0,.3.68,6.12a1.58,1.58,0,0,1-.84,1.58h0a27.45,27.45,0,0,0-4.06,2.58,24.7,24.7,0,0,0-2,1.68,1.54,1.54,0,0,1-1.62.31l-5.64-2.21a1.59,1.59,0,0,0-2,.77l-3,6a1.76,1.76,0,0,0-.15.53,1.56,1.56,0,0,0,.71,1.48L198,50.8a1.57,1.57,0,0,1,.72,1.38,1.71,1.71,0,0,1-.08.43,27,27,0,0,0-1.38,10.67,1.52,1.52,0,0,1-.83,1.47,1.33,1.33,0,0,1-.24.1L191,66.49A1.56,1.56,0,0,0,190,68.28l0,.15,1.28,6.41A1.58,1.58,0,0,0,193,76.1Zm45.07-20a18.51,18.51,0,0,1,1,3.26,14.33,14.33,0,0,1-1,7.73l-.33.64c-6.89,12.8-25,10.25-27.94-4.19a15,15,0,0,1,.53-6.74,10.49,10.49,0,0,1,.54-1.33,16.78,16.78,0,0,1,3.36-4.63A14.69,14.69,0,0,1,238.07,56.09Z" style="fill:#e8e8e8"/><path d="M416.69,51.42c-6.77-13.63-30.18-4.3-30.18-4.3S375,75.61,370.33,77.17s5.07-26.28,5.07-26.28c-9.48,1-30.92,17.06-30.92,17.06s7.34,29.11,2.42,29.47-5.19-26.11-5.19-26.11C333.24,75.8,326.93,88,326.93,88c-7.11,19.19,17.9,27.33,17.9,27.33s2.33,10.14-1.65,23.1h0a35.64,35.64,0,0,0-1.71,6.4l2.46-.48c.07-.7.16-1.38.29-2h0v0c.09-.42.22-1,.39-1.72h0c.46-1.61.75-2.8.92-3.65h0c1.33-5.06,3.38-11.71,5.28-13.39a5.08,5.08,0,0,1-.74-1l.74,1c6,8.17,27.3,5.49,38.53.77s5.47-7-1.9-11.12-20.29-.07-24.61-1.4,1-4.56,8.89-5.51S385.1,112.29,398,111s17.73-26.93,17.73-26.93c-8.16,4.43-24.72,2.73-25.92-.15s22-7.17,25.4-8.79S423.45,65.05,416.69,51.42Z" style="fill:#e8e8e8"/><path d="M30.34,156.19c-2.75-15,21.59-21.53,21.59-21.53S78.2,150.58,82.88,149s-19.81-18-19.81-18c8.16-4.92,35-4.87,35-4.87s11.56,27.71,15.72,25-11.5-24-11.5-24c9.47-1.48,21.82,4.48,21.82,4.48,17.19,11.11,2,32.61,2,32.61s4.22,9.52,15.17,17.51h0a35.76,35.76,0,0,1,5.2,4.1L144.25,187c-.47-.51-.95-1-1.45-1.46h0l0,0c-.32-.28-.78-.67-1.35-1.14h0c-1.34-1-2.28-1.8-2.92-2.38h0c-4.1-3.25-9.72-7.35-12.26-7.56a5,5,0,0,0,0-1.26c0,.4,0,.82,0,1.26.1,10.13-18.56,20.76-30.38,23.7s-8.58-2.33-5.14-10,16.2-12.21,18.86-15.86-3.5-3.07-10.42.91S92.1,186,81,192.65,50.7,181.72,50.7,181.72c9.2-1.35,21.44-12.63,20.67-15.65s-21.89,7.42-25.6,8.18S33.09,171.15,30.34,156.19Z" style="fill:#e8e8e8"/><path d="M431.12,252.24c12-9.38-1.91-30.42-1.91-30.42s-30.22-5.48-32.7-9.75,26.76-.36,26.76-.36c-2.85-9.1-23-26.83-23-26.83s-27,13.1-28.36,8.35,24.52-10.37,24.52-10.37c-6.12-7.38-19.32-11.1-19.32-11.1C356.9,168.69,354,194.84,354,194.84s-9.46,4.33-22.95,3.07h0a35.36,35.36,0,0,0-6.62-.38l1,2.31c.69-.08,1.38-.12,2-.14h0l1.76,0h0c1.68.12,2.9.16,3.76.15h0c5.22.28,12.14.93,14.18,2.46a4.68,4.68,0,0,1,.85-.94l-.85.94c-6.78,7.52.15,27.84,7.06,37.88s8,3.93,10.5-4.11-4-19.89-3.62-24.39,4.66,0,7.2,7.59-3.24,14.33.64,26.64,30,11.91,30,11.91c-6-7.1-7.69-23.66-5.11-25.42s11.48,20.07,13.76,23.09S419.15,261.63,431.12,252.24Z" style="fill:#e8e8e8"/><path d="M322.4,76.07s1.41-28,14.51-45.62a3.12,3.12,0,0,1,5.61,1.73v.15C342.68,37.3,328.16,59.33,322.4,76.07Z" style="fill:#e8e8e8;opacity:0.5"/><path d="M321.22,84.15s11.8-35.74,35-52.78a3.3,3.3,0,0,1,4.53.54c.71.89,1.1,2.34.54,4.68C359.77,42.84,334.14,65.28,321.22,84.15Z" style="fill:#e8e8e8;opacity:0.5"/><path d="M120.42,121.61S108.66,101.09,92.1,92.9a2.62,2.62,0,0,0-3.55,3.43l0,.12C90.38,100.24,109.7,111.24,120.42,121.61Z" style="fill:#e8e8e8;opacity:0.5"/><path d="M124.4,127.23S101.88,104.9,78,101a2.78,2.78,0,0,0-3.2,2.13c-.19,1,.07,2.18,1.39,3.73C79.66,110.93,107.48,118,124.4,127.23Z" style="fill:#e8e8e8;opacity:0.5"/><path d="M380.21,77.25v178c0,3.11-2.25,5.64-5,5.64H118.35c-2.77,0-5-2.53-5-5.64v-178c0-3.12,2.25-5.64,5-5.64H375.19C378,71.61,380.21,74.13,380.21,77.25Z" style="fill:#b5bfc7"/><path d="M367.52,67.09V81.52H80.89V67.09a5.39,5.39,0,0,1,5.39-5.39H362.12A5.39,5.39,0,0,1,367.52,67.09Z" style="fill:#03a1fc"/><path d="M89.65,71.61a2.51,2.51,0,1,1,2.51,2.51A2.51,2.51,0,0,1,89.65,71.61Z" style="fill:#e8e8e8"/><path d="M99.54,71.61a2.51,2.51,0,1,1,2.51,2.51A2.51,2.51,0,0,1,99.54,71.61Z" style="fill:#e8e8e8"/><path d="M109.69,71.61a2.51,2.51,0,1,1,2.51,2.51A2.51,2.51,0,0,1,109.69,71.61Z" style="fill:#e8e8e8"/><path d="M266.58,46.15l3.43-.39a.77.77,0,0,1,.72.34c.2.31.41.62.64.91a12.38,12.38,0,0,0,1.36,1.52.75.75,0,0,1,.18.83l-1.31,3.36a.73.73,0,0,0,.36.94l3,1.46a.73.73,0,0,0,.94-.26l1.78-2.8a.76.76,0,0,1,.83-.32,13.37,13.37,0,0,0,4.18.42.75.75,0,0,1,.76.53l.61,1.92a.76.76,0,0,0,.87.52l3.21-.65a.6.6,0,0,0,.19-.06.72.72,0,0,0,.41-.75l-.29-2.56-.07-.63a12,12,0,0,0,1.56-1,12.74,12.74,0,0,0,1.82-1.69.76.76,0,0,1,.83-.2l2.7,1.07a.76.76,0,0,0,1-.38L297.33,46l.32-.64a.77.77,0,0,0-.27-1L295,42.86a.75.75,0,0,1-.33-.81,13.26,13.26,0,0,0,.36-2.8V39a.19.19,0,0,1,0-.08.75.75,0,0,1,.53-.65l3.13-1,.1,0a.76.76,0,0,0,.41-.83l-.64-3.2a.77.77,0,0,0-.83-.61L294.2,33a.74.74,0,0,1-.74-.39,12.24,12.24,0,0,0-1.12-1.71,9.73,9.73,0,0,0-.7-.84.78.78,0,0,1-.15-.81L292.76,26a.74.74,0,0,0-.37-.93l-2.92-1.45a.78.78,0,0,0-1,.28l-1.41,2.22a.78.78,0,0,1-.89.31,13.53,13.53,0,0,0-4-.73.75.75,0,0,1-.71-.53l-.89-2.82a.79.79,0,0,0-.89-.53l-3.19.64a.75.75,0,0,0-.6.82v.15l.34,3a.78.78,0,0,1-.42.77h0a13.18,13.18,0,0,0-2,1.26c-.34.26-.65.53-1,.81a.77.77,0,0,1-.79.16l-2.75-1.08a.78.78,0,0,0-1,.37l-1.44,2.92a.78.78,0,0,0-.07.25.77.77,0,0,0,.35.73L269,33.83a.75.75,0,0,1,.35.67,1.55,1.55,0,0,1,0,.21,13.28,13.28,0,0,0-.68,5.2.74.74,0,0,1-.4.71l-.11.05-2.54.8a.75.75,0,0,0-.51.87v.07l.62,3.13A.79.79,0,0,0,266.58,46.15Zm21.95-9.75A9.23,9.23,0,0,1,289,38a7,7,0,0,1-.49,3.76l-.16.32A7.2,7.2,0,0,1,275,36.74a4.26,4.26,0,0,1,.26-.64,8.27,8.27,0,0,1,1.64-2.26A7.16,7.16,0,0,1,288.53,36.4Z" style="fill:#e8e8e8"/><path d="M66.9,207.21s.39-4.17-4.27-4.17a5.57,5.57,0,0,1,2.14,1.15,5.51,5.51,0,0,0-6.2.94c-3.23,2.68-1.22,9.39-2.2,10.67s-4.81,1.53-4.34,5.65,12.14,9.29,11.39,12.7c0,0,4.57-6.72,1.3-9.79a6,6,0,0,1,1.76,3.28s.43-3.48-1.79-4.6c-2-1-3.57-4.59-3.4-5.24S66.9,207.21,66.9,207.21Z" style="fill:#131f2d"/><path d="M62.32,227.21s3.48,14.39,6.89,17.26c2.06,1.73,8.16,5.7,8.16,5.7l-2.54.92s-8.46-2.86-10.36-5.08-7.08-13.39-7.08-13.39Z" style="fill:#fd7955"/><path d="M29.64,252.49l.1.17c.76,1.32,2.5,4.56,4.43,8.11.9,1.68,1.86,3.43,2.76,5.08,1.56,2.84,3,5.38,3.8,6.71s1.46,2.32,1.71,2.7h0a.58.58,0,0,1,.08.39,20.25,20.25,0,0,0,.06,3.57A27.35,27.35,0,0,0,51.52,297l2.31.34s-3.27-12.13-4.24-19a14,14,0,0,1-.18-2.72,27.94,27.94,0,0,0-.74-7.42A167.78,167.78,0,0,0,43.94,251c-.11-.33-3.36-12.1-3.36-12.1-2.73,2.38-12.69,3.37-12.69,3.37S26.2,246.36,29.64,252.49Z" style="fill:#364154"/><path d="M58.68,300.22H49a5.35,5.35,0,0,1,.27-2.59c.49-1.07,1.17-1.11.09-2.79.61.64,2.59.9,4,.71a11.45,11.45,0,0,0,1.68,2.55C55.68,298.55,58.49,298.39,58.68,300.22Z" style="fill:#131f2d"/><path d="M29.64,252.49l.1.17c.76,1.32,4.87,8.92,6.79,12.47a51.56,51.56,0,0,1-.67-18.34Z" style="fill:#131f2d"/><path d="M65.59,206.62a39.24,39.24,0,0,0-5.8,2.84c-2.61,2.9-1.87,6.69-.37,6.72,1,0,.77,1.62.77,1.62l10.7-4.52S69.6,205.77,65.59,206.62Z" style="fill:#131f2d"/><path d="M62,225.05a13.72,13.72,0,0,1,1.43,5.89s-2,3.1-7.05,3.88C56.37,234.82,60.74,225.05,62,225.05Z" style="fill:#03a1fc"/><path d="M37.17,243l0-1.81c-3.6.46-12.41-4.3-12.41-4.3s-3.76,2.51-4.27,9.66c-.26,3.48-1.85,18.24-2,22.65-.07,1.6-.09,2.74-.1,3.19h0a.6.6,0,0,1-.15.37,20.72,20.72,0,0,0-1.95,3c-5.49,10.21-2.62,24.09-2.62,24.09l1.28-.32s4.64-14.39,7.67-20.62A13.73,13.73,0,0,1,24,276.54,28.5,28.5,0,0,0,27.54,270C29.78,264.62,37.17,243,37.17,243Z" style="fill:#364154"/><path d="M21.36,300.22H11.71a5.22,5.22,0,0,1,.27-2.59c.48-1.07,1.24-1.56,1.06-2.85a3.49,3.49,0,0,0,3,1.15,10.73,10.73,0,0,0,1.67,2.17C18.35,298.55,21.17,298.39,21.36,300.22Z" style="fill:#131f2d"/><path d="M55.72,236.9c-1.3.22.21,1.25-1.58,1.44-2.54.28-5.16.47-6.53,1-.5.2-.84.44-.94.76-.6,1.79-4.36,4.86-4.36,4.86-16.82-.76-17.9-8.25-17.9-8.25,10.91-10.6,20.19-16.38,27.87-17.09a13.64,13.64,0,0,1,5.56.58c2.68,1.2,4.15,4.83,4.15,4.83S60.64,236.06,55.72,236.9Z" style="fill:#03a1fc"/><path d="M54.14,238.34c-2.54.28-5.16.47-6.53,1a26.79,26.79,0,0,1,3.4-14.7S53.59,235.17,54.14,238.34Z" style="fill:#026eb7"/><path d="M57.7,220.91c.48,1.51,2.08,5.79,4.29,4.14a5.67,5.67,0,0,1,.94-2.19c.71-1.21,1.54-2.44,1.54-2.44l-3.61-3.17-.22-.19A9.26,9.26,0,0,1,58,220.12.7.7,0,0,0,57.7,220.91Z" style="fill:#fd7955"/><path d="M64.47,220.42s-.83,1.23-1.54,2.44c-2.24-1.39-2.24-4.17-2.07-5.61Z" style="fill:#ed6343"/><path d="M64.57,222s-5.45-3-3.51-6.4,2.55-6,6.11-4.24,3.49,3.47,3.12,4.75S66,222.71,64.57,222Z" style="fill:#fd7955"/><path d="M71.21,214.16c-.25-1.5-1-1.64-1.54-1.54a4.36,4.36,0,0,0-5.3-2,7.4,7.4,0,0,1-4.3,2.58s.63,1.18,3.24,1.91a4.42,4.42,0,0,0,2.57-.21,14.64,14.64,0,0,1-3.7,1.4c3.44.31,6.71-2.83,7.05-3.17a5.14,5.14,0,0,1,.27,2.26c-.23,1-1.13,2.84-.58,3.08C68.92,218.44,71.59,216.4,71.21,214.16Z" style="fill:#131f2d"/><rect x="79.96" y="266.71" width="45.27" height="11.87" transform="translate(129.85 -17.39) rotate(25.99)" style="fill:#03a1fc"/><path d="M66.92,270.29A13.45,13.45,0,0,1,59.64,261a3.06,3.06,0,1,1,6-1.32A7.41,7.41,0,1,0,70.75,251,3.06,3.06,0,0,1,69,245.17a13.52,13.52,0,1,1-2.1,25.12Z" style="fill:#03a1fc"/><path d="M124.49,298.36A13.52,13.52,0,1,1,143,281.23a3.05,3.05,0,1,1-5.68,2.25,7.4,7.4,0,1,0-3.68,9.4,3.06,3.06,0,0,1,2.65,5.51A13.46,13.46,0,0,1,124.49,298.36Z" style="fill:#03a1fc"/><rect x="99.13" y="258.37" width="3.73" height="26.33" rx="1.24" transform="translate(-187.34 243.33) rotate(-64.01)" style="fill:#026eb7"/><path d="M61.45,259.45A3.6,3.6,0,0,0,62,261c.43.53,1.68,1.8,1.7,2.54,0,0-.06.33-.33.27s-1.2-1-1.68-.91a9.28,9.28,0,0,0,.51,1.9,5.16,5.16,0,0,1,.56,2.37c-.15.36-2.68-1.75-3.44-2.78s0-5.21,0-5.21Z" style="fill:#fd7955"/><path d="M56.33,223.25s-6.38-.35-7.51,3.66,2.12,20,2.83,21.65c1.28,3,7.51,11.59,7.51,11.59l2.29-.7s-4.16-13.11-5.08-14.4C54.91,243,58.24,225,56.33,223.25Z" style="fill:#fd7955"/><path d="M47.56,232.27c0,.09,6,1.1,9.81-.81,0,0,3.14-9.86-1.35-9.39s-7.17,1.89-7.28,4A41.13,41.13,0,0,1,47.56,232.27Z" style="fill:#03a1fc"/><path d="M74.23,243.76a2.51,2.51,0,0,0-1.06.26c-.35.27-.74.74,0,1.13,1.17.58,3.51.32,3.42,0C76.34,244,75.92,243.68,74.23,243.76Z" style="fill:#fd7955"/><path d="M148.63,86.76a1.06,1.06,0,0,0-.19,1.16h0a7.25,7.25,0,0,0,2.29,2.52l.37.3.08.08.07,0c1,.93.63,1.15,2.44,3,2.06,2.15,3.48,2.19,3.89,2s-.35-1.3-1.12-2.58l-.12-.19-.3-.51c-.91-1.55-.67-2.27-.46-4.56.17-1.87,2.9-10.42,2.9-10.42l-4-.68s-1.19,6.81-2.5,7.86c-.71.56-1.49.56-2.17,1l-.14.09A5,5,0,0,0,148.63,86.76Z" style="fill:#fd7955"/><path d="M148.63,86.76a1.06,1.06,0,0,0-.19,1.16h0a8.32,8.32,0,0,0,2.3,2.51l.36.31.08.08.07,0c1,.93.63,1.15,2.44,3,2.06,2.15,3.48,2.19,3.89,2s-.35-1.3-1.12-2.58a8.85,8.85,0,0,1-3.69-2.72c-1.24-1.58-2.07-3.62-2.92-4.8l-.14.09A5,5,0,0,0,148.63,86.76Z" style="fill:#131f2d"/><path d="M180.55,84.28c.24,1.23,2,1,3.93.55s1.48.09,4.25-.22,3.61-1.34,3.69-1.75-1.29-.5-2.76-.66l-.55-.07c-1.66-.21-2.87-1.28-4.38-2.16s-3.55-4.22-3.55-4.22l-3.8.3s2,3,2.76,4.35a4.58,4.58,0,0,1,.38,2.59A4.66,4.66,0,0,0,180.55,84.28Z" style="fill:#fd7955"/><path d="M184.48,84.83c1.94-.48,1.48.09,4.25-.22s3.61-1.34,3.69-1.75-1.29-.5-2.76-.66v0a7.83,7.83,0,0,1-4,1.24c-1.88,0-3.87-.5-5.16-.47a4.66,4.66,0,0,0,0,1.29C180.79,85.51,182.53,85.3,184.48,84.83Z" style="fill:#131f2d"/><path d="M166,60l-3.55,9.55L157.81,82a7.52,7.52,0,0,1-2.47-.23A10.84,10.84,0,0,1,153,80.64s1.29-13.39,3.69-21.08a13.87,13.87,0,0,1,2.07-4.47C162.44,50.7,166,60,166,60Z" style="fill:#131f2d"/><path d="M162.38,44.83c-2.32-.75-9,.21-15.62,1.52l-1.4-2.3L131,42.92s-4.75,10.53-2.15,17.25a2.45,2.45,0,0,0,2.44,1.64h11.56C150,61.8,158,56.88,159,56.67c1.69-.33,2.37,3,4.06,6.6S179,79,179,79a12.49,12.49,0,0,0,3.09-.32,3,3,0,0,0,1.33-.84S167.63,46.52,162.38,44.83Z" style="fill:#364154"/><path d="M140.6.23a15.33,15.33,0,0,0-5.24,0c-5.48.54-7.32,6.65-6.49,11.39.77,4.37-1.45,5.58-4,9-5.16,6.93-1.79,12.77,2.28,14.27,2.44.91,5.83-1.37,5.83-1.37s10.65-6.94,15-10.86C155.18,19.91,145.74,1.55,140.6.23Z" style="fill:#131f2d"/><path d="M141.4,20.27c.15.5-2.25,1.43-4.08,1.09s-3.64-2.33-3.25-2.52c.66-.31,1.1-1.09.74-5.3l.33,0,5.51.63s0,1.71.14,3.32A11.27,11.27,0,0,0,141.4,20.27Z" style="fill:#fd7955"/><path d="M140.65,14.21s0,1.71.14,3.32c-3,.16-4.87-2.47-5.65-4Z" style="fill:#ed6343"/><path d="M141.78,15.64s-7.16.71-7.53-3.76-1.54-7.38,3-8,5.59,1,6.08,2.45S143.64,15.34,141.78,15.64Z" style="fill:#fd7955"/><path d="M141,3.16s-.91,5.45-5,6.75c-3,.94-4.33.32-4.33.32a12.16,12.16,0,0,0,1.94-4.54A2.2,2.2,0,0,1,135.11,4C137.22,3.33,139.79,1.43,141,3.16Z" style="fill:#131f2d"/><path d="M139.67,4.32a4.71,4.71,0,0,1,2.54,2,9,9,0,0,1,1.28,4.41s1.26-5-.57-6.92S139.67,4.32,139.67,4.32Z" style="fill:#131f2d"/><path d="M128.51,34.94q.19.81.33,1.5c.14.74.24,1.38.31,2,.22,1.76.15,2.8.3,4a10,10,0,0,0,.54,2.14c.29.82,8.08,1.55,12.5,1.26a6,6,0,0,0,2.86-.62c1.58-1.37,1.42,1.64,1.64-12.79.1-7-6-13.31-6-13.31s-.49,3-6.52-.58c-.21-.12-2.59,3.4-4.87,7.73C127.11,31,127.8,32,128.51,34.94Z" style="fill:#03a1fc"/><path d="M162.44,69.55,157.81,82a7.52,7.52,0,0,1-2.47-.23A10.84,10.84,0,0,1,153,80.64s1.29-13.39,3.69-21.08Z" style="fill:#364154"/><path d="M141,19s6.2,1.05,6.93,3.72,5.76,17.61,5.76,17.61-3.9,1.33-5.36-.13-5.07-13.52-5.07-13.52Z" style="fill:#03a1fc"/><path d="M140.13,13a1.23,1.23,0,0,0,1.09.73c.8,0,1-.11,1.16-.28a2.58,2.58,0,0,0,.3-.49A6.76,6.76,0,0,0,140.13,13Z" style="fill:#fff"/><path d="M129.15,38.39c.22,1.76.15,2.8.3,4,5.64,0,13.17-4.36,13.17-4.36Z" style="fill:#026eb7"/><path d="M142.62,34.29S133.84,34,132.36,29c-1.62-5.48-3.44,2.25-3.44,2.25l1,4.94h9.62Z" style="fill:#026eb7"/><path d="M157.92,20.76l-.48-1.18a3.33,3.33,0,0,0-3.09-2.08H145.6V46.75h36.19V23.05H161.31A3.65,3.65,0,0,1,157.92,20.76Z" style="fill:#b5bfc7"/><path d="M151.06,35.28v-2.1l7.4-3.24v2.15l-5.17,2.13,5.17,2.12v2.18Z" style="fill:#fff"/><path d="M166.14,27.42h2l-6.76,14.14h-2Z" style="fill:#fff"/><path d="M176.33,33.18v2.1l-7.39,3.24V36.37l5.16-2.12-5.16-2.13V29.94Z" style="fill:#fff"/><path d="M142.62,35.45l.63-1a5,5,0,0,0,1.21-.66c.84-.59.73-1.47,1.14-1.38v1.94h-.05c1.8.48,3.91,0,3.95.4.11,1.24-.84,1.79-1.64,2.18a2.89,2.89,0,0,1-2.41.39c-.8-.25-2.07-.5-2.07-.5Z" style="fill:#fd7955"/><path d="M134.5,18.45s-5.7.37-7.12,2.59-3.19,13.5-2.45,17.38,19-.74,19-.74l-.58-3.37S132.8,34.37,132.2,33C131.4,31.18,134.5,18.45,134.5,18.45Z" style="fill:#03a1fc"/><path d="M162,23a2.12,2.12,0,0,0,2.15,1.38c.8-.16,1.85-1.9.93-2.28A2.6,2.6,0,0,0,162,23Z" style="fill:#fd7955"/><rect x="205.71" y="81.41" width="44.93" height="0.22" transform="translate(48.82 244.42) rotate(-61.91)" style="fill:#131f2d"/><rect x="304.21" y="57.03" width="0.22" height="34.98" transform="translate(30.47 226.74) rotate(-42.83)" style="fill:#131f2d"/><path d="M331,94.84a9.54,9.54,0,0,1-1.77,7,9.06,9.06,0,0,1-6.07,3.63L216.82,120.05a9.73,9.73,0,0,1-11.15-8,9.14,9.14,0,0,1,2-7,10.27,10.27,0,0,1,6.59-3.71L320.58,86.75A9.35,9.35,0,0,1,331,94.84Z" style="fill:#e8e8e8"/><path d="M331,94.84a9.54,9.54,0,0,1-1.77,7,9.06,9.06,0,0,1-6.07,3.63l-19.24,2.65L301.34,89.4l19.24-2.65A9.35,9.35,0,0,1,331,94.84Z" style="fill:#03a1fc"/><path d="M319.28,99.91a4.36,4.36,0,0,1-.72,0,4.81,4.81,0,0,1-3.3-8.25h0A4.81,4.81,0,0,1,322,98.59,4.73,4.73,0,0,1,319.28,99.91Zm-3.47-7.63a4,4,0,0,0-.07,5.68,4,4,0,1,0,.07-5.68Z" style="fill:#fff"/><rect x="312.72" y="97.25" width="0.79" height="6.56" transform="translate(166.18 -193.68) rotate(45.66)" style="fill:#fff"/><path d="M309.14,104.41h0a.7.7,0,0,1,0-1l2.76-2.7a.71.71,0,0,1,1,0h0a.69.69,0,0,1,0,1l-2.76,2.71A.71.71,0,0,1,309.14,104.41Z" style="fill:#fff"/><rect x="129.38" y="194.37" width="23.89" height="2.03" rx="0.72" style="fill:#03a1fc"/><path d="M141,203.36h-11a.69.69,0,0,1-.69-.69h0a.69.69,0,0,1,.69-.69h11a.69.69,0,0,1,.7.69h0A.69.69,0,0,1,141,203.36Z" style="fill:#131f2d"/><rect x="129.38" y="199.08" width="20.69" height="1.38" rx="0.49" style="fill:#131f2d"/><rect x="151.96" y="199.08" width="19.32" height="1.38" rx="0.49" style="fill:#131f2d"/><path d="M154.71,203.36h-11a.69.69,0,0,1-.7-.69h0a.69.69,0,0,1,.7-.69h11a.69.69,0,0,1,.69.69h0A.69.69,0,0,1,154.71,203.36Z" style="fill:#131f2d"/><rect x="156.43" y="194.37" width="23.89" height="2.03" rx="0.72" style="fill:#03a1fc"/><rect x="129.38" y="209.63" width="23.89" height="2.03" rx="0.72" style="fill:#03a1fc"/><path d="M141,218.62h-11a.69.69,0,0,1-.69-.69h0a.69.69,0,0,1,.69-.69h11a.69.69,0,0,1,.7.69h0A.69.69,0,0,1,141,218.62Z" style="fill:#131f2d"/><rect x="129.38" y="214.34" width="20.69" height="1.38" rx="0.49" style="fill:#131f2d"/><rect x="151.96" y="214.34" width="19.32" height="1.38" rx="0.49" style="fill:#131f2d"/><path d="M154.71,218.62h-11a.69.69,0,0,1-.7-.69h0a.69.69,0,0,1,.7-.69h11a.69.69,0,0,1,.69.69h0A.69.69,0,0,1,154.71,218.62Z" style="fill:#131f2d"/><rect x="156.43" y="209.63" width="23.89" height="2.03" rx="0.72" style="fill:#03a1fc"/><polygon points="267.9 118.9 255.21 121.86 248.94 133.27 244.15 107.25 267.9 118.9" style="fill:#364154"/><rect x="256.49" y="118.69" width="2.32" height="13.42" transform="translate(-23.44 181.06) rotate(-37.15)" style="fill:#364154"/><rect x="226.11" y="136.91" width="35.77" height="35.77" rx="8.1" style="fill:#e8e8e8"/><path d="M230.68,165.2l6.95-12.53a2.29,2.29,0,0,1,3.85-.25l4,5.47a2.29,2.29,0,0,0,3.54.19h0a2.29,2.29,0,0,1,3.6.3l4.33,6.68a2.29,2.29,0,0,1-1.92,3.53H232.68A2.29,2.29,0,0,1,230.68,165.2Z" style="fill:#026eb7"/><path d="M244.4,146.81a2.74,2.74,0,1,1,2.73,2.73A2.73,2.73,0,0,1,244.4,146.81Z" style="fill:#026eb7"/><rect x="269.6" y="140.15" width="35.77" height="35.77" rx="2.29" transform="translate(-18.72 40.3) rotate(-7.77)" style="fill:#e8e8e8"/><path d="M275.7,170.14l5.19-13.36a2.28,2.28,0,0,1,3.77-.76l4.72,4.88a2.28,2.28,0,0,0,3.52-.29h0a2.29,2.29,0,0,1,3.61-.19l5.19,6a2.28,2.28,0,0,1-1.42,3.75l-22.14,3A2.28,2.28,0,0,1,275.7,170.14Z" style="fill:#026eb7"/><path d="M286.8,150.07a2.74,2.74,0,1,1,3.08,2.33A2.74,2.74,0,0,1,286.8,150.07Z" style="fill:#026eb7"/><rect x="196.44" y="284.15" width="18.03" height="15.46" style="fill:#03a1fc"/><rect x="195.71" y="283.48" width="19.36" height="1.19" style="fill:#364154"/><rect x="196.44" y="288.33" width="18.03" height="4.91" style="fill:#364154"/><path d="M236.4,299.61h-17a1.12,1.12,0,0,1-1.13-1.12V296.6a1.12,1.12,0,0,1,1.25-1.12l17,1.88a1.14,1.14,0,0,1,1,1.13h0A1.13,1.13,0,0,1,236.4,299.61Z" style="fill:#03a1fc"/><path d="M474.48,301.14.58,301A.58.58,0,0,1,0,300.4v-.3a.58.58,0,0,1,.58-.57l473.9.16a.57.57,0,0,1,.57.58v.29A.58.58,0,0,1,474.48,301.14Z" style="fill:#9d462d"/><path d="M206.67,174.09h-2a.33.33,0,0,1-.32-.33.32.32,0,0,1,.32-.32h2a.33.33,0,0,1,0,.65Zm-3.91,0h-1.95a.33.33,0,0,1-.33-.33.32.32,0,0,1,.33-.32h1.95a.32.32,0,0,1,.32.32A.33.33,0,0,1,202.76,174.09Zm-3.9,0h-2a.32.32,0,0,1-.32-.33.32.32,0,0,1,.32-.32h2a.32.32,0,0,1,.32.32A.32.32,0,0,1,198.86,174.09Zm-3.9,0h-2a.33.33,0,0,1-.32-.33.32.32,0,0,1,.32-.32h2a.32.32,0,0,1,.32.32A.32.32,0,0,1,195,174.09Zm-3.89,0h-1.95a.33.33,0,0,1-.33-.33.32.32,0,0,1,.33-.32h1.95a.32.32,0,0,1,.32.32A.33.33,0,0,1,191.07,174.09Zm-3.9,0h-1.95a.32.32,0,0,1-.32-.33.32.32,0,0,1,.32-.32h1.95a.32.32,0,0,1,.32.32A.32.32,0,0,1,187.17,174.09Zm-3.9,0h-2a.33.33,0,0,1-.32-.33.32.32,0,0,1,.32-.32h2a.32.32,0,0,1,.33.32A.33.33,0,0,1,183.27,174.09Zm-3.89,0h-1.95a.32.32,0,0,1-.32-.33.32.32,0,0,1,.32-.32h1.95a.32.32,0,0,1,.32.32A.33.33,0,0,1,179.38,174.09Zm-3.9,0h-1.95a.32.32,0,0,1-.32-.33.32.32,0,0,1,.32-.32h1.95a.32.32,0,0,1,.32.32A.32.32,0,0,1,175.48,174.09Zm-3.9,0h-2a.33.33,0,0,1-.32-.33.32.32,0,0,1,.32-.32h2a.32.32,0,0,1,.33.32A.33.33,0,0,1,171.58,174.09Zm-3.89,0h-1.95a.32.32,0,0,1-.32-.33.32.32,0,0,1,.32-.32h1.95a.32.32,0,0,1,.32.32A.33.33,0,0,1,167.69,174.09Zm-3.9,0h-1.95a.32.32,0,0,1-.32-.33.32.32,0,0,1,.32-.32h1.95a.32.32,0,0,1,.32.32A.32.32,0,0,1,163.79,174.09Zm-3.9,0h-1.95a.33.33,0,0,1-.32-.33.32.32,0,0,1,.32-.32h1.95a.32.32,0,0,1,.33.32A.33.33,0,0,1,159.89,174.09Zm-3.89,0h-1.95a.32.32,0,0,1-.32-.33.32.32,0,0,1,.32-.32H156a.32.32,0,0,1,.32.32A.33.33,0,0,1,156,174.09Zm-3.9,0h-1.95a.32.32,0,0,1-.32-.33.32.32,0,0,1,.32-.32h1.95a.32.32,0,0,1,.32.32A.32.32,0,0,1,152.1,174.09Zm-3.9,0h-1.94a.33.33,0,0,1-.33-.33.32.32,0,0,1,.33-.32h1.94a.32.32,0,0,1,.33.32A.33.33,0,0,1,148.2,174.09Zm-3.89,0h-1.95a.32.32,0,0,1-.32-.33.32.32,0,0,1,.32-.32h1.95a.32.32,0,0,1,.32.32A.33.33,0,0,1,144.31,174.09Zm-3.9,0h-2a.33.33,0,0,1,0-.65h1.93a.32.32,0,0,1,.32.32A.32.32,0,0,1,140.41,174.09Zm68.09-.57a.33.33,0,0,1-.27-.14.32.32,0,0,1,.09-.45,3,3,0,0,0,1.09-1.35.33.33,0,0,1,.42-.18.32.32,0,0,1,.17.42,3.54,3.54,0,0,1-1.32,1.64A.32.32,0,0,1,208.5,173.52Zm-71.83-.12a.31.31,0,0,1-.2-.07,3.55,3.55,0,0,1-1.22-1.71.32.32,0,0,1,.61-.21,3,3,0,0,0,1,1.41.33.33,0,0,1,.06.46A.32.32,0,0,1,136.67,173.4Zm73.27-3.29a.32.32,0,0,1-.32-.33v-1.94a.32.32,0,1,1,.64,0v1.94A.32.32,0,0,1,209.94,170.11Zm-74.56-.2a.33.33,0,0,1-.32-.32v-2a.33.33,0,0,1,.65,0v2A.33.33,0,0,1,135.38,169.91Zm74.56-3.7a.32.32,0,0,1-.32-.32v-1.95a.32.32,0,0,1,.64,0v1.95A.32.32,0,0,1,209.94,166.21Zm-74.56-.2a.32.32,0,0,1-.32-.32v-1.95a.33.33,0,0,1,.65,0v1.95A.32.32,0,0,1,135.38,166Zm74.56-3.7a.32.32,0,0,1-.32-.32v-2a.32.32,0,0,1,.64,0v2A.32.32,0,0,1,209.94,162.31Zm-74.56-.19a.33.33,0,0,1-.32-.33v-1.95a.33.33,0,0,1,.65,0v1.95A.33.33,0,0,1,135.38,162.12Zm74.56-3.7a.32.32,0,0,1-.32-.33v-1.94a.32.32,0,1,1,.64,0v1.94A.32.32,0,0,1,209.94,158.42Zm-74.56-.2a.33.33,0,0,1-.32-.32v-2a.33.33,0,0,1,.65,0v2A.33.33,0,0,1,135.38,158.22Zm74.56-3.7a.32.32,0,0,1-.32-.32v-1.95a.32.32,0,0,1,.64,0v1.95A.32.32,0,0,1,209.94,154.52Zm-74.56-.2a.32.32,0,0,1-.32-.32v-1.95a.33.33,0,0,1,.65,0V154A.32.32,0,0,1,135.38,154.32Zm74.56-3.7a.32.32,0,0,1-.32-.32v-2a.32.32,0,1,1,.64,0v2A.32.32,0,0,1,209.94,150.62Zm-74.56-.19a.33.33,0,0,1-.32-.33v-1.95a.33.33,0,0,1,.65,0v1.95A.33.33,0,0,1,135.38,150.43Zm74.56-3.7a.32.32,0,0,1-.32-.33v-1.94a.32.32,0,1,1,.64,0v1.94A.32.32,0,0,1,209.94,146.73Zm-74.56-.2a.33.33,0,0,1-.32-.32v-2a.33.33,0,0,1,.65,0v2A.33.33,0,0,1,135.38,146.53Zm74.56-3.7a.32.32,0,0,1-.32-.32v-1.95a.32.32,0,0,1,.64,0v1.95A.32.32,0,0,1,209.94,142.83Zm-74.56-.2a.32.32,0,0,1-.32-.32v-1.95a.33.33,0,0,1,.65,0v1.95A.32.32,0,0,1,135.38,142.63Zm74.56-3.7a.32.32,0,0,1-.32-.32v-2a.32.32,0,0,1,.64,0v2A.32.32,0,0,1,209.94,138.93Zm-74.56-.19a.33.33,0,0,1-.32-.33v-1.94a.33.33,0,1,1,.65,0v1.94A.33.33,0,0,1,135.38,138.74Zm74.56-3.7a.32.32,0,0,1-.32-.32v-.88a3,3,0,0,0-.15-1,.32.32,0,1,1,.61-.21,3.75,3.75,0,0,1,.18,1.16v.88A.32.32,0,0,1,209.94,135Zm-74.56-.2a.32.32,0,0,1-.32-.32v-.68a3.7,3.7,0,0,1,.26-1.36.32.32,0,0,1,.6.24,3.05,3.05,0,0,0-.21,1.12v.68A.32.32,0,0,1,135.38,134.84Zm73.27-3.29a.3.3,0,0,1-.19-.07,3,3,0,0,0-1.62-.61.32.32,0,0,1-.31-.34.33.33,0,0,1,.35-.3,3.54,3.54,0,0,1,2,.74.32.32,0,0,1,.06.45A.33.33,0,0,1,208.65,131.55Zm-71.82-.12a.31.31,0,0,1-.26-.14.32.32,0,0,1,.08-.45,3.62,3.62,0,0,1,2-.62h0a.33.33,0,0,1,.32.32.32.32,0,0,1-.32.33,2.88,2.88,0,0,0-1.66.51A.37.37,0,0,1,136.83,131.43Zm68.08-.56H203a.33.33,0,0,1,0-.65h1.95a.33.33,0,0,1,0,.65Zm-3.9,0h-1.95a.33.33,0,0,1,0-.65H201a.33.33,0,0,1,0,.65Zm-3.89,0h-2a.33.33,0,1,1,0-.65h2a.33.33,0,0,1,0,.65Zm-3.9,0h-1.95a.33.33,0,0,1,0-.65h1.95a.33.33,0,0,1,0,.65Zm-3.9,0h-1.95a.33.33,0,0,1,0-.65h1.95a.33.33,0,0,1,0,.65Zm-3.89,0h-2a.33.33,0,1,1,0-.65h2a.33.33,0,0,1,0,.65Zm-3.9,0h-1.95a.33.33,0,0,1,0-.65h1.95a.33.33,0,0,1,0,.65Zm-3.9,0h-1.95a.33.33,0,0,1,0-.65h1.95a.33.33,0,1,1,0,.65Zm-3.89,0h-2a.33.33,0,0,1,0-.65h2a.33.33,0,0,1,0,.65Zm-3.9,0h-2a.33.33,0,0,1,0-.65h2a.33.33,0,0,1,0,.65Zm-3.9,0H164a.33.33,0,0,1,0-.65h1.95a.33.33,0,1,1,0,.65Zm-3.89,0h-2a.33.33,0,0,1,0-.65h2a.33.33,0,0,1,0,.65Zm-3.9,0h-2a.33.33,0,0,1,0-.65h2a.33.33,0,0,1,0,.65Zm-3.9,0H152.3a.33.33,0,0,1,0-.65h1.95a.33.33,0,1,1,0,.65Zm-3.89,0h-2a.33.33,0,0,1,0-.65h2a.33.33,0,0,1,0,.65Zm-3.9,0h-2a.33.33,0,0,1,0-.65h2a.33.33,0,0,1,0,.65Zm-3.9,0h-1.94a.33.33,0,1,1,0-.65h1.94a.33.33,0,1,1,0,.65Z" style="fill:#131f2d"/><path d="M317.42,228.16h-1.74a.29.29,0,1,1,0-.58h1.72a.3.3,0,0,1,.3.29A.29.29,0,0,1,317.42,228.16Zm-3.47,0h-1.72a.29.29,0,1,1,0-.58H314a.29.29,0,0,1,0,.58Zm-3.45,0h-1.73a.29.29,0,0,1,0-.58h1.73a.29.29,0,0,1,0,.58Zm-3.45,0h-1.73a.29.29,0,0,1,0-.58h1.73a.29.29,0,0,1,0,.58Zm-3.45,0h-1.73a.29.29,0,1,1,0-.58h1.73a.29.29,0,0,1,0,.58Zm-3.46,0h-1.72a.29.29,0,1,1,0-.58h1.72a.29.29,0,0,1,0,.58Zm-3.45,0H295a.29.29,0,1,1,0-.58h1.72a.29.29,0,0,1,0,.58Zm-3.45,0h-1.73a.29.29,0,0,1,0-.58h1.73a.29.29,0,1,1,0,.58Zm-3.45,0h-1.73a.29.29,0,0,1,0-.58h1.73a.29.29,0,0,1,0,.58Zm-3.45,0H284.6a.28.28,0,0,1-.27-.3.28.28,0,0,1,.3-.27h1.71a.29.29,0,0,1,0,.58Zm32.19-1.1h0a.28.28,0,0,1-.27-.29v-1.72a.29.29,0,1,1,.57,0v1.74A.29.29,0,0,1,318.53,227.06Zm-35,0a.29.29,0,0,1-.29-.29V225a.29.29,0,0,1,.58,0v1.73A.29.29,0,0,1,283.54,227Zm35-3.41a.29.29,0,0,1-.28-.29V221.6a.29.29,0,1,1,.57,0v1.72A.29.29,0,0,1,318.53,223.61Zm-35-.05a.28.28,0,0,1-.29-.28v-1.73a.29.29,0,0,1,.58,0v1.73A.28.28,0,0,1,283.54,223.56Zm35-3.4a.29.29,0,0,1-.28-.29v-1.72a.29.29,0,1,1,.57,0v1.72A.29.29,0,0,1,318.53,220.16Zm-35,0a.29.29,0,0,1-.29-.28v-1.69a.43.43,0,0,0,0,0,.27.27,0,0,1,.29-.27.28.28,0,0,1,.28.29v1.72A.29.29,0,0,1,283.54,220.11Zm33.92-2.81h-1.73a.29.29,0,1,1,0-.57h1.74a.29.29,0,0,1,0,.57Zm-3.46,0h-1.72a.29.29,0,1,1,0-.57H314a.29.29,0,1,1,0,.57Zm-3.45,0h-1.72a.29.29,0,1,1,0-.57h1.72a.29.29,0,1,1,0,.57Zm-3.45,0h-1.73a.29.29,0,0,1,0-.57h1.73a.29.29,0,1,1,0,.57Zm-3.45,0h-1.73a.29.29,0,0,1,0-.57h1.73a.29.29,0,0,1,0,.57Zm-3.45,0h-1.73a.29.29,0,0,1,0-.57h1.73a.29.29,0,0,1,0,.57Zm-3.45,0H295a.29.29,0,1,1,0-.57h1.73a.29.29,0,0,1,0,.57Zm-3.46,0h-1.72a.29.29,0,1,1,0-.57h1.72a.29.29,0,1,1,0,.57Zm-3.45,0h-1.72a.29.29,0,1,1,0-.57h1.72a.29.29,0,1,1,0,.57Zm-3.45,0h-1.72a.29.29,0,0,1-.29-.29.29.29,0,0,1,.28-.28h1.73a.29.29,0,1,1,0,.57Z" style="fill:#131f2d"/><path d="M194.14,125.16h-1.92a.33.33,0,1,1,0-.65h1.91a.33.33,0,0,1,.32.32A.32.32,0,0,1,194.14,125.16Zm-3.83,0H188.4a.33.33,0,1,1,0-.65h1.91a.33.33,0,0,1,0,.65Zm-3.82,0h-1.91a.33.33,0,1,1,0-.65h1.91a.33.33,0,0,1,0,.65Zm-3.82,0h-1.91a.33.33,0,1,1,0-.65h1.91a.33.33,0,0,1,0,.65Zm-3.82,0h-1.91a.33.33,0,0,1,0-.65h1.91a.33.33,0,0,1,0,.65Zm-3.82,0h-1.91a.33.33,0,0,1,0-.65H175a.33.33,0,0,1,0,.65Zm-3.82,0H169.3a.33.33,0,0,1,0-.65h1.91a.33.33,0,0,1,0,.65Zm-3.79-.21a.28.28,0,0,1-.15,0,1.92,1.92,0,0,1-1-1.66V123a.32.32,0,0,1,.64,0v.24a1.29,1.29,0,0,0,.64,1.1.32.32,0,0,1,.12.44A.31.31,0,0,1,167.42,125Zm28.19-.82-.11,0a.33.33,0,0,1-.19-.42,1.32,1.32,0,0,0,.08-.44v-1.34a.32.32,0,0,1,.32-.32.32.32,0,0,1,.33.32v1.34a1.9,1.9,0,0,1-.13.67A.32.32,0,0,1,195.61,124.13Zm-29-2.7a.32.32,0,0,1-.32-.33v-1.91a.32.32,0,0,1,.64,0v1.91A.32.32,0,0,1,166.62,121.43Zm29.09-1.11a.32.32,0,0,1-.32-.32v-1.91a.32.32,0,0,1,.32-.32.32.32,0,0,1,.33.32V120A.32.32,0,0,1,195.71,120.32Zm-29.09-2.71a.32.32,0,0,1-.32-.33v-1.91a.32.32,0,0,1,.64,0v1.91A.32.32,0,0,1,166.62,117.61Zm29.09-1.11a.32.32,0,0,1-.32-.32v-1.91a.32.32,0,0,1,.32-.32.32.32,0,0,1,.33.32v1.91A.32.32,0,0,1,195.71,116.5Zm-29.09-2.71a.32.32,0,0,1-.32-.33v-1.91a.32.32,0,0,1,.64,0v1.91A.32.32,0,0,1,166.62,113.79Zm29.09-1.11a.32.32,0,0,1-.32-.32v-1.91a.32.32,0,0,1,.32-.32.32.32,0,0,1,.33.32v1.91A.32.32,0,0,1,195.71,112.68ZM166.62,110a.32.32,0,0,1-.32-.33v-1.91a.32.32,0,0,1,.64,0v1.91A.32.32,0,0,1,166.62,110Zm29.09-1.11a.32.32,0,0,1-.32-.32v-1.91a.32.32,0,0,1,.32-.32.32.32,0,0,1,.33.32v1.91A.32.32,0,0,1,195.71,108.86Zm-29.09-2.71a.32.32,0,0,1-.32-.33v-1.91a.32.32,0,1,1,.64,0v1.91A.32.32,0,0,1,166.62,106.15ZM195.71,105a.32.32,0,0,1-.32-.32v-1.91a.32.32,0,0,1,.32-.32.32.32,0,0,1,.33.32v1.91A.32.32,0,0,1,195.71,105Zm-29.09-2.71a.32.32,0,0,1-.32-.33v-1.33a2,2,0,0,1,.12-.68.32.32,0,0,1,.42-.18.31.31,0,0,1,.18.41,1.42,1.42,0,0,0-.08.45V102A.32.32,0,0,1,166.62,102.33Zm29.09-1.11a.32.32,0,0,1-.32-.32v-.23a1.27,1.27,0,0,0-.65-1.1.32.32,0,1,1,.32-.56,1.91,1.91,0,0,1,1,1.66v.23A.32.32,0,0,1,195.71,101.22ZM193,99.41h-1.91a.33.33,0,0,1,0-.65H193a.33.33,0,0,1,0,.65Zm-3.82,0H187.3a.33.33,0,0,1,0-.65h1.91a.33.33,0,0,1,0,.65Zm-3.82,0h-1.91a.33.33,0,0,1,0-.65h1.91a.33.33,0,0,1,0,.65Zm-3.82,0h-1.91a.33.33,0,0,1,0-.65h1.91a.33.33,0,0,1,0,.65Zm-3.82,0h-1.91a.33.33,0,0,1,0-.65h1.91a.33.33,0,0,1,0,.65Zm-3.82,0H172a.33.33,0,0,1,0-.65h1.91a.33.33,0,0,1,0,.65Zm-3.82,0h-1.9a.33.33,0,0,1-.33-.32.32.32,0,0,1,.32-.33h1.91a.33.33,0,0,1,0,.65Z" style="fill:#131f2d"/><path d="M317.42,244.08h-1.74a.28.28,0,0,1-.29-.28.29.29,0,0,1,.29-.29h1.72a.3.3,0,0,1,.3.29A.28.28,0,0,1,317.42,244.08Zm-3.47,0h-1.72a.28.28,0,0,1-.29-.28.29.29,0,0,1,.29-.29H314a.29.29,0,0,1,.29.29A.28.28,0,0,1,314,244.08Zm-3.45,0h-1.73a.28.28,0,0,1-.28-.28.29.29,0,0,1,.28-.29h1.73a.29.29,0,0,1,.29.29A.28.28,0,0,1,310.5,244.08Zm-3.45,0h-1.73a.27.27,0,0,1-.28-.28.28.28,0,0,1,.28-.29h1.73a.28.28,0,0,1,.28.29A.27.27,0,0,1,307.05,244.08Zm-3.45,0h-1.73a.28.28,0,0,1-.29-.28.29.29,0,0,1,.29-.29h1.73a.29.29,0,0,1,.28.29A.28.28,0,0,1,303.6,244.08Zm-3.46,0h-1.72a.28.28,0,0,1-.29-.28.29.29,0,0,1,.29-.29h1.72a.29.29,0,0,1,.29.29A.28.28,0,0,1,300.14,244.08Zm-3.45,0H295a.28.28,0,0,1-.29-.28.29.29,0,0,1,.29-.29h1.72a.29.29,0,0,1,.29.29A.28.28,0,0,1,296.69,244.08Zm-3.45,0h-1.73a.28.28,0,0,1-.28-.28.29.29,0,0,1,.28-.29h1.73a.29.29,0,0,1,.29.29A.28.28,0,0,1,293.24,244.08Zm-3.45,0h-1.73a.28.28,0,0,1-.28-.28.29.29,0,0,1,.28-.29h1.73a.28.28,0,0,1,.28.29A.27.27,0,0,1,289.79,244.08Zm-3.45,0H284.6a.28.28,0,0,1-.27-.3.28.28,0,0,1,.3-.27h1.71a.29.29,0,0,1,.28.29A.28.28,0,0,1,286.34,244.08ZM318.53,243h0a.28.28,0,0,1-.27-.29V241a.29.29,0,1,1,.57,0v1.73A.29.29,0,0,1,318.53,243Zm-35-.05a.28.28,0,0,1-.29-.28v-1.73a.29.29,0,0,1,.58,0v1.73A.28.28,0,0,1,283.54,242.94Zm35-3.4a.29.29,0,0,1-.28-.29v-1.72a.29.29,0,1,1,.57,0v1.72A.29.29,0,0,1,318.53,239.54Zm-35,0a.28.28,0,0,1-.29-.28v-1.73a.29.29,0,0,1,.58,0v1.73A.28.28,0,0,1,283.54,239.49Zm35-3.4a.29.29,0,0,1-.28-.29v-1.72a.29.29,0,1,1,.57,0v1.72A.29.29,0,0,1,318.53,236.09Zm-35-.05a.29.29,0,0,1-.29-.28v-1.69s0,0,0,0a.28.28,0,0,1,.29-.28.3.3,0,0,1,.28.3v1.72A.29.29,0,0,1,283.54,236Zm33.92-2.81h-1.73a.29.29,0,0,1-.29-.29.28.28,0,0,1,.29-.28h1.74a.29.29,0,0,1,0,.57Zm-3.46,0h-1.72a.29.29,0,0,1-.29-.29.28.28,0,0,1,.29-.28H314a.28.28,0,0,1,.29.28A.29.29,0,0,1,314,233.23Zm-3.45,0h-1.72a.29.29,0,0,1-.29-.29.28.28,0,0,1,.29-.28h1.72a.28.28,0,0,1,.29.28A.29.29,0,0,1,310.55,233.23Zm-3.45,0h-1.73a.29.29,0,0,1-.28-.29.28.28,0,0,1,.28-.28h1.73a.28.28,0,0,1,.29.28A.29.29,0,0,1,307.1,233.23Zm-3.45,0h-1.73a.29.29,0,0,1-.28-.29.28.28,0,0,1,.28-.28h1.73a.27.27,0,0,1,.28.28A.28.28,0,0,1,303.65,233.23Zm-3.45,0h-1.73a.28.28,0,0,1-.28-.29.27.27,0,0,1,.28-.28h1.73a.28.28,0,0,1,.28.28A.29.29,0,0,1,300.2,233.23Zm-3.45,0H295a.29.29,0,0,1-.29-.29.28.28,0,0,1,.29-.28h1.73a.28.28,0,0,1,.28.28A.29.29,0,0,1,296.75,233.23Zm-3.46,0h-1.72a.29.29,0,0,1-.29-.29.28.28,0,0,1,.29-.28h1.72a.28.28,0,0,1,.29.28A.29.29,0,0,1,293.29,233.23Zm-3.45,0h-1.72a.29.29,0,0,1-.29-.29.28.28,0,0,1,.29-.28h1.72a.28.28,0,0,1,.29.28A.29.29,0,0,1,289.84,233.23Zm-3.45,0h-1.72a.29.29,0,0,1-.29-.29.28.28,0,0,1,.28-.28h1.73a.28.28,0,0,1,.29.28A.29.29,0,0,1,286.39,233.23Z" style="fill:#131f2d"/><path d="M181.21,232.08h-1.72a.28.28,0,0,1-.29-.28.29.29,0,0,1,.29-.29h1.71a.29.29,0,0,1,.29.29A.27.27,0,0,1,181.21,232.08Zm-3.43,0h-1.71a.28.28,0,0,1-.29-.28.29.29,0,0,1,.29-.29h1.71a.28.28,0,0,1,.28.29A.27.27,0,0,1,177.78,232.08Zm-3.42,0h-1.71a.28.28,0,0,1-.29-.28.29.29,0,0,1,.29-.29h1.71a.29.29,0,0,1,.28.29A.28.28,0,0,1,174.36,232.08Zm-3.43,0h-1.71a.28.28,0,0,1-.28-.28.29.29,0,0,1,.28-.29h1.71a.29.29,0,0,1,.29.29A.28.28,0,0,1,170.93,232.08Zm-3.42,0H165.8a.27.27,0,0,1-.28-.28.28.28,0,0,1,.28-.29h1.71a.29.29,0,0,1,.29.29A.28.28,0,0,1,167.51,232.08Zm-3.42,0h-1.71a.28.28,0,0,1-.29-.28.29.29,0,0,1,.29-.29h1.71a.29.29,0,0,1,.29.29A.28.28,0,0,1,164.09,232.08Zm-3.42,0H159a.28.28,0,0,1-.29-.28.29.29,0,0,1,.29-.29h1.71a.28.28,0,0,1,.28.29A.27.27,0,0,1,160.67,232.08Zm-3.42,0h-1.71a.28.28,0,0,1-.29-.28.29.29,0,0,1,.29-.29h1.71a.29.29,0,0,1,.28.29A.28.28,0,0,1,157.25,232.08Zm-3.43,0h-1.71a.28.28,0,0,1-.28-.28.29.29,0,0,1,.28-.29h1.71a.29.29,0,0,1,.29.29A.28.28,0,0,1,153.82,232.08Zm-3.42,0h-1.71a.27.27,0,0,1-.28-.28.28.28,0,0,1,.28-.29h1.71a.29.29,0,0,1,.29.29A.28.28,0,0,1,150.4,232.08Zm-3.42,0h-1.71a.28.28,0,0,1-.29-.28.29.29,0,0,1,.29-.29H147a.29.29,0,0,1,.29.29A.28.28,0,0,1,147,232.08Zm-3.42,0h-1.71a.28.28,0,0,1-.29-.28.29.29,0,0,1,.29-.29h1.71a.28.28,0,0,1,.28.29A.27.27,0,0,1,143.56,232.08Zm-3.42,0h-1.72a.28.28,0,0,1-.28-.28.29.29,0,0,1,.28-.29h1.72a.29.29,0,0,1,.28.29A.28.28,0,0,1,140.14,232.08Zm-3.43,0H135a.28.28,0,0,1-.28-.28.29.29,0,0,1,.28-.29h1.71a.29.29,0,0,1,.29.29A.28.28,0,0,1,136.71,232.08Zm-3.42,0h-1.71a.27.27,0,0,1-.28-.28.28.28,0,0,1,.28-.29h1.71a.29.29,0,0,1,.29.29A.28.28,0,0,1,133.29,232.08Zm-3.42,0H128.5a2.3,2.3,0,0,1-.37,0,.28.28,0,0,1-.25-.32.29.29,0,0,1,.31-.25,1.67,1.67,0,0,0,.31,0h1.37a.29.29,0,0,1,.29.29A.28.28,0,0,1,129.87,232.08Zm52.95-.49a.26.26,0,0,1-.23-.13.28.28,0,0,1,.07-.39,2.6,2.6,0,0,0,1-1.18.29.29,0,0,1,.37-.15.28.28,0,0,1,.16.37,3.17,3.17,0,0,1-1.18,1.43A.3.3,0,0,1,182.82,231.59Zm-56.21-.2a.26.26,0,0,1-.18-.07,3.17,3.17,0,0,1-1-1.56.27.27,0,0,1,.19-.35.3.3,0,0,1,.36.2,2.58,2.58,0,0,0,.82,1.28.28.28,0,0,1,0,.4A.26.26,0,0,1,126.61,231.39Zm57.51-2.79a.28.28,0,0,1-.29-.28v-1.71a.29.29,0,1,1,.57,0v1.71A.28.28,0,0,1,184.12,228.6Zm-58.53-.33a.29.29,0,0,1-.29-.28v-1.72a.29.29,0,0,1,.29-.28.28.28,0,0,1,.28.28V228A.28.28,0,0,1,125.59,228.27Zm58.53-3.09a.28.28,0,0,1-.29-.28v-1.71a.29.29,0,1,1,.57,0v1.71A.28.28,0,0,1,184.12,225.18Zm-58.53-.33a.29.29,0,0,1-.29-.29v-1.71a.28.28,0,0,1,.29-.28.27.27,0,0,1,.28.28v1.71A.28.28,0,0,1,125.59,224.85Zm58.53-3.09a.29.29,0,0,1-.29-.28v-1.72a.29.29,0,0,1,.57,0v1.72A.29.29,0,0,1,184.12,221.76Zm-58.53-.33a.29.29,0,0,1-.29-.29v-1.71a.28.28,0,0,1,.29-.28.27.27,0,0,1,.28.28v1.71A.28.28,0,0,1,125.59,221.43Zm58.53-3.09a.29.29,0,0,1-.29-.29v-1.71a.29.29,0,0,1,.57,0v1.71A.29.29,0,0,1,184.12,218.34ZM125.59,218a.29.29,0,0,1-.29-.29V216a.29.29,0,0,1,.29-.29.28.28,0,0,1,.28.29v1.71A.28.28,0,0,1,125.59,218Zm58.53-3.09a.29.29,0,0,1-.29-.29v-1.71a.29.29,0,1,1,.57,0v1.71A.29.29,0,0,1,184.12,214.92Zm-58.53-.34a.28.28,0,0,1-.29-.28v-1.71a.29.29,0,0,1,.29-.29.28.28,0,0,1,.28.29v1.71A.27.27,0,0,1,125.59,214.58Zm58.53-3.09a.28.28,0,0,1-.29-.28V209.5a.29.29,0,1,1,.57,0v1.71A.28.28,0,0,1,184.12,211.49Zm-58.53-.33a.29.29,0,0,1-.29-.28v-1.72a.29.29,0,0,1,.29-.28.28.28,0,0,1,.28.28v1.72A.28.28,0,0,1,125.59,211.16Zm58.53-3.09a.29.29,0,0,1-.29-.28v-1.71a.29.29,0,1,1,.57,0v1.71A.29.29,0,0,1,184.12,208.07Zm-58.53-.33a.29.29,0,0,1-.29-.29v-1.71a.28.28,0,0,1,.29-.28.27.27,0,0,1,.28.28v1.71A.28.28,0,0,1,125.59,207.74Zm58.53-3.09a.29.29,0,0,1-.29-.28v-1.72a.29.29,0,0,1,.57,0v1.72A.29.29,0,0,1,184.12,204.65Zm-58.53-.33a.29.29,0,0,1-.29-.29v-1.71a.28.28,0,0,1,.29-.28.27.27,0,0,1,.28.28V204A.28.28,0,0,1,125.59,204.32Zm58.53-3.09a.29.29,0,0,1-.29-.29v-1.71a.29.29,0,0,1,.57,0v1.71A.29.29,0,0,1,184.12,201.23Zm-58.53-.33a.29.29,0,0,1-.29-.29V198.9a.29.29,0,0,1,.29-.29.28.28,0,0,1,.28.29v1.71A.28.28,0,0,1,125.59,200.9Zm58.53-3.09a.29.29,0,0,1-.29-.29v-1.71a.29.29,0,1,1,.57,0v1.71A.29.29,0,0,1,184.12,197.81Zm-58.53-.34a.28.28,0,0,1-.29-.28v-1.71a.29.29,0,0,1,.29-.29.28.28,0,0,1,.28.29v1.71A.27.27,0,0,1,125.59,197.47Zm58.53-3.09a.28.28,0,0,1-.29-.28v-1.71a.29.29,0,1,1,.57,0v1.71A.28.28,0,0,1,184.12,194.38Zm-58.53-.33a.29.29,0,0,1-.29-.28v-1.72a.29.29,0,0,1,.29-.28.28.28,0,0,1,.28.28v1.72A.28.28,0,0,1,125.59,194.05ZM184,191a.28.28,0,0,1-.27-.2,2.67,2.67,0,0,0-.83-1.28.29.29,0,0,1,.37-.44,3.26,3.26,0,0,1,1,1.56.29.29,0,0,1-.2.35Zm-58.19-.31-.11,0a.29.29,0,0,1-.15-.38,3.22,3.22,0,0,1,1.18-1.43.29.29,0,0,1,.39.08.28.28,0,0,1-.08.4,2.62,2.62,0,0,0-1,1.17A.3.3,0,0,1,125.81,190.66Zm55.73-1.77h-1.71a.29.29,0,0,1-.29-.29.28.28,0,0,1,.29-.28h1.37a2.3,2.3,0,0,1,.37,0,.27.27,0,0,1,.25.31A.28.28,0,0,1,181.54,188.89Zm-3.42,0h-1.71a.29.29,0,0,1-.29-.29.28.28,0,0,1,.29-.28h1.71a.27.27,0,0,1,.28.28A.28.28,0,0,1,178.12,188.87Zm-3.42,0H173a.29.29,0,0,1-.28-.29.28.28,0,0,1,.28-.28h1.72a.28.28,0,0,1,.28.28A.29.29,0,0,1,174.7,188.87Zm-3.43,0h-1.71a.28.28,0,0,1-.28-.29.27.27,0,0,1,.28-.28h1.71a.28.28,0,0,1,.29.28A.29.29,0,0,1,171.27,188.87Zm-3.42,0h-1.71a.29.29,0,0,1-.29-.29.28.28,0,0,1,.29-.28h1.71a.28.28,0,0,1,.29.28A.29.29,0,0,1,167.85,188.87Zm-3.42,0h-1.71a.29.29,0,0,1-.29-.29.28.28,0,0,1,.29-.28h1.71a.28.28,0,0,1,.29.28A.29.29,0,0,1,164.43,188.87Zm-3.42,0H159.3a.29.29,0,0,1-.29-.29.28.28,0,0,1,.29-.28H161a.27.27,0,0,1,.28.28A.28.28,0,0,1,161,188.87Zm-3.42,0h-1.72a.29.29,0,0,1-.28-.29.28.28,0,0,1,.28-.28h1.72a.28.28,0,0,1,.28.28A.29.29,0,0,1,157.59,188.87Zm-3.43,0h-1.71a.28.28,0,0,1-.28-.29.27.27,0,0,1,.28-.28h1.71a.28.28,0,0,1,.29.28A.29.29,0,0,1,154.16,188.87Zm-3.42,0H149a.29.29,0,0,1-.29-.29.28.28,0,0,1,.29-.28h1.71a.28.28,0,0,1,.29.28A.29.29,0,0,1,150.74,188.87Zm-3.42,0h-1.71a.29.29,0,0,1-.29-.29.28.28,0,0,1,.29-.28h1.71a.28.28,0,0,1,.29.28A.29.29,0,0,1,147.32,188.87Zm-3.42,0h-1.71a.29.29,0,0,1-.29-.29.28.28,0,0,1,.29-.28h1.71a.27.27,0,0,1,.28.28A.28.28,0,0,1,143.9,188.87Zm-3.42,0h-1.72a.29.29,0,0,1-.28-.29.28.28,0,0,1,.28-.28h1.72a.28.28,0,0,1,.28.28A.29.29,0,0,1,140.48,188.87Zm-3.43,0h-1.71a.28.28,0,0,1-.28-.29.27.27,0,0,1,.28-.28h1.71a.28.28,0,0,1,.29.28A.29.29,0,0,1,137.05,188.87Zm-3.42,0h-1.71a.29.29,0,0,1-.29-.29.28.28,0,0,1,.29-.28h1.71a.28.28,0,0,1,.29.28A.29.29,0,0,1,133.63,188.87Zm-3.42,0H128.5a.29.29,0,0,1-.28-.29.27.27,0,0,1,.28-.28h1.71a.27.27,0,0,1,.28.28A.28.28,0,0,1,130.21,188.87Z" style="fill:#131f2d"/><rect x="125.99" y="136.42" width="74.56" height="43.22" rx="9.57" style="fill:#e8e8e8"/><path d="M154.85,149.46V166.6a1.35,1.35,0,0,0,2.09,1.13l13-8.57a1.35,1.35,0,0,0,0-2.25l-13-8.58A1.35,1.35,0,0,0,154.85,149.46Z" style="fill:#03a1fc"/><path d="M129.86,175.74a1.34,1.34,0,1,1,1.34,1.34A1.34,1.34,0,0,1,129.86,175.74Z" style="fill:#a9c2ff"/><path d="M192.08,176.1H131.56a.36.36,0,0,1-.36-.36h0a.36.36,0,0,1,.36-.36h60.52a.36.36,0,0,1,.36.36h0A.36.36,0,0,1,192.08,176.1Z" style="fill:#a9c2ff"/><rect x="195.71" y="188.58" width="38.57" height="57.58" style="fill:#e8e8e8"/><path d="M218.7,207.08h-.53v-2.37a1.55,1.55,0,0,1,1.55-1.54h6.52a1,1,0,0,0,1-.76l1-3.93a1,1,0,0,0-.18-.87,1,1,0,0,0-.8-.4h-8.52v-.53h8.52a1.54,1.54,0,0,1,1.22.6,1.56,1.56,0,0,1,.27,1.34l-1,3.92a1.55,1.55,0,0,1-1.5,1.15h-6.52a1,1,0,0,0-1,1Z" style="fill:#364154"/><rect x="211.91" y="194.72" width="14.64" height="4.45" rx="1.58" style="fill:#03a1fc"/><path d="M218.44,216.93h0a1.45,1.45,0,0,1-1.45-1.45v-8.79a1.45,1.45,0,0,1,1.45-1.46h0a1.45,1.45,0,0,1,1.45,1.46v8.79A1.45,1.45,0,0,1,218.44,216.93Z" style="fill:#364154"/><path d="M274,236a19.58,19.58,0,0,1,.91,3.78,13.84,13.84,0,0,1-1.16,3.72c-.45.61-.67-2.51-1-3s-.08,1.18-.33,1.33-.77-1.21-1-1.69.55-2.25.55-3.48S274,236,274,236Z" style="fill:#fd7955"/><path d="M250.49,211.58a4.36,4.36,0,0,1,6.58-4.11l.18.11c4.53,2.92,14.3,16.51,15,17.88s2.65,12.2,2.65,12.2-2.45.89-3.59,0c0,0-4-10.28-4.57-10.79s-15.91-9.11-16-12.33C250.64,213.65,250.57,212.62,250.49,211.58Z" style="fill:#131f2d"/><path d="M277.82,291.16s1.83,1.67,1.47,2.85-2,2-2.22,3.42-1.12,2.24-1.92,2.24h-3.82s-.59-1,.84-1.33,2-2,1.87-3.58a27.85,27.85,0,0,1,.13-3.68l3-.7Z" style="fill:#214a80"/><path d="M255.43,295.47s.33,3.79-.47,4.19l-10.26,0s0-1.19,1.65-1.45,4.54-1.23,5-3.37S255.43,295.47,255.43,295.47Z" style="fill:#214a80"/><path d="M246.77,241.92s.54,6.65,1.18,14.63c.86,10.86,1.9,24.18,2,26.71.17,4.38.89,11.4.89,11.4s1.69,1.66,5.07,1A112.87,112.87,0,0,0,259.8,275c0-.18,0-.35,0-.53.8-10.78,2.05-33.49,2.05-33.49Z" style="fill:#03a1fc"/><path d="M246.77,241.92s.54,6.65,1.18,14.63L259.8,275c0-.18,0-.35,0-.53.8-10.78,2.05-33.49,2.05-33.49Z" style="fill:#026eb7"/><path d="M249.24,242.71s9.75,24.07,16.16,35.38,8.42,14.46,8.42,14.46,3.67-1.44,4-2.43c0,0-2.45-21.83-6.74-27.16-2.43-3-5.28-12-5.41-15.19s-.87-9.4-.87-9.4Z" style="fill:#03a1fc"/><path d="M257.65,206.61s-6.53,3.31-10.36,2.21a8.92,8.92,0,0,1,2.53-2.11c-.14-.76-.26-1.42-.33-2-.18-1.3-.2-2-.2-2l2.51-2,2.37-2A9.75,9.75,0,0,0,257.65,206.61Z" style="fill:#fd7955"/><path d="M264.14,240.27a27.06,27.06,0,0,1-8.06,3.48c-3.44.81-7.68.57-9.1.79a.57.57,0,0,1-.41-.11c-.11-.05-.74-4.26-1.36-9.56,0-.22-.06-.43-.07-.65v-.07c-.25-2.08-.46-4.26-.65-6.44-.15-1.7-.27-3.38-.36-5-.11-2-.15-3.79-.11-5.28,0-.68.06-1.3.12-1.83a13.06,13.06,0,0,1,3.25-7l1.15-1.32a6.32,6.32,0,0,0,4-1c1.41-.93,2.93-1.92,3.22-1.76,2.16,1.19,3.92,4.25,5.18,8.3a46.83,46.83,0,0,1,1.63,7.77c.11.87.21,1.76.28,2.65,0,.17,0,.33,0,.49.17,2.43.45,4.7.76,6.73.41,2.74.88,5,1.21,6.65.17.83.3,1.46.37,1.92S264.49,240.05,264.14,240.27Z" style="fill:#364154"/><path d="M254.26,200.74a8.78,8.78,0,0,1-4.77,4c-.18-1.3-.2-2-.2-2l2.51-2Z" style="fill:#ed6343"/><path d="M248.13,202.63s6.31.91,6.83-3,1.67-6.38-2.34-7.12-5,.64-5.48,1.89S246.5,202.3,248.13,202.63Z" style="fill:#fd7955"/><path d="M257.09,192c.06-.07.19-.12.48-.15a1.2,1.2,0,0,0-.55-.14,1.47,1.47,0,0,0-1-1.28.85.85,0,0,1,.44.62c-.83-.82-2.58-1.39-7.39-.91-6.35.62-4.17,4.65-3.34,5.12s2.88-.9,4.41-.81,1.87,2.3,2.4,2.59.31-.24,1-.57.78.83.59,1.6.8,1.74.8,1.74l1-1.07c1-1.07,1.79-5.55,1.32-6.49Z" style="fill:#131f2d"/><path d="M255.09,217.81s-5.33,4.05-11,4.94c-.11-2-.15-3.79-.11-5.28Z" style="fill:#131f2d"/><path d="M222.4,212.59c-.08-.09-1.17-3.72-3-3.45-1.23.17-3.23.88-2.7,2.49.21.63,3.94,2.82,3.94,2.82Z" style="fill:#fd7955"/><path d="M255.75,210a4.37,4.37,0,0,1-.46,7.74l-.2.08c-5,2-21.74,2.1-23.24,1.86s-11.49-4.89-11.49-4.89.69-2.52,2.12-2.92c0,0,10.68,2.71,11.44,2.53s16.63-7.7,19.34-5.94C254,208.91,254.84,209.45,255.75,210Z" style="fill:#364154"/><path d="M368.37,90.88H355.05a1,1,0,0,1-1-1h0a1,1,0,0,1,1-1h13.32a1,1,0,0,1,1,1h0A1,1,0,0,1,368.37,90.88Z" style="fill:#e8f2fa"/><path d="M368.37,94.86H355.05a1,1,0,0,1-1-1h0a1,1,0,0,1,1-1h13.32a1,1,0,0,1,1,1h0A1,1,0,0,1,368.37,94.86Z" style="fill:#e8f2fa"/><path d="M368.37,98.94H355.05a1,1,0,0,1-1-1h0a1,1,0,0,1,1-1h13.32a1,1,0,0,1,1,1h0A1,1,0,0,1,368.37,98.94Z" style="fill:#e8f2fa"/><path d="M316.18,195H284.46a1.34,1.34,0,0,1-1.35-1.35h0a1.35,1.35,0,0,1,1.35-1.35h31.72a1.35,1.35,0,0,1,1.35,1.35h0A1.34,1.34,0,0,1,316.18,195Z" style="fill:#e8f2fa"/><path d="M161.09,102.34H129.37A1.36,1.36,0,0,1,128,101h0a1.36,1.36,0,0,1,1.36-1.36h31.72a1.35,1.35,0,0,1,1.35,1.36h0A1.35,1.35,0,0,1,161.09,102.34Z" style="fill:#e8f2fa"/><path d="M316.18,208.43H284.46a1.35,1.35,0,0,1-1.35-1.35h0a1.35,1.35,0,0,1,1.35-1.35h31.72a1.35,1.35,0,0,1,1.35,1.35h0A1.35,1.35,0,0,1,316.18,208.43Z" style="fill:#e8f2fa"/><path d="M316.18,201.73H278.24a1.35,1.35,0,0,1-1.35-1.35h0a1.35,1.35,0,0,1,1.35-1.35h37.94a1.35,1.35,0,0,1,1.35,1.35h0A1.35,1.35,0,0,1,316.18,201.73Z" style="fill:#e8f2fa"/><rect x="132.74" y="108.13" width="19.96" height="2.7" rx="0.96" style="fill:#e8f2fa"/><path d="M126.82,109.48a1.35,1.35,0,1,1,1.35,1.35A1.34,1.34,0,0,1,126.82,109.48Z" style="fill:#e8f2fa"/><rect x="132.74" y="113.5" width="23.44" height="2.7" rx="0.96" style="fill:#e8f2fa"/><path d="M126.82,114.85a1.35,1.35,0,1,1,1.35,1.35A1.35,1.35,0,0,1,126.82,114.85Z" style="fill:#e8f2fa"/><rect x="132.74" y="119.34" width="19.96" height="2.7" rx="0.96" style="fill:#e8f2fa"/><path d="M126.82,120.69a1.35,1.35,0,1,1,1.35,1.35A1.34,1.34,0,0,1,126.82,120.69Z" style="fill:#e8f2fa"/><path d="M184.24,113.85a4.17,4.17,0,0,1-.71.05,4.77,4.77,0,0,1-3.28-8.18h0a4.77,4.77,0,1,1,4,8.13Zm-3.44-7.56a4,4,0,0,0-.06,5.62,4,4,0,0,0,5.62.07,4,4,0,1,0-5.56-5.69Z" style="fill:#131f2d"/><rect x="177.74" y="111.21" width="0.78" height="6.5" transform="translate(135.5 -92.94) rotate(45.66)" style="fill:#131f2d"/><path d="M174.19,118.31h0a.7.7,0,0,1,0-1l2.74-2.67a.69.69,0,0,1,1,0h0a.71.71,0,0,1,0,1l-2.74,2.67A.7.7,0,0,1,174.19,118.31Z" style="fill:#131f2d"/><path d="M406.37,299.76h0a1.58,1.58,0,0,1-1.42-1L368.34,187.31a.73.73,0,0,1,.78-1h0a1.55,1.55,0,0,1,1.42,1l36.61,111.46A.74.74,0,0,1,406.37,299.76Z" style="fill:#131f2d"/><path d="M435.88,299.59h0a1.58,1.58,0,0,1-1.43-1l-36.6-111.47a.73.73,0,0,1,.77-1h0a1.55,1.55,0,0,1,1.43,1l36.61,111.46A.74.74,0,0,1,435.88,299.59Z" style="fill:#131f2d"/><path d="M404.11,202.67l-29.63.17a1.47,1.47,0,0,1-1.34-.92h0a.69.69,0,0,1,.73-.94l29.63-.17a1.47,1.47,0,0,1,1.34.92h0A.69.69,0,0,1,404.11,202.67Z" style="fill:#131f2d"/><path d="M410.5,222.13l-29.63.17a1.47,1.47,0,0,1-1.34-.92h0a.69.69,0,0,1,.73-.94l29.63-.17a1.46,1.46,0,0,1,1.34.92h0A.69.69,0,0,1,410.5,222.13Z" style="fill:#131f2d"/><path d="M416.66,240.88l-29.63.17a1.48,1.48,0,0,1-1.34-.93h0a.7.7,0,0,1,.73-.94l29.63-.17a1.49,1.49,0,0,1,1.34.93h0A.7.7,0,0,1,416.66,240.88Z" style="fill:#131f2d"/><path d="M423.59,262l-29.63.17a1.47,1.47,0,0,1-1.34-.93h0a.69.69,0,0,1,.73-.93l29.63-.18a1.49,1.49,0,0,1,1.34.93h0A.69.69,0,0,1,423.59,262Z" style="fill:#131f2d"/><path d="M430.84,284.06l-29.63.18a1.49,1.49,0,0,1-1.34-.93h0a.69.69,0,0,1,.73-.94l29.63-.17a1.49,1.49,0,0,1,1.35.93h0A.7.7,0,0,1,430.84,284.06Z" style="fill:#131f2d"/><path d="M367.06,136.26h0a.43.43,0,0,1-.5-.34l-.48-2.45a.45.45,0,0,1,.34-.51h0a.44.44,0,0,1,.51.34l.47,2.45A.43.43,0,0,1,367.06,136.26Z" style="fill:#131f2d"/><rect x="365.82" y="128.8" width="0.3" height="3.61" transform="translate(-18.15 71.91) rotate(-10.95)" style="fill:#131f2d"/><path d="M365.77,108.88a11.38,11.38,0,0,0-.87-3.37,4.56,4.56,0,0,0-3-1.39c-.44.42,1.29,1.92,1.35,2.47s-.87.17-.42,1.25a8.4,8.4,0,0,0,1.65,2.08Z" style="fill:#fd7955"/><path d="M364.69,108.61c.82-.64,1-.63,1-.63s7.54,6.53,8.27,7.11S386,119,386,119l1.8,9.2s-15.31-7.39-17.14-8.9c-3-2.5-6.84-9.48-6.84-9.48A2.82,2.82,0,0,1,364.69,108.61Z" style="fill:#026eb7"/><path d="M386.24,197s-.13,3.14-.73,3.91l-8.4.05a1.31,1.31,0,0,1,1.25-1.28,5.63,5.63,0,0,0,4.08-3.22C383.38,194.43,386.24,197,386.24,197Z" style="fill:#131f2d"/><path d="M402.72,196.56s.59,4.17-.21,4.25l-4.8.08c-1.67,0-4.42,0-4.42,0a.43.43,0,0,1-.39-.65,1.73,1.73,0,0,1,1.26-.81c1.46-.29,3.9-1.36,4.76-3.31S402.72,196.56,402.72,196.56Z" style="fill:#131f2d"/><path d="M381.87,153.76s2.34,8.17,9,22.36,7,21,7,21a6,6,0,0,0,2.36.21,6.3,6.3,0,0,0,2.48-.8s-.43-16.89-3.59-24.05-3.81-26.76-3.81-26.76Z" style="fill:#131f2d"/><path d="M378.13,146.73a203.35,203.35,0,0,0,2,28.19c2.19,15.53,1.16,22.75,1.16,22.75a4.3,4.3,0,0,0,2.37.42,5.32,5.32,0,0,0,3.16-.87s3.13-15.54,2.23-23.32,4.29-26.68,4.29-26.68Z" style="fill:#364154"/><path d="M388.47,117.12,386,119l-3.58-.75c.05-.33.29-1.68.5-2.9a1.43,1.43,0,0,0,0-.22l.35-1.93,3.33-1.66,1.25-.62s-.1,1.15-.11,1.32A10.61,10.61,0,0,0,388.47,117.12Z" style="fill:#fd7955"/><path d="M395.55,148.29c-.8,3.7-18.11,2.08-17.88-.18,0-.08.05-1.12.11-2.53.13-3.05.33-7.81.36-8.18v0c.31-3.14.61-6.22.63-8.22a28.58,28.58,0,0,1,.58-5.14,39.57,39.57,0,0,1,1-3.9,4.3,4.3,0,0,1,2.53-2.78l.41-.14c2-.59,4.86-1.32,5.62-1.1,2.07.61,3.61,4.25,4.7,8.89C395.61,133.68,396.08,145.88,395.55,148.29Z" style="fill:#03a1fc"/><path d="M387.53,112.24c-.74,1.4-3.47,2.61-4.61,3.06a1.43,1.43,0,0,0,0-.22l.35-1.93,3.33-1.66C387.38,111.47,387.83,111.66,387.53,112.24Z" style="fill:#ed6343"/><path d="M381.68,113s6,1.88,7.14-1.89,2.64-6.06-1.16-7.42-5-.14-5.65,1S380.15,112.37,381.68,113Z" style="fill:#fd7955"/><path d="M382.24,104.3s.39,4.39,1.3,4.2,1.72-.33,1.59,1-1.39,2.85,1.41,3.08,6.81-7,6-8.34C390.37,100.3,379,99.5,382.24,104.3Z" style="fill:#131f2d"/><path d="M377.78,145.58c.13-3.05.33-7.81.36-8.18v0l10.22-6.11S388.76,145.54,377.78,145.58Z" style="fill:#026eb7"/><path d="M369.66,132.79a26,26,0,0,0-2.48-1.53,5.25,5.25,0,0,0-1.74-.15c-.06.1-.24.41,0,.52s.5.07.42.14-.93-.33-1.13.1-.37,1.92.63,2.37,3.45,0,3.63.09C370.49,134.77,369.66,132.79,369.66,132.79Z" style="fill:#fd7955"/><path d="M369.64,132.41s10.14,1.72,11,1.29c1.43-.7-.56-11-.56-11a3,3,0,0,1,2.64-2.88c2.36-.48,4.65,1.29,4.65,1.29s2.07,1.86,1.81,3.92c-.59,4.57-1.5,13.86-4.56,15.29-3.94,1.83-15.35-5.1-15.35-5.1a2,2,0,0,1-.32-1.33A3.1,3.1,0,0,1,369.64,132.41Z" style="fill:#03a1fc"/><path d="M362.82,107.71s-.65-1.29-.75-1.53.15-.19.4-.05.59.88,1,.79S362.82,107.71,362.82,107.71Z" style="fill:#fd7955"/></g></g></svg>