<svg xmlns="http://www.w3.org/2000/svg" xmlns:xlink="http://www.w3.org/1999/xlink" viewBox="0 0 400.11 327.05"><defs><clipPath id="clip-path" transform="translate(-49.43 -82.15)"><rect width="495.36" height="498.24" style="fill:none"/></clipPath></defs><g id="Layer_2" data-name="Layer 2"><g id="Layer_3" data-name="Layer 3"><g style="clip-path:url(#clip-path)"><circle cx="314.29" cy="85.82" r="85.82" style="fill:#e5f1ff"/><circle cx="142.6" cy="348.89" r="50.16" transform="translate(-254.36 120.87) rotate(-45)" style="fill:#e5f1ff"/><path d="M141.93,110.76a45.86,45.86,0,1,0,45.86,45.86A45.86,45.86,0,0,0,141.93,110.76Zm0,75.18a29.32,29.32,0,1,1,29.32-29.32A29.32,29.32,0,0,1,141.93,185.94Z" transform="translate(-49.43 -82.15)" style="fill:#a9ccea"/><path d="M315.18,404a5.27,5.27,0,0,1-5.27,5.26h-133a5.27,5.27,0,1,1,0-10.53h47.23l6.52-12h25.55l6.52,12h47.23A5.27,5.27,0,0,1,315.18,404Z" transform="translate(-49.43 -82.15)" style="fill:#0f3157"/><rect x="181.96" y="293.6" width="21.8" height="6.39" style="fill:#ff4d6b"/><rect x="181.96" y="283.08" width="21.8" height="6.39" style="fill:#ff4d6b"/><path d="M415.86,343.61a34.06,34.06,0,1,1,18.82-17.7" transform="translate(-49.43 -82.15)" style="fill:none;stroke:#ff4d6b;stroke-linecap:round;stroke-linejoin:round;stroke-width:1.12762px;stroke-dasharray:0,5.6381001472473145"/><path d="M319.6,151.72h-5.44a44.78,44.78,0,0,0-5.58-13.48l3.85-3.84a4.25,4.25,0,0,0,0-6l-8.55-8.55a4.25,4.25,0,0,0-6,0L294,123.69a44.78,44.78,0,0,0-13.48-5.58v-5.44a4.24,4.24,0,0,0-4.24-4.25h-12.1a4.24,4.24,0,0,0-4.24,4.25v5.44a44.78,44.78,0,0,0-13.48,5.58l-3.84-3.85a4.25,4.25,0,0,0-6,0l-8.55,8.55a4.25,4.25,0,0,0,0,6l3.85,3.84a44.78,44.78,0,0,0-5.58,13.48h-5.44a4.24,4.24,0,0,0-4.25,4.24v12.09a4.25,4.25,0,0,0,4.25,4.25h5.44a44.61,44.61,0,0,0,5.58,13.47l-3.85,3.85a4.25,4.25,0,0,0,0,6l8.55,8.55a4.25,4.25,0,0,0,6,0l3.84-3.85A44.78,44.78,0,0,0,260,205.91v5.44a4.24,4.24,0,0,0,4.24,4.25h12.1a4.24,4.24,0,0,0,4.24-4.25v-5.44A44.78,44.78,0,0,0,294,200.33l3.84,3.85a4.25,4.25,0,0,0,6,0l8.55-8.55a4.25,4.25,0,0,0,0-6l-3.85-3.85a44.61,44.61,0,0,0,5.58-13.47h5.44a4.25,4.25,0,0,0,4.25-4.25V156A4.24,4.24,0,0,0,319.6,151.72Zm-49.34,31.86A21.57,21.57,0,1,1,291.83,162,21.57,21.57,0,0,1,270.26,183.58Z" transform="translate(-49.43 -82.15)" style="fill:#289df2"/><rect x="142.19" y="99.92" width="202.4" height="322.48" rx="11.47" transform="translate(455.12 -64.38) rotate(90)" style="fill:#0f3775"/><rect x="56.23" y="102.85" width="33.26" height="7.33" style="fill:#284d89"/><rect x="96.26" y="102.85" width="33.26" height="7.33" style="fill:#284d89"/><rect x="197.75" y="102.85" width="33.26" height="7.33" style="fill:#284d89"/><rect x="299.23" y="102.85" width="33.26" height="7.33" style="fill:#284d89"/><rect x="134.04" y="102.85" width="59.48" height="7.33" style="fill:#ff4d6b"/><rect x="234.96" y="102.85" width="59.48" height="7.33" style="fill:#2889db"/><rect x="56.42" y="97.02" width="5.83" height="3.57" style="fill:#2889db"/><rect x="56.42" y="116.19" width="60.8" height="3.57" style="fill:#fff"/><rect x="56.42" y="122.48" width="18.04" height="3.57" style="fill:#fff"/><rect x="56.79" y="137.24" width="71.6" height="117.27" rx="7.61" style="fill:#284d89"/><rect x="65.82" y="154.43" width="23.96" height="3.66" style="fill:#fff"/><rect x="65.82" y="162.61" width="23.96" height="3.66" style="fill:#fff"/><rect x="65.82" y="170.78" width="23.96" height="3.66" style="fill:#fff"/><rect x="65.82" y="204.89" width="14.66" height="3.66" style="fill:#fff"/><rect x="65.82" y="213.07" width="14.66" height="3.66" style="fill:#fff"/><rect x="91" y="213.07" width="14.66" height="3.66" style="fill:#fff"/><rect x="65.82" y="195.59" width="9.21" height="3.66" style="fill:#fff"/><rect x="105.28" y="195.59" width="4.89" height="3.66" style="fill:#fff"/><rect x="78.22" y="195.59" width="25.18" height="3.66" style="fill:#ff4d6b"/><rect x="65.82" y="181.78" width="3.52" height="3.66" style="fill:#2889db"/><rect x="65.82" y="188.26" width="3.52" height="3.66" style="fill:#ff4d6b"/><polygon points="85.36 217.49 84.05 217.49 87.19 212.79 88.51 212.79 85.36 217.49" style="fill:#fff"/><rect x="65.82" y="223.78" width="54.41" height="3.1" style="fill:#282e5c"/><rect x="65.82" y="230.83" width="54.41" height="3.1" style="fill:#282e5c"/><rect x="225.56" y="131.6" width="163.13" height="54.13" rx="6.77" style="fill:#289df2"/><path d="M323.48,248.71s8.27-20.3,31.95-15.41,35.7,31.57,66.15,9.77" transform="translate(-49.43 -82.15)" style="fill:none;stroke:#fff;stroke-miterlimit:10;stroke-width:1.12762px"/><rect x="347.34" y="167.68" width="3.38" height="3.38" style="fill:#289df2;stroke:#fff;stroke-miterlimit:10;stroke-width:1.12762px"/><line x1="278.18" y1="150.21" x2="321.03" y2="150.21" style="fill:#289df2;stroke:#fff;stroke-miterlimit:10;stroke-width:0.56381px"/><line x1="327.61" y1="170.31" x2="370.46" y2="170.31" style="fill:#289df2;stroke:#fff;stroke-miterlimit:10;stroke-width:0.56381px"/><rect x="296.23" y="148.51" width="3.38" height="3.38" style="fill:#289df2;stroke:#fff;stroke-miterlimit:10;stroke-width:1.12762px"/><rect x="216.92" y="141.37" width="42.1" height="58.26" rx="4.89" style="fill:#284d89"/><rect x="223.49" y="149.64" width="23.96" height="3.3" style="fill:#fff"/><rect x="223.49" y="157.01" width="23.96" height="3.3" style="fill:#fff"/><rect x="223.49" y="164.38" width="9.02" height="3.3" style="fill:#fff"/><rect x="223.49" y="172" width="15.6" height="3.3" style="fill:#289df2"/><rect x="223.49" y="179.37" width="10.52" height="3.3" style="fill:#289df2"/><rect x="223.49" y="186.74" width="10.52" height="3.3" style="fill:#fff"/><line x1="362.38" y1="124.27" x2="379.29" y2="124.27" style="fill:none;stroke:#284d89;stroke-linecap:round;stroke-linejoin:round;stroke-width:2.25524px"/><path d="M373.8,301.86,368,306.43,359.59,308s-7.87-.5-8.63-.5-6.09-4.32-6.09-4.32l-9.9-3.55-6.85,2.54L320,300.34l-12.18-.76-11.67,4.57-9.65,1.52-8.63,2.79-9.64.76-10.41-8.12-9.65-1.77-9.89,5.58-7.87,2.54-8.93-.26-11.26,6.86h-6.72l-11.33,4" transform="translate(-49.43 -82.15)" style="fill:none;stroke:#ff5c66;stroke-miterlimit:10;stroke-width:1.01525px"/><line x1="142.9" y1="236.04" x2="324.63" y2="236.04" style="fill:none;stroke:#f7f7f7;stroke-miterlimit:10;stroke-width:0.253812px"/><rect x="141.12" y="233.75" width="1.86" height="4.57" style="fill:#f7f7f7"/><rect x="323.53" y="233.75" width="1.86" height="4.57" style="fill:#f7f7f7"/><line x1="324.46" y1="236.04" x2="324.46" y2="220.72" style="fill:none;stroke:#f7f7f7;stroke-miterlimit:10;stroke-width:0.253812px"/><path d="M374.9,302.12a1.44,1.44,0,1,1-1.44-1.44A1.44,1.44,0,0,1,374.9,302.12Z" transform="translate(-49.43 -82.15)" style="fill:#f7f7f7"/><text transform="translate(143.15 246.76)" style="font-size:8.121970176696777px;fill:#f7f7f7;font-family:BebasNeueRegular;letter-spacing:0.05999833499735748em">beta <tspan x="19.45" y="0" style="letter-spacing:0.053986477783193404em">t</tspan><tspan x="22.58" y="0">est</tspan></text><rect x="184.86" y="242.64" width="113.03" height="2.03" style="fill:#28385e"/><rect x="184.86" y="242.64" width="69.38" height="2.03" style="fill:#ff4d6b"/><rect x="184.86" y="246.53" width="55.58" height="2.03" style="fill:#28385e"/><polygon points="149.63 252.58 156.48 252.58 157.37 250.67 143.53 250.67 143.53 253.85 148.36 253.85 149.63 252.58" style="fill:#ff4d6b"/><rect x="163.07" y="250.65" width="0.76" height="0.76" style="fill:#f7f7f7"/><rect x="167.79" y="250.65" width="0.76" height="0.76" style="fill:#f7f7f7"/><rect x="172.52" y="250.65" width="0.76" height="0.76" style="fill:#f7f7f7"/><text transform="translate(315.57 214.89)" style="font-size:8.121970176696777px;fill:#f7f7f7;font-family:BebasNeueBook;letter-spacing:0.05999833499735748em">500</text><polygon points="306.02 248.73 304.32 248.73 301.62 242.64 303.31 242.64 306.02 248.73" style="fill:#28385e"/><polygon points="310.42 248.73 308.72 248.73 306.02 242.64 307.71 242.64 310.42 248.73" style="fill:#28385e"/><polygon points="314.81 248.73 313.12 248.73 310.42 242.64 312.11 242.64 314.81 248.73" style="fill:#28385e"/><polygon points="319.21 248.73 317.52 248.73 314.81 242.64 316.51 242.64 319.21 248.73" style="fill:#28385e"/><polygon points="323.53 248.73 321.84 248.73 319.13 242.64 320.82 242.64 323.53 248.73" style="fill:#28385e"/><rect x="288.67" y="39" width="27.51" height="4.93" style="fill:#a9ccea"/><rect x="288.67" y="47.82" width="41.48" height="4.93" style="fill:#a9ccea"/><rect x="288.67" y="56.64" width="51.16" height="4.93" style="fill:#a9ccea"/><rect x="288.67" y="65.46" width="19.56" height="4.93" style="fill:#a9ccea"/><rect y="98.39" width="27.51" height="4.93" style="fill:#2889db"/><rect y="107.21" width="41.48" height="4.93" style="fill:#a9ccea"/><rect y="116.03" width="51.16" height="4.93" style="fill:#a9ccea"/><rect y="124.84" width="19.56" height="4.93" style="fill:#a9ccea"/><rect x="68.63" y="271.42" width="117.27" height="15.22" style="fill:none;stroke:#289df2;stroke-miterlimit:10;stroke-width:1.12762px"/><rect x="125.2" y="151.52" width="5.64" height="34.58" style="fill:none;stroke:#289df2;stroke-miterlimit:10;stroke-width:1.12762px"/><circle cx="403.65" cy="311.77" r="19.43" transform="translate(-93.92 -13.91) rotate(-9.16)" style="fill:#ff4d6b"/><path d="M402.24,309.94l-7.72,2.83,7.72,2.81v2.89l-11-4.19v-3l11-4.2Z" transform="translate(-49.43 -82.15)" style="fill:#f9fbfc"/><path d="M404.76,307.07l11,4.2v3l-11,4.19v-2.89l7.72-2.81-7.72-2.83Z" transform="translate(-49.43 -82.15)" style="fill:#f9fbfc"/><path d="M436.05,327.64a2.54,2.54,0,1,1-2.54-2.53A2.54,2.54,0,0,1,436.05,327.64Z" transform="translate(-49.43 -82.15)" style="fill:none;stroke:#ff4d6b;stroke-miterlimit:10;stroke-width:1.12762px"/><rect x="62.43" y="61.69" width="91.9" height="9.58" style="fill:none;stroke:#289df2;stroke-miterlimit:10;stroke-width:1.12762px"/><rect x="66.38" y="64.79" width="56.94" height="2.82" style="fill:#289df2"/><rect x="140.61" y="136.49" width="67.28" height="3.38" style="fill:#284d89"/><rect x="140.61" y="136.49" width="30.49" height="3.38" style="fill:#2889db"/><rect x="140.61" y="145.22" width="67.28" height="3.38" style="fill:#284d89"/><rect x="140.61" y="145.22" width="46.84" height="3.38" style="fill:#ff4d6b"/><rect x="140.61" y="153.96" width="67.28" height="3.38" style="fill:#284d89"/><rect x="140.61" y="153.96" width="13.72" height="3.38" style="fill:#1ae5ff"/><rect x="140.9" y="130.57" width="1.32" height="1.32" style="fill:#284d89"/><rect x="145.41" y="130.57" width="1.32" height="1.32" style="fill:#284d89"/><rect x="149.92" y="130.57" width="1.32" height="1.32" style="fill:#284d89"/><rect x="266.09" y="176.64" width="2.19" height="2.19" style="fill:#fff"/><rect x="273.61" y="176.64" width="2.19" height="2.19" style="fill:#fff"/><rect x="281.13" y="176.64" width="2.19" height="2.19" style="fill:#fff"/><rect x="297.74" y="89.51" width="4.11" height="4.11" style="fill:#fff"/><rect x="311.84" y="89.51" width="4.11" height="4.11" style="fill:#fff"/><rect x="325.93" y="89.51" width="4.11" height="4.11" style="fill:#fff"/><rect x="239.48" y="259.41" width="4.11" height="4.11" style="fill:#fff"/><rect x="253.58" y="259.41" width="4.11" height="4.11" style="fill:#fff"/><rect x="267.67" y="259.41" width="4.11" height="4.11" style="fill:#fff"/><rect x="67.01" y="145.57" width="2.19" height="2.19" style="fill:#fff"/><rect x="74.52" y="145.57" width="2.19" height="2.19" style="fill:#fff"/><rect x="82.04" y="145.57" width="2.19" height="2.19" style="fill:#fff"/><rect x="337.95" y="142.88" width="36.46" height="3.57" style="fill:#fff"/><rect x="337.95" y="149.17" width="10.82" height="3.57" style="fill:#287dd1"/><polygon points="43.83 150.21 35.93 150.21 35.93 142.31 28.6 142.31 28.6 150.21 20.71 150.21 20.71 157.53 28.6 157.53 28.6 165.43 35.93 165.43 35.93 157.53 43.83 157.53 43.83 150.21" style="fill:#1ae5ff"/><polygon points="22.7 172.19 17.89 172.19 17.89 167.38 13.42 167.38 13.42 172.19 8.61 172.19 8.61 176.66 13.42 176.66 13.42 181.48 17.89 181.48 17.89 176.66 22.7 176.66 22.7 172.19" style="fill:#2889db"/><path d="M203.87,250.15a12.34,12.34,0,1,0,12.34,12.34A12.34,12.34,0,0,0,203.87,250.15Zm0,18.77a6.43,6.43,0,1,1,6.43-6.43A6.43,6.43,0,0,1,203.87,268.92Z" transform="translate(-49.43 -82.15)" style="fill:#284d89"/><path d="M195.46,261.27a3,3,0,0,0,2.68-1.7,6.43,6.43,0,0,1,11.46,0,3,3,0,0,0,2.67,1.7h0a3,3,0,0,0,2.69-4.2,12.35,12.35,0,0,0-22.18,0,2.94,2.94,0,0,0,2.68,4.2Z" transform="translate(-49.43 -82.15)" style="fill:#289df2"/><path d="M224.6,262.49a12.35,12.35,0,1,0,12.34-12.34A12.34,12.34,0,0,0,224.6,262.49Zm18.78,0a6.44,6.44,0,1,1-6.44-6.43A6.43,6.43,0,0,1,243.38,262.49Z" transform="translate(-49.43 -82.15)" style="fill:#284d89"/><path d="M235.73,270.89a3,3,0,0,0-1.71-2.67,6.43,6.43,0,0,1,0-11.46,3,3,0,0,0,1.71-2.67h0a3,3,0,0,0-4.21-2.69,12.35,12.35,0,0,0,0,22.18,3,3,0,0,0,4.21-2.69Z" transform="translate(-49.43 -82.15)" style="fill:#ff4d6b"/><rect x="96.64" y="131.6" width="22.55" height="54.13" style="fill:none;stroke:#289df2;stroke-miterlimit:10;stroke-width:1.12762px"/><rect x="99.83" y="142.03" width="6.58" height="1.94" style="fill:#1ae5ff"/><rect x="99.83" y="146.37" width="6.58" height="1.94" style="fill:#1ae5ff"/><rect x="99.83" y="150.7" width="6.58" height="1.94" style="fill:#1ae5ff"/><rect x="99.83" y="173.26" width="6.58" height="1.94" style="fill:#1ae5ff"/><rect x="99.83" y="157.06" width="9.58" height="1.94" style="fill:#1ae5ff"/><rect x="99.83" y="161.4" width="9.58" height="1.94" style="fill:#fff"/><rect x="99.83" y="165.74" width="9.58" height="1.94" style="fill:#fff"/><rect x="15.82" y="199.26" width="28.57" height="28.57" style="fill:#289df2"/><rect x="0.79" y="206.02" width="28.57" height="28.57" style="fill:none;stroke:#289df2;stroke-miterlimit:10;stroke-width:1.12762px"/><rect x="355.61" y="281.95" width="12.03" height="12.03" style="fill:none;stroke:#289df2;stroke-miterlimit:10;stroke-width:1.12762px"/><polyline points="211.28 262.97 221.43 262.97 227.06 268.61 285.7 268.61 294.72 259.58 326.3 259.58" style="fill:none;stroke:#fff;stroke-miterlimit:10;stroke-width:1.12762px"/><circle cx="208.32" cy="263.11" r="2.96" style="fill:none;stroke:#fff;stroke-miterlimit:10;stroke-width:1.12762px"/><circle cx="329.35" cy="259.44" r="2.96" style="fill:none;stroke:#fff;stroke-miterlimit:10;stroke-width:1.12762px"/><path d="M418.57,185.94a3.76,3.76,0,1,1-3.76-3.76A3.76,3.76,0,0,1,418.57,185.94Z" transform="translate(-49.43 -82.15)" style="fill:#289df2"/><path d="M71.27,332.53a3.76,3.76,0,1,1-3.76-3.76A3.76,3.76,0,0,1,71.27,332.53Z" transform="translate(-49.43 -82.15)" style="fill:#ff4d6b"/><path d="M88.56,346.44A6.58,6.58,0,1,1,82,339.86,6.58,6.58,0,0,1,88.56,346.44Z" transform="translate(-49.43 -82.15)" style="fill:#ff4d6b"/><rect x="236.84" y="286.46" width="26.31" height="6.01" style="fill:none;stroke:#289df2;stroke-miterlimit:10;stroke-width:1.12762px"/><rect x="236.84" y="297.74" width="57.7" height="6.01" style="fill:none;stroke:#289df2;stroke-miterlimit:10;stroke-width:1.12762px"/><line x1="75.65" y1="292.22" x2="69.28" y2="298.6" style="fill:none;stroke:#289df2;stroke-linecap:round;stroke-linejoin:round;stroke-width:1.12762px"/><line x1="81.79" y1="292.22" x2="75.41" y2="298.6" style="fill:none;stroke:#289df2;stroke-linecap:round;stroke-linejoin:round;stroke-width:1.12762px"/><line x1="87.92" y1="292.22" x2="81.54" y2="298.6" style="fill:none;stroke:#289df2;stroke-linecap:round;stroke-linejoin:round;stroke-width:1.12762px"/><line x1="94.05" y1="292.22" x2="87.67" y2="298.6" style="fill:none;stroke:#289df2;stroke-linecap:round;stroke-linejoin:round;stroke-width:1.12762px"/><line x1="100.18" y1="292.22" x2="93.8" y2="298.6" style="fill:none;stroke:#289df2;stroke-linecap:round;stroke-linejoin:round;stroke-width:1.12762px"/></g></g></g></svg>