<svg xmlns="http://www.w3.org/2000/svg" xmlns:xlink="http://www.w3.org/1999/xlink" viewBox="0 0 750 540"><defs><clipPath id="clip-path"><rect width="750" height="500" style="fill:none"/></clipPath></defs><g id="Layer_2" data-name="Layer 2"><g id="OBJECTS"><rect width="750" height="500" style="fill:#33aeff"/><g style="clip-path:url(#clip-path)"><path d="M327,273.28l-59.35,59.34a21,21,0,0,1-29.67,0h0A21,21,0,0,1,238,303l59.35-59.35a21,21,0,0,0-29.66-29.67L93.09,388.55a21,21,0,0,0,29.67,29.66l19.54-19.54a21,21,0,0,1,29.67,0h0a21,21,0,0,1,0,29.67L96.11,504.19a21,21,0,0,0,29.67,29.67L356.7,302.94A21,21,0,0,0,327,273.28Z" style="fill:#5cbeff"/><path d="M579.23,224.46l59.35-59.35a21,21,0,0,0,0-29.66h0a21,21,0,0,0-29.67,0L404,340.32A21,21,0,0,0,404,370h0a21,21,0,0,0,29.66,0l49.82-49.82a21,21,0,0,1,29.66,0h0a21,21,0,0,1,0,29.67l-90.91,90.91a21,21,0,0,0,29.67,29.67l55.72-55.73a21,21,0,0,1,29.67,0h0a21,21,0,0,1,0,29.67L522.7,459a21,21,0,0,0,0,29.66h0a21,21,0,0,0,29.67,0L692.74,348.28a21,21,0,0,0,0-29.66h0a21,21,0,0,0-29.67,0l-30,30a21,21,0,0,1-29.66,0h0a21,21,0,0,1,0-29.67l94.53-94.53a21,21,0,1,0-29.67-29.67L608.9,254.13a21,21,0,0,1-29.67,0h0A21,21,0,0,1,579.23,224.46Z" style="fill:#5cbeff"/><path d="M250.13,81.2,284,47.36a21,21,0,0,0,0-29.67h0a21,21,0,0,0-29.67,0L107.56,164.44a21,21,0,0,0,0,29.66h0a21,21,0,0,0,29.66,0L187,144.29a21,21,0,0,1,29.66,0h0a21,21,0,0,1,0,29.67l-90.91,90.91a21,21,0,1,0,29.67,29.66l55.72-55.72a21,21,0,0,1,29.67,0h0a21,21,0,0,1,0,29.67L226.22,283.1a21,21,0,0,0,0,29.67h0a21,21,0,0,0,29.67,0l82.24-82.24a21,21,0,0,0,0-29.67h0a21,21,0,0,0-29.67,0l-30,30a21,21,0,0,1-29.66,0h0a21,21,0,0,1,0-29.67l76.74-76.74a21,21,0,0,0-29.67-29.66l-16,16a21,21,0,0,1-29.67,0h0A21,21,0,0,1,250.13,81.2Z" style="fill:#5cbeff"/></g><circle cx="558.13" cy="133.06" r="86.44" style="fill:#f7e041"/><rect x="161.67" y="107.78" width="426.65" height="284.44" rx="14" style="fill:#fff"/><path d="M175.67,107.78H574.33a14,14,0,0,1,14,14v19.09a0,0,0,0,1,0,0H161.67a0,0,0,0,1,0,0V121.78a14,14,0,0,1,14-14Z" style="fill:#495e87"/><circle cx="565.05" cy="124.33" r="8.73" style="fill:#f56462"/><circle cx="542.24" cy="124.33" r="8.73" style="fill:#5cbeff"/><circle cx="519.43" cy="124.33" r="8.73" style="fill:#fff"/><text transform="translate(259.3 245.13)" style="font-size:50.979278564453125px;fill:#3d4140;font-family:LeagueSpartan-Bold, League Spartan;font-weight:700">COMING</text><text transform="translate(292.11 306.09)" style="font-size:50.979278564453125px;fill:#3d4140;font-family:LeagueSpartan-Bold, League Spartan;font-weight:700">SOON</text><path d="M232.87,161.3h-71.2v91.15h71.2a14,14,0,0,0,14-14V175.3A14,14,0,0,0,232.87,161.3Z" style="fill:#3d4140;opacity:0.2"/><rect x="60.6" y="153.46" width="178.44" height="91.14" rx="14" style="fill:#fff"/><path d="M74.6,153.46H225a14,14,0,0,1,14,14v9.76a0,0,0,0,1,0,0H60.6a0,0,0,0,1,0,0v-9.76A14,14,0,0,1,74.6,153.46Z" style="fill:#f7e041"/><circle cx="224.89" cy="165.23" r="7.54" transform="translate(-50.96 207.42) rotate(-45)" style="fill:#f56462"/><circle cx="206" cy="165.23" r="7.54" transform="translate(-57.6 181.03) rotate(-42.16)" style="fill:#fff"/><path d="M637.52,334.35V209a10,10,0,0,0-10-10H588.33" style="fill:none;stroke:#3d4140;stroke-miterlimit:10;stroke-width:2px"/><path d="M225,340.05H139.78v52.17H239V354.05A14,14,0,0,0,225,340.05Z" style="fill:#3d4140;opacity:0.2"/><rect x="114.53" y="330.46" width="114.91" height="89.79" rx="14" style="fill:#fff"/><path d="M128.53,330.46h86.91a14,14,0,0,1,14,14v9.76a0,0,0,0,1,0,0H114.53a0,0,0,0,1,0,0v-9.76A14,14,0,0,1,128.53,330.46Z" style="fill:#f56462"/><circle cx="215.3" cy="342.23" r="7.54" transform="translate(-178.93 252.48) rotate(-45)" style="fill:#f7e041"/><circle cx="196.41" cy="342.23" r="7.54" transform="translate(-195.03 391.97) rotate(-67.39)" style="fill:#fff"/><path d="M483.88,346.15a14,14,0,0,0-14,14V392H607.32a14,14,0,0,0,14-14V346.15Z" style="fill:#3d4140;opacity:0.2"/><rect x="481.69" y="334.35" width="211.1" height="91.14" rx="14" style="fill:#fff"/><path d="M495.69,334.35h183.1a14,14,0,0,1,14,14v9.76a0,0,0,0,1,0,0H481.69a0,0,0,0,1,0,0v-9.76A14,14,0,0,1,495.69,334.35Z" style="fill:#495e87"/><circle cx="678.65" cy="346.12" r="7.54" transform="translate(-61.51 165.75) rotate(-13.33)" style="fill:#f56462"/><circle cx="659.75" cy="346.12" r="7.54" transform="translate(-51.51 567.89) rotate(-45)" style="fill:#fff"/><path d="M298.88,72.08a5.6,5.6,0,1,0-5.6,5.6A5.6,5.6,0,0,0,298.88,72.08Z" style="fill:#f7e041"/><path d="M643.12,46.08a5.6,5.6,0,1,0-5.6,5.6A5.6,5.6,0,0,0,643.12,46.08Z" style="fill:#fff"/><path d="M693.59,461.45a5.61,5.61,0,1,0-5.6,5.6A5.6,5.6,0,0,0,693.59,461.45Z" style="fill:#f7e041"/><path d="M263.68,467.05a5.6,5.6,0,1,0-5.6,5.61A5.6,5.6,0,0,0,263.68,467.05Z" style="fill:#fff"/><path d="M39.14,252.45a5.61,5.61,0,1,0-5.6,5.6A5.61,5.61,0,0,0,39.14,252.45Z" style="fill:#f7e041"/><path d="M143.57,330.46V285.61a10,10,0,0,1,10-10h8.1" style="fill:none;stroke:#3d4140;stroke-miterlimit:10;stroke-width:2px"/><path d="M232.42,124.33c0-.24,0-.48,0-.72a33.07,33.07,0,0,0-40.78-32.17,41.35,41.35,0,0,0-71.85,7.16,29.25,29.25,0,0,0-36,25.73Z" style="fill:#fff"/><path d="M356.68,463.85c0-.24,0-.47,0-.71A33.07,33.07,0,0,1,397.44,431a41.34,41.34,0,0,1,71.85,7.16,29.22,29.22,0,0,1,36,25.72Z" style="fill:#fff"/><rect x="498.29" y="373.9" width="26.1" height="34.13" style="fill:#dce4eb"/><rect x="498.29" y="373.9" width="26.1" height="17.07" style="fill:#eaeff3"/><text transform="translate(502.14 401.82)" style="font-size:25.307130813598633px;fill:#3d4140;font-family:LeagueSpartan-Bold, League Spartan;font-weight:700">0</text><rect x="526.49" y="373.9" width="26.1" height="34.13" style="fill:#dce4eb"/><rect x="526.49" y="373.9" width="26.1" height="17.07" style="fill:#eaeff3"/><text transform="translate(530.85 401.82)" style="font-size:25.307130813598633px;fill:#3d4140;font-family:LeagueSpartan-Bold, League Spartan;font-weight:700">8</text><rect x="560.08" y="373.9" width="26.1" height="34.13" style="fill:#dce4eb"/><rect x="560.08" y="373.9" width="26.1" height="17.07" style="fill:#eaeff3"/><text transform="translate(563.61 401.82)" style="font-size:25.307130813598633px;fill:#3d4140;font-family:LeagueSpartan-Bold, League Spartan;font-weight:700">2</text><rect x="588.28" y="373.9" width="26.1" height="34.13" style="fill:#dce4eb"/><rect x="588.28" y="373.9" width="26.1" height="17.07" style="fill:#eaeff3"/><text transform="translate(592.91 401.82)" style="font-size:25.307130813598633px;fill:#3d4140;font-family:LeagueSpartan-Bold, League Spartan;font-weight:700">4</text><rect x="621.88" y="373.9" width="26.1" height="34.13" style="fill:#dce4eb"/><rect x="621.88" y="373.9" width="26.1" height="17.07" style="fill:#eaeff3"/><text transform="translate(625.73 401.82)" style="font-size:25.307130813598633px;fill:#3d4140;font-family:LeagueSpartan-Bold, League Spartan;font-weight:700">0</text><rect x="650.08" y="373.9" width="26.1" height="34.13" style="fill:#dce4eb"/><rect x="650.08" y="373.9" width="26.1" height="17.07" style="fill:#eaeff3"/><text transform="translate(653.6 401.82)" style="font-size:25.307130813598633px;fill:#3d4140;font-family:LeagueSpartan-Bold, League Spartan;font-weight:700">2</text><path d="M558.13,383.22a1.8,1.8,0,1,0-1.79,1.79A1.79,1.79,0,0,0,558.13,383.22Z" style="fill:#3d4140"/><circle cx="556.34" cy="398.72" r="1.79" style="fill:#3d4140"/><path d="M619.92,383.22a1.79,1.79,0,1,0-1.79,1.79A1.79,1.79,0,0,0,619.92,383.22Z" style="fill:#3d4140"/><circle cx="618.13" cy="398.72" r="1.79" style="fill:#3d4140"/><text transform="translate(128.48 373.31)" style="font-size:6px;fill:#8b8d8c;font-family:LeagueSpartan-Bold, League Spartan;font-weight:700">L<tspan x="3.39" y="0" style="letter-spacing:-0.001953125em">o</tspan><tspan x="7.34" y="0" style="letter-spacing:-0.006022135416666667em">r</tspan><tspan x="10.3" y="0" style="letter-spacing:-0.001953125em">e</tspan><tspan x="13.9" y="0">m i</tspan><tspan x="23.26" y="0" style="letter-spacing:-0.005045572916666667em">p</tspan><tspan x="27.33" y="0">sum d</tspan><tspan x="45.86" y="0" style="letter-spacing:-0.001953125em">o</tspan><tspan x="49.82" y="0">l</tspan><tspan x="51.6" y="0" style="letter-spacing:-0.0021158854166666665em">o</tspan><tspan x="55.55" y="0">r sit am</tspan><tspan x="78.96" y="0" style="letter-spacing:-0.0048828125em">e</tspan><tspan x="82.55" y="0">t, </tspan><tspan x="0.61" y="7.2">c</tspan><tspan x="3.55" y="7.2" style="letter-spacing:-0.001953125em">o</tspan><tspan x="7.51" y="7.2" style="letter-spacing:-0.005045572916666667em">n</tspan><tspan x="11.44" y="7.2">se</tspan><tspan x="18.01" y="7.2" style="letter-spacing:-0.005045572916666667em">c</tspan><tspan x="20.93" y="7.2">t</tspan><tspan x="23.3" y="7.2" style="letter-spacing:-0.0048828125em">e</tspan><tspan x="26.89" y="7.2">tu</tspan><tspan x="33.19" y="7.2" style="letter-spacing:-0.0021158854166666665em">e</tspan><tspan x="36.8" y="7.2">r adipis</tspan><tspan x="60.29" y="7.2" style="letter-spacing:-0.001953125em">c</tspan><tspan x="63.23" y="7.2">ing </tspan><tspan x="74.74" y="7.2" style="letter-spacing:-0.001953125em">e</tspan><tspan x="78.35" y="7.2">lit, </tspan><tspan x="5.12" y="14.4">sed diam n</tspan><tspan x="38.94" y="14.4" style="letter-spacing:-0.001953125em">o</tspan><tspan x="42.9" y="14.4">nummy nibh </tspan><tspan x="-0.03" y="21.6">euismod tin</tspan><tspan x="36.05" y="21.6" style="letter-spacing:-0.001953125em">c</tspan><tspan x="38.98" y="21.6">idu</tspan><tspan x="48.83" y="21.6" style="letter-spacing:-0.006022135416666667em">n</tspan><tspan x="52.75" y="21.6">t </tspan><tspan x="56.76" y="21.6" style="letter-spacing:-0.005045572916666667em">u</tspan><tspan x="60.67" y="21.6">t la</tspan><tspan x="70.56" y="21.6" style="letter-spacing:-0.001953125em">o</tspan><tspan x="74.51" y="21.6" style="letter-spacing:-0.006022135416666667em">r</tspan><tspan x="77.46" y="21.6">e</tspan><tspan x="81.08" y="21.6" style="letter-spacing:-0.005045572916666667em">e</tspan><tspan x="84.67" y="21.6">t </tspan><tspan x="6.69" y="28.8">d</tspan><tspan x="10.79" y="28.8" style="letter-spacing:-0.001953125em">o</tspan><tspan x="14.74" y="28.8">l</tspan><tspan x="16.52" y="28.8" style="letter-spacing:-0.0021158854166666665em">o</tspan><tspan x="20.48" y="28.8" style="letter-spacing:-0.005859375em">r</tspan><tspan x="23.43" y="28.8">e magna aliquam.</tspan></text><path d="M98.77,206.87V188.8a18.1,18.1,0,1,0,12.77,5.3Z" style="fill:#f56462"/><rect x="74.42" y="206.87" width="24.35" height="8.62" style="fill:#3d4140"/><path d="M98.77,215.49v-8.62H80.7a18,18,0,0,0,2.18,8.62Z" style="fill:#495e87"/><text/><text transform="translate(128.81 214.21)" style="font-size:15.830849647521973px;fill:#f56462;font-family:LeagueSpartan-Bold, League Spartan;font-weight:700">CODE-HUB</text><path d="M406.61,30.11h0a9.14,9.14,0,0,0,7.25,7.26h0a.52.52,0,0,1,0,1h0a9.13,9.13,0,0,0-7.25,7.26h0a.53.53,0,0,1-1,0h0a9.14,9.14,0,0,0-7.26-7.26h0a.52.52,0,0,1,0-1h0a9.15,9.15,0,0,0,7.26-7.26h0A.52.52,0,0,1,406.61,30.11Z" style="fill:#fff"/><path d="M334.84,409.52h0a9.13,9.13,0,0,0,7.25,7.26h0a.52.52,0,0,1,0,1h0a9.14,9.14,0,0,0-7.25,7.26h0a.52.52,0,0,1-1,0h0a9.15,9.15,0,0,0-7.26-7.26h0a.52.52,0,0,1,0-1h0a9.14,9.14,0,0,0,7.26-7.26h0A.53.53,0,0,1,334.84,409.52Z" style="fill:#f7e041"/><path d="M74.93,334.31h0a9.14,9.14,0,0,0,7.26,7.26h0a.52.52,0,0,1,0,1h0a9.15,9.15,0,0,0-7.26,7.26h0a.52.52,0,0,1-1,0h0a9.14,9.14,0,0,0-7.25-7.26h0a.52.52,0,0,1,0-1h0a9.13,9.13,0,0,0,7.25-7.26h0A.53.53,0,0,1,74.93,334.31Z" style="fill:#fff"/><path d="M694.1,141.3h0a9.15,9.15,0,0,0,7.26,7.26h0a.52.52,0,0,1,0,1h0a9.15,9.15,0,0,0-7.26,7.26h0a.52.52,0,0,1-1,0h0a9.15,9.15,0,0,0-7.26-7.26h0a.52.52,0,0,1,0-1h0a9.15,9.15,0,0,0,7.26-7.26h0A.52.52,0,0,1,694.1,141.3Z" style="fill:#f7e041"/><path d="M586.7,437.78h0A9.14,9.14,0,0,0,594,445h0a.52.52,0,0,1,0,1h0a9.13,9.13,0,0,0-7.26,7.26h0a.53.53,0,0,1-1,0h0a9.13,9.13,0,0,0-7.26-7.26h0a.53.53,0,0,1,0-1h0a9.14,9.14,0,0,0,7.26-7.26h0A.52.52,0,0,1,586.7,437.78Z" style="fill:#fff"/><path d="M64.82,53.26h0a9.15,9.15,0,0,0,7.25,7.26h0a.52.52,0,0,1,0,1h0a9.13,9.13,0,0,0-7.25,7.25h0a.52.52,0,0,1-1,0h0a9.14,9.14,0,0,0-7.26-7.25h0a.52.52,0,0,1,0-1h0a9.17,9.17,0,0,0,7.26-7.26h0A.52.52,0,0,1,64.82,53.26Z" style="fill:#f7e041"/></g></g></svg>