<?xml version="1.0" encoding="utf-8"?>
<!-- Generator: Adobe Illustrator 23.1.0, SVG Export Plug-In . SVG Version: 6.00 Build 0)  -->
<svg version="1.1" id="Layer_1" xmlns="http://www.w3.org/2000/svg" xmlns:xlink="http://www.w3.org/1999/xlink" x="0px" y="0px"
	 viewBox="0 0 476.4 462.9" style="enable-background:new 0 0 476.4 462.9;" xml:space="preserve">
<style type="text/css">
	.st0{fill:#F5F5F5;}
	.st1{fill:#E0E0E0;}
	.st2{fill:#455A64;}
	.st3{fill:#37474F;}
	.st4{fill:#4E8FD6;}
	.st5{fill:#263238;}
	.st6{fill:#27DEBF;}
	.st7{opacity:0.8;fill:#FFFFFF;enable-background:new    ;}
	.st8{fill:#2F93FC;}
	.st9{opacity:0.9;fill:#4E8FD6;enable-background:new    ;}
	.st10{opacity:0.8;fill:#6641CF;enable-background:new    ;}
	.st11{fill:#6641CF;}
	.st12{opacity:0.6;}
	.st13{fill:#FFA8A7;}
	.st14{fill:#F28F8F;}
	.st15{fill:#FAFAFA;}
	.st16{fill:#B16668;}
	.st17{fill:#232323;}
	.st18{opacity:0.45;fill:#6641CF;enable-background:new    ;}
</style>
<g>
	<g id="Character">
		
			<ellipse id="Floor" transform="matrix(1 -9.250113e-03 9.250113e-03 1 -2.9994 2.2169)" class="st0" cx="238.2" cy="325.4" rx="238.2" ry="137.5"/>
		<path id="Shadow" class="st1" d="M409.9,339.8c0-0.1-0.1-0.2-0.2-0.3c0-0.1-0.1-0.1-0.1-0.2c0-0.1-0.1-0.1-0.2-0.2
			c-0.1-0.1-0.1-0.1-0.2-0.2c-0.2-0.2-0.4-0.3-0.6-0.5L185.9,210c-2.3-1.1-4.9-1.1-7.2,0L62.9,276.7c-0.1,0.1-0.3,0.2-0.4,0.3
			l-0.1,0.1c-0.2,0.2-0.4,0.4-0.6,0.7c0,0.1-0.1,0.1-0.1,0.2c0,0.1-0.1,0.2-0.1,0.3c0,0.1,0,0.1-0.1,0.2c0,0.1,0,0.2,0,0.4
			c0,0.1,0,0.2,0,0.3c0,0.1,0,0.2,0.1,0.3c0,0.1,0.1,0.2,0.1,0.3c0.3,0.5,0.7,1,1.3,1.3l222.7,128.6c0.7,0.4,1.4,0.6,2.1,0.7
			c1,0.2,1.9,0.2,2.9,0c0.2,0,0.3-0.1,0.5-0.1c0.4-0.1,0.9-0.2,1.3-0.4c0.1-0.1,0.3-0.1,0.4-0.2l115.9-66.7
			C410,341.9,410.4,340.8,409.9,339.8z"/>
		<ellipse id="Shadow-2" class="st1" cx="395.7" cy="276.7" rx="49.5" ry="28.6"/>
		<g id="Mobile">
			<path class="st2" d="M400.2,325c0-0.1-0.1-0.2-0.1-0.3l-0.1-0.2c0-0.1-0.1-0.1-0.1-0.2l-0.2-0.2c-0.2-0.2-0.4-0.3-0.6-0.5
				L182.3,198.7c-2.3-1.1-4.9-1.1-7.2,0L69,260c-0.2,0.1-0.3,0.2-0.4,0.3l-0.2,0.1c-0.2,0.2-0.4,0.4-0.6,0.7c0,0.1-0.1,0.1-0.1,0.2
				c-0.1,0.1-0.1,0.2-0.1,0.3c0,0.1,0,0.1,0,0.2c0,0.1,0,0.2,0,0.4c0,0.1,0,0.2,0,0.3c0,0.1,0,0.2,0.1,0.3c0,0.1,0.1,0.2,0.1,0.3
				c0.3,0.5,0.7,1,1.2,1.3l216.6,125.1c0.7,0.4,1.4,0.6,2.1,0.7c1,0.2,1.9,0.2,2.9,0c0.2,0,0.3,0,0.5-0.1c0.4-0.1,0.9-0.2,1.3-0.4
				l0.4-0.2L399,327.9C400.3,327.1,400.8,326,400.2,325z M376.9,320.6l-6.8,3.9l-90.5,52.2c-1.6,1-3.6,1.1-5.4,0.4
				c-0.3-0.1-0.5-0.2-0.7-0.4l-171.8-99.2l-8.3-4.8c-0.3-0.2-0.6-0.4-0.8-0.6c-0.9-0.9-0.6-2.1,0.8-2.9l97.2-56.2
				c1.1-0.7,2.4-1.1,3.8-1c0.3,0,0.6,0.1,0.9,0.3c0.2,0.1,0.3,0.1,0.5,0.2L376.9,317c1,0.6,1.3,1.8,0.8,2.8
				C377.5,320.1,377.2,320.4,376.9,320.6L376.9,320.6z"/>
			<path class="st3" d="M68.5,260.3c-1.9,1.4-3,3.6-3.2,6v4.8c0.1,2.5,1.5,4.9,3.7,6.2l216.6,125.1c0.8,0.4,1.7,0.7,2.6,0.8
				c0.3,0,0.6,0.1,1,0.1l0,0v-13.1l0,0c-0.5,0-1,0-1.5-0.1c-0.8-0.1-1.5-0.4-2.1-0.7L69,264.2C67.1,263.1,67,261.4,68.5,260.3z"/>
			<path class="st4" d="M342.9,350.5c-4-2-8.8-2-12.8,0c-0.8,0.4-1.4,1-1.9,1.8c-1.1,2,1,3.5,1.9,4.1c4,2,8.8,2,12.8,0
				c0.8-0.4,1.4-1,1.9-1.8C345.9,352.5,343.8,351,342.9,350.5z"/>
			<path class="st5" d="M130.8,235c0.6-0.2,0.8-0.8,0.6-1.4c-0.1-0.3-0.3-0.5-0.6-0.6c-1.1-0.6-2.4-0.6-3.5,0
				c-0.6,0.2-0.8,0.8-0.6,1.4c0.1,0.3,0.3,0.5,0.6,0.6C128.3,235.6,129.6,235.6,130.8,235z"/>
			<path class="st5" d="M125.2,244.6c0.5-0.2,0.7-0.8,0.5-1.3c-0.1-0.2-0.3-0.4-0.5-0.5c-1-0.5-2.1-0.5-3.1,0
				c-0.5,0.2-0.7,0.8-0.5,1.3c0.1,0.2,0.3,0.4,0.5,0.5C123.1,245.1,124.3,245.1,125.2,244.6z"/>
			<path class="st5" d="M130.5,241.6l17.4-10.1c0.9-0.6,1-1.4,0.1-1.9c-1.1-0.5-2.3-0.5-3.4,0.1l-17.4,10.1c-1,0.6-1,1.4-0.1,1.9
				C128.2,242.2,129.5,242.2,130.5,241.6z"/>
			<path class="st5" d="M399.4,324.1c1.5,1.2,1.3,2.8-0.5,3.8l-106.2,61.3c-1.1,0.6-2.3,0.9-3.6,0.9v13c1.2,0,2.5-0.3,3.6-0.9
				L399,341c2.1-1.4,3.5-3.7,3.6-6.2V330C402.4,327.7,401.3,325.5,399.4,324.1z"/>
			<path class="st2" d="M119.6,297.1c1.1,0.7,1.8,1.8,1.9,3.1c0,0.4-0.2,0.8-0.5,1.1c-0.2,0.1-1.1,0.6-1.3,0.8
				c-0.4,0.2-1,0.1-1.3-0.1l-24.2-14c-1.1-0.7-1.8-1.8-1.9-3.1c0-0.4,0.1-0.8,0.5-1.1l1.3-0.8c0.4-0.2,1-0.1,1.3,0.1L119.6,297.1z"
				/>
			<path class="st5" d="M118.3,297.8l-24.2-13.9c-1-0.6-1.9-0.2-1.9,0.9c0.1,1.3,0.8,2.4,1.9,3.1l24.2,14c1,0.6,1.8,0.2,1.8-0.9
				C120.1,299.7,119.4,298.5,118.3,297.8z"/>
			<path class="st2" d="M87.3,278.4c1.1,0.7,1.8,1.8,1.8,3.1c0,0.4-0.2,0.9-0.5,1.1c-0.2,0.1-1.1,0.6-1.3,0.8
				c-0.4,0.2-1,0.1-1.3-0.1l-11.4-6.6c-1.1-0.7-1.8-1.8-1.9-3.1c0-0.4,0.1-0.8,0.5-1.1c0.2-0.1,1.1-0.6,1.3-0.8
				c0.4-0.2,1-0.1,1.3,0.1L87.3,278.4z"/>
			<path class="st5" d="M86,279.2l-11.4-6.6c-1-0.6-1.9-0.2-1.9,0.9c0.1,1.3,0.8,2.4,1.9,3.1l11.4,6.6c1,0.6,1.9,0.2,1.9-0.9
				C87.8,281,87.1,279.8,86,279.2z"/>
		</g>
		<g id="Window">
			<path class="st6" d="M376.9,320.5l-6.8,3.9l-90.5,52.2c-0.2,0.1-0.5,0.3-0.7,0.4c-1.5,0.6-3.2,0.6-4.7,0
				c-0.3-0.1-0.5-0.2-0.7-0.4l-171.8-99.2l-8.3-4.8c-0.3-0.2-0.6-0.4-0.8-0.6c-0.9-0.9-0.6-2.1,0.8-3l97.2-56.1
				c1.1-0.8,2.4-1.1,3.8-1.1c0.3,0,0.6,0.1,0.9,0.3c0.2,0.1,0.3,0.1,0.5,0.2L376.9,317c1,0.6,1.3,1.9,0.7,2.8
				C377.4,320.1,377.2,320.3,376.9,320.5z"/>
			<path class="st7" d="M376.9,320.5l-6.8,3.9l-90.5,52.2c-0.2,0.1-0.5,0.3-0.7,0.4c-1.5,0.6-3.2,0.6-4.7,0
				c-0.3-0.1-0.5-0.2-0.7-0.4l-171.8-99.2l-8.3-4.8c-0.3-0.2-0.6-0.4-0.8-0.6c-0.9-0.9-0.6-2.1,0.8-3l97.2-56.1
				c1.1-0.8,2.4-1.1,3.8-1.1c0.3,0,0.6,0.1,0.9,0.3c0.2,0.1,0.3,0.1,0.5,0.2L376.9,317c1,0.6,1.3,1.9,0.7,2.8
				C377.4,320.1,377.2,320.3,376.9,320.5z"/>
			<path class="st2" d="M113.9,265.3c0,0-0.1,0-0.1,0l-0.5-0.3l-1.2,0.7c-0.1,0-0.1,0-0.2,0l-0.2-0.1l-0.1-0.1v-0.1l-0.5-1.7
				c0,0,0,0,0-0.1c0,0,0,0,0.1-0.1l0.2-0.1c0,0,0.1,0,0.1,0c0,0,0.1,0,0.2,0l1.7,1l0.3-0.1c0,0,0.1,0,0.1,0c0.1,0,0.1,0,0.1,0
				l0.1,0.1c0.1,0,0.1,0.1,0.1,0.1s0,0-0.1,0.1l-0.3,0.1l0.5,0.3c0.1,0,0.1,0.1,0.1,0.1s0,0-0.1,0.1l-0.2,0.1
				C114,265.4,114,265.4,113.9,265.3z M112.9,264.7l-1.2-0.7l0.3,1.2L112.9,264.7z"/>
			<path class="st2" d="M115,264.4c-0.5,0-1-0.2-1.4-0.4c-0.5-0.3-0.7-0.5-0.8-0.8s0.2-0.5,0.6-0.8c0.2-0.1,0.3-0.2,0.5-0.2
				c0.2-0.1,0.3-0.1,0.5-0.1c0,0,0.1,0,0.1,0l0,0l0.1,0.2c0,0,0,0,0,0h-0.1c-0.3,0-0.5,0.1-0.7,0.2c-0.3,0.2-0.4,0.3-0.4,0.5
				s0.2,0.4,0.6,0.6c0.3,0.2,0.6,0.3,1,0.4c0.3,0,0.6-0.1,0.9-0.2l0.3-0.2c0.1,0,0.1-0.1,0.2-0.2l-0.8-0.4l-0.5,0.3c0,0-0.1,0-0.1,0
				c-0.1,0-0.1,0-0.2,0l-0.1-0.1c0,0-0.1-0.1-0.1-0.1s0,0,0.1-0.1l0.8-0.4c0.1,0,0.1,0,0.2,0c0.1,0,0.1,0,0.2,0.1l1.1,0.6l0.1,0.1
				c0,0,0,0,0,0.1c-0.1,0.2-0.3,0.4-0.7,0.7C115.9,264.2,115.4,264.3,115,264.4z"/>
			<path class="st2" d="M124.5,258.7c0.4,0.2,0.4,0.6,0,0.8c-0.4,0.2-0.9,0.2-1.3,0c-0.4-0.2-0.4-0.5,0-0.8
				C123.6,258.4,124.1,258.4,124.5,258.7z"/>
			<path class="st2" d="M122.1,258c-0.7,0.4-0.9,1-0.6,1.4c0.1,0.1,0.2,0.2,0.4,0.1l0,0c0.2,0,0.4-0.1,0.3-0.3c-0.2-0.4,0-0.7,0.4-1
				c0.5-0.3,1.2-0.4,1.8-0.3c0.2,0,0.4,0,0.5-0.2l0,0c0-0.1-0.1-0.2-0.3-0.2C123.7,257.5,122.8,257.6,122.1,258z"/>
			<path class="st2" d="M121,257.4c-1,0.6-1.3,1.4-1.1,2.1c0,0.1,0.2,0.2,0.4,0.2l0,0c0.2,0,0.4-0.1,0.3-0.3
				c-0.2-0.6,0.1-1.3,0.9-1.7c0.9-0.5,2-0.7,3-0.5c0.2,0,0.4,0,0.4-0.2l0,0c0-0.1-0.1-0.2-0.3-0.2
				C123.4,256.6,122.1,256.8,121,257.4z"/>
			<path class="st2" d="M140.7,247.9c0,0-0.1,0-0.1,0c0,0,0,0,0-0.1l0.2-1v-0.1c0,0,0,0,0-0.1l0.4-0.2c0,0,0.1,0,0.1,0
				c0,0,0.1,0,0.1,0l2.9,1.6c0,0,0,0,0.1,0.1c0,0,0,0-0.1,0.1l-0.4,0.2c-0.1,0-0.2,0-0.2,0l-2.2-1.3l-0.1,0.6c0,0,0,0-0.1,0.1h-0.1
				L140.7,247.9z"/>
			<path class="st2" d="M142.9,246.6c0,0-0.1,0-0.1,0c0,0,0,0,0-0.1l0.2-1c0,0,0,0,0-0.1c0,0,0,0,0.1-0.1l0.3-0.2c0.1,0,0.2,0,0.2,0
				l2.9,1.6c0,0,0,0,0,0.1c0,0,0,0.1,0,0.1l-0.4,0.2c0,0-0.1,0-0.1,0c0,0-0.1,0-0.1,0l-2.2-1.3l-0.1,0.6l-0.1,0.1h-0.1L142.9,246.6z
				"/>
			<path class="st2" d="M145.7,244.9c0,0,0.1,0,0.1,0h0.1l0.4,0.3c0,0,0,0,0,0.1c0,0,0,0.1,0,0.1l-0.4,0.2c-0.1,0-0.2,0-0.2,0
				l-0.4-0.3c0,0,0,0,0-0.1s0-0.1,0-0.1L145.7,244.9z M147.3,245.7c0.1,0,0.2,0,0.2,0l0.4,0.3c0,0,0.1,0,0.1,0.1c0,0,0,0.1-0.1,0.1
				l-0.4,0.2c0,0-0.1,0-0.1,0h-0.1l-0.4-0.3c0,0-0.1,0-0.1-0.1c0,0,0-0.1,0.1-0.1L147.3,245.7z"/>
			<path class="st2" d="M150.3,244.8c0,0-0.1,0-0.1,0c0,0-0.1,0-0.1,0l-0.5-0.3l-1.4,0.8H148h-0.1l-0.3-0.2c0,0-0.1,0-0.1-0.1v-0.1
				l-0.3-1.8c0-0.1,0-0.1,0.1-0.2l0.3-0.2c0,0,0.1,0,0.1,0c0,0,0.1,0,0.1,0l1.8,1l0.4-0.2c0,0,0.1,0,0.1,0h0.1l0.3,0.2
				c0,0,0,0,0.1,0.1c0,0,0,0.1-0.1,0.1l-0.4,0.2l0.5,0.3c0,0,0.1,0,0.1,0.1s0,0-0.1,0.1L150.3,244.8z M149,244.1l-0.9-0.6l0.2,1
				L149,244.1z"/>
			<path class="st2" d="M149.1,242C149.1,242,149.1,242,149.1,242c0-0.1,0-0.1,0-0.1l1.7-1c0,0,0.1,0,0.1,0c0,0,0.1,0,0.1,0l0.3,0.2
				c0,0,0.1,0.1,0,0.1c0,0,0,0,0,0l-1.2,0.7l0.5,0.4c0-0.1,0.1-0.1,0.2-0.2l0.2-0.1c0.2-0.1,0.3-0.2,0.5-0.2
				c0.2-0.1,0.4-0.1,0.6-0.1c0.2,0,0.4,0,0.6,0c0.2,0,0.4,0.1,0.5,0.2c0.2,0.1,0.3,0.2,0.4,0.3c0.1,0.1,0.1,0.2,0.1,0.3
				c0,0.1-0.1,0.2-0.2,0.3c-0.1,0.1-0.2,0.2-0.4,0.3c-0.2,0.1-0.4,0.2-0.6,0.3c-0.2,0.1-0.4,0.1-0.6,0.1c-0.2,0-0.3,0-0.5,0
				c-0.1,0-0.3-0.1-0.4-0.1c0,0-0.1,0-0.1-0.1c0,0,0,0,0-0.1l0.4-0.2c0,0,0.1,0,0.1,0h0.1c0.1,0,0.2,0,0.3,0.1h0.2l0.2-0.1l0.2-0.1
				c0.2-0.1,0.3-0.2,0.3-0.3s-0.1-0.2-0.2-0.3c-0.1-0.1-0.3-0.1-0.5-0.1c-0.2,0-0.4,0.1-0.5,0.1c-0.1,0-0.1,0.1-0.2,0.1
				c0,0-0.1,0.1-0.1,0.1c0,0,0,0.1-0.1,0.1c0,0,0,0.1-0.1,0.1l-0.4,0.2h-0.1c0,0-0.1,0-0.1,0L149.1,242z"/>
			<polygon class="st2" points="101.6,272.9 100.7,272.3 101.9,271.6 102.8,272.1 			"/>
			<polygon class="st2" points="103.4,271.8 101.6,270.7 102.8,270 104.6,271.1 			"/>
			<polygon class="st2" points="105.3,270.7 102.5,269.1 103.7,268.4 106.5,270 			"/>
			<polygon class="st2" points="107.1,269.7 103.4,267.5 104.6,266.8 108.3,269 			"/>
			<path class="st2" d="M190.3,218.2c-0.2,0-0.5,0-0.7,0.1l-4.6,2.6c-0.3,0.2-0.2,0.5,0.2,0.7l1.7,1c0.2,0.1,0.5,0.2,0.8,0.2
				c0.1,0,0.2,0,0.4,0c0.1,0,0.2,0,0.4-0.1l4.6-2.6c0.3-0.2,0.2-0.5-0.2-0.7l-1.7-1C190.9,218.3,190.6,218.2,190.3,218.2z
				 M187.6,222.7c-0.1,0-0.2-0.1-0.4-0.1l-1.7-1c-0.3-0.2-0.4-0.4-0.1-0.6l4.6-2.6c0.1,0,0.1-0.1,0.2-0.1h0.1c0.1,0,0.2,0.1,0.3,0.1
				l1.7,1c0.3,0.2,0.4,0.4,0.1,0.5l-4.6,2.6C187.8,222.7,187.7,222.7,187.6,222.7z"/>
			<path class="st2" d="M186.6,220.7l2,1.1l-0.7,0.4c-0.1,0-0.2,0-0.2,0l-1.5-0.9c-0.2-0.1-0.3-0.3-0.1-0.4L186.6,220.7z"/>
			<polygon class="st2" points="186.9,220.5 187.8,220 189.8,221.2 188.9,221.7 			"/>
			<polygon class="st2" points="188.1,219.9 189,219.4 191,220.5 190.1,221 			"/>
			<path class="st2" d="M190.3,218.7l1.4,0.8c0.3,0.2,0.2,0.4-0.1,0.6l-0.3,0.2l-2-1.1l0.7-0.4C190.1,218.7,190.2,218.7,190.3,218.7
				z"/>
			<path class="st2" d="M191.3,218.3c0.3,0,0.6,0.1,0.9,0.2l0.3,0.2c0.4,0.2,0.5,0.4,0.4,0.5l-0.2,0.1l-1.6-0.9L191.3,218.3z"/>
			<polygon class="st2" points="178.6,225.9 182.1,222.8 184,225.5 181.6,224.8 			"/>
		</g>
		<path class="st8" d="M254.3,355.9v0.9c0.1,1.5,0.9,3,2.2,3.8l17.1,9.9c1.4,0.7,3,0.7,4.4,0l84.6-48.9c1.3-0.8,2.1-2.3,2.2-3.8
			v-0.9c-0.1-1.5-0.9-3-2.2-3.8l-17.1-9.9c-1.4-0.7-3-0.7-4.4,0l-84.6,48.9C255.2,352.9,254.4,354.3,254.3,355.9z"/>
		<path class="st4" d="M362.9,313.3c0.9,0.7,0.8,1.7-0.3,2.3l-84.6,48.9c-0.7,0.4-1.4,0.5-2.2,0.5v6c0.8,0,1.5-0.2,2.2-0.5
			l84.6-48.9c1.3-0.8,2.1-2.3,2.2-3.8V317C364.8,315.5,364.1,314.2,362.9,313.3z"/>
		<path class="st4" d="M256.2,352.3c-1.1,0.9-1.8,2.2-1.9,3.6v0.9c0.1,1.5,0.9,3,2.2,3.8l17.1,9.9c0.7,0.4,1.4,0.5,2.2,0.5V365
			c-0.8,0-1.5-0.2-2.2-0.5l-17.2-9.9C255.4,354,255.3,353,256.2,352.3z"/>
		<polygon class="st8" points="84.9,422.6 76.3,411.3 66.1,411.7 		"/>
		<polygon class="st6" points="84.9,422.6 141.3,390 136.6,322.2 84.9,352 		"/>
		<polygon class="st8" points="84.9,422.6 141.3,390 136.6,322.2 84.9,352 		"/>
		<polygon class="st6" points="84.9,352 84.9,346.6 70.8,343.9 122.5,314.1 127.2,322.2 136.6,322.2 		"/>
		<polygon class="st8" points="84.9,352 84.9,346.6 70.8,343.9 122.5,314.1 127.2,322.2 136.6,322.2 		"/>
		<polygon class="st6" points="122.5,314.1 122.5,330.4 127.2,327.6 127.2,322.2 		"/>
		<polygon class="st4" points="122.5,314.1 122.5,330.4 127.2,327.6 127.2,322.2 		"/>
		<polygon class="st6" points="136.6,322.2 127.2,322.2 127.2,327.6 		"/>
		<polygon class="st8" points="136.6,322.2 127.2,322.2 127.2,327.6 		"/>
		<polygon class="st6" points="70.8,343.9 66.1,411.7 84.9,422.6 84.9,352 84.9,346.6 		"/>
		<polygon class="st8" points="70.8,343.9 66.1,411.7 84.9,422.6 84.9,352 84.9,346.6 		"/>
		<polygon class="st6" points="84.9,346.6 75.5,417.1 84.9,422.6 		"/>
		<polygon class="st4" points="84.9,346.6 75.5,417.1 84.9,422.6 		"/>
		<path class="st3" d="M86.1,343.2c0,0.9,0.7,1.3,1.4,0.8c0.9-0.6,1.4-1.5,1.4-2.5c0-0.9-0.6-1.3-1.4-0.8
			C86.7,341.2,86.1,342.2,86.1,343.2z"/>
		<path class="st3" d="M105.3,332.3c0,0.9,0.7,1.3,1.4,0.8c0.9-0.6,1.4-1.5,1.4-2.5c0-0.9-0.7-1.3-1.4-0.8
			C105.9,330.4,105.4,331.3,105.3,332.3z"/>
		<path class="st3" d="M87.5,342.1c-0.3,0-0.5-0.2-0.5-0.5v-11.9c0-5.2,4.4-11.9,9.9-15.1c3-1.8,5.9-2.1,7.9-0.9
			c1.6,0.9,2.4,2.7,2.4,5v12c0,0.3-0.2,0.5-0.5,0.5s-0.5-0.2-0.5-0.5v-12c0-2-0.7-3.4-2-4.2c-1.7-1-4.2-0.6-6.9,0.9
			c-5.2,3-9.4,9.4-9.4,14.2v11.9C88,341.9,87.8,342.1,87.5,342.1z"/>
		<path class="st2" d="M100.4,351.3c0,0.9,0.7,1.3,1.4,0.8c0.9-0.6,1.4-1.5,1.4-2.5c0-0.9-0.7-1.3-1.4-0.8
			C101,349.4,100.5,350.3,100.4,351.3z"/>
		<path class="st2" d="M119.6,340.5c0,0.9,0.7,1.3,1.4,0.8c0.9-0.6,1.4-1.5,1.4-2.5c0-0.9-0.7-1.3-1.4-0.8
			C120.2,338.5,119.7,339.5,119.6,340.5z"/>
		<path class="st2" d="M101.8,350.3c-0.3,0-0.5-0.2-0.5-0.5v-11.9c0-5.2,4.4-11.9,9.9-15c3-1.8,5.9-2.1,7.9-1c1.6,0.9,2.5,2.7,2.5,5
			v12c0,0.3-0.2,0.5-0.5,0.5c-0.3,0-0.5-0.2-0.5-0.5c0,0,0,0,0,0V327c0-2-0.7-3.4-2-4.2c-1.7-1-4.2-0.6-6.9,0.9
			c-5.2,3-9.4,9.4-9.4,14.2v11.9C102.3,350.1,102.1,350.3,101.8,350.3z"/>
		<path class="st8" d="M404.9,99.6c1-4.2,3.1-7,4-9.2l8.8,1.2c3.2,1.5,7.4,5,7.1,8.6l-2.3,26.1l0.6,24.7c-5,7.8-20,6.4-20,6.4
			s-0.4-11.1,0-32.5C403.4,112.8,403.6,105,404.9,99.6z"/>
		<polygon points="186.4,248.2 186.4,306.3 247.1,335.4 247.1,277.1 		"/>
		<polygon class="st8" points="186.4,248.2 186.4,306.3 247.1,335.4 247.1,277.1 		"/>
		<polygon points="307.8,248.2 307.8,306.3 247.1,335.4 247.1,277.1 		"/>
		<polygon class="st9" points="307.8,248.2 307.8,306.3 247.1,335.4 247.1,277.1 		"/>
		<polyline points="216.8,262.7 186.4,248.2 247.1,219.5 247.1,277.1 216.8,262.7 		"/>
		<polyline class="st10" points="216.8,262.7 186.4,248.2 247.1,219.5 247.1,277.1 216.8,262.7 		"/>
		<polygon points="247.1,219.5 247.1,277.1 307.8,248.2 		"/>
		<polygon class="st11" points="247.1,219.5 247.1,277.1 307.8,248.2 		"/>
		<polygon class="st4" points="247.1,219.5 216.8,233.7 186.5,248.2 156.1,233.7 217.6,205.2 		"/>
		<g class="st12">
			<polygon class="st4" points="247.1,219.5 216.8,233.7 186.5,248.2 156.1,233.7 217.6,205.2 			"/>
		</g>
		<polygon class="st4" points="338.2,233.9 307.8,219.5 277.5,205 247.1,219.5 307.8,248.3 		"/>
		<g class="st12">
			<polygon class="st4" points="338.2,233.9 307.8,219.5 277.5,205 247.1,219.5 307.8,248.3 			"/>
		</g>
		<polygon points="247.1,277.2 216.8,262.8 186.5,248.3 156.1,262.8 217.6,291.3 		"/>
		<polygon class="st4" points="338.2,262.4 307.9,276.9 277.5,291.3 247.1,276.9 307.8,248.2 		"/>
		<g class="st12">
			<polygon class="st4" points="338.2,262.4 307.9,276.9 277.5,291.3 247.1,276.9 307.8,248.2 			"/>
		</g>
		<polygon class="st4" points="247.1,277.2 216.8,262.8 186.5,248.3 156.1,262.8 217.6,291.3 		"/>
		<path class="st8" d="M215.5,186c-0.3,0-0.6-0.5-0.6-1v-34.6c0-0.6,0.3-1,0.6-1s0.6,0.5,0.6,1v34.6
			C216.1,185.5,215.8,186,215.5,186z"/>
		<path class="st8" d="M233.9,186c-0.3,0-0.6-0.5-0.6-1v-5.4c0-0.6,0.3-1,0.6-1s0.6,0.5,0.6,1v5.4C234.4,185.5,234.2,186,233.9,186z
			"/>
		<path class="st8" d="M233.9,172.4c-0.3,0-0.6-0.5-0.6-1v-28c0-0.6,0.3-1,0.6-1s0.6,0.5,0.6,1v28
			C234.4,171.9,234.2,172.4,233.9,172.4z"/>
		<path class="st8" d="M224.9,175.1c-0.3,0-0.6-0.5-0.6-1v-16.8c0-0.6,0.3-1,0.6-1s0.6,0.5,0.6,1V174
			C225.5,174.6,225.2,175.1,224.9,175.1z"/>
		<path class="st8" d="M249.7,157.3c-0.4,0-0.7-0.2-0.8-0.6l-6.2-19.1c-0.1-0.5,0.1-0.9,0.6-1.1c0.5-0.1,0.9,0.1,1.1,0.6l6.2,19.1
			c0.1,0.5-0.1,1-0.6,1.1C249.9,157.3,249.8,157.3,249.7,157.3z"/>
		<path class="st8" d="M205.4,20.8c-0.4,0-0.7-0.2-0.8-0.6l-6.2-19.1c-0.1-0.4,0.1-0.9,0.6-1.1c0.4-0.1,0.9,0.1,1.1,0.5c0,0,0,0,0,0
			l6.2,19.1c0.1,0.4-0.1,0.9-0.6,1.1C205.6,20.8,205.5,20.8,205.4,20.8z"/>
		<path class="st8" d="M290.6,127.6c-0.2,0-0.4-0.1-0.5-0.2l-16.2-11.8c-0.3-0.3-0.4-0.9,0-1.2c0.3-0.3,0.7-0.3,1-0.2l16.2,11.8
			c0.4,0.3,0.5,0.8,0.2,1.2c0,0,0,0,0,0C291.2,127.4,290.9,127.6,290.6,127.6z"/>
		<path class="st8" d="M174.5,43.2c-0.2,0-0.4-0.1-0.5-0.2l-16.2-11.8c-0.4-0.2-0.6-0.7-0.4-1.2c0.2-0.4,0.7-0.6,1.2-0.4
			c0.1,0,0.1,0.1,0.2,0.1L175,41.7c0.4,0.3,0.5,0.8,0.2,1.2c0,0,0,0,0,0C175,43.1,174.8,43.2,174.5,43.2z"/>
		<path class="st8" d="M306.3,79.5h-20.1c-0.5,0.1-0.9-0.3-0.9-0.8c-0.1-0.5,0.3-0.9,0.8-0.9c0.1,0,0.1,0,0.2,0h20.1
			c0.5,0,0.9,0.4,0.9,0.9S306.7,79.5,306.3,79.5L306.3,79.5z"/>
		<path class="st8" d="M162.7,79.5h-20.1c-0.5,0.1-0.9-0.3-0.9-0.8c-0.1-0.5,0.3-0.9,0.8-0.9c0.1,0,0.1,0,0.2,0h20.1
			c0.5,0,0.9,0.4,0.9,0.9S163.2,79.5,162.7,79.5L162.7,79.5z"/>
		<path class="st8" d="M274.4,43.2c-0.5,0-0.9-0.4-0.9-0.9c0-0.3,0.1-0.5,0.3-0.7l16.2-11.8c0.3-0.3,0.9-0.3,1.2,0s0.3,0.9,0,1.2
			c-0.1,0.1-0.1,0.1-0.2,0.1l-16.2,11.8C274.8,43.2,274.6,43.2,274.4,43.2z"/>
		<path class="st8" d="M158.3,127.6c-0.3,0-0.5-0.1-0.7-0.3c-0.3-0.4-0.2-0.9,0.2-1.2c0,0,0,0,0,0l16.2-11.8
			c0.4-0.3,0.9-0.3,1.2,0.1c0.3,0.4,0.3,0.9-0.1,1.2c0,0-0.1,0.1-0.1,0.1l-16.2,11.8C158.6,127.5,158.5,127.6,158.3,127.6z"/>
		<path class="st8" d="M243.5,20.8c-0.1,0-0.2,0-0.3,0c-0.4-0.1-0.7-0.6-0.6-1.1c0,0,0,0,0,0l6.2-19.1c0.2-0.4,0.7-0.6,1.1-0.5
			c0.4,0.2,0.6,0.6,0.5,1l-6.2,19.1C244.2,20.6,243.9,20.8,243.5,20.8z"/>
		<path class="st8" d="M199.2,157.3c-0.1,0-0.2,0-0.3,0c-0.5-0.1-0.7-0.6-0.6-1.1c0,0,0,0,0,0l6.2-19.1c0.1-0.5,0.6-0.7,1-0.6
			c0.5,0.1,0.7,0.6,0.6,1c0,0,0,0.1,0,0.1l-6.2,19C199.9,157.1,199.6,157.3,199.2,157.3z"/>
		<path class="st11" d="M276.5,357.9L273,348l1.7-1l3.5,10L276.5,357.9z M280.1,355.9l-4.4-6.6l-0.7,0.4l-0.8-2.4l1.2-0.7l4.4,6.6
			l0.5-0.3l0.8,2.4L280.1,355.9z M280.8,355.5l-3.5-10l1.7-1l3.5,10L280.8,355.5z"/>
		<path class="st11" d="M287.3,352c-0.8,0.5-1.7,0.6-2.6,0.3c-0.9-0.4-1.7-1.1-2.1-2c-0.6-1.1-1.1-2.3-1.3-3.5c-0.2-1,0-2,0.4-2.9
			c0.4-0.9,1.1-1.6,2-2c0.8-0.5,1.7-0.6,2.6-0.3c0.9,0.4,1.7,1.1,2.1,2c0.6,1.1,1.1,2.3,1.3,3.5c0.2,1,0.1,2-0.3,2.9
			C288.8,350.9,288.1,351.6,287.3,352z M286.6,350.3c0.5-0.3,0.8-0.7,1-1.2c0.2-0.6,0.2-1.3,0-1.9c-0.2-0.9-0.5-1.7-1-2.5
			c-0.2-0.5-0.6-0.9-1.1-1.2c-0.4-0.2-0.9-0.2-1.2,0c-0.5,0.3-0.8,0.7-1,1.2c-0.2,0.6-0.2,1.3,0,1.9c0.2,0.9,0.6,1.7,1,2.4
			c0.3,0.5,0.7,0.9,1.1,1.2C285.8,350.5,286.2,350.5,286.6,350.3L286.6,350.3z"/>
		<path class="st11" d="M302.6,343.4c-0.8,0.5-1.7,0.6-2.6,0.3c-0.9-0.4-1.7-1.1-2.1-2c-0.6-1.1-1.1-2.3-1.3-3.5
			c-0.2-1-0.1-2,0.4-2.9c0.4-0.9,1.1-1.6,2-2c0.8-0.5,1.7-0.6,2.6-0.3c0.9,0.4,1.7,1.1,2.1,2c0.6,1.1,1.1,2.3,1.3,3.5
			c0.2,1,0.1,2-0.3,2.9C304.1,342.3,303.4,343,302.6,343.4z M301.9,341.7c0.5-0.3,0.8-0.7,1-1.2c0.2-0.6,0.2-1.3,0-1.9
			c-0.2-0.9-0.6-1.7-1-2.5c-0.2-0.5-0.6-0.9-1.1-1.2c-0.4-0.2-0.8-0.2-1.2,0c-0.5,0.3-0.8,0.7-1,1.2c-0.2,0.6-0.2,1.3,0,1.9
			c0.2,0.9,0.6,1.7,1,2.4c0.2,0.5,0.7,0.9,1.1,1.2C301.1,341.8,301.5,341.8,301.9,341.7z"/>
		<path class="st11" d="M306.4,337.5l-0.7-1.7l0.7-0.4c1-0.5,1.9-1.3,2.6-2.2c0.5-0.6,0.5-1.5,0.1-2.1c-0.2-0.4-0.6-0.6-1-0.6
			c-0.6,0-1.2,0.2-1.7,0.5c-0.8,0.4-1.5,0.9-2.3,1.5l-0.7-1.7c0.7-0.5,1.4-1,2.1-1.4c0.9-0.6,2-0.9,3.1-0.9c0.9,0.1,1.7,0.7,2.1,1.5
			c0.7,1.1,0.7,2.5,0.1,3.7c-0.9,1.5-2.3,2.7-3.9,3.5L306.4,337.5z M307.1,340.7l-3.5-10l1.7-1l3.5,10L307.1,340.7z M311.8,338
			l-3.5-3.3l1.8-1l3.6,3.3L311.8,338z"/>
		<path class="st11" d="M316.3,335.5l-0.7-1.7l0.3-0.2c0.7-0.4,1.3-0.9,1.7-1.5c0.4-0.6,0.5-1.3,0.5-2c-0.1-0.8-0.3-1.6-0.7-2.2
			c-0.3-0.7-0.9-1.1-1.6-1.3c-0.8-0.1-1.6,0.1-2.3,0.5c-0.4,0.2-0.8,0.5-1.2,0.9l-1-1.5c0.5-0.4,0.9-0.7,1.5-1
			c1.1-0.7,2.4-1,3.7-0.8c1.2,0.3,2.1,1,2.7,2.1c0.6,1,1,2.1,1,3.3c0,1-0.3,2.1-0.9,2.9c-0.7,1-1.6,1.8-2.6,2.4L316.3,335.5z
			 M314.7,336.4l-3.5-10l1.7-1l3.5,10L314.7,336.4z"/>
		<path class="st11" d="M319.6,323.7L319,322l6.2-3.5l0.6,1.7L319.6,323.7z M322.5,332l-3.5-10l1.7-1l3.5,10L322.5,332z
			 M321.1,327.8l-0.6-1.7l5.1-2.9l0.6,1.7L321.1,327.8z M322.5,332l-0.6-1.7l6.2-3.5l0.6,1.7L322.5,332z"/>
		<path class="st11" d="M329.4,324.6l-0.7-1.7l0.7-0.4c1-0.5,2-1.3,2.6-2.2c0.4-0.6,0.5-1.5,0.1-2.1c-0.2-0.4-0.6-0.6-1-0.6
			c-0.6,0-1.2,0.2-1.7,0.5c-0.8,0.4-1.5,0.9-2.3,1.5l-0.7-1.7c0.7-0.5,1.4-1,2.1-1.4c0.9-0.6,2-0.9,3.1-0.9c0.9,0.1,1.7,0.7,2.1,1.5
			c0.7,1.1,0.7,2.5,0.1,3.7c-0.9,1.5-2.3,2.7-3.9,3.5L329.4,324.6z M330,327.7l-3.5-10l1.7-1l3.5,10L330,327.7z M334.8,325.1
			l-3.5-3.3l1.8-1l3.6,3.3L334.8,325.1z"/>
		<path class="st11" d="M346.3,313.9l-2.4-6l1.9-1.1l1.9,6.3L346.3,313.9z M348.6,317.4c-0.3,0.2-0.7,0.2-1,0.1
			c-0.3-0.1-0.6-0.3-0.8-0.6c-0.2-0.3-0.2-0.7-0.1-1c0.1-0.3,0.3-0.6,0.6-0.8c0.3-0.2,0.7-0.2,1-0.1c0.3,0.1,0.6,0.3,0.8,0.6
			c0.2,0.3,0.2,0.7,0.1,1C349.2,316.9,349,317.2,348.6,317.4L348.6,317.4z"/>
		<path class="st13" d="M375.6,99.9c-2.9,6.3-7.9,16.6-10.6,22.4l-10.7-12.6h-9c0,0,10.8,23,17.2,28.4c2,1.9,5.3,1.8,7.2-0.2
			c0.1-0.1,0.1-0.1,0.2-0.2c2.6-3.2,5-6.5,7.2-10c5.1-7.9,7.4-11.3,7.4-11.3l6.4-27C385.4,88.9,379.6,91.2,375.6,99.9z"/>
		<path class="st6" d="M392,89.3c-3.4-0.1-7.1-0.6-10.4,2.3c-3.1,2.7-5.6,6.2-7.1,10c-2.2,5.2-5.6,11.8-5.6,11.8
			c1.8,2.6,3.9,4.8,6.4,6.7c2.2,1.7,4.9,2.8,7.7,3.2L392,89.3z"/>
		<path class="st11" d="M392,89.3c-3.4-0.1-7.1-0.6-10.4,2.3c-3.1,2.7-5.6,6.2-7.1,10c-2.2,5.2-5.6,11.8-5.6,11.8
			c1.8,2.6,3.9,4.8,6.4,6.7c2.2,1.7,4.9,2.8,7.7,3.2L392,89.3z"/>
		<path class="st14" d="M365,122.3c1.2,1.4,2.3,2.9,3.3,4.5c0,0-1.1-4.2-2.7-5.7L365,122.3z"/>
		<path class="st2" d="M342.6,93L342.6,93l0.9-0.9l0,0c0.3-0.2,0.6-0.3,1-0.2l10.3,1.8c1.1,0.2,2,0.9,2.5,1.9l9.3,20.2
			c0.2,0.3,0.2,0.8,0,1.1l0,0l-0.9,0.9l0,0c-0.3,0.2-0.6,0.3-1,0.2l-10.4-1.8c-1.1-0.2-2-0.9-2.5-1.9l-9.3-20.2
			C342.3,93.6,342.4,93.2,342.6,93z"/>
		<path class="st5" d="M365.7,116.7l-9.3-20.2c-0.5-1-1.4-1.7-2.5-1.9l-10.3-1.8c-1-0.2-1.4,0.4-1,1.3l9.3,20.2
			c0.5,1,1.4,1.7,2.5,1.9l10.3,1.8C365.6,118.1,366.1,117.5,365.7,116.7z"/>
		<path class="st3" d="M355.1,95c0.6,0.3,1,0.8,1.3,1.4l9.3,20.2c0.2,0.3,0.2,0.7,0,1.1l0.8-0.9l0,0c0.2-0.3,0.2-0.8,0-1.1
			l-9.3-20.2c-0.3-0.5-0.7-1-1.2-1.3L355.1,95z"/>
		<path class="st13" d="M347.5,113c-4.3-4.9-4.2-11.1-2.2-12.8l1.3,2.8c0,0,6.5,1.5,9.7,1.2s5.7-1,6.6-0.4c1.8,1.3,2.4,6.8-2.9,8.8
			C355.6,114.3,347.5,113,347.5,113z"/>
		<g id="Botom">
			<path class="st13" d="M422.8,274.3c-2.8,1.5-6.1,1.4-9.4,0l-1.4-17.9l10.8,1.4V274.3z"/>
			<path class="st13" d="M389.7,263.6c-2.3,5-6.5,3.6-11.3,0.4l0.8-18h11.5L389.7,263.6z"/>
			<path class="st5" d="M402.6,291.3c-0.3,0.9-0.2,1.9,0.1,2.8c0.4,0.6,2.4,2.3,6.2,2.6c3.6,0.3,6.8-0.2,8.9-1.5s3.1-2.8,3.3-4.8
				s0-4,0.9-5.6s2.3-3.1,2.6-3.9c0.4-1.4,0.4-2.8,0-4.1L402.6,291.3z"/>
			<path class="st3" d="M412.4,273.5c-0.1,0.8-0.2,1.5-0.4,2.3c-0.5,1.6-1.3,3.1-2.2,4.5c-0.4,0.7-0.9,1.4-1.5,2.1
				c-1.1,1.3-2.4,2.3-3.6,3.6c-1.2,1.2-2,2.7-2.2,4.4c-0.2,2.8,2.9,3.8,5.2,4.2c2.5,0.4,5.1,0.3,7.6-0.4c2.7-0.7,4.7-2.9,5.1-5.6
				c0.1-0.8,0.1-1.6,0.2-2.4c0.3-1.8,1.1-3.5,2.2-4.9c0.6-0.8,1.2-1.7,1.7-2.7c0.7-1.7,0.1-3.7-0.3-5.4c-0.4-1.5-0.9-3.2-1.4-3
				c0,0.3,0,0.6-0.1,0.9c-0.2,0.3-0.3,0.6-0.4,0.9c-0.1,0.4-0.2,0.8-0.4,1.1c-0.3,0.6-0.7,1.1-1.2,1.4c0-1.1-0.1-2.1-0.1-3.2
				c0-0.3-0.1-0.7-0.2-0.9c-0.2-0.2-0.6-0.4-0.9-0.4c-2-0.5-4-0.6-6-0.5c-0.3,0-0.6,0.1-0.8,0.4c-0.1,0.2-0.2,0.5-0.1,0.7
				C412.5,271.6,412.4,272.5,412.4,273.5z"/>
			<path class="st0" d="M409.4,280.9c1-0.8,3.4-0.8,4.7-0.6c1.3,0.1,2.5,0.5,3.6,1.3c0.3,0.2,0.8,0.2,1.1-0.1l0,0
				c0.3-0.3,0.3-0.8,0-1.1c0,0-0.1-0.1-0.1-0.1c-1.2-0.9-2.6-1.4-4.1-1.5c-3.1-0.2-4.1,0.3-4.1,0.3S409.1,279.9,409.4,280.9z"/>
			<path class="st0" d="M407,283.7c1.3-0.8,3.9-0.7,5.1-0.5c1.3,0.1,2.5,0.6,3.5,1.4c0.3,0.2,0.8,0.2,1.1-0.1l0,0
				c0.3-0.3,0.3-0.8,0-1.1c0,0-0.1-0.1-0.1-0.1c-1.2-0.9-2.7-1.5-4.2-1.6c-3.1-0.2-4,0.4-4,0.4C407.8,282.3,407.2,283,407,283.7z"/>
			<path class="st0" d="M415.8,275.7c-1.3-0.2-2.7-0.1-4,0.3c-0.6,0.3-0.9,1.2-0.6,1.4c1.1-0.4,2.3-0.6,3.5-0.5
				c1.2,0.1,2.3,0.4,3.4,0.9c0.3,0.1,0.6,0.3,0.9,0.4c0.4,0.2,0.8,0,1-0.3l0,0c0.2-0.3,0-0.7-0.3-0.9
				C418.6,276.3,417.2,275.9,415.8,275.7z"/>
			<path class="st5" d="M359.7,275.1c-0.3,0.8-0.2,1.7,0.1,2.5c0.3,0.7,4.1,2.9,9.3,2.5c3.8-0.3,7.5-1.5,10.6-3.7
				c2-1.3,4-1.5,6.5-1.7s5.9-1.4,6.4-2.6c0.3-1.1,0.3-2.2-0.1-3.2L359.7,275.1z"/>
			<path class="st3" d="M380.3,259.3l-1.3-0.5c-0.2-0.1-0.5-0.1-0.8-0.1c-0.3,0.1-0.5,0.5-0.5,0.9c-0.1,0.8-0.3,1.5-0.6,2.2
				c-0.4,0.6-0.9,1.1-1.4,1.5c-1.3,1-2.6,1.9-4.1,2.6c-1.7,0.9-3.3,1.6-5,2.4s-4.1,1.3-5.5,2.2c-2,1.4-2.3,4.8,0,6.1
				c2,1.2,7.2,2.4,12.7,0.9c3-0.8,6.3-4,10.2-4.3c2.5-0.2,7.2-0.9,8.8-2.8c0.6-0.8-0.2-3.5-0.8-5.8c-0.7-2.5-1-6.4-1.8-6.2
				c-0.1,0.8-0.8,1.3-1.2,2c-0.4,0.6-0.7,1.3-0.9,2c-0.2,0.7-0.7,1.3-1.3,1.7c-0.6,0.4-1.4,0.4-2-0.1c-0.7-0.8-0.3-2.1-0.8-3
				c-0.4-0.6-1.1-0.9-1.8-1.1L380.3,259.3z"/>
			<path class="st0" d="M373.9,264.6c0.4-0.7,1.1-1.2,1.8-1.2c1.1-0.2,3.1,0.6,4.4,1.6c0.4,0.3,0.5,0.9,0.1,1.3
				c-0.1,0.1-0.2,0.2-0.3,0.2l0,0c-0.3,0.2-0.8,0.1-1.1-0.1C377.5,265.2,375.7,264.6,373.9,264.6z"/>
			<path class="st0" d="M370.4,266.6c0.5-0.7,1.3-1.1,2.2-1.1c1.7,0.1,3.4,0.7,4.8,1.8c0.4,0.3,0.4,0.9,0.1,1.3
				c-0.1,0.1-0.2,0.2-0.3,0.2l0,0c-0.3,0.2-0.7,0.1-1-0.1C374.7,267.1,372.5,266.4,370.4,266.6z"/>
			<path class="st0" d="M366.5,268.4c0.6-0.6,1.4-1,2.3-1c1.7,0.1,3.3,0.7,4.6,1.8c0.4,0.3,0.4,0.9,0.1,1.3
				c-0.1,0.1-0.1,0.1-0.2,0.2l0,0c-0.3,0.2-0.7,0.1-1-0.1C370.8,269,368.6,268.2,366.5,268.4z"/>
			<path class="st3" d="M421.4,139.4c0.6,19.6,0.6,67,0.6,67c0.2,2.4,1.2,7.4,2,17.2c1,12.7-1.2,40.6-1.2,40.6
				c-3.3,1.4-7,1.4-10.2,0.1l-8.1-52.3c-1.7-11-5.1-35.8-5.1-35.8l-3.9,32.2c0.5,5.4,0.4,10.8-0.4,16.1c-0.9,5.8-4.9,29.6-4.9,29.6
				c-3.7,0.9-7.7,0.8-11.4-0.4c0,0-0.4-41.2-0.5-46.5c-0.1-6.1,2.7-72.5,2.7-72.5L421.4,139.4z"/>
			<path class="st5" d="M399.4,176.2l-2.9-16.1c0,0-8-0.7-12.5-5.2c0,0,0.8,4.4,10.9,7l2.9,16.3l-2.3,30.2L399.4,176.2z"/>
		</g>
		<path class="st15" d="M382.1,104.4c0.9-6.3,1.7-14.7,11.4-15.1l12.6,0.6c3.1,0.8,15.1,2.2,15.1,2.2l0.2,27.2
			c0,0,0.8,19.6,0.5,30.2c-9,5.7-28.5,7.6-40.8-1.8C380.8,139.1,381.3,110.6,382.1,104.4z"/>
		<path class="st3" d="M383.7,57c-3.4,6-1.3,13.5,4.6,16.9c0.3,0.2,0.6,0.3,0.9,0.4l-2.2,1.6l22.6,2l-0.3,5.4c1-0.3,1.9-0.9,2.4-1.8
			c0.8-1.4,3-10.3,3-10.3c2.1-4.9,3.2-9.9,1.6-11.5c-0.6-0.7-1.4-1.1-2.2-1.3l3-1.5c-0.5-1.2-2-1.8-3.2-1.2c0,0-0.1,0-0.1,0
			c-0.3,0.1-0.5,0.3-0.7,0.5c0.1-0.3,0.1-0.7,0.2-1c0.1-1-0.1-2-0.7-2.8c-0.4-0.6-1-1-1.6-1.4c-2.5-1.6-5.6-2.2-8.4-3.2
			c-1.6-0.6-3.1-1.3-4.7-1.9c-1-0.5-2.2-0.7-3.3-0.6c-1.2,0.2-2,1.3-1.9,2.4c-1.3-1.2-3.1-1.4-4.7-0.7c-1.5,0.6-2.4,2.1-2.3,3.7
			c-1-0.3-2.1-0.1-3.1,0.3c-1,0.5-1.5,1.5-1.5,2.5C381.4,54.8,382.5,56,383.7,57z"/>
		<path class="st13" d="M399.6,60.2c2.1-0.3,4.1-0.6,6.2-0.9c0.2-0.1,0.4,0,0.5,0.1c0.1,0.1,0.2,0.2,0.2,0.3c1.4,4,1.3,8.3,2.4,12.3
			c0.1,0.4,0.3,1,0.8,1c0.8,0.1,1.3-0.6,1.7-1.2l0.8-1.4c0.2-0.3,0.4-0.5,0.6-0.7c1-0.9,3.8-2,5.2,1.1s-1.5,7.2-3.8,7.8
			c-4,1.1-4.5-1.4-4.5-1.4l-0.8,14.2c-3.5,3.7-15.1,2.4-12.8-0.8l0.1-4.3c-1.8,0.2-3.5,0.3-5.3,0.1c-2.9-0.5-4.6-2.9-5.4-6.1
			c-1.3-5.1-1.1-11.3-0.1-19c0.1-0.9,0.4-1.8,0.7-2.7C390.1,60.8,395,60.7,399.6,60.2z"/>
		<path class="st14" d="M396.2,86.2c0,0,6.5-1.1,8.8-2.2c1.4-0.6,2.5-1.7,3.2-3c-0.4,1.3-1,2.5-1.9,3.6c-1.7,2.1-10.2,3.3-10.2,3.3
			L396.2,86.2z"/>
		<path class="st5" d="M397.1,70.1c0,0.8,0.6,1.4,1.4,1.4c0.8,0,1.4-0.6,1.4-1.4c0-0.7-0.6-1.4-1.3-1.4
			C397.8,68.7,397.1,69.4,397.1,70.1C397.1,70.1,397.1,70.1,397.1,70.1z"/>
		<path class="st5" d="M399,64.4l3,1.3c0.3-0.8-0.1-1.8-0.9-2.1c-0.8-0.4-1.7,0-2,0.8C399.1,64.3,399.1,64.3,399,64.4z"/>
		<path class="st16" d="M398.8,77.7l-4.6,1.6c0.4,1.3,1.7,2,2.9,1.6c0,0,0,0,0.1,0C398.5,80.4,399.2,79,398.8,77.7z"/>
		<path class="st14" d="M397.2,80.8c0.8-0.3,1.4-0.9,1.6-1.7c-1-0.5-2.2,0-2.6,1c-0.1,0.2-0.2,0.5-0.2,0.8
			C396.4,81,396.8,81,397.2,80.8z"/>
		<path class="st5" d="M385.6,65.5l2.9-1.1c-0.3-0.8-1.1-1.2-1.9-0.9c0,0-0.1,0-0.1,0C385.7,63.9,385.3,64.7,385.6,65.5z"/>
		<path class="st5" d="M386.6,70.1c0,0.8,0.6,1.5,1.3,1.5c0,0,0,0,0,0c0.8,0,1.4-0.6,1.5-1.4c0-0.8-0.6-1.4-1.3-1.5c0,0,0,0,0,0
			C387.2,68.7,386.6,69.4,386.6,70.1z"/>
		<path class="st14" d="M393.4,69.7l-0.2,7.7l-4.3-1.2l4-6.5C393,69.6,393.2,69.7,393.4,69.7z"/>
		<path class="st6" d="M380.6,112.2c0.3-8,1-15,3.9-18.7s4.5-4.4,11.6-4.3v0.5c-0.8,0.1-1.5,0.5-2,1.2c-2.4,3.7-4.3,7.7-5.4,12
			c-2,7.7-2.4,25-2.5,34.3s0,16.8,0,16.8s-4.7-1.1-6.2-3.4C380,150.4,380.2,120.2,380.6,112.2z"/>
		<path class="st8" d="M380.6,112.2c0.3-8,1-15,3.9-18.7s4.5-4.4,11.6-4.3v0.5c-0.8,0.1-1.5,0.5-2,1.2c-2.4,3.7-4.3,7.7-5.4,12
			c-2,7.7-2.4,25-2.5,34.3s0,16.8,0,16.8s-4.7-1.1-6.2-3.4C380,150.4,380.2,120.2,380.6,112.2z"/>
		<path class="st8" d="M404.9,99.6c1-4.2,3.1-7,4-9.2l8.8,1.2c3.2,1.5,7.4,5,7.1,8.6l-2.3,26.1l0.6,24.7c-5,7.8-20,6.4-20,6.4
			s-0.4-11.1,0-32.5C403.4,112.8,403.6,105,404.9,99.6z"/>
		<path class="st17" d="M404.4,101.7c0.6-2.7,0.9-7.8,1.4-8.8s3.1-3,3.2-4.4l0-0.9c0.8,0.2,1.6,0.6,2.2,1.1c0.8,0.7,3.3,2.4,3.3,2.4
			c-0.2,1.7-0.9,3.3-1.8,4.7c-1.4,2.1-3.4,3.4-3.8,2.9s-0.3-1.3-0.8-2.5c-0.7-1.5-0.8-2.1-1.5-0.7C406,96.7,404.4,101.7,404.4,101.7
			z"/>
		<path class="st17" d="M389.5,100.2c-0.7,2.3,1.2-7.9,2.4-9.7s4.3-2.5,4.3-2.5l-0.2,2.2c-0.8,0.2-1.5,0.7-2,1.4
			C392.1,94.2,390.6,97.1,389.5,100.2z"/>
		<path class="st17" d="M404.1,103.8c6.7,0.7,13.4,1.7,20,3.1l-0.1,0.7c-6.6-1.4-13.3-2.5-20-3.1L404.1,103.8z"/>
		<path class="st17" d="M381.2,103.7c2.2-0.3,4.7-0.5,7.4-0.6l-0.2,0.8c-2.7,0.1-5.1,0.4-7.3,0.6
			C381.1,104.2,381.2,103.9,381.2,103.7z"/>
		<path class="st13" d="M441.1,126.8c-9.4-23.8-11.4-31.2-18-34c-1.7-0.7-3.6-1.1-5.5-1.2c-1.6,3-4,14.5,3.8,22.5
			c0,0,5.7,14,8.5,20.6c-0.1,6.6,0.4,12.2-1.6,21.2c-0.4,1.2-1.2,2.3-2.3,3c-2.4,1.3-2.8,2.8-4.5,4.5c-1.4,1.3-2.6,1.6-2.4,2.1
			c0.6,1,1.9,1.5,3,1.1c1.3-0.5,2.5-1.2,3.7-1.9c0.2,0.3-2,3.8-4.3,6.4c-3.4,3.8-4.3,6.6,2.6,6.8c4.3,0.2,8.9-3.4,11.8-11.9
			c0.6-1.7,1.2-4.1,1.8-6.5c0.5-1,3.6-17.1,4.2-22C442.9,131.4,442.7,130.6,441.1,126.8z"/>
		<path class="st11" d="M416.5,91.6c2.9-0.4,5.8,0.1,8.3,1.5c3.7,2.2,5,4.2,9.5,14.6s5.4,12.4,5.4,12.4s-2,5.9-13.9,6.6l-5.4-12.2
			c0,0-4.4-5.5-4.8-12.4S416.5,91.6,416.5,91.6z"/>
		<path class="st18" d="M416.5,91.6c2.9-0.4,5.8,0.1,8.3,1.5c3.7,2.2,5,4.2,9.5,14.6s5.4,12.4,5.4,12.4s-2,5.9-13.9,6.6l-5.4-12.2
			c0,0-4.4-5.5-4.8-12.4S416.5,91.6,416.5,91.6z"/>
		<path class="st11" d="M171.9,78.6L166,63.1c-0.6-1.6,0-3.3,1.4-4.2l13.9-9c0.7-0.5,1.3-1.2,1.5-2l4.3-16c0.4-1.6,1.9-2.7,3.6-2.6
			l16.5,0.8c0.9,0,1.7-0.2,2.4-0.8l12.9-10.4c1.3-1,3.1-1,4.4,0l12.9,10.4c0.7,0.5,1.5,0.8,2.4,0.8l16.5-0.8c1.7-0.1,3.2,1,3.6,2.6
			l4.3,16c0.2,0.8,0.8,1.6,1.5,2l13.8,9c1.4,0.9,2,2.7,1.4,4.2l-5.9,15.5c-0.3,0.8-0.3,1.7,0,2.5l5.9,15.5c0.6,1.6,0,3.3-1.4,4.2
			l-13.8,9c-0.7,0.5-1.2,1.2-1.5,2l-4.3,16c-0.4,1.6-1.9,2.7-3.6,2.6l-16.5-0.8c-0.9,0-1.7,0.2-2.4,0.8l-12.9,10.4
			c-1.3,1-3.1,1-4.4,0l-12.9-10.4c-0.7-0.5-1.5-0.8-2.4-0.8l-16.5,0.8c-1.7,0.1-3.2-1-3.6-2.6l-4.3-16c-0.2-0.8-0.8-1.5-1.5-2
			l-13.9-9c-1.4-0.9-2-2.7-1.4-4.2l5.9-15.5C172.2,80.3,172.2,79.4,171.9,78.6z"/>
		<path class="st0" d="M212.9,49.4l2.6-14.6h2.7l-2.6,14.6H212.9z M218.6,49.4l-0.8-11.1h-1.1l0.7-3.5h1.9l0.8,11.1h0.7l-0.6,3.5
			H218.6z M219.8,49.4l2.6-14.6h2.7l-2.6,14.6H219.8z"/>
		<path class="st0" d="M230,49.6c-1.3,0.1-2.5-0.5-3.4-1.4c-0.9-1.1-1.3-2.6-1.2-4c0-1.8,0.2-3.5,0.8-5.2c0.5-1.3,1.3-2.5,2.4-3.3
			c1.1-0.8,2.4-1.2,3.8-1.1c1.3-0.1,2.5,0.4,3.4,1.4c0.9,1.1,1.3,2.5,1.2,3.9c0,1.8-0.2,3.5-0.8,5.2c-0.5,1.3-1.3,2.5-2.4,3.3
			C232.7,49.2,231.4,49.7,230,49.6z M230.4,47c0.7,0,1.5-0.3,2-0.8c0.6-0.7,1.1-1.5,1.3-2.3c0.3-1.2,0.5-2.4,0.4-3.7
			c0-0.8-0.1-1.5-0.6-2.2c-0.3-0.5-0.9-0.8-1.5-0.8c-0.8,0-1.5,0.3-2.1,0.8c-0.6,0.6-1.1,1.4-1.3,2.3c-0.3,1.2-0.5,2.4-0.5,3.6
			c0,0.8,0.2,1.6,0.6,2.3C229.1,46.7,229.8,47,230.4,47z"/>
		<path class="st0" d="M199.3,74.8c-1.3,0.1-2.5-0.5-3.4-1.4c-0.9-1.1-1.3-2.6-1.2-4c0-1.8,0.2-3.5,0.8-5.2c0.5-1.3,1.3-2.4,2.4-3.2
			c1.1-0.8,2.4-1.2,3.8-1.1c1.3-0.1,2.5,0.4,3.4,1.4c0.9,1.1,1.3,2.5,1.2,3.9c0,1.8-0.2,3.5-0.8,5.2c-0.5,1.3-1.3,2.5-2.4,3.3
			C201.9,74.5,200.6,74.9,199.3,74.8z M199.6,72.2c0.7,0,1.5-0.3,2-0.8c0.6-0.7,1.1-1.5,1.3-2.3c0.3-1.2,0.5-2.4,0.4-3.7
			c0-0.8-0.1-1.5-0.6-2.2c-0.3-0.5-0.9-0.8-1.5-0.8c-0.8,0-1.5,0.3-2.1,0.8c-0.6,0.6-1,1.4-1.3,2.3c-0.3,1.2-0.5,2.4-0.5,3.6
			c0,0.8,0.2,1.6,0.6,2.3C198.4,71.9,199,72.2,199.6,72.2z"/>
		<path class="st0" d="M206,74.6l0.4-2.4h7.6l-0.4,2.4H206z M208.3,74.6l1.3-7.3c0.1-0.3,0.1-0.6-0.1-0.9c-0.2-0.2-0.5-0.3-0.8-0.3
			c-0.6,0-1.1,0.1-1.7,0.2l-0.3-2.5c0.5-0.1,0.9-0.2,1.4-0.3c0.5-0.1,0.9-0.1,1.4-0.1c1-0.1,1.9,0.3,2.5,1.1c0.5,1,0.6,2.1,0.3,3.2
			l-1.2,6.8H208.3z M212,69.4l0.1-3.3h0.6c0.2-0.7,0.6-1.4,1.2-1.8c0.6-0.4,1.3-0.7,2-0.6c0.9-0.1,1.8,0.3,2.3,1.1
			c0.5,1,0.6,2.2,0.3,3.3h-2.8c0.1-0.4,0.1-0.9-0.1-1.3c-0.2-0.3-0.5-0.5-0.9-0.5c-0.4,0-0.8,0.1-1.1,0.3c-0.4,0.2-0.7,0.6-0.9,1
			C212.3,68.1,212.1,68.7,212,69.4L212,69.4z"/>
		<path class="st0" d="M222.1,74.8c-0.8,0.1-1.7-0.2-2.3-0.8c-0.6-0.6-0.9-1.4-0.8-2.3c0-1.2,0.3-2.3,0.8-3.4c0.6-1,1.3-1.9,2.3-2.6
			c1-0.8,2.2-1.3,3.4-1.7c1.4-0.4,2.8-0.6,4.3-0.6h0.2l-1.6,2.6c-1.1,0-2.2,0.3-3.3,0.7c-0.9,0.4-1.7,0.9-2.3,1.7
			c-0.6,0.7-0.9,1.5-0.9,2.4c0,0.3,0.1,0.7,0.3,0.9c0.3,0.2,0.6,0.3,0.9,0.3c0.9,0,1.7-0.5,2.1-1.2c0.7-1,1.1-2.1,1.3-3.3l-0.1,4.5
			h-1.2l1.1-1.6c-0.3,1.1-0.8,2.2-1.6,3C224.1,74.4,223.1,74.8,222.1,74.8z M229.1,74.7c-0.4,0-0.8,0-1.2-0.1c-0.4,0-0.7-0.2-1-0.3
			c-0.3-0.2-0.5-0.5-0.6-0.8c-0.1-0.5-0.1-1,0-1.4l0.2-3.8l0.9-4.8c0.1-0.5,0.1-0.9-0.1-1.4c-0.2-0.3-0.5-0.5-0.8-0.4
			c-0.2,0-0.4,0-0.6,0c-0.2,0-0.5,0.1-0.7,0.2l-0.3-2.6c0.3-0.1,0.6-0.1,0.9-0.2c0.3,0,0.6-0.1,0.9-0.1c1.1-0.1,2.3,0.3,3,1.2
			c0.6,0.8,0.7,2.1,0.4,3.9l-1.1,6.6c-0.1,0.3-0.1,0.6-0.1,0.9c0,0.2,0.1,0.4,0.3,0.5c0.3,0.1,0.7,0.2,1,0.2h0.4l-0.4,2.3H229.1z"/>
		<path class="st0" d="M237.3,72.2c0.5,0,1.1-0.1,1.6-0.2c0.6-0.2,1.1-0.4,1.6-0.6l0.7,2.4c-0.6,0.4-1.3,0.7-2.1,0.8
			c-0.7,0.2-1.4,0.2-2.1,0.3c-1.3,0.1-2.5-0.3-3.5-1.2c-0.9-0.8-1.3-2-1.3-3.2c0-1.3,0.3-2.5,0.8-3.6c0.5-1,1.3-1.8,2.3-2.4
			c1.1-0.6,2.3-0.9,3.5-0.9c1-0.1,1.9,0.2,2.6,0.8c0.7,0.6,1,1.5,0.9,2.3c0,1.3-0.8,2.5-2,2.9c-1.9,0.7-3.9,1.1-5.9,1l-0.5-2
			c1.4,0,2.8-0.1,4.2-0.5c1-0.3,1.5-0.7,1.5-1.3c0-0.3-0.1-0.5-0.3-0.6c-0.3-0.2-0.7-0.2-1-0.2c-1.3,0-2.5,0.7-3.1,1.9
			c-0.3,0.7-0.5,1.4-0.5,2.1c0,0.6,0.2,1.2,0.7,1.5C235.9,72,236.6,72.2,237.3,72.2z"/>
		<path class="st0" d="M242.9,74.6l0.4-2.4h7.7l-0.4,2.4H242.9z M245.2,74.6l1.3-7.3c0.1-0.3,0.1-0.6-0.1-0.9
			c-0.2-0.2-0.5-0.3-0.8-0.3c-0.6,0-1.1,0.1-1.7,0.2l-0.3-2.5c0.5-0.1,0.9-0.2,1.4-0.3c0.5-0.1,0.9-0.1,1.4-0.1
			c1-0.1,1.9,0.3,2.5,1.1c0.5,1,0.6,2.1,0.3,3.2l-1.2,6.8H245.2z M249,69.4l0.1-3.4h0.6c0.2-0.7,0.6-1.4,1.2-1.8
			c0.6-0.4,1.3-0.7,2-0.6c0.9-0.1,1.8,0.3,2.3,1.1c0.5,1,0.6,2.2,0.3,3.3h-2.8c0.1-0.4,0.1-0.9-0.1-1.3c-0.2-0.3-0.5-0.5-0.9-0.5
			c-0.4,0-0.8,0.1-1.1,0.3c-0.4,0.2-0.7,0.6-0.9,1C249.3,68.1,249.1,68.7,249,69.4z"/>
		<path class="st0" d="M184.3,104.5h-2.8l2.7-15.6h2.5l-0.1,2.6L184.3,104.5z M184.8,100c-0.4,0-0.9,0-1.3-0.1l-1.3-0.2l1.2-2.7
			c0.6,0.2,1.2,0.3,1.9,0.3c0.9,0,1.8-0.2,2.6-0.6c0.7-0.4,1.4-0.9,1.9-1.7c0.5-0.7,0.7-1.5,0.7-2.3c0-0.4-0.1-0.7-0.3-1
			c-0.2-0.3-0.6-0.4-0.9-0.4c-0.5,0-1,0.2-1.4,0.5c-0.5,0.4-0.9,0.9-1.2,1.4c-0.4,0.8-0.7,1.7-0.9,2.6l0.4-4.9h0.9l-0.4,0.6
			c0.2-0.8,0.6-1.5,1.3-2c0.7-0.5,1.5-0.7,2.4-0.7c0.9,0,1.7,0.3,2.3,1c0.6,0.8,0.9,1.8,0.8,2.7c0,1-0.2,2.1-0.6,3
			c-0.4,0.9-1,1.7-1.8,2.4c-0.8,0.7-1.7,1.2-2.7,1.6C187.1,99.9,186,100.1,184.8,100L184.8,100z"/>
		<path class="st0" d="M193.7,99.8l0.4-2.4h7.6l-0.4,2.4H193.7z M196,99.8l1.3-7.3c0.1-0.3,0.1-0.6-0.1-0.9
			c-0.2-0.2-0.5-0.3-0.8-0.3c-0.6,0-1.1,0.1-1.7,0.2l-0.3-2.5c0.5-0.1,0.9-0.2,1.4-0.3c0.5-0.1,0.9-0.1,1.4-0.1
			c1-0.1,1.9,0.3,2.5,1.1c0.5,1,0.6,2.1,0.3,3.2l-1.2,6.8L196,99.8z M199.8,94.6l0.1-3.3h0.6c0.2-0.7,0.6-1.4,1.2-1.8
			c0.6-0.4,1.3-0.7,2-0.6c0.9-0.1,1.8,0.3,2.3,1.1c0.5,1,0.6,2.2,0.3,3.3h-2.8c0.1-0.4,0.1-0.9-0.1-1.3c-0.2-0.3-0.5-0.5-0.9-0.5
			c-0.4,0-0.8,0.1-1.1,0.3c-0.4,0.2-0.7,0.6-0.9,1C200,93.3,199.8,93.9,199.8,94.6z"/>
		<path class="st0" d="M212.7,97.4c0.5,0,1.1-0.1,1.6-0.2c0.6-0.2,1.1-0.4,1.6-0.6l0.7,2.4c-0.6,0.4-1.3,0.7-2.1,0.8
			c-0.7,0.2-1.4,0.2-2.1,0.3c-1.3,0.1-2.5-0.3-3.5-1.2c-0.9-0.8-1.3-2-1.3-3.2c0-1.3,0.3-2.5,0.8-3.6c0.5-1,1.3-1.8,2.3-2.4
			c1.1-0.6,2.3-0.9,3.5-0.9c1-0.1,1.9,0.2,2.6,0.8c0.7,0.6,1,1.5,0.9,2.3c0,1.3-0.8,2.5-2,2.9c-1.9,0.7-3.9,1.1-5.9,1l-0.4-2
			c1.4,0,2.8-0.1,4.2-0.5c1-0.3,1.5-0.7,1.5-1.3c0-0.3-0.1-0.5-0.4-0.6c-0.3-0.2-0.7-0.3-1-0.2c-1.3,0-2.5,0.7-3.1,1.9
			c-0.3,0.7-0.5,1.4-0.5,2.1c0,0.6,0.2,1.2,0.7,1.5C211.4,97.2,212,97.4,212.7,97.4z"/>
		<path class="st0" d="M222.9,100c-0.8,0-1.5,0-2.2-0.1c-0.6,0-1.1-0.1-1.7-0.2l0.8-2.7l2.2,0.3c0.6,0,1,0.1,1.3,0.1
			c0.7,0,1.4-0.1,2.1-0.3c0.5-0.2,0.7-0.4,0.7-0.8c0-0.1-0.1-0.2-0.1-0.3c-0.1-0.1-0.2-0.1-0.4-0.2l-3.8-1.2
			c-0.4-0.1-0.8-0.4-1.1-0.7c-0.2-0.4-0.4-0.8-0.3-1.3c-0.1-1.3,0.6-2.4,1.7-3.1c1.6-0.8,3.3-1.1,5-1c0.5,0,0.9,0,1.4,0.1
			s1,0.1,1.6,0.2l-0.8,2.6c-0.6,0-1.1-0.1-1.5-0.1s-0.9,0-1.2,0c-0.8,0-1.6,0.1-2.4,0.2c-0.5,0.2-0.8,0.4-0.8,0.7
			c0,0.1,0.1,0.2,0.1,0.3c0.1,0.1,0.2,0.1,0.4,0.2l2.9,0.8c0.7,0.2,1.3,0.5,1.8,1c0.4,0.4,0.6,1,0.6,1.6c0.1,1.2-0.6,2.3-1.6,2.9
			C226.2,99.8,224.6,100.1,222.9,100z"/>
		<path class="st0" d="M237.3,97.4c0.5,0,1.1-0.1,1.6-0.2c0.6-0.2,1.1-0.4,1.6-0.6l0.7,2.4c-0.6,0.4-1.3,0.7-2.1,0.8
			c-0.7,0.1-1.4,0.2-2.1,0.2c-1.3,0.1-2.5-0.3-3.5-1.2c-0.9-0.8-1.3-2-1.3-3.2c0-1.2,0.2-2.5,0.8-3.6c0.5-1,1.3-1.8,2.3-2.4
			c1.1-0.6,2.3-0.9,3.5-0.9c1-0.1,1.9,0.2,2.6,0.8c0.7,0.6,1,1.5,0.9,2.3c0,1.3-0.8,2.5-2,2.9c-1.9,0.7-3.9,1.1-5.9,1l-0.4-2
			c1.4,0,2.8-0.1,4.2-0.5c1-0.3,1.5-0.7,1.5-1.3c0-0.3-0.1-0.5-0.3-0.6c-0.3-0.2-0.7-0.2-1-0.2c-1.3,0-2.5,0.7-3.1,1.9
			c-0.3,0.7-0.5,1.4-0.5,2.1c0,0.6,0.2,1.2,0.7,1.5C236,97.2,236.6,97.4,237.3,97.4z"/>
		<path class="st0" d="M243.8,99.8l1.9-10.9h2.4l-0.1,2.6l-1.4,8.3H243.8z M250.2,99.8l1.1-6.6c0.1-0.5,0.1-1-0.1-1.4
			c-0.2-0.3-0.6-0.5-1-0.5c-0.4,0-0.8,0.1-1.1,0.3c-0.4,0.2-0.7,0.6-0.9,1c-0.3,0.6-0.5,1.2-0.6,1.9l0.5-3.7h0.4
			c0.2-0.6,0.6-1.2,1.1-1.6c0.6-0.4,1.2-0.6,1.9-0.6c1-0.1,1.9,0.3,2.4,1.1c0.5,1,0.6,2.2,0.3,3.3l-1.2,6.6H250.2z"/>
		<path class="st0" d="M256.7,91.5l0.5-2.6h9.9l-0.5,2.6H256.7z M262.3,100c-1,0.1-2-0.2-2.9-0.9c-0.7-0.6-1.1-1.5-1-2.5
			c0-0.3,0-0.6,0-0.9s0-0.6,0.1-1s0.1-0.8,0.2-1.3l1.4-7.8h2.8l-1.4,7.8c-0.1,0.7-0.2,1.2-0.2,1.5c0,0.4-0.1,0.7-0.1,1.1
			c0,0.4,0.1,0.7,0.4,1c0.3,0.2,0.8,0.3,1.2,0.3c0.5,0,0.9,0,1.4-0.1c0.5-0.1,0.9-0.2,1.4-0.4l0.5,2.4c-0.6,0.2-1.1,0.3-1.7,0.5
			C263.7,99.9,263,100,262.3,100L262.3,100z"/>
		<path class="st0" d="M224.1,125.2c-1,0-1.9-0.8-1.9-1.9c0-0.5,0.2-1,0.6-1.3c0.7-0.7,1.9-0.7,2.6,0c0.4,0.4,0.6,0.8,0.5,1.3
			c0,0.5-0.2,1-0.5,1.3C225.1,125,224.6,125.2,224.1,125.2z M223.6,119.3l1.3-9h3l-2,9H223.6z"/>
	</g>
</g>
</svg>
