<svg xmlns="http://www.w3.org/2000/svg" viewBox="0 0 476.37 462.87"><g id="Layer_2" data-name="Layer 2"><g id="Character"><ellipse id="Floor" cx="238.18" cy="325.34" rx="238.19" ry="137.52" transform="translate(-3.02 2.23) rotate(-0.53)" style="fill:#f5f5f5"/><path id="Shadow" d="M409.9,339.75a2.26,2.26,0,0,0-.16-.26,1.83,1.83,0,0,0-.13-.16,1.46,1.46,0,0,0-.16-.19,1.49,1.49,0,0,0-.18-.17,3.76,3.76,0,0,0-.64-.45L185.94,210a8,8,0,0,0-7.18,0L62.89,276.68a3.52,3.52,0,0,0-.43.27l-.14.11a2.93,2.93,0,0,0-.61.68,1,1,0,0,0-.1.17,1.24,1.24,0,0,0-.11.28,1.8,1.8,0,0,0-.06.22,1.47,1.47,0,0,0,0,.36,2,2,0,0,0,0,.25,2.29,2.29,0,0,0,.08.28,1.69,1.69,0,0,0,.11.27,3.14,3.14,0,0,0,1.28,1.25L285.58,409.37a6.76,6.76,0,0,0,2.14.73,9.14,9.14,0,0,0,2.89,0,2.3,2.3,0,0,0,.47-.1,6.39,6.39,0,0,0,1.3-.43c.13-.06.25-.14.38-.21l115.87-66.71C410,341.87,410.42,340.75,409.9,339.75Z" style="fill:#e0e0e0"/><ellipse id="Shadow-2" data-name="Shadow" cx="395.68" cy="276.74" rx="49.53" ry="28.6" style="fill:#e0e0e0"/><g id="Mobile"><path d="M400.23,325a1.74,1.74,0,0,0-.15-.26l-.14-.16a1.25,1.25,0,0,0-.15-.19l-.18-.16a4,4,0,0,0-.64-.46L182.34,198.71a8,8,0,0,0-7.18,0L69,260c-.15.1-.3.18-.42.27l-.15.12a2.64,2.64,0,0,0-.6.67,1,1,0,0,0-.1.18.85.85,0,0,0-.12.28,1.42,1.42,0,0,0,0,.22,1.47,1.47,0,0,0,0,.36,2.11,2.11,0,0,0,0,.25,2.86,2.86,0,0,0,.07.28,1.31,1.31,0,0,0,.12.27A3,3,0,0,0,69,264.16L285.58,389.24a6.51,6.51,0,0,0,2.14.72,8.42,8.42,0,0,0,2.89,0,3.26,3.26,0,0,0,.47-.09,6.42,6.42,0,0,0,1.3-.44l.38-.2L399,327.92C400.33,327.13,400.75,326,400.23,325Zm-23.33-4.44-6.79,3.92L279.62,376.7a6,6,0,0,1-5.38.36,5.6,5.6,0,0,1-.74-.36L101.69,277.51l-8.31-4.8a3.11,3.11,0,0,1-.78-.61c-.86-.94-.59-2.15.78-2.94L190.62,213A6.15,6.15,0,0,1,194.4,212a3.5,3.5,0,0,1,.92.25,2.62,2.62,0,0,1,.48.23L376.9,317A2.06,2.06,0,0,1,376.9,320.57Z" style="fill:#455a64"/><path d="M68.53,260.3a8,8,0,0,0-3.18,5.95V271A7.88,7.88,0,0,0,69,277.22L285.56,402.28a6.59,6.59,0,0,0,2.63.8c.32,0,.64.06,1,.07h0V390.09h0a11.49,11.49,0,0,1-1.45-.12,6.59,6.59,0,0,1-2.15-.74L69,264.16C67.12,263.11,67,261.44,68.53,260.3Z" style="fill:#37474f"/><path d="M342.86,350.48a14.45,14.45,0,0,0-12.82,0,5.25,5.25,0,0,0-1.92,1.75c-1.15,2,1,3.5,1.92,4.06a14.45,14.45,0,0,0,12.82,0,5.42,5.42,0,0,0,1.92-1.75C345.93,352.54,343.81,351,342.86,350.48Z" style="fill:#763cac"/><path d="M130.75,235a1.07,1.07,0,0,0,0-2,3.88,3.88,0,0,0-3.51,0,1.07,1.07,0,0,0,0,2A3.88,3.88,0,0,0,130.75,235Z" style="fill:#263238"/><path d="M125.23,244.59a1,1,0,0,0,0-1.8,3.43,3.43,0,0,0-3.12,0,1,1,0,0,0,0,1.8A3.43,3.43,0,0,0,125.23,244.59Z" style="fill:#263238"/><path d="M130.5,241.62l17.44-10.07c.95-.55,1-1.42.11-1.94a3.72,3.72,0,0,0-3.36.07l-17.43,10.06c-1,.55-1,1.42-.11,1.94A3.7,3.7,0,0,0,130.5,241.62Z" style="fill:#263238"/><path d="M399.44,324.09c1.49,1.16,1.32,2.79-.47,3.83L292.76,389.24a7.26,7.26,0,0,1-3.6.85v13.05a7.22,7.22,0,0,0,3.58-.87L399,341a7.93,7.93,0,0,0,3.59-6.22V330A8.07,8.07,0,0,0,399.44,324.09Z" style="fill:#263238"/><path d="M119.61,297.08a4,4,0,0,1,1.86,3.08,1.16,1.16,0,0,1-.51,1.08c-.23.12-1.07.63-1.3.76a1.37,1.37,0,0,1-1.34-.15l-24.15-14a4,4,0,0,1-1.86-3.08,1.2,1.2,0,0,1,.47-1.06l1.34-.78a1.37,1.37,0,0,1,1.34.15Z" style="fill:#455a64"/><path d="M118.32,297.82,94.17,283.88c-1-.59-1.86-.17-1.86.94a4,4,0,0,0,1.86,3.08l24.15,14c1,.59,1.85.17,1.85-.94A4,4,0,0,0,118.32,297.82Z" style="fill:#263238"/><path d="M87.29,278.41a4,4,0,0,1,1.85,3.08,1.16,1.16,0,0,1-.51,1.09c-.22.12-1.07.63-1.3.75a1.34,1.34,0,0,1-1.34-.15l-11.38-6.57a4,4,0,0,1-1.86-3.08,1.17,1.17,0,0,1,.47-1.06c.23-.15,1.11-.65,1.34-.78a1.34,1.34,0,0,1,1.34.15Z" style="fill:#455a64"/><path d="M86,279.16l-11.38-6.57c-1-.6-1.86-.18-1.86.94a4,4,0,0,0,1.86,3.08L86,283.18c1,.59,1.86.17,1.86-.94A4,4,0,0,0,86,279.16Z" style="fill:#263238"/></g><g id="Window"><path d="M376.9,320.52l-6.79,3.92-90.49,52.21c-.24.13-.48.26-.72.36a6.16,6.16,0,0,1-4.66,0,7.21,7.21,0,0,1-.74-.36L101.69,277.46l-8.31-4.8a3.11,3.11,0,0,1-.78-.61c-.86-.94-.59-2.15.78-2.95L190.62,213a6.15,6.15,0,0,1,3.78-1.05,3.5,3.5,0,0,1,.92.25,3.41,3.41,0,0,1,.48.22L376.9,317A2.06,2.06,0,0,1,376.9,320.52Z" style="fill:#27debf"/><path d="M376.9,320.52l-6.79,3.92-90.49,52.21c-.24.13-.48.26-.72.36a6.16,6.16,0,0,1-4.66,0,7.21,7.21,0,0,1-.74-.36L101.69,277.46l-8.31-4.8a3.11,3.11,0,0,1-.78-.61c-.86-.94-.59-2.15.78-2.95L190.62,213a6.15,6.15,0,0,1,3.78-1.05,3.5,3.5,0,0,1,.92.25,3.41,3.41,0,0,1,.48.22L376.9,317A2.06,2.06,0,0,1,376.9,320.52Z" style="fill:#fff;opacity:0.8"/><path d="M113.92,265.31a.25.25,0,0,1-.14,0l-.48-.28-1.15.67a.21.21,0,0,1-.2,0l-.17-.09-.08-.06,0-.07-.48-1.69a.23.23,0,0,1,0-.07.14.14,0,0,1,.07-.06l.16-.09a.23.23,0,0,1,.14,0,.3.3,0,0,1,.15,0l1.67,1,.25-.15a.24.24,0,0,1,.14,0,.3.3,0,0,1,.14.05l.11.06c.06,0,.08.06.08.08s0,.05-.06.08l-.26.15.48.27c.05,0,.08.06.08.08s0,.05-.07.08l-.2.11A.18.18,0,0,1,113.92,265.31Zm-1-.59-1.19-.69.35,1.17Z" style="fill:#455a64"/><path d="M115,264.36a3.2,3.2,0,0,1-1.44-.44c-.47-.28-.73-.55-.76-.83s.16-.54.57-.78a2.73,2.73,0,0,1,.52-.23,2.55,2.55,0,0,1,.52-.11s.07,0,.09,0l0,0,.11.18s0,0,0,.05l-.07,0a1.85,1.85,0,0,0-.74.24c-.28.16-.41.34-.38.53s.21.4.58.61a2.33,2.33,0,0,0,1,.35,1.71,1.71,0,0,0,.9-.21l.25-.18a.6.6,0,0,0,.15-.18l-.78-.44-.48.27a.22.22,0,0,1-.13,0,.33.33,0,0,1-.15-.05l-.11-.06s-.08-.06-.08-.08,0-.05.07-.08l.77-.44a.29.29,0,0,1,.16,0,.32.32,0,0,1,.17.06l1.1.64.09.06s0,0,0,.06c-.06.22-.29.44-.67.66A2.41,2.41,0,0,1,115,264.36Z" style="fill:#455a64"/><path d="M124.51,258.66c.37.22.37.56,0,.77a1.44,1.44,0,0,1-1.34,0c-.37-.21-.37-.55,0-.77A1.5,1.5,0,0,1,124.51,258.66Z" style="fill:#455a64"/><path d="M122.08,258c-.67.39-.88,1-.62,1.44a.43.43,0,0,0,.4.15h0c.23,0,.38-.15.31-.27-.19-.35,0-.74.43-1a2.67,2.67,0,0,1,1.75-.25c.22,0,.45,0,.47-.18h0c0-.11-.08-.21-.26-.24A3.84,3.84,0,0,0,122.08,258Z" style="fill:#455a64"/><path d="M121,257.42c-1,.57-1.35,1.38-1.07,2.13,0,.11.21.18.41.17h0c.22,0,.36-.14.31-.26-.23-.61.06-1.27.88-1.74a5,5,0,0,1,3-.51c.22,0,.43,0,.45-.18h0c0-.11-.1-.21-.29-.23A6.1,6.1,0,0,0,121,257.42Z" style="fill:#455a64"/><path d="M140.69,247.9a.21.21,0,0,1-.12,0s0,0,0-.07l.2-1,0-.07s0,0,0-.06l.35-.2a.21.21,0,0,1,.12,0,.27.27,0,0,1,.12,0l2.85,1.65a.07.07,0,0,1,.05.06s0,0-.05.07l-.36.21a.25.25,0,0,1-.24,0l-2.18-1.26-.14.65s0,0-.06.06l-.13,0Z" style="fill:#455a64"/><path d="M142.92,246.61a.18.18,0,0,1-.11,0,.08.08,0,0,1,0-.07l.21-1a.19.19,0,0,1,0-.07.12.12,0,0,1,.06-.06l.34-.2a.25.25,0,0,1,.24,0l2.85,1.65a.07.07,0,0,1,0,.06s0,.05,0,.07l-.36.21a.21.21,0,0,1-.12,0,.2.2,0,0,1-.11,0l-2.19-1.26-.13.65-.06.06-.13,0Z" style="fill:#455a64"/><path d="M145.73,244.85a.21.21,0,0,1,.12,0l.12,0,.43.25a.07.07,0,0,1,0,.06s0,.05,0,.07l-.41.24a.25.25,0,0,1-.24,0l-.43-.25s0,0,0-.07,0-.05,0-.07Zm1.54.89a.25.25,0,0,1,.24,0l.43.25s.05,0,.05.07a.08.08,0,0,1-.05.07l-.41.23a.21.21,0,0,1-.12,0l-.12,0-.43-.25s-.05,0-.05-.07a.1.1,0,0,1,.05-.07Z" style="fill:#455a64"/><path d="M150.3,244.76a.21.21,0,0,1-.12,0,.27.27,0,0,1-.12,0l-.53-.3-1.37.79-.12,0-.12,0-.31-.19a.19.19,0,0,1-.08-.07l0-.1-.34-1.75a.15.15,0,0,1,.07-.17l.34-.2a.22.22,0,0,1,.12,0,.23.23,0,0,1,.12,0l1.76,1,.38-.22a.22.22,0,0,1,.12,0l.12,0,.31.18a.08.08,0,0,1,.05.07s0,.05-.05.07l-.38.22.54.31s.05,0,.05.07,0,0-.05.07Zm-1.32-.62-.95-.55.19,1Z" style="fill:#455a64"/><path d="M149.1,242a.06.06,0,0,1,0-.06.08.08,0,0,1,0-.07l1.66-1a.27.27,0,0,1,.12,0,.21.21,0,0,1,.12,0l.32.18a.08.08,0,0,1,0,.14l-1.24.71.51.36a.73.73,0,0,1,.18-.17L151,242a2.47,2.47,0,0,1,.53-.22,2.13,2.13,0,0,1,.56-.1,2.09,2.09,0,0,1,.56,0,2,2,0,0,1,.53.2,1.12,1.12,0,0,1,.39.33.5.5,0,0,1,.09.34.61.61,0,0,1-.18.32,1.52,1.52,0,0,1-.39.29,2.86,2.86,0,0,1-.6.27,2.18,2.18,0,0,1-.55.09,1.93,1.93,0,0,1-.49,0,1.52,1.52,0,0,1-.41-.14.1.1,0,0,1-.06-.07s0,0,0-.07l.36-.21a.35.35,0,0,1,.11,0l.13,0a1.11,1.11,0,0,0,.25.05l.23,0,.22-.07.21-.1c.16-.1.25-.2.26-.32s-.06-.21-.22-.3a.81.81,0,0,0-.48-.1,1.15,1.15,0,0,0-.54.15,1,1,0,0,0-.19.13.31.31,0,0,0-.08.1.56.56,0,0,1-.05.08.19.19,0,0,1-.08.07l-.4.23-.12,0a.21.21,0,0,1-.12,0Z" style="fill:#455a64"/><polygon points="101.57 272.85 100.65 272.32 101.88 271.61 102.8 272.14 101.57 272.85" style="fill:#455a64"/><polygon points="103.41 271.79 101.57 270.73 102.8 270.02 104.64 271.08 103.41 271.79" style="fill:#455a64"/><polygon points="105.25 270.73 102.49 269.13 103.72 268.43 106.48 270.02 105.25 270.73" style="fill:#455a64"/><polygon points="107.09 269.66 103.41 267.54 104.64 266.83 108.32 268.96 107.09 269.66" style="fill:#455a64"/><path d="M190.27,218.19a1.29,1.29,0,0,0-.72.11L185,220.94c-.3.17-.22.49.18.71l1.67,1a2,2,0,0,0,.81.24,1.42,1.42,0,0,0,.36,0,.86.86,0,0,0,.36-.1l4.59-2.64c.3-.18.22-.49-.18-.72l-1.67-1A2,2,0,0,0,190.27,218.19Zm-2.69,4.5a.81.81,0,0,1-.35-.12l-1.67-1c-.29-.17-.36-.42-.14-.55l4.59-2.64a.6.6,0,0,1,.19-.06h.12a1,1,0,0,1,.34.11l1.67,1c.3.17.36.42.14.54l-4.59,2.65A.58.58,0,0,1,187.58,222.69Z" style="fill:#455a64"/><path d="M186.58,220.73l2,1.14-.72.42a.41.41,0,0,1-.24,0l-1.48-.85c-.21-.12-.25-.31-.1-.41Z" style="fill:#455a64"/><polygon points="186.92 220.54 187.78 220.04 189.76 221.18 188.9 221.68 186.92 220.54" style="fill:#455a64"/><polygon points="188.12 219.85 188.98 219.35 190.96 220.5 190.1 220.99 188.12 219.85" style="fill:#455a64"/><path d="M190.31,218.74l1.42.82c.26.16.21.38-.14.58l-.29.17-2-1.15.68-.39A.43.43,0,0,1,190.31,218.74Z" style="fill:#455a64"/><path d="M191.26,218.33a1.23,1.23,0,0,1,.85.23l.31.18c.35.2.53.42.41.5l-.22.14-1.57-.91Z" style="fill:#455a64"/><polygon points="178.59 225.91 182.15 222.82 184.02 225.49 181.56 224.82 178.59 225.91" style="fill:#455a64"/></g><path d="M254.33,355.86v.88a4.84,4.84,0,0,0,2.2,3.79l17.15,9.9a4.85,4.85,0,0,0,4.39,0l84.56-48.85a4.85,4.85,0,0,0,2.19-3.8v-.87a4.85,4.85,0,0,0-2.19-3.8l-17.15-9.9a4.85,4.85,0,0,0-4.39,0l-84.56,48.86A4.86,4.86,0,0,0,254.33,355.86Z" style="fill:#763cac"/><path d="M362.93,313.31c.91.69.8,1.69-.29,2.33L278.06,364.5a4.58,4.58,0,0,1-2.19.53V371a4.53,4.53,0,0,0,2.2-.52l84.56-48.85a4.83,4.83,0,0,0,2.19-3.8v-.87A4.87,4.87,0,0,0,362.93,313.31Z" style="fill:#140927"/><path d="M256.19,352.3a4.89,4.89,0,0,0-1.85,3.56v.88a4.84,4.84,0,0,0,2.2,3.79l17.15,9.9a4.41,4.41,0,0,0,2.19.52V365a4.58,4.58,0,0,1-2.19-.53l-17.16-9.9C255.44,354,255.33,353,256.19,352.3Z" style="fill:#140927"/><path d="M381.22,93.37c-2.91,6.26-7.89,16.62-10.62,22.36l-10.68-12.58h-9s10.8,23,17.24,28.38a5.08,5.08,0,0,0,7.37-.44,94.08,94.08,0,0,0,7.24-10c5.1-7.87,7.37-11.27,7.37-11.27l6.43-27C391,82.39,385.26,84.68,381.22,93.37Z" style="fill:#ffa8a7"/><path d="M397.63,82.78c-3.44-.13-7.16-.56-10.44,2.3a26.71,26.71,0,0,0-7.13,10c-2.21,5.2-5.64,11.79-5.64,11.79a28.67,28.67,0,0,0,6.41,6.68,16.19,16.19,0,0,0,7.68,3.23Z" style="fill:#27debf"/><path d="M397.63,82.78c-3.44-.13-7.16-.56-10.44,2.3a26.71,26.71,0,0,0-7.13,10c-2.21,5.2-5.64,11.79-5.64,11.79a28.67,28.67,0,0,0,6.41,6.68,16.19,16.19,0,0,0,7.68,3.23Z" style="fill:#140927"/><path d="M370.6,115.73a37.26,37.26,0,0,1,3.28,4.48s-1.14-4.24-2.7-5.69Z" style="fill:#f28f8f"/><path d="M348.24,86.44h0l.86-.89h0a1,1,0,0,1,.94-.2l10.35,1.75a3.77,3.77,0,0,1,2.47,1.9l9.29,20.21a.94.94,0,0,1,0,1.08h0l-.88.92v0a1,1,0,0,1-1,.21l-10.35-1.75a3.77,3.77,0,0,1-2.47-1.9c-1.82-4-7.47-16.24-9.29-20.21C347.94,87.06,348,86.66,348.24,86.44Z" style="fill:#455a64"/><path d="M371.28,110.12,362,89.9A3.71,3.71,0,0,0,359.51,88l-10.34-1.76c-1-.16-1.41.42-1,1.31,1.82,4,7.47,16.24,9.29,20.21a3.77,3.77,0,0,0,2.47,1.9l10.35,1.75C371.24,111.59,371.69,111,371.28,110.12Z" style="fill:#263238"/><path d="M360.67,88.48A3.74,3.74,0,0,1,362,89.91l9.29,20.2a1,1,0,0,1,0,1.06l.83-.86h0a.94.94,0,0,0,0-1.08L362.84,89a3.54,3.54,0,0,0-1.22-1.35Z" style="fill:#37474f"/><path d="M353.14,106.43c-4.28-4.92-4.16-11.06-2.2-12.84l1.31,2.84s6.55,1.46,9.69,1.22,5.73-1,6.59-.38c1.83,1.28,2.35,6.77-2.88,8.76C361.2,107.73,353.14,106.43,353.14,106.43Z" style="fill:#ffa8a7"/><g id="Botom"><path d="M428.38,267.78c-2.76,1.48-6.13,1.36-9.42,0l-1.36-17.92,10.78,1.42Z" style="fill:#ffa8a7"/><path d="M395.32,257.07c-2.34,5.05-6.55,3.65-11.3.42l.83-18H396.3Z" style="fill:#ffa8a7"/><path d="M408.2,284.74a4.18,4.18,0,0,0,.13,2.77c.35.56,2.42,2.33,6.16,2.59,3.57.26,6.75-.22,8.85-1.55s3.11-2.8,3.31-4.84,0-4,.94-5.56,2.32-3.07,2.63-3.85a7.88,7.88,0,0,0,0-4.15Z" style="fill:#263238"/><path d="M418,267a9.61,9.61,0,0,1-.44,2.26,20.37,20.37,0,0,1-2.19,4.47,17.24,17.24,0,0,1-1.48,2.1c-1.08,1.29-2.42,2.34-3.57,3.58a7.29,7.29,0,0,0-2.2,4.38c-.15,2.8,2.88,3.75,5.22,4.17a17.17,17.17,0,0,0,7.61-.39,7,7,0,0,0,5.12-5.57c.13-.78.08-1.58.17-2.36a11.11,11.11,0,0,1,2.18-4.9,15.4,15.4,0,0,0,1.67-2.66c.73-1.74.14-3.69-.32-5.41-.41-1.49-.86-3.18-1.39-3a1.91,1.91,0,0,1-.12.89,4.26,4.26,0,0,0-.41.89,8,8,0,0,1-.43,1.15,3.06,3.06,0,0,1-1.24,1.37c0-1.06-.07-2.11-.11-3.17a1.1,1.1,0,0,0-1.13-1.32,19.9,19.9,0,0,0-6-.5,1.13,1.13,0,0,0-.81.36,1.15,1.15,0,0,0-.13.71A27.08,27.08,0,0,1,418,267Z" style="fill:#37474f"/><path d="M415,274.31c1-.78,3.38-.79,4.65-.65a7.72,7.72,0,0,1,3.63,1.27.83.83,0,0,0,1.07-.08h0a.77.77,0,0,0-.08-1.19,7.87,7.87,0,0,0-4.08-1.52c-3.14-.22-4.07.32-4.07.32S414.69,273.38,415,274.31Z" style="fill:#f5f5f5"/><path d="M412.6,277.18c1.31-.77,3.88-.66,5.16-.53a7.29,7.29,0,0,1,3.53,1.35.82.82,0,0,0,1.07-.09h0a.79.79,0,0,0-.08-1.19,8.19,8.19,0,0,0-4.17-1.63c-3.15-.22-4,.42-4,.42A2.6,2.6,0,0,0,412.6,277.18Z" style="fill:#f5f5f5"/><path d="M421.44,269.13a7.74,7.74,0,0,0-3.95.34c-.56.31-.92,1.18-.56,1.4a7.22,7.22,0,0,1,3.5-.48,10.45,10.45,0,0,1,3.4.94,8.74,8.74,0,0,1,.86.44.75.75,0,0,0,1-.32h0a.7.7,0,0,0-.27-.9A10.19,10.19,0,0,0,421.44,269.13Z" style="fill:#f5f5f5"/><path d="M365.26,268.59a3.39,3.39,0,0,0,.14,2.49c.35.73,4.16,2.88,9.29,2.53a21.32,21.32,0,0,0,10.63-3.71c1.95-1.3,4-1.54,6.54-1.69s5.88-1.41,6.44-2.6a5.63,5.63,0,0,0-.08-3.24Z" style="fill:#263238"/><path d="M385.9,252.79l-1.33-.49a1.12,1.12,0,0,0-.76-.09c-.33.13-.46.52-.54.86a12.77,12.77,0,0,1-.56,2.23,5.48,5.48,0,0,1-1.45,1.51,22.71,22.71,0,0,1-4.11,2.65c-1.67.9-3.32,1.6-5,2.38s-4.12,1.28-5.5,2.22c-2,1.35-2.27,4.77,0,6.12,2,1.16,7.2,2.42,12.66.87,3-.84,6.29-4,10.2-4.33,2.49-.2,7.19-.89,8.79-2.78.59-.84-.2-3.49-.85-5.79-.71-2.5-1-6.41-1.81-6.19-.05.83-.77,1.31-1.21,2a14.2,14.2,0,0,0-.89,2,3.59,3.59,0,0,1-1.3,1.71,1.65,1.65,0,0,1-2-.11c-.74-.76-.3-2.09-.84-3a3.09,3.09,0,0,0-1.75-1.15Z" style="fill:#37474f"/><path d="M379.48,258.11a2.3,2.3,0,0,1,1.83-1.23c1.13-.21,3.13.62,4.37,1.65a.92.92,0,0,1-.13,1.53h0a.92.92,0,0,1-1.06-.12A7.09,7.09,0,0,0,379.48,258.11Z" style="fill:#f5f5f5"/><path d="M376,260.07a2.66,2.66,0,0,1,2.18-1.12,8.31,8.31,0,0,1,4.78,1.79.91.91,0,0,1-.13,1.48h0a.86.86,0,0,1-1-.12A7.11,7.11,0,0,0,376,260.07Z" style="fill:#f5f5f5"/><path d="M372.1,261.84a3,3,0,0,1,2.26-1,7.92,7.92,0,0,1,4.58,1.81.91.91,0,0,1-.13,1.48h0a.9.9,0,0,1-1-.12A6.78,6.78,0,0,0,372.1,261.84Z" style="fill:#f5f5f5"/><path d="M427,132.89c.65,19.61.6,67.05.6,67.05.21,2.44,1.2,7.45,2,17.21,1.06,12.7-1.24,40.64-1.24,40.64a13,13,0,0,1-10.23.06l-8.08-52.39c-1.71-11-5.06-35.83-5.06-35.83l-3.86,32.24a66.09,66.09,0,0,1-.4,16.11c-.89,5.78-4.9,29.55-4.9,29.55a20.23,20.23,0,0,1-11.35-.43s-.38-41.17-.48-46.52c-.12-6.11,2.7-72.53,2.7-72.53Z" style="fill:#37474f"/><path d="M405,169.63l-2.9-16.07s-8-.7-12.48-5.18c0,0,.79,4.39,10.9,7l2.9,16.26-2.28,30.2Z" style="fill:#263238"/></g><path d="M387.71,97.88c.87-6.28,1.7-14.72,11.43-15.11l12.55.6c3.09.8,15.12,2.23,15.12,2.23l.22,27.24s.77,19.64.53,30.15c-9,5.7-28.55,7.55-40.84-1.78C386.36,132.53,386.85,104.09,387.71,97.88Z" style="fill:#140927"/><path d="M389.33,50.46a12.43,12.43,0,0,0,5.5,17.37l-2.26,1.56,22.58,2-.29,5.44a4.05,4.05,0,0,0,2.4-1.82c.82-1.45,3-10.35,3-10.35,2.11-4.86,3.15-9.86,1.64-11.52a4.27,4.27,0,0,0-2.25-1.3l3-1.51a2.41,2.41,0,0,0-3.26-1.2,2.78,2.78,0,0,0-.69.52,5.31,5.31,0,0,0,.16-1,4.44,4.44,0,0,0-.68-2.83,5.15,5.15,0,0,0-1.58-1.39c-2.54-1.59-5.56-2.18-8.38-3.18-1.6-.57-3.16-1.27-4.73-1.91a5.87,5.87,0,0,0-3.32-.6,2.18,2.18,0,0,0-1.86,2.43,4.28,4.28,0,0,0-4.67-.71,3.68,3.68,0,0,0-2.27,3.68,4.68,4.68,0,0,0-3.07.29A2.67,2.67,0,0,0,386.87,47C387,48.28,388.13,49.49,389.33,50.46Z" style="fill:#37474f"/><path d="M405.23,53.64c2.07-.25,4.14-.59,6.2-.91a.66.66,0,0,1,.54.07.57.57,0,0,1,.18.31c1.36,4,1.32,8.25,2.4,12.28.09.37.32,1,.77,1,.8.09,1.35-.62,1.69-1.24l.77-1.39a3.58,3.58,0,0,1,.56-.71c1-.9,3.83-2,5.16,1.06S422,71.34,419.68,72c-4,1.11-4.48-1.44-4.48-1.44l-.77,14.2c-3.51,3.68-15.09,2.39-12.79-.8l.15-4.32a24.58,24.58,0,0,1-5.32.1c-2.88-.54-4.63-2.88-5.41-6-1.24-5.08-1.11-11.29-.13-19a11.49,11.49,0,0,1,.71-2.66C395.69,54.22,400.62,54.18,405.23,53.64Z" style="fill:#ffa8a7"/><path d="M401.79,79.62s6.5-1.09,8.8-2.22a7.47,7.47,0,0,0,3.23-3,10.19,10.19,0,0,1-1.9,3.59c-1.72,2.06-10.19,3.34-10.19,3.34Z" style="fill:#f28f8f"/><path d="M402.72,63.6a1.41,1.41,0,0,0,1.34,1.48,1.42,1.42,0,0,0,1.43-1.4,1.39,1.39,0,1,0-2.77-.08Z" style="fill:#263238"/><path d="M404.65,57.82l2.91,1.25a1.66,1.66,0,0,0-.86-2.13A1.54,1.54,0,0,0,404.65,57.82Z" style="fill:#263238"/><path d="M404.4,71.15l-4.56,1.55a2.36,2.36,0,0,0,3,1.59A2.53,2.53,0,0,0,404.4,71.15Z" style="fill:#b16668"/><path d="M402.85,74.29a2.49,2.49,0,0,0,1.58-1.74,2.13,2.13,0,0,0-.83-.18,2,2,0,0,0-2,2A2.28,2.28,0,0,0,402.85,74.29Z" style="fill:#f28f8f"/><path d="M391.16,59l2.9-1.11a1.51,1.51,0,0,0-2-.88A1.58,1.58,0,0,0,391.16,59Z" style="fill:#263238"/><path d="M392.18,63.6a1.41,1.41,0,0,0,1.35,1.49A1.43,1.43,0,0,0,395,63.68a1.4,1.4,0,1,0-2.79-.08Z" style="fill:#263238"/><path d="M399,63.17l-.21,7.67-4.28-1.23,4-6.5A1.17,1.17,0,0,1,399,63.17Z" style="fill:#f28f8f"/><path d="M386.18,105.69c.34-8,1-15,3.92-18.71s4.56-4.44,11.58-4.33l0,.48a2.62,2.62,0,0,0-2,1.15,41.4,41.4,0,0,0-5.4,12c-2,7.73-2.39,25-2.49,34.29s0,16.79,0,16.79-4.7-1.1-6.16-3.45C385.62,143.91,385.85,113.65,386.18,105.69Z" style="fill:#27debf"/><path d="M386.18,105.69c.34-8,1-15,3.92-18.71s4.56-4.44,11.58-4.33l0,.48a2.62,2.62,0,0,0-2,1.15,41.4,41.4,0,0,0-5.4,12c-2,7.73-2.39,25-2.49,34.29s0,16.79,0,16.79-4.7-1.1-6.16-3.45C385.62,143.91,385.85,113.65,386.18,105.69Z" style="fill:#763cac"/><path d="M410.46,93c1-4.24,3.07-7,4-9.19l8.78,1.24c3.24,1.49,7.44,5,7.13,8.6l-2.3,26.06.64,24.67c-5,7.8-20,6.36-20,6.36s-.42-11.1.06-32.54C409.05,106.21,409.18,98.43,410.46,93Z" style="fill:#763cac"/><path d="M410.05,95.12c.57-2.73.89-7.79,1.36-8.8s3.09-3,3.19-4.41l0-.89a4.38,4.38,0,0,1,2.19,1.13c.82.73,3.25,2.42,3.25,2.42a11.06,11.06,0,0,1-1.82,4.68c-1.44,2.07-3.45,3.42-3.76,2.91s-.26-1.29-.78-2.5c-.66-1.5-.82-2.14-1.52-.65C411.65,90.2,410.05,95.12,410.05,95.12Z" style="fill:#140927"/><path d="M395.07,93.63c-.71,2.3,1.17-7.94,2.39-9.74s4.32-2.51,4.32-2.51l-.14,2.21a3.35,3.35,0,0,0-2,1.38A38.28,38.28,0,0,0,395.07,93.63Z" style="fill:#140927"/><path d="M409.73,97.29a186.79,186.79,0,0,1,20,3.13l-.06.74A188.49,188.49,0,0,0,409.65,98C409.67,97.78,409.7,97.53,409.73,97.29Z" style="fill:#232323"/><path d="M386.81,97.13c2.19-.26,4.67-.49,7.4-.62-.06.24-.12.49-.17.75-2.7.13-5.16.36-7.32.62C386.75,97.63,386.78,97.37,386.81,97.13Z" style="fill:#232323"/><path d="M446.74,120.21c-9.38-23.82-11.44-31.23-18.05-34a17.89,17.89,0,0,0-5.46-1.16c-1.62,3-4,14.52,3.82,22.53,0,0,5.68,14,8.55,20.63-.1,6.65.39,12.21-1.64,21.21a6,6,0,0,1-2.27,3c-2.37,1.31-2.77,2.79-4.53,4.48-1.37,1.32-2.58,1.63-2.37,2.07a2.57,2.57,0,0,0,3,1.06,21.9,21.9,0,0,0,3.68-1.93c.23.27-2,3.82-4.31,6.41-3.42,3.81-4.25,6.56,2.6,6.83,4.29.17,8.92-3.35,11.82-11.9.58-1.69,1.18-4.14,1.78-6.51.45-1,3.58-17.06,4.24-22C448.48,124.83,448.26,124.08,446.74,120.21Z" style="fill:#ffa8a7"/><path d="M422.07,85.08a13.56,13.56,0,0,1,8.3,1.46c3.72,2.24,5,4.2,9.47,14.62s5.36,12.43,5.36,12.43-2,5.94-13.94,6.62L425.91,108s-4.45-5.53-4.85-12.36S422.07,85.08,422.07,85.08Z" style="fill:#140927"/><path d="M422.07,85.08a13.56,13.56,0,0,1,8.3,1.46c3.72,2.24,5,4.2,9.47,14.62s5.36,12.43,5.36,12.43-2,5.94-13.94,6.62L425.91,108s-4.45-5.53-4.85-12.36S422.07,85.08,422.07,85.08Z" style="fill:#140927;opacity:0.45"/><polygon points="186.43 248.2 186.43 306.34 247.13 335.41 247.13 277.14 186.43 248.2"/><polygon points="186.43 248.2 186.43 306.34 247.13 335.41 247.13 277.14 186.43 248.2" style="fill:#763cac"/><polygon points="307.84 248.2 307.84 306.34 247.13 335.41 247.13 277.14 307.84 248.2"/><polygon points="307.84 248.2 307.84 306.34 247.13 335.41 247.13 277.14 307.84 248.2" style="fill:#763cac"/><polyline points="216.78 262.67 186.43 248.2 247.13 219.47 247.13 277.14 216.78 262.67"/><polyline points="216.78 262.67 186.43 248.2 247.13 219.47 247.13 277.14 216.78 262.67" style="fill:#11071f;opacity:0.6"/><polygon points="247.13 219.47 247.13 277.14 307.84 248.2 247.13 219.47"/><polygon points="247.13 219.47 247.13 277.14 307.84 248.2 247.13 219.47" style="fill:#11071f;opacity:0.6"/><polygon points="247.12 219.47 216.8 233.73 186.46 248.2 156.08 233.73 217.62 205.19 247.12 219.47" style="fill:#3f037f"/><g style="opacity:0.6000000000000001"><polygon points="247.12 219.47 216.8 233.73 186.46 248.2 156.08 233.73 217.62 205.19 247.12 219.47" style="fill:#3f037f"/></g><polygon points="338.17 233.94 307.83 219.47 277.49 205 247.12 219.47 307.84 248.31 338.17 233.94" style="fill:#3f037f"/><g style="opacity:0.6000000000000001"><polygon points="338.17 233.94 307.83 219.47 277.49 205 247.12 219.47 307.84 248.31 338.17 233.94" style="fill:#3f037f"/></g><polygon points="247.13 277.24 216.8 262.77 186.46 248.31 156.08 262.77 217.62 291.31 247.13 277.24"/><polygon points="338.18 262.38 307.85 276.85 277.51 291.31 247.13 276.85 307.84 248.2 338.18 262.38" style="fill:#3f037f"/><g style="opacity:0.6000000000000001"><polygon points="338.18 262.38 307.85 276.85 277.51 291.31 247.13 276.85 307.84 248.2 338.18 262.38" style="fill:#3f037f"/></g><polygon points="247.13 277.24 216.8 262.77 186.46 248.31 156.08 262.77 217.62 291.31 247.13 277.24" style="fill:#3f037f"/><path d="M215.49,186c-.31,0-.57-.47-.57-1V150.39c0-.57.26-1,.57-1s.58.47.58,1v34.55C216.07,185.51,215.81,186,215.49,186Z" style="fill:#140927"/><path d="M233.88,186c-.32,0-.57-.47-.57-1v-5.4c0-.57.25-1,.57-1s.57.47.57,1v5.4C234.45,185.51,234.19,186,233.88,186Z" style="fill:#140927"/><path d="M233.88,172.35c-.32,0-.57-.47-.57-1v-28c0-.58.25-1,.57-1s.57.47.57,1v28C234.45,171.88,234.19,172.35,233.88,172.35Z" style="fill:#140927"/><path d="M224.91,175.07c-.31,0-.57-.47-.57-1V157.25c0-.57.26-1,.57-1s.58.47.58,1V174C225.49,174.6,225.23,175.07,224.91,175.07Z" style="fill:#140927"/><path d="M249.73,157.29a.85.85,0,0,1-.81-.6l-6.2-19.06a.86.86,0,0,1,1.64-.53l6.19,19.06a.88.88,0,0,1-.82,1.13Z" style="fill:#140927"/><path d="M205.39,20.8a.87.87,0,0,1-.82-.59l-6.2-19.08a.86.86,0,0,1,.55-1.08A.85.85,0,0,1,200,.6l6.2,19.08a.86.86,0,0,1-.55,1.08A.82.82,0,0,1,205.39,20.8Z" style="fill:#140927"/><path d="M290.63,127.58a.85.85,0,0,1-.5-.16l-16.23-11.8a.86.86,0,0,1,1-1.38L291.13,126a.85.85,0,0,1,.19,1.2A.84.84,0,0,1,290.63,127.58Z" style="fill:#140927"/><path d="M174.53,43.22a.87.87,0,0,1-.51-.17L157.79,31.26a.86.86,0,1,1,1-1.38L175,41.67a.85.85,0,0,1,.19,1.19A.87.87,0,0,1,174.53,43.22Z" style="fill:#140927"/><path d="M306.26,79.51H286.19a.86.86,0,1,1,0-1.71h20.07a.86.86,0,0,1,0,1.72Z" style="fill:#140927"/><path d="M162.74,79.51H142.67a.86.86,0,1,1,0-1.71h20.07a.86.86,0,1,1,0,1.72Z" style="fill:#140927"/><path d="M274.4,43.23a.86.86,0,0,1-.51-1.55l16.24-11.8a.86.86,0,1,1,1,1.38L274.9,43.06A.86.86,0,0,1,274.4,43.23Z" style="fill:#140927"/><path d="M158.29,127.58a.83.83,0,0,1-.69-.35.85.85,0,0,1,.19-1.2L174,114.23a.86.86,0,1,1,1,1.39l-16.24,11.8A.85.85,0,0,1,158.29,127.58Z" style="fill:#140927"/><path d="M243.53,20.8a.75.75,0,0,1-.26-.05.85.85,0,0,1-.55-1.08L248.92.59a.86.86,0,0,1,1.63.53l-6.2,19.08A.86.86,0,0,1,243.53,20.8Z" style="fill:#140927"/><path d="M199.19,157.29a.75.75,0,0,1-.26,0,.86.86,0,0,1-.56-1.08l6.2-19.08a.86.86,0,1,1,1.63.53L200,156.7A.85.85,0,0,1,199.19,157.29Z" style="fill:#140927"/><path d="M276.53,358,273,348l1.69-1,3.52,10Zm3.57-2-4.38-6.61-.71.4-.82-2.4,1.18-.66,4.38,6.61.45-.25.82,2.39Zm.72-.41-3.52-9.95,1.7-1,3.52,10Z" style="fill:#140927"/><path d="M287.29,352.05a3,3,0,0,1-2.61.31,4.24,4.24,0,0,1-2.15-2,10,10,0,0,1-1.29-3.51,5,5,0,0,1,.35-2.89,4.55,4.55,0,0,1,2-2,3,3,0,0,1,2.57-.31,4.15,4.15,0,0,1,2.11,2,10.39,10.39,0,0,1,1.31,3.53,5.06,5.06,0,0,1-.32,2.91A4.48,4.48,0,0,1,287.29,352.05Zm-.68-1.74a2,2,0,0,0,1-1.22,3.64,3.64,0,0,0,0-1.91,9.49,9.49,0,0,0-1-2.46,2.76,2.76,0,0,0-1.1-1.16,1.26,1.26,0,0,0-1.22.05,2.09,2.09,0,0,0-1,1.23,3.57,3.57,0,0,0,0,1.9,9.1,9.1,0,0,0,1,2.42,2.73,2.73,0,0,0,1.15,1.2A1.29,1.29,0,0,0,286.61,350.31Z" style="fill:#140927"/><path d="M302.6,343.41a3,3,0,0,1-2.61.3,4.21,4.21,0,0,1-2.16-2,10.07,10.07,0,0,1-1.28-3.5,5,5,0,0,1,.35-2.89,4.55,4.55,0,0,1,2-2,3,3,0,0,1,2.56-.31,4.13,4.13,0,0,1,2.12,2,10.39,10.39,0,0,1,1.31,3.53,5.16,5.16,0,0,1-.32,2.91A4.48,4.48,0,0,1,302.6,343.41Zm-.68-1.74a2,2,0,0,0,1-1.22,3.79,3.79,0,0,0,0-1.92,9.58,9.58,0,0,0-1-2.45,2.76,2.76,0,0,0-1.1-1.16,1.26,1.26,0,0,0-1.22.05,2.09,2.09,0,0,0-1,1.23,3.67,3.67,0,0,0,0,1.9,8.83,8.83,0,0,0,1,2.42,2.73,2.73,0,0,0,1.15,1.2A1.29,1.29,0,0,0,301.92,341.67Z" style="fill:#140927"/><path d="M306.42,337.55l-.69-1.71.72-.41a7.36,7.36,0,0,0,2.64-2.19,1.91,1.91,0,0,0,.12-2.12,1.15,1.15,0,0,0-1-.62,3.29,3.29,0,0,0-1.66.53,19.53,19.53,0,0,0-2.25,1.44l-.7-1.73a19.13,19.13,0,0,1,2.13-1.37,5.24,5.24,0,0,1,3.13-.85,2.73,2.73,0,0,1,2.09,1.52,3.57,3.57,0,0,1,.09,3.65,9.53,9.53,0,0,1-3.88,3.46Zm.68,3.15-3.52-10,1.7-.95,3.52,9.95Zm4.72-2.66-3.52-3.32,1.82-1,3.61,3.26Z" style="fill:#140927"/><path d="M316.28,335.52l-.69-1.73.32-.18a4.53,4.53,0,0,0,1.67-1.53,3.42,3.42,0,0,0,.5-2,5,5,0,0,0-.71-2.24,2.38,2.38,0,0,0-1.63-1.27,3.4,3.4,0,0,0-2.29.51,7.87,7.87,0,0,0-1.2.85l-1-1.55a9.93,9.93,0,0,1,1.47-1,5.22,5.22,0,0,1,3.69-.78,4,4,0,0,1,2.68,2.12,6.8,6.8,0,0,1,1,3.3,5.19,5.19,0,0,1-.86,2.95,7.59,7.59,0,0,1-2.65,2.35Zm-1.53.86-3.52-10,1.69-.95,3.53,9.95Z" style="fill:#140927"/><path d="M319.62,323.74,319,322l6.21-3.51.6,1.71Zm2.91,8.25L319,322l1.69-1,3.52,10Zm-1.45-4.13-.61-1.72,5.07-2.85.6,1.71Zm1.45,4.13-.59-1.72,6.2-3.5.61,1.71Z" style="fill:#140927"/><path d="M329.39,324.59l-.7-1.71.72-.41a7.27,7.27,0,0,0,2.64-2.19,1.91,1.91,0,0,0,.12-2.12,1.16,1.16,0,0,0-1-.63,3.36,3.36,0,0,0-1.65.54,18.92,18.92,0,0,0-2.26,1.44l-.7-1.73a19.13,19.13,0,0,1,2.13-1.37,5.24,5.24,0,0,1,3.13-.85,2.74,2.74,0,0,1,2.09,1.51,3.59,3.59,0,0,1,.09,3.66,9.47,9.47,0,0,1-3.88,3.46Zm.67,3.15-3.52-10,1.7-1,3.52,10Zm4.72-2.67-3.52-3.31,1.82-1,3.61,3.26Z" style="fill:#140927"/><path d="M346.3,313.9l-2.37-6,1.88-1.06,1.92,6.27Zm2.36,3.51a1.33,1.33,0,0,1-1.81-.51,1.24,1.24,0,0,1-.13-1,1.3,1.3,0,0,1,.63-.8,1.24,1.24,0,0,1,1-.13,1.31,1.31,0,0,1,.81.63,1.34,1.34,0,0,1-.51,1.82Z" style="fill:#140927"/><path d="M171.93,78.58l-5.88-15.46a3.53,3.53,0,0,1,1.37-4.23l13.85-9a3.57,3.57,0,0,0,1.48-2.05l4.32-16a3.56,3.56,0,0,1,3.6-2.62l16.52.83a3.58,3.58,0,0,0,2.4-.78l12.88-10.38a3.56,3.56,0,0,1,4.45,0L239.8,29.27a3.59,3.59,0,0,0,2.4.78l16.52-.83a3.55,3.55,0,0,1,3.6,2.62l4.32,16a3.59,3.59,0,0,0,1.49,2.05l13.84,9a3.54,3.54,0,0,1,1.38,4.23l-5.89,15.46a3.53,3.53,0,0,0,0,2.52l5.89,15.46a3.54,3.54,0,0,1-1.38,4.23l-13.84,9a3.57,3.57,0,0,0-1.49,2l-4.32,16a3.53,3.53,0,0,1-3.6,2.61l-16.52-.82a3.54,3.54,0,0,0-2.4.78l-12.88,10.38a3.56,3.56,0,0,1-4.45,0l-12.88-10.38a3.52,3.52,0,0,0-2.4-.78l-16.52.82a3.54,3.54,0,0,1-3.6-2.61l-4.32-16a3.55,3.55,0,0,0-1.48-2l-13.85-9a3.53,3.53,0,0,1-1.37-4.23l5.88-15.46A3.53,3.53,0,0,0,171.93,78.58Z" style="fill:#763cac"/><path d="M212.86,49.41l2.56-14.56h2.73l-2.56,14.56Zm5.73,0-.79-11.07h-1.15l.66-3.49h1.9L220,45.93h.72l-.64,3.48Zm1.16,0,2.56-14.56H225l-2.56,14.56Z" style="fill:#f5f5f5"/><path d="M230,49.62a4.25,4.25,0,0,1-3.4-1.43,5.93,5.93,0,0,1-1.22-4,14.07,14.07,0,0,1,.84-5.15,7.11,7.11,0,0,1,2.43-3.29,6.38,6.38,0,0,1,3.8-1.13A4.16,4.16,0,0,1,235.83,36a5.78,5.78,0,0,1,1.2,3.89,14.67,14.67,0,0,1-.83,5.21,7.17,7.17,0,0,1-2.4,3.32A6.14,6.14,0,0,1,230,49.62ZM230.4,47a2.83,2.83,0,0,0,2-.81,5.34,5.34,0,0,0,1.3-2.35,13.2,13.2,0,0,0,.45-3.69,3.69,3.69,0,0,0-.55-2.17,1.73,1.73,0,0,0-1.51-.78,3,3,0,0,0-2.08.8,5.06,5.06,0,0,0-1.33,2.31,12.73,12.73,0,0,0-.46,3.63,3.86,3.86,0,0,0,.57,2.25A1.81,1.81,0,0,0,230.4,47Z" style="fill:#f5f5f5"/><path d="M199.27,74.82a4.22,4.22,0,0,1-3.39-1.43,5.93,5.93,0,0,1-1.22-4,14.07,14.07,0,0,1,.84-5.15A7.11,7.11,0,0,1,197.93,61a6.37,6.37,0,0,1,3.79-1.13,4.18,4.18,0,0,1,3.35,1.39,5.78,5.78,0,0,1,1.2,3.89,14.67,14.67,0,0,1-.83,5.21,7.17,7.17,0,0,1-2.4,3.32A6.17,6.17,0,0,1,199.27,74.82Zm.37-2.59a2.85,2.85,0,0,0,2-.81,5.34,5.34,0,0,0,1.3-2.35,13.2,13.2,0,0,0,.45-3.69,3.69,3.69,0,0,0-.55-2.17,1.74,1.74,0,0,0-1.51-.78,3,3,0,0,0-2.08.8A5.06,5.06,0,0,0,198,65.54a12.38,12.38,0,0,0-.46,3.63,3.86,3.86,0,0,0,.57,2.25A1.81,1.81,0,0,0,199.64,72.23Z" style="fill:#f5f5f5"/><path d="M206,74.61l.42-2.38H214l-.42,2.38Zm2.3,0,1.27-7.25a1.17,1.17,0,0,0-.1-.89.89.89,0,0,0-.78-.3,6.41,6.41,0,0,0-1.67.24l-.32-2.48a10.66,10.66,0,0,1,1.43-.29,9.42,9.42,0,0,1,1.4-.1A2.71,2.71,0,0,1,212,64.6a4.53,4.53,0,0,1,.31,3.17l-1.2,6.84Zm3.74-5.24.13-3.35h.57a3.61,3.61,0,0,1,1.16-1.84,3.08,3.08,0,0,1,2-.64,2.44,2.44,0,0,1,2.3,1.12,5,5,0,0,1,.3,3.31h-2.83a2,2,0,0,0-.13-1.34,1,1,0,0,0-.91-.46,2.19,2.19,0,0,0-1.1.3,2.42,2.42,0,0,0-.91,1A5.92,5.92,0,0,0,212.05,69.37Z" style="fill:#f5f5f5"/><path d="M222.12,74.83a3.15,3.15,0,0,1-2.3-.8,3,3,0,0,1-.82-2.26,7,7,0,0,1,.82-3.39,7.73,7.73,0,0,1,2.28-2.6,10.84,10.84,0,0,1,3.43-1.66,14.89,14.89,0,0,1,4.27-.58H230l-1.65,2.63a9.22,9.22,0,0,0-3.28.71,6.1,6.1,0,0,0-2.34,1.69,3.61,3.61,0,0,0-.87,2.36,1.31,1.31,0,0,0,.31.95,1.27,1.27,0,0,0,.94.31A2.65,2.65,0,0,0,225.25,71a7.63,7.63,0,0,0,1.31-3.26l-.05,4.54h-1.19l1.07-1.58a6.29,6.29,0,0,1-1.61,3A3.68,3.68,0,0,1,222.12,74.83Zm7-.12a9,9,0,0,1-1.16-.07,2.68,2.68,0,0,1-1-.34,1.52,1.52,0,0,1-.64-.8,2.87,2.87,0,0,1,0-1.45l.2-3.79.85-4.79a2.22,2.22,0,0,0-.06-1.38.85.85,0,0,0-.83-.44,4.1,4.1,0,0,0-.62.05,5.07,5.07,0,0,0-.67.17l-.33-2.59c.3-.07.61-.14.92-.19a6,6,0,0,1,.94-.07,3.31,3.31,0,0,1,3,1.23q.84,1.24.36,3.93l-1.15,6.64a3.59,3.59,0,0,0-.08.91.57.57,0,0,0,.33.49,2.45,2.45,0,0,0,1,.15h.43l-.41,2.34Z" style="fill:#f5f5f5"/><path d="M237.26,72.18a6.06,6.06,0,0,0,1.58-.22,8,8,0,0,0,1.62-.64l.71,2.43a7.06,7.06,0,0,1-2.08.82,10.1,10.1,0,0,1-2.12.25,5,5,0,0,1-3.52-1.17,4.14,4.14,0,0,1-1.27-3.23A7.59,7.59,0,0,1,233,66.8a6,6,0,0,1,2.32-2.4,6.81,6.81,0,0,1,3.48-.86,3.83,3.83,0,0,1,2.63.84,2.94,2.94,0,0,1,.95,2.34,3,3,0,0,1-2,2.9,15.55,15.55,0,0,1-5.93,1L234,68.65a15.29,15.29,0,0,0,4.16-.47c1-.31,1.48-.72,1.48-1.25a.7.7,0,0,0-.34-.62,1.86,1.86,0,0,0-1-.23,3.31,3.31,0,0,0-3.1,1.91,4.78,4.78,0,0,0-.46,2.1,1.94,1.94,0,0,0,.67,1.54A2.79,2.79,0,0,0,237.26,72.18Z" style="fill:#f5f5f5"/><path d="M242.93,74.61l.42-2.38H251l-.42,2.38Zm2.29,0,1.27-7.25a1.13,1.13,0,0,0-.09-.89.91.91,0,0,0-.79-.3,6.47,6.47,0,0,0-1.67.24l-.32-2.48a11,11,0,0,1,1.43-.29,9.51,9.51,0,0,1,1.4-.1,2.7,2.7,0,0,1,2.48,1.06,4.42,4.42,0,0,1,.31,3.17L248,74.61ZM249,69.37,249.1,66h.56a3.68,3.68,0,0,1,1.16-1.84,3.08,3.08,0,0,1,2-.64,2.44,2.44,0,0,1,2.3,1.12,5,5,0,0,1,.3,3.31H252.6a2,2,0,0,0-.13-1.34,1,1,0,0,0-.9-.46,2.2,2.2,0,0,0-1.11.3,2.49,2.49,0,0,0-.91,1A5.7,5.7,0,0,0,249,69.37Z" style="fill:#f5f5f5"/><path d="M184.29,104.53h-2.82l2.74-15.59h2.51l-.14,2.58Zm.56-4.51c-.43,0-.86,0-1.27-.06l-1.28-.15,1.22-2.69a4.72,4.72,0,0,0,1.87.26,5.71,5.71,0,0,0,2.65-.6,4.86,4.86,0,0,0,1.85-1.65,4.23,4.23,0,0,0,.68-2.35,1.45,1.45,0,0,0-.34-1,1.21,1.21,0,0,0-.95-.37,2.47,2.47,0,0,0-1.37.46,4.13,4.13,0,0,0-1.24,1.45,8.55,8.55,0,0,0-.85,2.55l.41-4.93h.89l-.42.58a3.33,3.33,0,0,1,1.27-2,3.9,3.9,0,0,1,2.35-.71,2.82,2.82,0,0,1,2.28,1,4.12,4.12,0,0,1,.81,2.73,7,7,0,0,1-.65,3,7.37,7.37,0,0,1-1.8,2.42,8.29,8.29,0,0,1-2.72,1.6A9.81,9.81,0,0,1,184.85,100Z" style="fill:#f5f5f5"/><path d="M193.71,99.81l.42-2.38h7.6l-.42,2.38Zm2.29,0,1.27-7.25a1.13,1.13,0,0,0-.09-.89.9.9,0,0,0-.79-.3,6.47,6.47,0,0,0-1.67.24l-.32-2.48a13.54,13.54,0,0,1,1.43-.3,11.09,11.09,0,0,1,1.4-.09,2.73,2.73,0,0,1,2.49,1.06A4.48,4.48,0,0,1,200,93l-1.2,6.84Zm3.75-5.24.13-3.35h.56a3.68,3.68,0,0,1,1.16-1.84,3.12,3.12,0,0,1,2-.64,2.43,2.43,0,0,1,2.3,1.12,5,5,0,0,1,.31,3.31h-2.83a2,2,0,0,0-.14-1.34,1,1,0,0,0-.9-.46,2.2,2.2,0,0,0-1.11.3,2.49,2.49,0,0,0-.91,1A5.94,5.94,0,0,0,199.75,94.57Z" style="fill:#f5f5f5"/><path d="M212.66,97.38a6,6,0,0,0,1.57-.22,7.59,7.59,0,0,0,1.62-.64l.71,2.43a7.06,7.06,0,0,1-2.08.82,10,10,0,0,1-2.12.25,5,5,0,0,1-3.52-1.17,4.14,4.14,0,0,1-1.27-3.23A7.59,7.59,0,0,1,208.4,92a6,6,0,0,1,2.32-2.4,6.81,6.81,0,0,1,3.48-.86,3.83,3.83,0,0,1,2.63.84,2.94,2.94,0,0,1,.95,2.34,3,3,0,0,1-2,2.9,15.53,15.53,0,0,1-5.92,1l-.43-2a15.29,15.29,0,0,0,4.16-.47c1-.31,1.49-.72,1.49-1.25a.7.7,0,0,0-.35-.62,1.83,1.83,0,0,0-1-.23,3.31,3.31,0,0,0-3.1,1.91,4.78,4.78,0,0,0-.46,2.1,1.91,1.91,0,0,0,.68,1.54A2.76,2.76,0,0,0,212.66,97.38Z" style="fill:#f5f5f5"/><path d="M222.94,100c-.81,0-1.53,0-2.17-.08a12.8,12.8,0,0,1-1.66-.23l.79-2.66,2.19.25c.58,0,1,.08,1.31.08a6.48,6.48,0,0,0,2.1-.25q.69-.25.69-.75a.3.3,0,0,0-.14-.26,1,1,0,0,0-.39-.17l-3.77-1.15a1.94,1.94,0,0,1-1.06-.73,2.14,2.14,0,0,1-.34-1.25,3.36,3.36,0,0,1,1.67-3.07,9.87,9.87,0,0,1,5-1c.46,0,.94,0,1.44.05s1,.08,1.57.15l-.75,2.58c-.57,0-1.08-.09-1.54-.11s-.88,0-1.24,0a8.91,8.91,0,0,0-2.4.24c-.53.16-.8.41-.8.74a.31.31,0,0,0,.14.25,1.24,1.24,0,0,0,.38.17l2.89.84a3.93,3.93,0,0,1,1.77,1,2.25,2.25,0,0,1,.6,1.59,3.17,3.17,0,0,1-1.57,2.88A9.16,9.16,0,0,1,222.94,100Z" style="fill:#f5f5f5"/><path d="M237.26,97.38a6.06,6.06,0,0,0,1.58-.22,8,8,0,0,0,1.62-.64l.71,2.43a7.06,7.06,0,0,1-2.08.82A10.1,10.1,0,0,1,237,100a5,5,0,0,1-3.52-1.17,4.14,4.14,0,0,1-1.27-3.23A7.59,7.59,0,0,1,233,92a6,6,0,0,1,2.32-2.4,6.81,6.81,0,0,1,3.48-.86,3.83,3.83,0,0,1,2.63.84,2.94,2.94,0,0,1,.95,2.34,3,3,0,0,1-2,2.9,15.55,15.55,0,0,1-5.93,1l-.42-2a15.29,15.29,0,0,0,4.16-.47c1-.31,1.48-.72,1.48-1.25a.69.69,0,0,0-.34-.62,1.86,1.86,0,0,0-1-.23,3.31,3.31,0,0,0-3.1,1.91,4.78,4.78,0,0,0-.46,2.1,1.94,1.94,0,0,0,.67,1.54A2.79,2.79,0,0,0,237.26,97.38Z" style="fill:#f5f5f5"/><path d="M243.83,99.81l1.91-10.87h2.44l-.08,2.6-1.45,8.27Zm6.38,0,1.15-6.56a1.92,1.92,0,0,0-.15-1.4,1.15,1.15,0,0,0-1-.48,2.19,2.19,0,0,0-1.1.3,2.5,2.5,0,0,0-.92,1,5.94,5.94,0,0,0-.58,1.9l.49-3.66h.36a3.18,3.18,0,0,1,1.11-1.6,3.07,3.07,0,0,1,1.91-.57,2.63,2.63,0,0,1,2.44,1.13,4.72,4.72,0,0,1,.31,3.32L253,99.81Z" style="fill:#f5f5f5"/><path d="M256.7,91.5l.45-2.56h9.94l-.45,2.56Zm5.64,8.52a4.3,4.3,0,0,1-2.87-.87,3.06,3.06,0,0,1-1-2.46c0-.31,0-.61,0-.9s0-.62.1-1,.12-.8.21-1.33l1.37-7.82H263l-1.37,7.82c-.12.67-.2,1.17-.24,1.51a7.59,7.59,0,0,0-.07,1.09,1.19,1.19,0,0,0,.37,1,1.79,1.79,0,0,0,1.18.31,7.75,7.75,0,0,0,1.35-.1,11.53,11.53,0,0,0,1.39-.36l.5,2.44a16,16,0,0,1-1.69.46A9.69,9.69,0,0,1,262.34,100Z" style="fill:#f5f5f5"/><path d="M224.11,125.22a1.88,1.88,0,0,1-1.87-1.87,1.77,1.77,0,0,1,.55-1.32,1.86,1.86,0,0,1,3.18,1.32,1.83,1.83,0,0,1-.54,1.32A1.8,1.8,0,0,1,224.11,125.22Zm-.46-5.91,1.25-9h3l-2,9Z" style="fill:#f5f5f5"/><polygon points="93.25 439.77 84.64 428.46 74.45 428.92 93.25 439.77" style="fill:#fcd635"/><polygon points="93.25 439.77 149.63 407.22 144.93 339.4 93.25 369.24 93.25 439.77" style="fill:#27debf"/><polygon points="93.25 439.77 149.63 407.22 144.93 339.4 93.25 369.24 93.25 439.77" style="fill:#763cac"/><polygon points="93.25 369.24 93.25 363.81 79.15 361.1 130.84 331.26 135.54 339.4 144.93 339.4 93.25 369.24" style="fill:#27debf"/><polygon points="93.25 369.24 93.25 363.81 79.15 361.1 130.84 331.26 135.54 339.4 144.93 339.4 93.25 369.24" style="fill:#763cac"/><polygon points="130.84 331.26 130.84 347.54 135.53 344.83 135.54 339.4 130.84 331.26" style="fill:#27debf"/><polygon points="130.7 331.3 130.97 347.58 135.62 344.79 135.54 339.36 130.7 331.3" style="fill:#140927"/><polygon points="144.93 339.4 135.54 339.4 135.53 344.83 144.93 339.4" style="fill:#27debf"/><polygon points="144.93 339.4 135.54 339.4 135.53 344.83 144.93 339.4" style="fill:#763cac"/><polygon points="79.15 361.1 74.45 428.92 93.25 439.77 93.25 369.24 93.25 363.81 79.15 361.1" style="fill:#27debf"/><polygon points="79.15 361.1 74.45 428.92 93.25 439.77 93.25 369.24 93.25 363.81 79.15 361.1" style="fill:#763cac"/><polygon points="93.25 363.81 83.85 434.35 93.25 439.77 93.25 363.81" style="fill:#27debf"/><polygon points="93.25 363.81 83.85 434.35 93.25 439.77 93.25 363.81" style="fill:#140927"/><path d="M94.39,360.38c0,.92.65,1.3,1.45.84a3.21,3.21,0,0,0,1.44-2.51c0-.92-.64-1.3-1.44-.84A3.22,3.22,0,0,0,94.39,360.38Z" style="fill:#37474f"/><path d="M113.63,349.53c0,.92.65,1.3,1.44.83a3.19,3.19,0,0,0,1.45-2.5c0-.92-.65-1.3-1.45-.84A3.22,3.22,0,0,0,113.63,349.53Z" style="fill:#37474f"/><path d="M95.84,359.33a.49.49,0,0,1-.49-.48V347c0-5.17,4.43-11.92,9.86-15.06,3-1.75,5.91-2.09,7.9-.94,1.58.91,2.45,2.69,2.45,5v12a.49.49,0,0,1-1,0V336c0-2-.68-3.44-2-4.18-1.68-1-4.2-.63-6.92.94-5.17,3-9.38,9.36-9.38,14.22v11.85A.49.49,0,0,1,95.84,359.33Z" style="fill:#37474f"/><path d="M108.71,368.52c0,.92.65,1.29,1.44.83a3.19,3.19,0,0,0,1.45-2.5c0-.93-.65-1.3-1.45-.84A3.22,3.22,0,0,0,108.71,368.52Z" style="fill:#455a64"/><path d="M127.94,357.67c0,.92.65,1.29,1.45.83a3.19,3.19,0,0,0,1.45-2.5c0-.93-.65-1.3-1.45-.84A3.19,3.19,0,0,0,127.94,357.67Z" style="fill:#455a64"/><path d="M110.15,367.47a.49.49,0,0,1-.48-.49V355.13c0-5.16,4.42-11.91,9.86-15.05,3-1.75,5.9-2.09,7.89-.94,1.59.91,2.46,2.69,2.46,5v12a.49.49,0,0,1-.49.49.48.48,0,0,1-.48-.49v-12c0-2-.68-3.43-2-4.17-1.68-1-4.21-.63-6.92.94-5.17,3-9.38,9.36-9.38,14.21V367A.49.49,0,0,1,110.15,367.47Z" style="fill:#455a64"/></g></g></svg>