<svg xmlns="http://www.w3.org/2000/svg" viewBox="0 0 468.1 454.05"><g style="isolation:isolate"><g id="Layer_2" data-name="Layer 2"><g id="Character"><ellipse id="Floor" cx="234.05" cy="318.86" rx="234.05" ry="135.19" style="fill:#f5f5f5"/><ellipse id="Shadow" cx="364.78" cy="282.6" rx="41.01" ry="23.68" style="fill:#e0e0e0"/><path id="Shadow-2" data-name="Shadow" d="M287.46,440.51l113.91-65.77c2.49-1.44,2.49-3.78,0-5.22L161.23,230.93a10,10,0,0,0-9,0L38.28,296.7c-2.49,1.44-2.49,3.77,0,5.22L278.42,440.51A10,10,0,0,0,287.46,440.51Z" style="fill:#e0e0e0"/><g id="Plants"><path d="M380.68,344.07l-6.4-5.51s.25-19.69,6-35.54c8.1-22.28,25.3-27.17,30.54-23.77s5.25,10.46-7.61,21.74C395.65,307.65,384.63,322.7,380.68,344.07Z" style="fill:#e14eca"/><g style="opacity:0.15"><path d="M380.68,344.07l-6.4-5.51s.25-19.69,6-35.54c8.1-22.28,25.3-27.17,30.54-23.77s5.25,10.46-7.61,21.74C395.65,307.65,384.63,322.7,380.68,344.07Z"/></g><path d="M379.84,334.43h.08a.52.52,0,0,0,.55-.49c1.21-22.1,14.46-44,26-51.61a.52.52,0,0,0-.57-.87c-11.79,7.75-25.27,30-26.51,52.42A.53.53,0,0,0,379.84,334.43Z" style="fill:#fff"/><path d="M399.52,359.49c1,.88,3.63-.09,4.65-.52a11.09,11.09,0,0,0,4.41-3.44,10.33,10.33,0,0,0,2.09-5.93,24.11,24.11,0,0,0-.14-3.4c-.09-1.11-.19-2.22-.29-3.33a8,8,0,0,1,.16-3.27c.69-2.1,2.9-3.24,4.89-4.2,2.21-1.07,4.58-2.58,5.08-5.18a9.35,9.35,0,0,0-1.23-5.88c-.94-1.81-2.14-3.49-2.94-5.37a6.51,6.51,0,0,1-.52-4.28,6.79,6.79,0,0,1,1.37-2.35,35.6,35.6,0,0,0,3.74-4.52c1-1.69,1.34-4,.17-5.54a6,6,0,0,0-4.25-2,10.44,10.44,0,0,0-4.44.65c-4.56,1.49-7.86,5.91-12.58,6.82a42.65,42.65,0,0,1-5.54.27,6.64,6.64,0,0,0-4.95,2.14c-2.23,2.89,0,7.42-1.81,10.6-1.59,2.82-4.74,3.4-6.91,5.8a6.62,6.62,0,0,0-1.54,3.79,19.42,19.42,0,0,0,.37,7,48.28,48.28,0,0,0,2.49,6.71C381.85,344.15,399.36,359.36,399.52,359.49Z" style="fill:#e14eca"/><path d="M389.05,351h0a.54.54,0,0,0,.61-.44C392.78,330,406.76,309.4,415,304.23a.52.52,0,1,0-.55-.89c-8.42,5.28-22.67,26.24-25.83,47.06A.52.52,0,0,0,389.05,351Z" style="fill:#fff"/><path d="M396.79,327.52h.15a70.49,70.49,0,0,1,15.25.49.51.51,0,0,0,.59-.43.5.5,0,0,0-.43-.6,71.9,71.9,0,0,0-15.52-.5.52.52,0,0,0-.46.57A.51.51,0,0,0,396.79,327.52Z" style="fill:#fff"/></g><g id="Plants-2" data-name="Plants"><path d="M48.63,289.6l8.92-5.16s2.19-19.12.74-33.93c-2-20.8-15.49-45.84-31.52-40s7.35,27.07,12.56,44.72S48.63,289.6,48.63,289.6Z" style="fill:#e14eca"/><path d="M48.63,289.6l8.92-5.16s2.19-19.12.74-33.93c-2-20.8-15.49-45.84-31.52-40s7.35,27.07,12.56,44.72S48.63,289.6,48.63,289.6Z" style="opacity:0.15"/><path d="M53.32,287.43h0a.54.54,0,0,1-.52-.56c1.57-46.24-21.45-69.5-21.68-69.72a.56.56,0,0,1,0-.77.55.55,0,0,1,.77,0c.24.23,23.59,23.82,22,70.53A.54.54,0,0,1,53.32,287.43Z" style="fill:#fff"/><path d="M43.86,293.29l6.35-3.67s1.09-13.12-5.35-29.06c-5.6-13.88-19.49-25.39-26.48-23S11.56,245,15,250.16,39.11,267.75,43.86,293.29Z" style="fill:#e14eca"/><path d="M47.21,291.89h0a.54.54,0,0,1-.54-.54c.13-29.23-27.32-49-27.6-49.19a.54.54,0,1,1,.63-.88c.28.2,28.18,20.28,28.05,50.08A.54.54,0,0,1,47.21,291.89Z" style="fill:#fff"/></g><g id="Device"><g id="Mobile"><path d="M400.74,347.8a2.61,2.61,0,0,0-.17-.28l-.15-.17a1.46,1.46,0,0,0-.16-.21l-.19-.17a3.91,3.91,0,0,0-.7-.49L166.52,212a8.54,8.54,0,0,0-7.72,0L44.63,277.94c-.17.1-.32.19-.46.29s-.11.08-.15.13a2.89,2.89,0,0,0-.65.72,1.18,1.18,0,0,0-.11.19.94.94,0,0,0-.12.3,2.1,2.1,0,0,0-.06.24,1.67,1.67,0,0,0,0,.39,2.28,2.28,0,0,0,0,.26,1.67,1.67,0,0,0,.08.3,1.58,1.58,0,0,0,.12.29,3.33,3.33,0,0,0,1.37,1.34L277.49,416.84a7.18,7.18,0,0,0,2.3.78,10.05,10.05,0,0,0,1.56.13,9.92,9.92,0,0,0,1.55-.12,3.4,3.4,0,0,0,.5-.1,7.2,7.2,0,0,0,1.4-.47l.41-.22,114.16-65.91C400.84,350.08,401.29,348.87,400.74,347.8ZM375.66,343l-7.31,4.21-97.26,56.12a7.09,7.09,0,0,1-.78.39,6.59,6.59,0,0,1-5,0,5.79,5.79,0,0,1-.79-.39L79.82,296.74l-8.93-5.16a3.65,3.65,0,0,1-.84-.65c-.92-1-.63-2.31.84-3.17l104.53-60.35a6.68,6.68,0,0,1,4.06-1.12,4,4,0,0,1,1,.26,3.44,3.44,0,0,1,.51.25L375.66,339.2A2.21,2.21,0,0,1,375.66,343Z" style="fill:#455a64"/><path d="M44.18,278.24a8.65,8.65,0,0,0-3.42,6.39v5.1a8.5,8.5,0,0,0,3.85,6.7L277.47,430.86a7.16,7.16,0,0,0,2.83.86,7,7,0,0,0,1,.07,0,0,0,0,1,0,0v-14h0a11.32,11.32,0,0,1-1.56-.13,6.73,6.73,0,0,1-2.3-.79L44.63,282.39C42.67,281.26,42.51,279.47,44.18,278.24Z" style="fill:#37474f"/><path d="M339.06,375.18a15.44,15.44,0,0,0-13.77,0,5.48,5.48,0,0,0-2.07,1.88c-1.23,2.14,1,3.76,2.07,4.36a15.5,15.5,0,0,0,13.77,0,5.81,5.81,0,0,0,2.07-1.88C342.36,377.4,340.09,375.78,339.06,375.18Z" style="fill:#e14eca"/><path d="M111.06,251a1.15,1.15,0,0,0,0-2.18,4.19,4.19,0,0,0-3.78,0,1.15,1.15,0,0,0,0,2.18A4.19,4.19,0,0,0,111.06,251Z" style="fill:#263238"/><path d="M105.12,261.35a1,1,0,0,0,0-1.93,3.71,3.71,0,0,0-3.34,0,1,1,0,0,0,0,1.93A3.65,3.65,0,0,0,105.12,261.35Z" style="fill:#263238"/><path d="M110.79,258.16l18.75-10.83c1-.59,1.08-1.52.11-2.08a4,4,0,0,0-3.6.07L107.3,256.14c-1,.6-1.07,1.53-.11,2.08A4,4,0,0,0,110.79,258.16Z" style="fill:#263238"/><path d="M399.88,346.81c1.6,1.25,1.43,3-.51,4.12L285.21,416.84a7.82,7.82,0,0,1-3.86.92v14a7.92,7.92,0,0,0,3.85-.94L399.36,365a8.51,8.51,0,0,0,3.86-6.69l0-5.11A8.67,8.67,0,0,0,399.88,346.81Z" style="fill:#263238"/><path d="M99.09,317.77a4.28,4.28,0,0,1,2,3.31,1.25,1.25,0,0,1-.55,1.17l-1.39.81a1.46,1.46,0,0,1-1.44-.16l-26-15a4.27,4.27,0,0,1-2-3.31,1.26,1.26,0,0,1,.51-1.14c.24-.16,1.19-.7,1.44-.84a1.49,1.49,0,0,1,1.44.16Z" style="fill:#263238"/><path d="M97.7,318.58l-26-15c-1.11-.64-2-.19-2,1a4.27,4.27,0,0,0,2,3.31l26,15c1.1.63,2,.18,2-1A4.27,4.27,0,0,0,97.7,318.58Z" style="fill:#455a64"/><path d="M64.34,297.71a4.28,4.28,0,0,1,2,3.31,1.25,1.25,0,0,1-.55,1.17l-1.39.81a1.48,1.48,0,0,1-1.44-.16l-12.24-7.07a4.3,4.3,0,0,1-2-3.31,1.26,1.26,0,0,1,.51-1.14c.24-.16,1.19-.7,1.44-.84a1.49,1.49,0,0,1,1.44.16Z" style="fill:#263238"/><path d="M63,298.51l-12.24-7.06c-1.1-.64-2-.19-2,1a4.3,4.3,0,0,0,2,3.31L63,302.84c1.1.63,2,.18,2-1A4.29,4.29,0,0,0,63,298.51Z" style="fill:#455a64"/></g><g id="Window"><path d="M375.66,343l-7.31,4.22-97.26,56.12c-.26.14-.52.28-.78.39a6.59,6.59,0,0,1-5,0,7.24,7.24,0,0,1-.79-.39L79.82,296.68l-8.93-5.15a3.41,3.41,0,0,1-.84-.66c-.92-1-.63-2.31.84-3.17l104.53-60.34a6.62,6.62,0,0,1,4.06-1.13,4.56,4.56,0,0,1,1,.27,3.38,3.38,0,0,1,.51.24L375.66,339.15A2.21,2.21,0,0,1,375.66,343Z" style="fill:#e14eca"/><path d="M375.66,343l-7.31,4.22-97.26,56.12c-.26.14-.52.28-.78.39a6.59,6.59,0,0,1-5,0,7.24,7.24,0,0,1-.79-.39L79.82,296.68l-8.93-5.15a3.41,3.41,0,0,1-.84-.66c-.92-1-.63-2.31.84-3.17l104.53-60.34a6.62,6.62,0,0,1,4.06-1.13,4.56,4.56,0,0,1,1,.27,3.38,3.38,0,0,1,.51.24L375.66,339.15A2.21,2.21,0,0,1,375.66,343Z" style="fill:#fff;opacity:0.8"/><path d="M93,283.63a.37.37,0,0,1-.15-.05l-.51-.29-1.23.71a.22.22,0,0,1-.22,0l-.18-.11-.08-.06a.2.2,0,0,1,0-.08L90,281.93a.08.08,0,0,1,0-.07s0,0,.06-.06l.18-.1a.28.28,0,0,1,.15,0,.37.37,0,0,1,.16,0l1.79,1,.28-.16a.2.2,0,0,1,.14,0,.37.37,0,0,1,.16.05l.12.07a.19.19,0,0,1,.09.09s0,.05-.08.08l-.27.16.51.29c.06,0,.09.06.09.09s0,.06-.08.09l-.21.12A.28.28,0,0,1,93,283.63ZM92,283l-1.28-.74.38,1.25Z" style="fill:#455a64"/><path d="M94.12,282.6a3.31,3.31,0,0,1-1.55-.47c-.51-.3-.78-.59-.81-.89s.17-.58.6-.84a3,3,0,0,1,.56-.24,2.08,2.08,0,0,1,.57-.12.13.13,0,0,1,.09,0l0,0,.11.2s0,0,0,0h-.07a2.17,2.17,0,0,0-.8.27c-.3.17-.44.36-.41.57s.23.43.63.66a2.48,2.48,0,0,0,1.12.36,1.76,1.76,0,0,0,1-.22,1.85,1.85,0,0,0,.27-.19.64.64,0,0,0,.16-.19l-.83-.48-.52.3a.27.27,0,0,1-.14,0,.4.4,0,0,1-.16-.06l-.12-.06s-.08-.07-.08-.09,0-.05.07-.08l.82-.48a.28.28,0,0,1,.17,0,.38.38,0,0,1,.19.06l1.19.69.09.06a.15.15,0,0,1,0,.07c-.07.24-.31.47-.72.71A2.57,2.57,0,0,1,94.12,282.6Z" style="fill:#455a64"/><path d="M104.35,276.48a.44.44,0,0,1,0,.83,1.57,1.57,0,0,1-1.43,0,.44.44,0,0,1,0-.83A1.57,1.57,0,0,1,104.35,276.48Z" style="fill:#455a64"/><path d="M101.74,275.8c-.72.42-.94,1-.67,1.54a.47.47,0,0,0,.43.17h0c.24,0,.4-.15.33-.29-.2-.37,0-.79.46-1.08a2.87,2.87,0,0,1,1.89-.27c.23,0,.47-.05.5-.19h0c0-.11-.09-.22-.28-.25A4.21,4.21,0,0,0,101.74,275.8Z" style="fill:#455a64"/><path d="M100.59,275.14c-1.07.62-1.46,1.49-1.15,2.29,0,.12.23.2.44.19h0c.24,0,.39-.15.34-.28-.25-.66.06-1.37.94-1.88a5.46,5.46,0,0,1,3.24-.54c.23,0,.46-.06.48-.19h0c0-.12-.11-.23-.32-.26A6.67,6.67,0,0,0,100.59,275.14Z" style="fill:#455a64"/><path d="M121.74,264.91a.21.21,0,0,1-.12,0,.07.07,0,0,1,0-.08l.21-1.06,0-.08a.12.12,0,0,1,.06-.06l.37-.22a.25.25,0,0,1,.13,0,.21.21,0,0,1,.12,0l3.07,1.77a.1.1,0,0,1,0,.08s0,0,0,.07l-.38.22a.28.28,0,0,1-.13,0,.25.25,0,0,1-.13,0l-2.34-1.35-.15.69a.12.12,0,0,1-.07.07.3.3,0,0,1-.14,0Z" style="fill:#455a64"/><path d="M124.14,263.52a.16.16,0,0,1-.12,0s0,0,0-.07l.21-1.07,0-.07a.13.13,0,0,1,.06-.07l.37-.21a.25.25,0,0,1,.13,0,.28.28,0,0,1,.13,0l3.06,1.77s0,0,0,.07,0,.05,0,.07l-.38.23a.3.3,0,0,1-.26,0L125,262.77l-.15.7a.11.11,0,0,1-.07.06.25.25,0,0,1-.13,0Z" style="fill:#455a64"/><path d="M127.16,261.63a.3.3,0,0,1,.26,0l.46.27s.05,0,.05.07,0,0-.05.07l-.44.26a.25.25,0,0,1-.13,0,.28.28,0,0,1-.13,0l-.46-.27s0,0,0-.07a.08.08,0,0,1,0-.08Zm1.66,1a.3.3,0,0,1,.26,0l.46.26s.06,0,.06.08,0,.05-.06.07l-.44.26a.25.25,0,0,1-.13,0,.21.21,0,0,1-.12,0l-.47-.27a.08.08,0,0,1,0-.07.1.1,0,0,1,0-.08Z" style="fill:#455a64"/><path d="M132.08,261.54a.3.3,0,0,1-.26,0l-.57-.33-1.47.85a.28.28,0,0,1-.13,0,.25.25,0,0,1-.13,0l-.34-.2a.15.15,0,0,1-.08-.08.36.36,0,0,1,0-.11l-.36-1.88a.16.16,0,0,1,.08-.18l.36-.21a.25.25,0,0,1,.13,0,.28.28,0,0,1,.13,0l1.89,1.1.41-.24a.3.3,0,0,1,.26,0l.33.2a.07.07,0,0,1,.06.07s0,.05,0,.07l-.41.24.57.33s0,0,0,.07a.08.08,0,0,1,0,.08Zm-1.43-.67-1-.59.2,1.05Z" style="fill:#455a64"/><path d="M130.79,258.6s0-.05,0-.08,0,0,0-.07l1.78-1a.28.28,0,0,1,.13,0,.25.25,0,0,1,.13,0l.34.19a.1.1,0,0,1,.05.08s0,.05-.05.07l-1.34.77.56.38a.66.66,0,0,1,.19-.18l.2-.13a2.78,2.78,0,0,1,.56-.24,2.52,2.52,0,0,1,.61-.11,2.43,2.43,0,0,1,.6.05,2,2,0,0,1,.57.22,1.29,1.29,0,0,1,.42.35.5.5,0,0,1,.09.36.64.64,0,0,1-.19.35,2.1,2.1,0,0,1-.42.32,3.2,3.2,0,0,1-.64.28,2.68,2.68,0,0,1-.6.1,1.84,1.84,0,0,1-.53,0,1.52,1.52,0,0,1-.44-.15s-.06,0-.06-.07a.16.16,0,0,1,.06-.08l.39-.22a.2.2,0,0,1,.11,0,.34.34,0,0,1,.14,0,.86.86,0,0,0,.27.05l.25,0,.23-.07a1.55,1.55,0,0,0,.22-.12c.19-.1.28-.21.29-.33s-.06-.23-.23-.33a1,1,0,0,0-.53-.11,1.25,1.25,0,0,0-.58.17,1,1,0,0,0-.2.14.44.44,0,0,0-.09.11l0,.08a.35.35,0,0,1-.09.07l-.44.26a.25.25,0,0,1-.13,0,.21.21,0,0,1-.12,0Z" style="fill:#455a64"/><polygon points="79.69 291.73 78.7 291.16 80.02 290.4 81.01 290.97 79.69 291.73" style="fill:#455a64"/><polygon points="81.67 290.59 79.69 289.45 81.01 288.69 82.99 289.83 81.67 290.59" style="fill:#455a64"/><polygon points="83.65 289.45 80.68 287.74 82 286.97 84.97 288.69 83.65 289.45" style="fill:#455a64"/><polygon points="85.63 288.31 81.67 286.02 82.99 285.26 86.95 287.55 85.63 288.31" style="fill:#455a64"/><path d="M175,233a1.37,1.37,0,0,0-.77.11l-4.93,2.84c-.32.19-.24.52.18.77l1.8,1a2.33,2.33,0,0,0,.87.25h.39a1,1,0,0,0,.39-.12L177.9,235c.32-.18.24-.52-.19-.76l-1.8-1A1.93,1.93,0,0,0,175,233Zm-2.9,4.83a1,1,0,0,1-.37-.13l-1.8-1c-.31-.18-.37-.45-.14-.59l4.93-2.84a.65.65,0,0,1,.21-.06h.12a.89.89,0,0,1,.37.12l1.8,1c.31.18.38.45.14.58l-4.93,2.84A.6.6,0,0,1,172.14,237.81Z" style="fill:#455a64"/><path d="M171.08,235.7l2.13,1.23-.78.45a.34.34,0,0,1-.26,0l-1.59-.91c-.22-.13-.27-.34-.11-.44Z" style="fill:#455a64"/><polygon points="171.44 235.5 172.37 234.96 174.49 236.19 173.56 236.72 171.44 235.5" style="fill:#455a64"/><polygon points="172.73 234.76 173.65 234.22 175.78 235.46 174.86 235.99 172.73 234.76" style="fill:#455a64"/><path d="M175.08,233.57l1.53.88c.28.16.22.4-.15.62l-.32.18L174,234l.73-.42A.43.43,0,0,1,175.08,233.57Z" style="fill:#455a64"/><path d="M176.11,233.13c.13-.08.54,0,.91.24l.34.19c.36.22.56.46.43.54l-.23.16-1.7-1Z" style="fill:#455a64"/><polygon points="162.48 241.27 166.31 237.95 168.32 240.82 165.68 240.1 162.48 241.27" style="fill:#455a64"/></g><polygon id="Shadow-3" data-name="Shadow" points="206.42 254.03 119.11 304.43 206.42 354.98 293.73 304.43 206.42 254.03" style="opacity:0.1"/></g><g id="Message"><path d="M240.62,354.53v.64a3.55,3.55,0,0,0,1.61,2.79l34.56,20a3.52,3.52,0,0,0,3.22,0l57.22-33a3.58,3.58,0,0,0,1.61-2.79v-.64a3.58,3.58,0,0,0-1.61-2.79l-34.56-20a3.52,3.52,0,0,0-3.22,0l-57.22,33A3.58,3.58,0,0,0,240.62,354.53Z" style="fill:#e14eca"/><path d="M240.62,354.53v.64a3.55,3.55,0,0,0,1.61,2.79l34.56,20a3.52,3.52,0,0,0,3.22,0l57.22-33a3.58,3.58,0,0,0,1.61-2.79v-.64a3.58,3.58,0,0,0-1.61-2.79l-34.56-20a3.52,3.52,0,0,0-3.22,0l-57.22,33A3.58,3.58,0,0,0,240.62,354.53Z" style="fill:#e14eca"/><path d="M337.23,338.66l-34.56-20a3.52,3.52,0,0,0-3.22,0L278.4,330.86V378.3h0a3.28,3.28,0,0,0,1.61-.39l57.22-33a3.55,3.55,0,0,0,1.61-2.79v-.64A3.58,3.58,0,0,0,337.23,338.66Z" style="fill:#fff;opacity:0.30000000000000004"/><path d="M337.23,338.66l-34.56-20a3.52,3.52,0,0,0-3.22,0L278.4,330.86V378.3h0a3.28,3.28,0,0,0,1.61-.39l57.22-33a3.55,3.55,0,0,0,1.61-2.79v-.64A3.58,3.58,0,0,0,337.23,338.66Z" style="opacity:0.15"/><path d="M278.4,330.86l-36.17,20.88a3.58,3.58,0,0,0-1.61,2.79v.64a3.55,3.55,0,0,0,1.61,2.79l34.56,20a3.23,3.23,0,0,0,1.61.39h0Z" style="fill:#fff;opacity:0.30000000000000004"/><path d="M278.4,330.86l-36.17,20.88a3.58,3.58,0,0,0-1.61,2.79v.64a3.55,3.55,0,0,0,1.61,2.79l34.56,20a3.23,3.23,0,0,0,1.61.39h0Z" style="opacity:0.2"/><path d="M271.25,370.36l-29-16.76a1,1,0,0,1,0-1.86l57.22-33a3.52,3.52,0,0,1,3.22,0l34.56,20a1,1,0,0,1,0,1.86l-9.5,5.48-3.32,1.92L280,373.55a3.52,3.52,0,0,1-3.22,0L274,371.93Z" style="fill:#e14eca"/><path d="M271.25,370.36l-29-16.76a1,1,0,0,1,0-1.86l57.22-33a3.52,3.52,0,0,1,3.22,0l34.56,20a1,1,0,0,1,0,1.86l-9.5,5.48-3.32,1.92L280,373.55a3.52,3.52,0,0,1-3.22,0L274,371.93Z" style="fill:#fff;opacity:0.30000000000000004"/><path d="M297.6,342.52l39.63-3.86L298,340.88l4.72-22.17a3.34,3.34,0,0,0-1.75-.37l-7.41,30-51.93,4.28a1.06,1.06,0,0,0,.65,1l41.94-2.43-5.77,22.77,7.38-22.86h0l7.16-.42a3.85,3.85,0,0,0,2.36-1h0a3.93,3.93,0,0,0,1.21-2.08Z" style="opacity:0.15"/><path d="M254,351.57l39.54-3.26,1.41-5.66.78-3.16,5.22-21.15a3.2,3.2,0,0,0-1.47.37l-28.61,16.52-28.61,16.51a1.16,1.16,0,0,0-.65.85l7.93-.65Z" style="fill:#fff;opacity:0.30000000000000004"/><path d="M294.52,314a14.45,14.45,0,0,1,13.09,0c3.61,2.08,3.61,5.47,0,7.55a14.45,14.45,0,0,1-13.09,0C290.91,319.45,290.91,316.06,294.52,314Z" style="fill:#f28f8f"/><path d="M296.49,319a.46.46,0,0,1-.27-.1.17.17,0,0,1-.07-.18l.54-2.38a1.43,1.43,0,0,1,.06-.21.36.36,0,0,1,.2-.21l1.32-.77a.65.65,0,0,1,.29-.07.66.66,0,0,1,.3.07l7,4.05a.19.19,0,0,1,.12.17.21.21,0,0,1-.12.17l-1.42.82a.65.65,0,0,1-.29.07.62.62,0,0,1-.29-.07l-4.74-2.74-.32,1.31c0,.07-.06.12-.15.16a.65.65,0,0,1-.31.05Z" style="fill:#fafafa"/></g><g id="Box"><g id="Box-2" data-name="Box"><g id="Back_box" data-name="Back box"><polygon points="120.85 273.24 206.42 223.84 291.99 273.24 206.42 322.65 120.85 273.24"/><polygon points="206.42 223.84 206.42 139.35 119.11 189.76 192.16 232.07 206.42 223.84" style="fill:#37474f"/><polygon points="206.42 139.35 206.42 223.84 220.68 232.07 293.73 189.75 206.42 139.35" style="fill:#263238"/></g><g id="Front_Box" data-name="Front Box"><polygon points="119.11 189.76 119.11 272.24 206.42 322.65 206.42 240.3 119.11 189.76" style="fill:#e14eca"/><g style="opacity:0.38"><polygon points="119.11 189.76 119.11 272.24 206.42 322.65 206.42 240.3 119.11 189.76"/></g><polygon points="206.42 240.3 206.42 322.65 293.73 272.24 293.73 189.75 206.42 240.3" style="fill:#e14eca"/><g style="opacity:0.23"><polygon points="206.42 240.3 206.42 322.65 293.73 272.24 293.73 189.75 206.42 240.3"/></g><polygon points="206.42 240.3 208.14 319.5 271.55 285.04 206.42 322.65 206.42 240.3" style="fill:#fff;opacity:0.7000000000000001"/><path d="M229.86,301a.46.46,0,0,1-.47-.46V290.11a.47.47,0,1,1,.93,0v10.44A.46.46,0,0,1,229.86,301Z" style="fill:#f0f0f0"/><path d="M228.49,293.72l-.18,0a.48.48,0,0,1-.25-.62l1.66-3.83,1.85,2.14a.47.47,0,0,1,0,.66.48.48,0,0,1-.66-.05l-.88-1-1.07,2.47A.47.47,0,0,1,228.49,293.72Z" style="fill:#f0f0f0"/><path d="M234.17,298.56a.47.47,0,0,1-.47-.47V287.65a.47.47,0,1,1,.93,0v10.44A.47.47,0,0,1,234.17,298.56Z" style="fill:#f0f0f0"/><path d="M232.8,291.27a.58.58,0,0,1-.18,0,.46.46,0,0,1-.24-.62l1.65-3.82,1.85,2.13a.46.46,0,1,1-.7.61l-.88-1L233.23,291A.48.48,0,0,1,232.8,291.27Z" style="fill:#f0f0f0"/><path d="M217.43,308.1a1,1,0,0,1-.51-.13,1.23,1.23,0,0,1-.55-1.12v-1.28a.46.46,0,0,1,.46-.46.47.47,0,0,1,.47.46v1.28c0,.19,0,.29.09.31s.14,0,.3-.08a2.73,2.73,0,0,0,.87-2.11v-5.34a.47.47,0,1,1,.93,0V305a3.53,3.53,0,0,1-1.33,2.91A1.37,1.37,0,0,1,217.43,308.1Z" style="fill:#f0f0f0"/><path d="M212.53,303.79V303a13.21,13.21,0,0,1,5.95-10.33c1.69-1,3.29-1.11,4.52-.4a4.49,4.49,0,0,1,1.91,4.12v.26Zm8.74-11a4.73,4.73,0,0,0-2.32.72,12.34,12.34,0,0,0-5.45,8.69L224,296.11a3.44,3.44,0,0,0-1.44-3A2.51,2.51,0,0,0,221.27,292.75Z" style="fill:#f0f0f0"/></g></g><polygon points="206.42 139.35 119.11 189.76 206.42 240.3 293.73 189.75 206.42 139.35" style="fill:#e14eca"/><polygon points="206.42 139.35 119.11 189.76 206.42 240.3 293.73 189.75 206.42 139.35" style="opacity:0.1"/><polygon points="119.11 189.76 206.42 237.18 293.73 189.75 206.42 240.3 119.11 189.76" style="fill:#fff;opacity:0.7000000000000001"/><polygon points="155.34 168.84 242.72 219.28 256.16 211.5 168.79 161.07 155.34 168.84" style="fill:#455a64"/><polygon points="256.16 211.5 256.16 228.59 254.54 227.67 252.85 230.58 251.16 229.59 249.47 232.54 247.78 231.54 246.09 234.46 244.4 233.5 242.71 236.41 242.71 219.28 256.16 211.5" style="fill:#e14eca"/><polygon points="256.16 211.5 256.16 228.59 254.54 227.67 252.85 230.58 251.16 229.59 249.47 232.54 247.78 231.54 246.09 234.46 244.4 233.5 242.71 236.41 242.71 219.28 256.16 211.5" style="fill:#37474f"/></g><g id="Speech_Bubble" data-name="Speech Bubble"><g id="Speech_Bubble-2" data-name="Speech  Bubble"><path d="M144.56,93.09l-10.69,6.17-10.7,6.18,8.28,21.73a2.2,2.2,0,0,0,.89,1.1c1.15.7,12.34,7.11,12.72,7.34a2.2,2.2,0,0,0,3.27-1.31l8.95-33.87Z" style="fill:#e14eca"/><g style="opacity:0.2"><path d="M144.56,93.09l-10.69,6.17-10.7,6.18,8.28,21.73a2.2,2.2,0,0,0,.89,1.1c1.15.7,12.34,7.11,12.72,7.34a2.2,2.2,0,0,0,3.27-1.31l8.95-33.87Z"/></g><path d="M135.89,112.78l10.7-6.17,10.69-6.18-8.95,33.87a2.19,2.19,0,0,1-4.16.22Z" style="fill:#e14eca"/><path d="M210.18,32.23c0-4.27-1.48-7.28-3.88-8.71s-10.56-6.08-12.84-7.39c-2.45-1.41-5.82-1.21-9.56.95L74.52,80.24v53.84l12.72,7.33L196.62,78.26c7.49-4.33,13.56-14.84,13.56-23.49Z" style="fill:#e14eca"/><g style="opacity:0.5"><path d="M210.18,32.23c0-4.27-1.48-7.28-3.88-8.71s-10.56-6.08-12.84-7.39c-2.45-1.41-5.82-1.21-9.56.95L74.52,80.24v53.84l12.72,7.33L196.62,78.26c7.49-4.33,13.56-14.84,13.56-23.49Z" style="fill:#fff"/></g><path d="M196.62,78.26c7.49-4.33,13.56-14.84,13.56-23.49V32.23c0-8.64-6.07-12.15-13.56-7.82L87.23,87.56v53.85Z" style="fill:#e14eca"/></g><g id="Icon"><path d="M93.86,71.8h0l-.06,0h0L78.86,63.13h0l-.08-.05h0c-7-3.52-16.25-2.58-26.26,3.87-20.12,13-35.49,42.83-34.32,66.74.57,11.91,5.11,20.2,12.05,23.8h0l.07,0h0l15,8.61h0l.07,0h0c7,3.54,16.28,2.5,26.3-4,20.12-13,35.49-42.84,34.32-66.74C105.38,83.58,100.8,75.4,93.86,71.8Z" style="fill:#37474f"/><path d="M44.75,165.87,30.3,157.53h0l-.07,0c-6.93-3.61-11.47-11.9-12-23.8-.52-10.66,2.25-22.5,7.26-33.49l14.92,8.71c-5,11-7.78,22.84-7.26,33.5C33.66,154.07,38.06,162.14,44.75,165.87Z" style="fill:#263238"/><path d="M71.63,162.23c20.12-13,35.49-42.84,34.32-66.74S87.54,62.72,67.43,75.68,31.94,118.51,33.1,142.41,51.51,175.18,71.63,162.23Z" style="fill:#455a64"/><path d="M67.16,116.74a5.66,5.66,0,0,1-2.88-.76c-2.36-1.36-3.72-4.42-3.72-8.39,0-7.15,4.4-15.51,9.8-18.63,2.56-1.48,5.08-1.65,7.09-.5,2.36,1.37,3.71,4.43,3.71,8.39,0,7.16-4.39,15.52-9.8,18.64A8.46,8.46,0,0,1,67.16,116.74Zm7.4-27a6.51,6.51,0,0,0-3.2,1c-4.85,2.8-8.8,10.38-8.8,16.9,0,3.24,1,5.66,2.72,6.66,1.36.79,3.17.61,5.08-.49,4.86-2.8,8.8-10.39,8.8-16.91,0-3.23-1-5.66-2.71-6.65A3.7,3.7,0,0,0,74.56,89.71Z" style="fill:#e14eca"/><path d="M52.61,114.32a1,1,0,0,1-.5-1.87l9-5.17a1,1,0,1,1,1,1.73l-9,5.18A1,1,0,0,1,52.61,114.32Z" style="fill:#e14eca"/><path d="M58.1,137.82a1,1,0,0,1-.39-.08,1,1,0,0,1-.58-.69l-6.51-27.82c0-.14-.15-.58-.42-.63l-2.52-.48a1,1,0,0,1-.79-1.17,1,1,0,0,1,1.17-.8l2.51.48a2.6,2.6,0,0,1,2,2.14l6.2,26.51,22.79-13.16a3.87,3.87,0,0,0,1.49-2.47l4.37-23.72c.16-.84,0-1.3-.15-1.38s-.14,0-.34.11l-6.27,3.62a1,1,0,0,1-1.36-.37,1,1,0,0,1,.36-1.37l6.27-3.61a2.23,2.23,0,0,1,2.49,0,3.28,3.28,0,0,1,1,3.38L85,120a5.79,5.79,0,0,1-2.46,3.83l-24,13.83A1,1,0,0,1,58.1,137.82Z" style="fill:#e14eca"/><path d="M56.85,146.18a2.57,2.57,0,0,1-1.27-.34,3.61,3.61,0,0,1-1.53-3.28A8.14,8.14,0,0,1,57.53,136l24-13.87a1,1,0,0,1,1.36.37,1,1,0,0,1-.36,1.36l-24,13.87a6.16,6.16,0,0,0-2.49,4.84c0,.91.28,1.4.53,1.54a1.06,1.06,0,0,0,1-.15L83.25,129.1a1,1,0,0,1,1,1.74L58.54,145.68A3.44,3.44,0,0,1,56.85,146.18Z" style="fill:#e14eca"/><path d="M60.23,156a2.62,2.62,0,0,1-1.28-.33,3.65,3.65,0,0,1-1.54-3.3,8.19,8.19,0,0,1,3.51-6.62,2.9,2.9,0,0,1,3-.16,3.63,3.63,0,0,1,1.54,3.3,8.19,8.19,0,0,1-3.51,6.62A3.39,3.39,0,0,1,60.23,156Zm2.38-8.74a1.49,1.49,0,0,0-.69.23,6.19,6.19,0,0,0-2.5,4.88c0,.92.27,1.41.53,1.56a1.07,1.07,0,0,0,1-.16,6.2,6.2,0,0,0,2.51-4.88c0-.92-.28-1.41-.54-1.56A.53.53,0,0,0,62.61,147.25Z" style="fill:#e14eca"/><path d="M77.12,146.24a2.53,2.53,0,0,1-1.28-.34,3.63,3.63,0,0,1-1.54-3.3A8.22,8.22,0,0,1,77.81,136a2.9,2.9,0,0,1,3-.16,3.63,3.63,0,0,1,1.54,3.3,8.17,8.17,0,0,1-3.51,6.61A3.31,3.31,0,0,1,77.12,146.24Zm2.38-8.74a1.61,1.61,0,0,0-.69.22,6.21,6.21,0,0,0-2.5,4.88c0,.93.27,1.42.54,1.57s.73,0,1-.16a6.2,6.2,0,0,0,2.51-4.88c0-.92-.28-1.41-.54-1.56A.53.53,0,0,0,79.5,137.5Z" style="fill:#e14eca"/><path d="M67.36,148.19a1,1,0,0,1-.5-1.87l5-2.89a1,1,0,0,1,1.37.37,1,1,0,0,1-.37,1.36l-5,2.9A1,1,0,0,1,67.36,148.19Z" style="fill:#e14eca"/><path d="M69.39,108.86a1,1,0,0,1-.68-.26l-3-2.75a1,1,0,1,1,1.36-1.47l2,1.81,5.37-11.75a1,1,0,0,1,1.82.83l-5.94,13a1,1,0,0,1-.71.56Z" style="fill:#e14eca"/></g><path d="M131.2,75.53a11.47,11.47,0,0,1,.32-2.3,9.85,9.85,0,0,1,.8-2.19,9,9,0,0,1,1.25-1.89,6.29,6.29,0,0,1,1.71-1.42,3.43,3.43,0,0,1,1.69-.55,1.92,1.92,0,0,1,1.27.44,2.8,2.8,0,0,1,.79,1.27,6.56,6.56,0,0,1,.32,1.94c0,.56,0,1.16,0,1.79s0,1.23,0,1.79a10.79,10.79,0,0,1-.32,2.3,10.65,10.65,0,0,1-.79,2.2,8.88,8.88,0,0,1-1.27,1.9,6.64,6.64,0,0,1-1.69,1.4,3.59,3.59,0,0,1-1.71.56,1.77,1.77,0,0,1-1.25-.44,2.82,2.82,0,0,1-.8-1.28,6.84,6.84,0,0,1-.32-1.94c0-.54,0-1.12,0-1.75S131.18,76.12,131.2,75.53Zm5.73.17c0-.24,0-.52,0-.82s0-.6,0-.91,0-.6,0-.89,0-.53,0-.76a3.37,3.37,0,0,0-.13-.84,1.31,1.31,0,0,0-.32-.56.73.73,0,0,0-.5-.2,1.4,1.4,0,0,0-.7.23,2.51,2.51,0,0,0-.71.59,3.15,3.15,0,0,0-.5.78,4.67,4.67,0,0,0-.32.91,5.58,5.58,0,0,0-.13,1c0,.24,0,.5,0,.79v1.8c0,.29,0,.56,0,.79a2.19,2.19,0,0,0,.45,1.41c.26.29.67.27,1.21,0a2.82,2.82,0,0,0,1.2-1.35A5.62,5.62,0,0,0,136.93,75.7Z" style="fill:#fafafa"/><path d="M144.77,62.45a4.71,4.71,0,0,1,1.54-.61,1.59,1.59,0,0,1,1.16.18,1.82,1.82,0,0,1,.73,1,5.88,5.88,0,0,1,.26,1.9,8.69,8.69,0,0,1-.41,2.73,7.15,7.15,0,0,1-1.15,2.19l1.62,3.85a.45.45,0,0,1,0,.2.94.94,0,0,1-.08.36.6.6,0,0,1-.21.25l-1.77,1c-.18.1-.3.11-.37,0a.68.68,0,0,1-.18-.26l-1.45-3.46-1.2.69v4.31a1.06,1.06,0,0,1-.11.44.59.59,0,0,1-.25.3l-1.71,1a.18.18,0,0,1-.25,0,.41.41,0,0,1-.1-.32v-13a1,1,0,0,1,.1-.44.74.74,0,0,1,.25-.31Zm-1.47,6.94,1.47-.85a2.71,2.71,0,0,0,.91-.84,2.42,2.42,0,0,0,.36-1.38q0-.84-.36-1a1.2,1.2,0,0,0-.91.2l-1.47.86Z" style="fill:#fafafa"/><path d="M153.77,57.25a3.5,3.5,0,0,1,1.65-.54,1.93,1.93,0,0,1,1.29.42,2.78,2.78,0,0,1,.85,1.29,6.76,6.76,0,0,1,.34,2.06c0,.27,0,.53,0,.76v1.34c0,.23,0,.48,0,.75a11.23,11.23,0,0,1-.34,2.47,10.41,10.41,0,0,1-.83,2.25,8.89,8.89,0,0,1-1.26,1.89,6.7,6.7,0,0,1-1.63,1.35l-3.53,2a.2.2,0,0,1-.25,0A.42.42,0,0,1,150,73V60a1,1,0,0,1,.1-.45.7.7,0,0,1,.25-.3Zm1.72,4.54c-.06-1.51-.65-1.94-1.78-1.28l-1.33.77v7.64l1.39-.81a3.62,3.62,0,0,0,1.72-3.3c0-.29,0-.55,0-.8V62.57C155.5,62.33,155.49,62.07,155.49,61.79Z" style="fill:#fafafa"/><path d="M166,61.08a.19.19,0,0,1,.25,0,.42.42,0,0,1,.1.32v2.13a1,1,0,0,1-.1.44.67.67,0,0,1-.25.31l-6.19,3.58a.21.21,0,0,1-.25,0,.44.44,0,0,1-.11-.32v-13a1,1,0,0,1,.11-.44.59.59,0,0,1,.25-.3l6.09-3.52a.18.18,0,0,1,.24,0,.43.43,0,0,1,.11.32v2.13a1,1,0,0,1-.11.44.73.73,0,0,1-.24.31l-4,2.32V58l3.74-2.15a.18.18,0,0,1,.25,0,.41.41,0,0,1,.1.32v2.13a1,1,0,0,1-.1.44.74.74,0,0,1-.25.31l-3.74,2.15v2.25Z" style="fill:#fafafa"/><path d="M171.7,46.9a4.85,4.85,0,0,1,1.54-.61,1.71,1.71,0,0,1,1.16.18,1.86,1.86,0,0,1,.73,1,5.8,5.8,0,0,1,.25,1.89,8.72,8.72,0,0,1-.4,2.74,7.2,7.2,0,0,1-1.15,2.18l1.62,3.85a.71.71,0,0,1,0,.2.8.8,0,0,1-.09.36.47.47,0,0,1-.2.25l-1.78,1c-.17.1-.3.11-.37,0a1.51,1.51,0,0,1-.18-.26l-1.45-3.47-1.2.7v4.3a1,1,0,0,1-.1.44.67.67,0,0,1-.25.31l-1.71,1a.18.18,0,0,1-.25,0,.44.44,0,0,1-.11-.32v-13a1,1,0,0,1,.11-.44.67.67,0,0,1,.25-.31Zm-1.48,7L171.7,53a3,3,0,0,0,.91-.85,2.38,2.38,0,0,0,.36-1.37q0-.86-.36-1a1.15,1.15,0,0,0-.91.2l-1.48.85Z" style="fill:#fafafa"/><path d="M117.2,104.59c0,.18,0,.42,0,.73s0,.64,0,1,0,.65,0,1,0,.56,0,.73a4.89,4.89,0,0,0,.12.82,1.23,1.23,0,0,0,.29.57.69.69,0,0,0,.49.23,1.46,1.46,0,0,0,.75-.24,2.87,2.87,0,0,0,.73-.58,3.55,3.55,0,0,0,.47-.67,3.18,3.18,0,0,0,.28-.67,4.87,4.87,0,0,0,.15-.61,2.55,2.55,0,0,1,.14-.54.78.78,0,0,1,.3-.3l1.72-1a.15.15,0,0,1,.2,0,.33.33,0,0,1,.08.26,7.63,7.63,0,0,1-.32,2.12,9.58,9.58,0,0,1-.87,2.06,9.3,9.3,0,0,1-1.28,1.8,6.54,6.54,0,0,1-1.6,1.32,3.48,3.48,0,0,1-1.68.54,2,2,0,0,1-1.26-.45,2.83,2.83,0,0,1-.81-1.28,7.12,7.12,0,0,1-.32-1.92c0-.54,0-1.12,0-1.75s0-1.24,0-1.82a11.1,11.1,0,0,1,1.12-4.49,9.57,9.57,0,0,1,1.26-1.91,6.61,6.61,0,0,1,1.69-1.4,3.55,3.55,0,0,1,1.6-.53,2.09,2.09,0,0,1,1.28.31,2.3,2.3,0,0,1,.87,1.07,4.33,4.33,0,0,1,.32,1.74.78.78,0,0,1-.08.36.59.59,0,0,1-.2.25l-1.72,1c-.14.08-.24.1-.3,0a.91.91,0,0,1-.14-.37,2,2,0,0,0-.15-.43.73.73,0,0,0-.75-.48,1.74,1.74,0,0,0-.73.27,2.54,2.54,0,0,0-.75.62,3.43,3.43,0,0,0-.49.8,4,4,0,0,0-.29.91A7.47,7.47,0,0,0,117.2,104.59Z" style="fill:#fafafa"/><path d="M124,100.58a10.79,10.79,0,0,1,.32-2.3,10.12,10.12,0,0,1,.8-2.2,9.53,9.53,0,0,1,1.25-1.89,6.56,6.56,0,0,1,1.7-1.41,3.5,3.5,0,0,1,1.7-.55,1.88,1.88,0,0,1,1.26.44,2.73,2.73,0,0,1,.8,1.27,6.5,6.5,0,0,1,.32,1.94c0,.56,0,1.16,0,1.79s0,1.23,0,1.79a10.79,10.79,0,0,1-.32,2.3,10.31,10.31,0,0,1-.8,2.2,8.48,8.48,0,0,1-1.26,1.9,6.52,6.52,0,0,1-1.7,1.4,3.52,3.52,0,0,1-1.7.56,1.82,1.82,0,0,1-1.25-.44,2.82,2.82,0,0,1-.8-1.28,6.56,6.56,0,0,1-.32-1.94c0-.54,0-1.12,0-1.75S124,101.17,124,100.58Zm5.73.17c0-.25,0-.52,0-.82s0-.6,0-.91,0-.61,0-.89,0-.54,0-.76a3.45,3.45,0,0,0-.13-.85,1.33,1.33,0,0,0-.32-.55.69.69,0,0,0-.5-.2A1.33,1.33,0,0,0,128,96a2.61,2.61,0,0,0-.7.58,3.41,3.41,0,0,0-.5.79,4.45,4.45,0,0,0-.32.91,5.58,5.58,0,0,0-.13,1c0,.24,0,.5,0,.79v1.8c0,.29,0,.55,0,.79a2.19,2.19,0,0,0,.45,1.41c.26.28.66.27,1.2,0a2.82,2.82,0,0,0,1.21-1.36A5.51,5.51,0,0,0,129.7,100.75Z" style="fill:#fafafa"/><path d="M139.59,100.39a.31.31,0,0,1-.36,0,.54.54,0,0,1-.17-.18l-3-5.15v6.79a1.06,1.06,0,0,1-.11.45.64.64,0,0,1-.25.3l-1.71,1a.2.2,0,0,1-.25,0,.42.42,0,0,1-.1-.32v-13a1,1,0,0,1,.1-.45.7.7,0,0,1,.25-.3l1.36-.79c.15-.08.27-.09.36,0a.75.75,0,0,1,.18.18l3,5.15v-6.8a1,1,0,0,1,.1-.44.74.74,0,0,1,.25-.31l1.71-1a.19.19,0,0,1,.25,0,.45.45,0,0,1,.11.33v13a1,1,0,0,1-.11.44.67.67,0,0,1-.25.31Z" style="fill:#fafafa"/><path d="M149.46,80.62a.2.2,0,0,1,.25,0,.5.5,0,0,1,.1.33v2.13a1.17,1.17,0,0,1-.1.44.65.65,0,0,1-.25.3l-3.91,2.26v2.76l3.65-2.11a.18.18,0,0,1,.24,0,.43.43,0,0,1,.11.32v2.13a1,1,0,0,1-.11.44.73.73,0,0,1-.24.31l-3.65,2.1v4.35a1,1,0,0,1-.1.44.65.65,0,0,1-.25.3l-1.71,1a.19.19,0,0,1-.25,0,.45.45,0,0,1-.11-.33v-13a1,1,0,0,1,.11-.44.67.67,0,0,1,.25-.31Z" style="fill:#fafafa"/><path d="M151.55,93.49a.19.19,0,0,1-.25,0,.41.41,0,0,1-.11-.32v-13a1.06,1.06,0,0,1,.11-.45.64.64,0,0,1,.25-.3l1.71-1a.2.2,0,0,1,.25,0,.42.42,0,0,1,.1.32v13a1,1,0,0,1-.1.45.65.65,0,0,1-.25.3Z" style="fill:#fafafa"/><path d="M159.33,74.91a4.62,4.62,0,0,1,1.55-.6,1.62,1.62,0,0,1,1.15.17,1.81,1.81,0,0,1,.73,1,5.77,5.77,0,0,1,.26,1.89,8.71,8.71,0,0,1-.41,2.74,7,7,0,0,1-1.15,2.18l1.62,3.86a.43.43,0,0,1,0,.19.94.94,0,0,1-.08.36.59.59,0,0,1-.2.25l-1.78,1c-.18.1-.3.11-.37,0a.76.76,0,0,1-.18-.26l-1.45-3.47-1.2.7v4.3a1,1,0,0,1-.11.44.73.73,0,0,1-.24.31l-1.72,1a.2.2,0,0,1-.25,0,.47.47,0,0,1-.1-.32v-13a1.22,1.22,0,0,1,.1-.45.65.65,0,0,1,.25-.3Zm-1.47,7,1.47-.85a2.74,2.74,0,0,0,.91-.85,2.38,2.38,0,0,0,.36-1.37q0-.84-.36-1a1.16,1.16,0,0,0-.91.2l-1.47.85Z" style="fill:#fafafa"/><path d="M168.34,80.24a.76.76,0,0,1-.17-.23l-1.23-2.61v6.66a1,1,0,0,1-.11.44.67.67,0,0,1-.25.31l-1.71,1a.2.2,0,0,1-.25,0,.44.44,0,0,1-.1-.32v-13a1,1,0,0,1,.1-.44.65.65,0,0,1,.25-.3l1.52-.88q.26-.15.39,0a1.09,1.09,0,0,1,.17.22l2.12,4.35,2.11-6.79c0-.09.09-.23.17-.42a1,1,0,0,1,.39-.45l1.52-.88a.19.19,0,0,1,.25,0,.44.44,0,0,1,.1.32v13a1,1,0,0,1-.1.44.59.59,0,0,1-.25.3l-1.71,1a.18.18,0,0,1-.25,0,.41.41,0,0,1-.1-.32V74.94L170,79a4.58,4.58,0,0,1-.18.44.69.69,0,0,1-.31.34l-.83.49A.25.25,0,0,1,168.34,80.24Z" style="fill:#fafafa"/><path d="M182,72.7a.2.2,0,0,1,.25,0,.45.45,0,0,1,.1.33v2.13a1,1,0,0,1-.1.44.65.65,0,0,1-.25.3l-6.19,3.58a.18.18,0,0,1-.25,0,.41.41,0,0,1-.11-.32v-13a1,1,0,0,1,.11-.44.67.67,0,0,1,.25-.31l6.08-3.51a.19.19,0,0,1,.25,0,.44.44,0,0,1,.11.32v2.14a1.06,1.06,0,0,1-.11.44.59.59,0,0,1-.25.3l-4,2.33v2.17l3.74-2.16a.18.18,0,0,1,.24,0,.43.43,0,0,1,.11.32v2.13a1,1,0,0,1-.11.44.73.73,0,0,1-.24.31l-3.74,2.16v2.25Z" style="fill:#fafafa"/><path d="M187.66,58.56A3.59,3.59,0,0,1,189.3,58a1.93,1.93,0,0,1,1.29.42,2.83,2.83,0,0,1,.85,1.29,7.06,7.06,0,0,1,.35,2.06c0,.28,0,.53,0,.77v1.33c0,.23,0,.48,0,.76a11.32,11.32,0,0,1-.35,2.47,10.5,10.5,0,0,1-.82,2.24,9.72,9.72,0,0,1-1.26,1.89,6.32,6.32,0,0,1-1.64,1.35l-3.52,2a.18.18,0,0,1-.25,0,.41.41,0,0,1-.11-.32v-13a1,1,0,0,1,.11-.44.67.67,0,0,1,.25-.31Zm1.71,4.55c-.05-1.52-.65-2-1.78-1.29l-1.33.77v7.64l1.4-.81a3.64,3.64,0,0,0,1.71-3.3c0-.28,0-.55,0-.8V63.88C189.38,63.64,189.38,63.38,189.37,63.11Z" style="fill:#fafafa"/></g><g id="Character-2" data-name="Character"><path d="M384.78,141.63a58.78,58.78,0,0,0-3.08-9.17s-29.87,3.53-37.59,3.68c-2.89,12.68-3.8,16.17-6.09,23.68A354.86,354.86,0,0,0,329.85,199c-.49,3.33,2.26,11.55,3.49,14.69,7.13,18.28,18.9,47.47,18.9,47.47a15.72,15.72,0,0,1,1,7.79,41.49,41.49,0,0,1-3.38,11.41,29.8,29.8,0,0,1-1.85,3.71c-1.63,3.61.67,4.25,4.33,2.63,3.86-1.71,6.32-5.81,7.37-8.77,1.58-4.42,4.6-11.38,4.47-13.63l0,0-.07-.25h0l-.57-4.44s-2.7-13.72-4.33-29.51c-1.36-13.16-1.68-16.76-8.05-26.84l17.24-36.72C373.9,156.79,384.78,141.63,384.78,141.63Z" style="fill:#ffa8a7"/><path d="M369.11,267.61a4.7,4.7,0,0,1,.85,2.64c-.65,3.26-4.18,5.53-5.6,7.58s-2.88,6.53-3.81,9.19a11.82,11.82,0,0,1-8.36,7.17,6.83,6.83,0,0,1-6.07-1.8S368.18,266.63,369.11,267.61Z" style="fill:#37474f"/><path d="M366.6,262.2c1.09,1.66,3.66,4.24,2.46,7.13-1,2.51-3.62,4.9-5.34,6.9a12.93,12.93,0,0,0-1.85,3.6c-.67,1.5-1.7,5.05-2.48,6.49A13,13,0,0,1,357,289.4a12.31,12.31,0,0,1-3.49,2.51c-2,.93-5.35,1.52-7.34.48a4.07,4.07,0,0,1-1.55-6.19c.53-.76,1.05-1.52,1.62-2.25a22.9,22.9,0,0,0,2.42-4.57c.46-1,2-5.2,2.31-6.16.62-2,1.53-4.82,1.24-6.14a7.19,7.19,0,0,1-.29-2,1.24,1.24,0,0,1,.77-.91,6.58,6.58,0,0,1,3.22-.27c.94.06,1.86.33,2.81.42a4.72,4.72,0,0,0,4.92-4.74l-.24-.92C364.29,257.91,365.38,260.33,366.6,262.2Z" style="fill:#455a64"/><path d="M358,190.57S343.59,189,332,179.79c0,0,9.77-38.11,12.4-44.9l32,15.87Z" style="fill:#455a64"/><path d="M356.48,184.17l-2.76-21.44s-6.66-3-9.09-11.75A20.36,20.36,0,0,0,355,159.26l4.22,28.63L358,190.57s-1.53-.17-4-.72Z" style="fill:#37474f"/><path d="M400.68,158.24a6.51,6.51,0,0,1,2.89-2.78c1.22-.58,5-.42,7.2,2.24s2.69,6.4,4.1,8.44,5.19,4.81,7.36,6.61a13.25,13.25,0,0,1,3.93,10.58,5.68,5.68,0,0,1-3.38,5Z" style="fill:#37474f"/><path d="M401.66,157.15c1.8-.86,5.06-.34,7.35,1.79,2,1.85,3.33,5.11,4.6,7.41a13,13,0,0,0,2.73,3c1.17,1.14,4.13,3.35,5.21,4.59a13.19,13.19,0,0,1,2,3.35,12.38,12.38,0,0,1,1.13,4.16c.15,2.23-.44,5.54-2.12,7a4.08,4.08,0,0,1-6.34-.71c-.52-.76-1.06-1.51-1.54-2.3a23.66,23.66,0,0,0-3.29-4.14,28.7,28.7,0,0,0-5.36-4.13c-.22-.12-.43-.26-.64-.37-2.4-1.14-4.83-2.11-5.17-3s-.91-8.37-2.8-10c-.5-.43-.24-1.15.22-1.82S399.86,158,401.66,157.15Z" style="fill:#455a64"/><path d="M381.87,131.93c3.45,10.34,4.53,16.17,4.31,28.42-.15,8-1.38,27-2.11,36.18s-.81,16.08-4.32,19-11,2-13.74-4.06-4.77-13.36-6.59-24.57a86.49,86.49,0,0,1-1.29-18.34l-1.1-30.3Z" style="fill:#ffa8a7"/><path d="M374.78,217.11c4.05.32,6.69-1.08,12.68-10.5S406,172.28,406,172.28s1.74-4.76-1.58-8.11c-3.72-3.75-6.14-1.73-6.14-1.73s-3.18,4-6.75,7.9c-3.27,3.59-7.45,7.07-10.3,10.45C379.23,183.14,374.78,217.11,374.78,217.11Z" style="fill:#ffa8a7"/><path d="M385.44,176.39s-1.25,22.76-2.31,30.79a78.38,78.38,0,0,0,3.62-16.8A130.81,130.81,0,0,0,388,174Z" style="fill:#f28f8f"/><path d="M381.87,131.93a59.48,59.48,0,0,1,4.82,19.35c.58,10.32-1.5,35.8-1.5,35.8s-2.52,3.86-12,4.83-13.49-1.12-13.49-1.12L355,159.26s-12-6.81-12.36-19.55Z" style="fill:#455a64"/><path d="M370.24,146.85h1.05a16.27,16.27,0,0,0,4.86,11.65,8.62,8.62,0,0,0,5.78,2.52c.07-8.9-.36-17.41-1.48-22.32l1-.23c2.43,10.67,1.83,40.06-.8,51.68-.37.15-.76.3-1.19.45,1.37-5.64,2.3-17.28,2.44-28.52a9.72,9.72,0,0,1-6.48-2.82A17.36,17.36,0,0,1,370.24,146.85Z" style="fill:#37474f"/><path d="M329.87,22.25a29,29,0,0,1,2-7.89c2.19-4.95,1.66-7.47-5-5.71-4.18,1.11-7.54,4.08-8.17,14.13-.18,2.89-.07,6.24,0,13a169.61,169.61,0,0,0,1.55,22,23.7,23.7,0,0,0,2.49,8.29c7.61,14.46,18.26,24.13,23.37,33.46,6.44-.44,15.38-11,10.59-17.67-5.47-2.32-20.57-19-22.67-26.89-1.39-5.26-4.88-17-4.7-23" style="fill:#ffa8a7"/><path d="M345.56,124.36c-.16-2.69,0-7.16,0-8.49-6.71-6.42-4.72-13.32-2.2-18.39,5.06-10.12,9.89-15.85,14.35-15.63l12.19,1.06c6.66.87,11.2,1.67,12.81,2,4.1.94,3.94,3.92,4.13,8.27.2,4.78.59,5.55-.61,13.46l-5.76,12.06-1.07,6.14c1.25,2.72,6.79,11,7.66,23.48,0,0-9.49,3.24-24.19,3.38-15.41.14-21.86-6.59-21.86-6.59Z" style="fill:#e14eca"/><path d="M373.52,112.48a10.87,10.87,0,0,1-10.34,5.74,11.49,11.49,0,0,1-9.76-6.11s.29,8,9.76,8S373.52,112.48,373.52,112.48Z" style="opacity:0.1"/><path d="M347.91,49.63l0-.38c1.09-11.7,7.8-13.88,20.07-12.62,9.06.94,17.28,5.17,20,13.21a20.62,20.62,0,0,1-2.48,18c-3.75,5.56-10.08,8.65-19,7.81h0C354.85,77.12,346.82,61.31,347.91,49.63Z" style="fill:#263238"/><path d="M425,62.72a16.71,16.71,0,0,0,4.93-6.07c1.83-3.83,2.68-9.7-1.6-12.32a3.91,3.91,0,0,0-1.61-.58c-1.89-.19-3.41,1.41-4.9,2.59a13.83,13.83,0,0,1-10.22,2.85c-3.92-.5-7.43-2.68-10.5-5.16A14.8,14.8,0,0,0,398,41.9a8.72,8.72,0,0,0-2.95-.65,14.73,14.73,0,0,0-9.37,2.8,4.46,4.46,0,0,0-2.07,2.75,2.1,2.1,0,0,0,1,2c.79.45,1.83,0,2.67-.1a9.09,9.09,0,0,1,6,1.28c1.72,1.17,2.79,3,3.94,4.77,3.63,5.44,9,10.16,15.46,11.1A16.74,16.74,0,0,0,425,62.72Z" style="fill:#263238"/><path d="M356,44.07c-2.4,1.13-5.74,6.58-6.58,18.59-.72,10.18,2.34,13,3.93,13.87s4.81.74,8,.51l-.57,6.09s-9.44,8.57-2.4,10.14c3.51.78,8.21-1,11.45-3.15a12.52,12.52,0,0,0,4.54-6l1.17-13.27s1.66,1.94,5-.47c2.76-2,4-5.68,2.17-7.88a4.46,4.46,0,0,0-7.2.75s-1.84,0-3.34-3.57a13.89,13.89,0,0,1-8.54-2.77A19.07,19.07,0,0,1,356,44.07Z" style="fill:#ffa8a7"/><path d="M362.8,60.69a1.3,1.3,0,0,0,1.08,1.5,1.33,1.33,0,1,0-1.08-1.5Z" style="fill:#263238"/><g style="opacity:0.5;mix-blend-mode:multiply"><path d="M360.42,69l-4.11.9a2.07,2.07,0,0,0,2.46,1.67A2.2,2.2,0,0,0,360.42,69Z" style="fill:#f28f8f"/></g><path d="M351.62,55.64l2.75-1.55a1.51,1.51,0,0,0-2.1-.64A1.66,1.66,0,0,0,351.62,55.64Z" style="fill:#263238"/><path d="M365,56.37l2.83,1.4a1.53,1.53,0,0,0-.66-2.1A1.66,1.66,0,0,0,365,56.37Z" style="fill:#263238"/><path d="M352,59.4a1.28,1.28,0,1,0,1.46-1.14A1.31,1.31,0,0,0,352,59.4Z" style="fill:#263238"/><g style="opacity:0.5;mix-blend-mode:multiply"><polygon points="358.18 59.24 357.26 66.91 353.33 65.28 358.18 59.24" style="fill:#f28f8f"/></g><g style="opacity:0.5;mix-blend-mode:multiply"><path d="M361.27,77c3.3-.12,10.2-1.43,11.5-4a6.94,6.94,0,0,1-2.67,3.17c-2.17,1.54-9,2.85-9,2.85Z" style="fill:#f28f8f"/></g><path d="M385.47,44.5,384,39a2.78,2.78,0,0,0-2.08,3.42A3,3,0,0,0,385.47,44.5Z" style="fill:#263238"/><path d="M386,44.93l3.13-4.74a2.75,2.75,0,0,0-3.93.69A3,3,0,0,0,386,44.93Z" style="fill:#263238"/><path d="M375.43,63.22l-.5,5.34h0a3.66,3.66,0,0,1-3.3-4l.46-4.93Z" style="fill:#263238"/><path d="M408.56,71c-9.2,18.71-16.06,24-22.32,35.7-10.43.48-11.2-15.66-6.41-22.3,0,0,15.21-15,17.78-22.78,2.36-7.16,5.78-19.68,5.6-25.68a4.12,4.12,0,0,0-1.16-2.66c-2-2.13-2-3.84-3.25-6.18-1-1.83-2.07-2.52-1.76-2.93a2.37,2.37,0,0,1,3.21-.24,12.6,12.6,0,0,1,2.43,2.33,27,27,0,0,0-1.89-8.09c-2.19-4.95-1.66-7.47,5-5.71,4.18,1.11,7.82,4.38,8.45,14.42a105.43,105.43,0,0,1-.07,12.78c-.72,7.74-1.68,14.82-2.63,21.22A42,42,0,0,1,408.56,71Z" style="fill:#ffa8a7"/><g id="Device-2" data-name="Device"><g id="Mobile-2" data-name="Mobile"><path d="M314.07,31.22s0,0,0,0h.07l.09,0,24.3-14a.9.9,0,0,0,.41-.7V1a.17.17,0,0,0,0-.1s0,0,0,0l0,0,0,0,0,0h-.09a.29.29,0,0,0-.19,0l-24.31,14a.61.61,0,0,0-.19.17.71.71,0,0,0-.1.14.61.61,0,0,0-.07.14s0,0,0,0l0,.15V30.94C313.86,31.11,314,31.22,314.07,31.22Z" style="fill:#455a64"/><path d="M339,1a1,1,0,0,0-.4-.65L338.11.1a.87.87,0,0,0-.8,0L313,14.13a.76.76,0,0,0-.23.21l-.06.09h0l1.27.74h0a.71.71,0,0,1,.1-.14.61.61,0,0,1,.19-.17l24.31-14C338.78.71,339,.79,339,1Z" style="fill:#37474f"/><path d="M314.82,23.41a1.6,1.6,0,0,0,.72-1.24.6.6,0,0,0-.06-.29c-.13-.22-.4-.1-.51,0a1.63,1.63,0,0,0-.72,1.25.58.58,0,0,0,.07.28C314.45,23.6,314.71,23.47,314.82,23.41Z" style="fill:#e14eca"/><path d="M337.94,9.28c0,.12.09.18.2.11a.42.42,0,0,0,.2-.34c0-.12-.09-.17-.2-.11A.42.42,0,0,0,337.94,9.28Z" style="fill:#263238"/><path d="M337.32,11.87c0,.11.08.15.18.1a.4.4,0,0,0,.17-.3c0-.12-.08-.16-.17-.11A.4.4,0,0,0,337.32,11.87Z" style="fill:#263238"/><path d="M337.31,8.88v2.26c0,.13.08.18.19.12a.41.41,0,0,0,.18-.33V8.67c0-.12-.08-.17-.18-.12A.41.41,0,0,0,337.31,8.88Z" style="fill:#263238"/><path d="M314.21,31.2c-.2.08-.35,0-.35-.26V15.56a.81.81,0,0,1,.12-.39l-1.27-.74a.86.86,0,0,0-.11.4V30.2a.85.85,0,0,0,.4.7l.46.27A.89.89,0,0,0,314.21,31.2Z" style="fill:#263238"/><path d="M332.53,3.91a.43.43,0,0,1-.4,0,.14.14,0,0,1-.08-.11V3.63s0-.08.09-.12L334.85,2a.46.46,0,0,1,.41,0,.13.13,0,0,1,.07.11.49.49,0,0,1,0,.17.15.15,0,0,1-.09.12Z" style="fill:#263238"/><path d="M332.53,3.74l2.71-1.57c.12-.06.13-.17,0-.23a.46.46,0,0,0-.41,0l-2.71,1.56c-.11.07-.12.17,0,.24A.43.43,0,0,0,332.53,3.74Z" style="fill:#455a64"/></g><g id="Window-2" data-name="Window"><path d="M315.82,28.63V15.45s0-.06,0-.09a.67.67,0,0,1,.26-.45l.08-.05L335.45,3.73l.93-.54a.26.26,0,0,1,.1,0c.14,0,.24.06.24.24V16.56a.65.65,0,0,1-.11.42.27.27,0,0,1-.07.08l-.05,0L316.17,28.83A.23.23,0,0,1,315.82,28.63Z" style="fill:#e14eca"/><path d="M315.82,28.63V15.45s0-.06,0-.09a.67.67,0,0,1,.26-.45l.08-.05L335.45,3.73l.93-.54a.26.26,0,0,1,.1,0c.14,0,.24.06.24.24V16.56a.65.65,0,0,1-.11.42.27.27,0,0,1-.07.08l-.05,0L316.17,28.83A.23.23,0,0,1,315.82,28.63Z" style="fill:#fff;opacity:0.8"/><path d="M323.53,22.35v-9.6a.53.53,0,0,1,.19-.33l0,0,4.31-2.48.67-.39a.13.13,0,0,1,.08,0c.1,0,.17,0,.17.17v9.53a.51.51,0,0,1-.08.31.12.12,0,0,1-.05.05l0,0-5.06,2.92A.17.17,0,0,1,323.53,22.35Z" style="fill:#e14eca;opacity:0.8"/><polygon points="325.21 16.73 325.88 15.31 323.87 12.34 324.03 12.24 326.05 14.95 328.54 9.64 328.76 9.52 325.84 16.49 328.84 19.58 328.75 19.63 326.31 17.63 324.02 22.36 323.87 22.44 326.05 17.41 325.21 16.73" style="opacity:0.15"/></g></g><path d="M329.34,31.92a4.07,4.07,0,0,1,1.16-2.66c2-2.13,2-3.83,3.24-6.18,1-1.83,2.07-2.52,1.76-2.93a2.35,2.35,0,0,0-3.2-.23,12,12,0,0,0-2.43,2.33" style="fill:#ffa8a7"/></g></g></g></g></svg>